<svg width="205" height="325" viewBox="0 0 205 325" fill="none" xmlns="http://www.w3.org/2000/svg">
<rect width="204.439" height="324.509" rx="19.0877" fill="url(#paint0_linear_1_57)"/>
<path d="M58.2534 55.7493C58.2534 56.7745 58.0507 57.6763 57.6453 58.4545C57.2399 59.2327 56.6597 59.8292 55.9047 60.244C55.1498 60.6541 54.2691 60.8591 53.2625 60.8591C51.7153 60.8591 50.5014 60.4047 49.6206 59.496C48.7445 58.5826 48.3065 57.3337 48.3065 55.7493C48.3065 54.1695 48.7445 52.937 49.6206 52.0515C50.4967 51.1661 51.7153 50.7234 53.2765 50.7234C54.8376 50.7234 56.0562 51.1708 56.9323 52.0655C57.813 52.9603 58.2534 54.1882 58.2534 55.7493ZM56.1494 55.7493C56.1494 54.6868 55.8978 53.855 55.3945 53.2538C54.8912 52.648 54.1852 52.3451 53.2765 52.3451C52.3538 52.3451 51.6408 52.6457 51.1375 53.2468C50.6342 53.8433 50.3825 54.6775 50.3825 55.7493C50.3825 56.8305 50.6388 57.6833 51.1515 58.3077C51.6687 58.9275 52.3724 59.2374 53.2625 59.2374C54.1852 59.2374 54.8958 58.9345 55.3945 58.3287C55.8978 57.7229 56.1494 56.8631 56.1494 55.7493ZM69.3524 53.9878C69.3524 54.6216 69.2079 55.1878 68.919 55.6864C68.63 56.185 68.2153 56.5718 67.6747 56.8468C67.1388 57.1171 66.5004 57.2522 65.7594 57.2522H63.3129V60.7193H61.2508V50.8702H65.6755C66.8546 50.8702 67.7609 51.1428 68.3947 51.688C69.0331 52.2286 69.3524 52.9952 69.3524 53.9878ZM67.2763 54.0228C67.2763 52.9882 66.6658 52.4709 65.4449 52.4709H63.3129V55.6654H65.5008C66.0693 55.6654 66.5074 55.5256 66.8149 55.246C67.1225 54.9618 67.2763 54.554 67.2763 54.0228ZM76.8304 59.2374C78.0746 59.2374 78.9391 58.6129 79.4237 57.364L81.2202 58.0421C80.8334 58.9927 80.2649 59.7011 79.5146 60.1671C78.769 60.6284 77.8743 60.8591 76.8304 60.8591C75.246 60.8591 74.0204 60.4117 73.1536 59.517C72.2915 58.6176 71.8604 57.3617 71.8604 55.7493C71.8604 54.1323 72.2775 52.8904 73.1116 52.0236C73.9458 51.1568 75.1551 50.7234 76.7395 50.7234C77.8952 50.7234 78.8366 50.9564 79.5635 51.4224C80.2905 51.8838 80.8008 52.5641 81.0944 53.4635L79.2769 53.9598C79.1232 53.4659 78.8203 53.0744 78.3682 52.7855C77.9209 52.4919 77.3919 52.3451 76.7815 52.3451C75.8495 52.3451 75.1411 52.634 74.6565 53.2119C74.1765 53.7897 73.9365 54.6356 73.9365 55.7493C73.9365 56.8817 74.1835 57.7462 74.6774 58.3427C75.1761 58.9391 75.8937 59.2374 76.8304 59.2374ZM91.2357 56.9306C91.2357 58.1563 90.8955 59.1186 90.2151 59.8176C89.5347 60.5119 88.5934 60.8591 87.3911 60.8591C86.2121 60.8591 85.2871 60.5096 84.616 59.8106C83.945 59.1116 83.6094 58.1516 83.6094 56.9306C83.6094 55.7144 83.945 54.759 84.616 54.0647C85.2871 53.3657 86.2261 53.0162 87.433 53.0162C88.668 53.0162 89.6093 53.354 90.257 54.0297C90.9095 54.7008 91.2357 55.6678 91.2357 56.9306ZM89.1806 56.9306C89.1806 56.0313 89.0338 55.3788 88.7402 54.9734C88.4466 54.568 88.0202 54.3653 87.461 54.3653C86.268 54.3653 85.6715 55.2204 85.6715 56.9306C85.6715 57.7741 85.816 58.4172 86.1049 58.8599C86.3985 59.298 86.8202 59.517 87.3701 59.517C88.5771 59.517 89.1806 58.6549 89.1806 56.9306ZM99.1331 60.7193C99.1145 60.6494 99.0912 60.4746 99.0632 60.195C99.0399 59.9108 99.0283 59.6754 99.0283 59.489H99.0003C98.5762 60.4024 97.77 60.8591 96.5817 60.8591C95.701 60.8591 95.0206 60.5166 94.5406 59.8316C94.0606 59.1419 93.8206 58.1796 93.8206 56.9446C93.8206 55.6911 94.0723 54.7241 94.5755 54.0437C95.0835 53.3587 95.8011 53.0162 96.7285 53.0162C97.2644 53.0162 97.7258 53.128 98.1126 53.3517C98.504 53.5754 98.8046 53.9086 99.0143 54.3513H99.0283L99.0143 53.107V50.3459H100.979V59.0696C100.979 59.5356 100.997 60.0855 101.034 60.7193H99.1331ZM99.0422 56.8957C99.0422 56.0802 98.9048 55.4534 98.6298 55.0154C98.3595 54.5726 97.9588 54.3513 97.4275 54.3513C96.9009 54.3513 96.5095 54.5657 96.2532 54.9944C95.9969 55.4184 95.8687 56.0685 95.8687 56.9446C95.8687 58.6595 96.3837 59.517 97.4135 59.517C97.9308 59.517 98.3316 59.291 98.6158 58.839C98.9001 58.3823 99.0422 57.7345 99.0422 56.8957ZM107.513 60.8591C106.376 60.8591 105.502 60.5236 104.892 59.8525C104.281 59.1768 103.976 58.1935 103.976 56.9027C103.976 55.6538 104.286 54.6938 104.906 54.0228C105.525 53.3517 106.404 53.0162 107.541 53.0162C108.627 53.0162 109.456 53.3773 110.029 54.0996C110.603 54.8173 110.889 55.8705 110.889 57.2592V57.3151H106.038C106.038 58.0514 106.173 58.6083 106.443 58.9857C106.718 59.3586 107.107 59.545 107.611 59.545C108.305 59.545 108.743 59.2444 108.925 58.6432L110.777 58.804C110.241 60.1741 109.153 60.8591 107.513 60.8591ZM107.513 54.2534C107.052 54.2534 106.695 54.4142 106.443 54.7357C106.196 55.0573 106.066 55.507 106.052 56.0848H108.988C108.951 55.4744 108.804 55.0177 108.547 54.7148C108.291 54.4072 107.946 54.2534 107.513 54.2534Z" fill="#EFE9FF"/>
<path d="M84.737 91.0788C83.3804 89.7223 81.1811 89.7223 79.8246 91.0788L77.3684 93.5351C76.0119 94.8916 76.0119 97.0909 77.3684 98.4474C78.7249 99.8039 80.9242 99.8039 82.2807 98.4474L83.5089 97.2193" stroke="white" stroke-width="2.38596" stroke-linecap="round" stroke-linejoin="round"/>
<path d="M82.2786 93.5351C83.6351 94.8916 85.8345 94.8916 87.191 93.5351L89.6471 91.0789C91.0037 89.7224 91.0037 87.5231 89.6471 86.1666C88.2907 84.81 86.0913 84.81 84.7348 86.1666L83.5068 87.3946" stroke="white" stroke-width="2.38596" stroke-linecap="round" stroke-linejoin="round"/>
<path d="M110.038 92.0576C110.038 93.9768 109.698 95.442 109.018 96.4533C108.344 97.4645 107.346 97.9701 106.025 97.9701C104.704 97.9701 103.712 97.4672 103.049 96.4614C102.385 95.4556 102.054 93.9877 102.054 92.0576C102.054 90.0841 102.374 88.6053 103.016 87.6212C103.663 86.6372 104.682 86.1451 106.074 86.1451C107.428 86.1451 108.426 86.6426 109.067 87.6375C109.714 88.6325 110.038 90.1058 110.038 92.0576ZM108.545 92.0576C108.545 90.3994 108.352 89.1979 107.966 88.453C107.586 87.7082 106.955 87.3358 106.074 87.3358C105.172 87.3358 104.522 87.7028 104.125 88.4367C103.734 89.1707 103.538 90.3777 103.538 92.0576C103.538 93.6887 103.736 94.882 104.133 95.6377C104.536 96.3934 105.172 96.7713 106.042 96.7713C106.906 96.7713 107.539 96.3853 107.942 95.6133C108.344 94.8412 108.545 93.656 108.545 92.0576ZM119.334 92.0576C119.334 93.9768 118.995 95.442 118.315 96.4533C117.641 97.4645 116.643 97.9701 115.322 97.9701C114.001 97.9701 113.009 97.4672 112.346 96.4614C111.682 95.4556 111.351 93.9877 111.351 92.0576C111.351 90.0841 111.671 88.6053 112.313 87.6212C112.96 86.6372 113.979 86.1451 115.371 86.1451C116.725 86.1451 117.722 86.6426 118.364 87.6375C119.011 88.6325 119.334 90.1058 119.334 92.0576ZM117.842 92.0576C117.842 90.3994 117.649 89.1979 117.263 88.453C116.883 87.7082 116.252 87.3358 115.371 87.3358C114.469 87.3358 113.819 87.7028 113.422 88.4367C113.031 89.1707 112.835 90.3777 112.835 92.0576C112.835 93.6887 113.033 94.882 113.43 95.6377C113.832 96.3934 114.469 96.7713 115.338 96.7713C116.203 96.7713 116.836 96.3853 117.239 95.6133C117.641 94.8412 117.842 93.656 117.842 92.0576Z" fill="white"/>
<rect x="48.3158" y="73.8597" width="100.121" height="36.8947" rx="8.94737" stroke="#EFE9FF" stroke-width="1.19298"/>
<path d="M54.6745 143.439L50.3825 135.854C50.4664 136.591 50.5084 137.182 50.5084 137.63V143.439H48.6769V133.59H51.0326L55.3875 141.237C55.3036 140.533 55.2617 139.892 55.2617 139.314V133.59H57.0931V143.439H54.6745ZM62.2434 143.578C61.5118 143.578 60.9409 143.38 60.5308 142.984C60.1207 142.583 59.9157 142.022 59.9157 141.3C59.9157 140.517 60.1697 139.92 60.6776 139.51C61.1902 139.1 61.9312 138.89 62.9005 138.881L64.5292 138.853V138.469C64.5292 137.975 64.443 137.609 64.2705 137.371C64.0981 137.129 63.8162 137.008 63.4247 137.008C63.0612 137.008 62.7933 137.092 62.6209 137.259C62.4531 137.422 62.3482 137.695 62.3063 138.077L60.2582 137.979C60.384 137.243 60.7195 136.686 61.2648 136.309C61.8147 135.927 62.5626 135.735 63.5086 135.735C64.4639 135.735 65.2002 135.971 65.7175 136.441C66.2348 136.912 66.4934 137.581 66.4934 138.448V141.202C66.4934 141.626 66.54 141.919 66.6332 142.083C66.7311 142.241 66.8918 142.32 67.1155 142.32C67.2646 142.32 67.4091 142.306 67.5489 142.278V143.341C67.4324 143.369 67.3275 143.394 67.2343 143.418C67.1411 143.441 67.0479 143.46 66.9547 143.474C66.8615 143.488 66.7613 143.499 66.6542 143.508C66.5516 143.518 66.4305 143.522 66.2907 143.522C65.7967 143.522 65.4309 143.401 65.1932 143.159C64.9602 142.917 64.8204 142.56 64.7738 142.09H64.7319C64.182 143.082 63.3525 143.578 62.2434 143.578ZM64.5292 139.937L63.5226 139.951C63.0659 139.969 62.742 140.02 62.551 140.104C62.3599 140.184 62.2131 140.307 62.1106 140.475C62.0127 140.643 61.9638 140.866 61.9638 141.146C61.9638 141.505 62.0453 141.773 62.2084 141.95C62.3762 142.122 62.5976 142.208 62.8725 142.208C63.1801 142.208 63.4597 142.124 63.7113 141.957C63.9676 141.789 64.168 141.558 64.3125 141.265C64.4569 140.966 64.5292 140.652 64.5292 140.321V139.937ZM74.3489 143.439V139.196C74.3489 137.867 73.9668 137.203 73.2025 137.203C72.8064 137.203 72.4825 137.406 72.2309 137.812C71.9839 138.217 71.8604 138.741 71.8604 139.384V143.439H69.8962V137.567C69.8962 137.161 69.8892 136.831 69.8752 136.574C69.8659 136.313 69.8542 136.08 69.8403 135.875H71.7136C71.7276 135.964 71.7462 136.201 71.7695 136.588C71.7928 136.97 71.8045 137.234 71.8045 137.378H71.8325C72.0748 136.8 72.3754 136.381 72.7342 136.12C73.0977 135.859 73.5311 135.728 74.0343 135.728C75.19 135.728 75.8914 136.278 76.1384 137.378H76.1803C76.4366 136.791 76.7442 136.369 77.103 136.113C77.4618 135.857 77.9185 135.728 78.4731 135.728C79.2094 135.728 79.7709 135.98 80.1577 136.483C80.5445 136.982 80.7379 137.7 80.7379 138.636V143.439H78.7876V139.196C78.7876 137.867 78.4055 137.203 77.6413 137.203C77.2591 137.203 76.9446 137.39 76.6976 137.763C76.4553 138.131 76.3225 138.641 76.2991 139.293V143.439H74.3489ZM87.1604 143.578C86.0234 143.578 85.1496 143.243 84.5391 142.572C83.9286 141.896 83.6234 140.913 83.6234 139.622C83.6234 138.373 83.9333 137.413 84.5531 136.742C85.1729 136.071 86.0513 135.735 87.1884 135.735C88.2742 135.735 89.1037 136.097 89.6769 136.819C90.2501 137.537 90.5366 138.59 90.5366 139.978V140.034H85.6855C85.6855 140.771 85.8206 141.328 86.0909 141.705C86.3659 142.078 86.755 142.264 87.2583 142.264C87.9526 142.264 88.3907 141.964 88.5724 141.363L90.4248 141.523C89.8889 142.893 88.8008 143.578 87.1604 143.578ZM87.1604 136.973C86.6991 136.973 86.3426 137.134 86.0909 137.455C85.8439 137.777 85.7135 138.226 85.6995 138.804H88.6353C88.5981 138.194 88.4513 137.737 88.195 137.434C87.9386 137.127 87.5938 136.973 87.1604 136.973Z" fill="#EFE9FF"/>
<path d="M86.7243 177.354C86.7243 178.414 86.3084 179.235 85.4766 179.817C84.6502 180.399 83.484 180.69 81.978 180.69C79.1781 180.69 77.5552 179.716 77.1094 177.77L78.6181 177.468C78.7921 178.159 79.1618 178.667 79.7272 178.993C80.2926 179.314 81.0619 179.474 82.0351 179.474C83.0409 179.474 83.8156 179.303 84.3593 178.961C84.9084 178.613 85.183 178.104 85.183 177.436C85.183 177.06 85.096 176.756 84.922 176.522C84.7535 176.288 84.5143 176.095 84.2044 175.943C83.8945 175.791 83.5248 175.663 83.0953 175.56C82.6658 175.457 82.19 175.345 81.6681 175.226C80.7602 175.024 80.0697 174.823 79.5967 174.622C79.1291 174.421 78.7594 174.198 78.4876 173.953C78.2158 173.703 78.0064 173.412 77.8597 173.081C77.7183 172.749 77.6476 172.369 77.6476 171.939C77.6476 170.955 78.0228 170.197 78.773 169.664C79.5287 169.131 80.6079 168.865 82.0106 168.865C83.3155 168.865 84.3131 169.066 85.0036 169.468C85.694 169.865 86.1779 170.545 86.4552 171.507L84.922 171.776C84.7535 171.167 84.4327 170.727 83.9597 170.455C83.4867 170.178 82.8316 170.039 81.9943 170.039C81.0755 170.039 80.3742 170.191 79.8903 170.496C79.4064 170.8 79.1645 171.254 79.1645 171.858C79.1645 172.211 79.2569 172.504 79.4418 172.738C79.632 172.967 79.9039 173.162 80.2573 173.325C80.6107 173.483 81.3147 173.679 82.3695 173.913C82.7228 173.994 83.0735 174.078 83.4215 174.165C83.7749 174.247 84.1119 174.348 84.4327 174.467C84.7535 174.581 85.0525 174.717 85.3298 174.875C85.6125 175.033 85.8571 175.226 86.0637 175.454C86.2703 175.682 86.4307 175.951 86.5449 176.261C86.6645 176.571 86.7243 176.935 86.7243 177.354ZM93.3626 170.308V180.526H91.8131V170.308H87.866V169.036H97.3097V170.308H93.3626ZM109.583 174.728C109.583 175.93 109.352 176.982 108.89 177.884C108.433 178.787 107.775 179.48 106.916 179.964C106.057 180.448 105.043 180.69 103.875 180.69C102.695 180.69 101.675 180.45 100.816 179.972C99.9628 179.493 99.3104 178.803 98.8592 177.9C98.4079 176.993 98.1823 175.935 98.1823 174.728C98.1823 172.89 98.6852 171.455 99.691 170.422C100.697 169.384 102.097 168.865 103.891 168.865C105.06 168.865 106.074 169.098 106.933 169.566C107.792 170.028 108.447 170.702 108.898 171.588C109.355 172.475 109.583 173.521 109.583 174.728ZM107.993 174.728C107.993 173.298 107.634 172.176 106.916 171.36C106.204 170.545 105.196 170.137 103.891 170.137C102.575 170.137 101.559 170.539 100.841 171.344C100.123 172.148 99.7644 173.276 99.7644 174.728C99.7644 176.169 100.126 177.313 100.849 178.161C101.578 179.004 102.586 179.425 103.875 179.425C105.201 179.425 106.218 179.018 106.925 178.202C107.637 177.381 107.993 176.223 107.993 174.728ZM120.65 172.494C120.65 173.581 120.294 174.445 119.581 175.087C118.875 175.728 117.912 176.049 116.694 176.049H113.318V180.526H111.761V169.036H116.597C117.885 169.036 118.883 169.338 119.59 169.941C120.296 170.545 120.65 171.395 120.65 172.494ZM119.084 172.51C119.084 171.026 118.192 170.284 116.409 170.284H113.318V174.818H116.474C118.214 174.818 119.084 174.049 119.084 172.51Z" fill="white"/>
<rect x="48.3158" y="156.579" width="102.07" height="36.8947" rx="8.94737" stroke="#EFE9FF" stroke-width="1.19298"/>
<path d="M56.8554 226.158V220.188C56.8554 220.053 56.8554 219.918 56.8554 219.783C56.8601 219.648 56.8834 219.068 56.9253 218.042C56.5944 219.296 56.3498 220.17 56.1913 220.664L54.4158 226.158H52.9479L51.1724 220.664L50.4245 218.042C50.4804 219.123 50.5084 219.839 50.5084 220.188V226.158H48.6769V216.309H51.438L53.1996 221.817L53.3533 222.348L53.6889 223.669L54.1292 222.09L55.9397 216.309H58.6868V226.158H56.8554ZM62.0756 217.232V215.785H64.0399V217.232H62.0756ZM62.0756 226.158V218.595H64.0399V226.158H62.0756ZM72.3917 226.158V221.915C72.3917 220.587 71.942 219.923 71.0426 219.923C70.5672 219.923 70.1828 220.128 69.8892 220.538C69.6003 220.943 69.4558 221.465 69.4558 222.104V226.158H67.4916V220.286C67.4916 219.881 67.4846 219.55 67.4706 219.294C67.4613 219.033 67.4496 218.8 67.4357 218.595H69.309C69.323 218.683 69.3416 218.921 69.3649 219.308C69.3882 219.69 69.3999 219.953 69.3999 220.097H69.4279C69.6935 219.52 70.0267 219.1 70.4274 218.839C70.8282 218.578 71.3059 218.448 71.8604 218.448C72.662 218.448 73.2771 218.695 73.7058 219.189C74.1345 219.683 74.3489 220.405 74.3489 221.356V226.158H72.3917ZM77.6748 217.232V215.785H79.639V217.232H77.6748ZM77.6748 226.158V218.595H79.639V226.158H77.6748ZM87.5435 226.158V221.915C87.5435 220.587 87.1613 219.923 86.3971 219.923C86.001 219.923 85.6771 220.125 85.4255 220.531C85.1785 220.936 85.055 221.461 85.055 222.104V226.158H83.0908V220.286C83.0908 219.881 83.0838 219.55 83.0698 219.294C83.0605 219.033 83.0488 218.8 83.0348 218.595H84.9082C84.9222 218.683 84.9408 218.921 84.9641 219.308C84.9874 219.69 84.9991 219.953 84.9991 220.097H85.027C85.2694 219.52 85.5699 219.1 85.9288 218.839C86.2922 218.578 86.7256 218.448 87.2289 218.448C88.3846 218.448 89.086 218.998 89.3329 220.097H89.3749C89.6312 219.51 89.9388 219.089 90.2976 218.832C90.6564 218.576 91.1131 218.448 91.6677 218.448C92.4039 218.448 92.9655 218.699 93.3523 219.203C93.7391 219.701 93.9325 220.419 93.9325 221.356V226.158H91.9822V221.915C91.9822 220.587 91.6001 219.923 90.8358 219.923C90.4537 219.923 90.1391 220.109 89.8922 220.482C89.6498 220.85 89.517 221.36 89.4937 222.013V226.158H87.5435ZM99.1107 218.595V222.838C99.1107 224.166 99.5581 224.83 100.453 224.83C100.928 224.83 101.31 224.627 101.599 224.222C101.893 223.812 102.04 223.287 102.04 222.649V218.595H104.004V224.466C104.004 225.109 104.022 225.673 104.06 226.158H102.186C102.13 225.487 102.103 224.986 102.103 224.655H102.068C101.807 225.228 101.473 225.645 101.068 225.906C100.667 226.167 100.19 226.298 99.635 226.298C98.8335 226.298 98.2183 226.053 97.7896 225.564C97.3609 225.07 97.1465 224.347 97.1465 223.397V218.595H99.1107ZM111.894 226.158V221.915C111.894 220.587 111.512 219.923 110.748 219.923C110.352 219.923 110.028 220.125 109.776 220.531C109.529 220.936 109.406 221.461 109.406 222.104V226.158H107.442V220.286C107.442 219.881 107.435 219.55 107.421 219.294C107.411 219.033 107.4 218.8 107.386 218.595H109.259C109.273 218.683 109.292 218.921 109.315 219.308C109.338 219.69 109.35 219.953 109.35 220.097H109.378C109.62 219.52 109.921 219.1 110.28 218.839C110.643 218.578 111.076 218.448 111.58 218.448C112.735 218.448 113.437 218.998 113.684 220.097H113.726C113.982 219.51 114.29 219.089 114.648 218.832C115.007 218.576 115.464 218.448 116.018 218.448C116.755 218.448 117.316 218.699 117.703 219.203C118.09 219.701 118.283 220.419 118.283 221.356V226.158H116.333V221.915C116.333 220.587 115.951 219.923 115.187 219.923C114.805 219.923 114.49 220.109 114.243 220.482C114.001 220.85 113.868 221.36 113.845 222.013V226.158H111.894ZM131.66 224.683C132.195 224.683 132.715 224.606 133.218 224.452C133.722 224.294 134.111 224.093 134.386 223.851V222.488H131.981V220.964H136.273V224.585C135.751 225.121 135.071 225.54 134.232 225.843C133.398 226.146 132.522 226.298 131.604 226.298C130.001 226.298 128.768 225.855 127.906 224.97C127.044 224.079 126.613 222.819 126.613 221.188C126.613 219.566 127.046 218.324 127.913 217.462C128.78 216.595 130.026 216.162 131.653 216.162C133.964 216.162 135.434 217.017 136.063 218.727L134.162 219.301C133.957 218.802 133.635 218.424 133.197 218.168C132.759 217.912 132.244 217.784 131.653 217.784C130.683 217.784 129.947 218.077 129.444 218.664C128.94 219.252 128.689 220.093 128.689 221.188C128.689 222.302 128.947 223.164 129.465 223.774C129.987 224.38 130.718 224.683 131.66 224.683ZM141.347 226.298C140.615 226.298 140.044 226.1 139.634 225.704C139.224 225.303 139.019 224.741 139.019 224.019C139.019 223.236 139.273 222.64 139.781 222.229C140.293 221.819 141.034 221.61 142.004 221.6L143.632 221.572V221.188C143.632 220.694 143.546 220.328 143.374 220.09C143.201 219.848 142.919 219.727 142.528 219.727C142.164 219.727 141.896 219.811 141.724 219.979C141.556 220.142 141.451 220.414 141.409 220.796L139.361 220.699C139.487 219.962 139.823 219.405 140.368 219.028C140.918 218.646 141.666 218.455 142.612 218.455C143.567 218.455 144.303 218.69 144.821 219.161C145.338 219.631 145.597 220.3 145.597 221.167V223.921C145.597 224.345 145.643 224.639 145.736 224.802C145.834 224.96 145.995 225.039 146.219 225.039C146.368 225.039 146.512 225.025 146.652 224.998V226.06C146.536 226.088 146.431 226.114 146.337 226.137C146.244 226.16 146.151 226.179 146.058 226.193C145.965 226.207 145.864 226.218 145.757 226.228C145.655 226.237 145.534 226.242 145.394 226.242C144.9 226.242 144.534 226.121 144.296 225.878C144.063 225.636 143.924 225.279 143.877 224.809H143.835C143.285 225.801 142.456 226.298 141.347 226.298ZM143.632 222.656L142.626 222.67C142.169 222.688 141.845 222.74 141.654 222.824C141.463 222.903 141.316 223.026 141.214 223.194C141.116 223.362 141.067 223.586 141.067 223.865C141.067 224.224 141.148 224.492 141.312 224.669C141.479 224.841 141.701 224.928 141.976 224.928C142.283 224.928 142.563 224.844 142.814 224.676C143.071 224.508 143.271 224.278 143.416 223.984C143.56 223.686 143.632 223.371 143.632 223.04V222.656ZM155.374 223.949C155.374 224.681 155.074 225.256 154.473 225.676C153.876 226.09 153.049 226.298 151.991 226.298C150.952 226.298 150.155 226.135 149.6 225.808C149.051 225.478 148.685 224.965 148.503 224.271L150.23 224.012C150.327 224.371 150.495 224.625 150.733 224.774C150.975 224.923 151.395 224.998 151.991 224.998C152.541 224.998 152.942 224.928 153.193 224.788C153.445 224.648 153.571 224.429 153.571 224.131C153.571 223.888 153.468 223.697 153.263 223.558C153.063 223.413 152.72 223.292 152.236 223.194C151.127 222.975 150.379 222.772 149.992 222.586C149.605 222.395 149.309 222.15 149.104 221.852C148.904 221.549 148.804 221.179 148.804 220.741C148.804 220.018 149.081 219.457 149.635 219.056C150.195 218.65 150.985 218.448 152.005 218.448C152.904 218.448 153.627 218.623 154.172 218.972C154.722 219.322 155.064 219.827 155.2 220.489L153.459 220.671C153.403 220.363 153.266 220.135 153.047 219.986C152.828 219.832 152.48 219.755 152.005 219.755C151.539 219.755 151.19 219.816 150.957 219.937C150.724 220.053 150.607 220.251 150.607 220.531C150.607 220.75 150.696 220.925 150.873 221.055C151.054 221.181 151.357 221.286 151.781 221.37C152.373 221.491 152.897 221.617 153.354 221.747C153.816 221.873 154.184 222.024 154.459 222.201C154.738 222.379 154.96 222.607 155.123 222.887C155.29 223.161 155.374 223.516 155.374 223.949Z" fill="#EFE9FF"/>
<path d="M84.9873 257.496C84.9873 259.415 84.6475 260.881 83.9679 261.892C83.2937 262.903 82.2961 263.409 80.9749 263.409C79.6538 263.409 78.6616 262.906 77.9983 261.9C77.335 260.894 77.0034 259.426 77.0034 257.496C77.0034 255.523 77.3241 254.044 77.9657 253.06C78.6126 252.076 79.632 251.584 81.0239 251.584C82.3776 251.584 83.3753 252.081 84.0168 253.076C84.6638 254.071 84.9873 255.544 84.9873 257.496ZM83.4949 257.496C83.4949 255.838 83.3019 254.637 82.9159 253.892C82.5353 253.147 81.9046 252.774 81.0239 252.774C80.1214 252.774 79.4717 253.141 79.0748 253.875C78.6833 254.609 78.4876 255.816 78.4876 257.496C78.4876 259.127 78.686 260.321 79.0829 261.076C79.4852 261.832 80.1214 262.21 80.9912 262.21C81.8557 262.21 82.4891 261.824 82.8914 261.052C83.2937 260.28 83.4949 259.095 83.4949 257.496ZM94.2841 257.496C94.2841 259.415 93.9443 260.881 93.2647 261.892C92.5906 262.903 91.5929 263.409 90.2718 263.409C88.9507 263.409 87.9585 262.906 87.2952 261.9C86.6319 260.894 86.3002 259.426 86.3002 257.496C86.3002 255.523 86.621 254.044 87.2625 253.06C87.9095 252.076 88.9289 251.584 90.3207 251.584C91.6745 251.584 92.6721 252.081 93.3137 253.076C93.9606 254.071 94.2841 255.544 94.2841 257.496ZM92.7917 257.496C92.7917 255.838 92.5987 254.637 92.2127 253.892C91.8322 253.147 91.2015 252.774 90.3207 252.774C89.4182 252.774 88.7685 253.141 88.3716 253.875C87.9802 254.609 87.7845 255.816 87.7845 257.496C87.7845 259.127 87.9829 260.321 88.3798 261.076C88.7821 261.832 89.4182 262.21 90.2881 262.21C91.1526 262.21 91.7859 261.824 92.1883 261.052C92.5906 260.28 92.7917 259.095 92.7917 257.496ZM103.581 257.496C103.581 259.415 103.241 260.881 102.562 261.892C101.887 262.903 100.89 263.409 99.5687 263.409C98.2475 263.409 97.2553 262.906 96.592 261.9C95.9288 260.894 95.5971 259.426 95.5971 257.496C95.5971 255.523 95.9179 254.044 96.5594 253.06C97.2064 252.076 98.2258 251.584 99.6176 251.584C100.971 251.584 101.969 252.081 102.611 253.076C103.258 254.071 103.581 255.544 103.581 257.496ZM102.089 257.496C102.089 255.838 101.896 254.637 101.51 253.892C101.129 253.147 100.498 252.774 99.6176 252.774C98.7151 252.774 98.0654 253.141 97.6685 253.875C97.2771 254.609 97.0814 255.816 97.0814 257.496C97.0814 259.127 97.2798 260.321 97.6767 261.076C98.079 261.832 98.7151 262.21 99.585 262.21C100.449 262.21 101.083 261.824 101.485 261.052C101.887 260.28 102.089 259.095 102.089 257.496Z" fill="white"/>
<rect x="48.3158" y="239.298" width="84.0702" height="36.8947" rx="8.94737" stroke="#EFE9FF" stroke-width="1.19298"/>
<defs>
<linearGradient id="paint0_linear_1_57" x1="-24.6311" y1="-83.5133" x2="364.739" y2="356.217" gradientUnits="userSpaceOnUse">
<stop stop-color="#5841CA"/>
<stop offset="1" stop-color="#A190E0"/>
</linearGradient>
</defs>
</svg>
