<svg width="123" height="191" viewBox="0 0 123 191" fill="none" xmlns="http://www.w3.org/2000/svg">
<g filter="url(#filter0_f_1_190)">
<rect x="4" y="4" width="114.114" height="182.958" rx="10.8229" fill="#215DD3"/>
<path d="M36.8456 35.3262C36.8456 35.8896 36.7342 36.385 36.5114 36.8127C36.2886 37.2403 35.9698 37.5681 35.555 37.796C35.1402 38.0213 34.6562 38.134 34.1031 38.134C33.253 38.134 32.5859 37.8843 32.1019 37.385C31.6205 36.8831 31.3798 36.1968 31.3798 35.3262C31.3798 34.4582 31.6205 33.7809 32.1019 33.2943C32.5833 32.8078 33.253 32.5645 34.1108 32.5645C34.9686 32.5645 35.6382 32.8104 36.1196 33.302C36.6036 33.7937 36.8456 34.4684 36.8456 35.3262ZM35.6894 35.3262C35.6894 34.7424 35.5511 34.2853 35.2746 33.955C34.998 33.6221 34.6101 33.4557 34.1108 33.4557C33.6038 33.4557 33.212 33.6208 32.9354 33.9511C32.6589 34.2789 32.5206 34.7373 32.5206 35.3262C32.5206 35.9203 32.6614 36.3889 32.9431 36.732C33.2273 37.0726 33.614 37.2429 34.1031 37.2429C34.6101 37.2429 35.0006 37.0764 35.2746 36.7435C35.5511 36.4107 35.6894 35.9382 35.6894 35.3262ZM42.9443 34.3583C42.9443 34.7065 42.8649 35.0177 42.7061 35.2916C42.5474 35.5656 42.3195 35.7782 42.0224 35.9293C41.728 36.0778 41.3772 36.152 40.97 36.152H39.6257V38.0572H38.4926V32.6452H40.9239C41.5718 32.6452 42.0698 32.795 42.4181 33.0946C42.7689 33.3916 42.9443 33.8129 42.9443 34.3583ZM41.8035 34.3775C41.8035 33.809 41.4681 33.5248 40.7972 33.5248H39.6257V35.2801H40.8279C41.1403 35.2801 41.381 35.2033 41.55 35.0497C41.719 34.8935 41.8035 34.6694 41.8035 34.3775ZM47.0534 37.2429C47.7371 37.2429 48.2121 36.8997 48.4784 36.2135L49.4655 36.5861C49.253 37.1084 48.9406 37.4977 48.5283 37.7537C48.1186 38.0072 47.627 38.134 47.0534 38.134C46.1827 38.134 45.5093 37.8882 45.033 37.3965C44.5593 36.9023 44.3224 36.2122 44.3224 35.3262C44.3224 34.4377 44.5516 33.7553 45.01 33.279C45.4683 32.8027 46.1328 32.5645 47.0034 32.5645C47.6385 32.5645 48.1557 32.6926 48.5552 32.9486C48.9547 33.2022 49.235 33.576 49.3964 34.0702L48.3977 34.3429C48.3132 34.0715 48.1468 33.8564 47.8984 33.6976C47.6526 33.5363 47.3619 33.4557 47.0265 33.4557C46.5143 33.4557 46.1251 33.6144 45.8588 33.9319C45.5951 34.2495 45.4632 34.7142 45.4632 35.3262C45.4632 35.9485 45.5989 36.4235 45.8703 36.7512C46.1443 37.079 46.5387 37.2429 47.0534 37.2429ZM54.9689 35.9753C54.9689 36.6488 54.7819 37.1776 54.4081 37.5617C54.0342 37.9432 53.517 38.134 52.8563 38.134C52.2085 38.134 51.7002 37.9419 51.3315 37.5578C50.9627 37.1737 50.7784 36.6462 50.7784 35.9753C50.7784 35.307 50.9627 34.7821 51.3315 34.4005C51.7002 34.0164 52.2162 33.8244 52.8794 33.8244C53.5579 33.8244 54.0752 34.01 54.4311 34.3813C54.7896 34.7501 54.9689 35.2814 54.9689 35.9753ZM53.8396 35.9753C53.8396 35.4811 53.759 35.1226 53.5976 34.8999C53.4363 34.6771 53.202 34.5657 52.8947 34.5657C52.2392 34.5657 51.9114 35.0356 51.9114 35.9753C51.9114 36.4388 51.9908 36.7922 52.1496 37.0355C52.3109 37.2762 52.5426 37.3965 52.8448 37.3965C53.508 37.3965 53.8396 36.9228 53.8396 35.9753ZM59.3084 38.0572C59.2982 38.0187 59.2854 37.9227 59.27 37.7691C59.2572 37.6129 59.2508 37.4836 59.2508 37.3811H59.2354C59.0024 37.883 58.5594 38.134 57.9065 38.134C57.4225 38.134 57.0486 37.9458 56.7849 37.5694C56.5211 37.1904 56.3893 36.6616 56.3893 35.983C56.3893 35.2942 56.5275 34.7629 56.8041 34.389C57.0832 34.0126 57.4775 33.8244 57.9871 33.8244C58.2816 33.8244 58.5351 33.8858 58.7476 34.0088C58.9627 34.1317 59.1279 34.3148 59.2431 34.558H59.2508L59.2431 33.8743V32.3571H60.3224V37.1507C60.3224 37.4068 60.3327 37.7089 60.3532 38.0572H59.3084ZM59.2585 35.9561C59.2585 35.508 59.1829 35.1636 59.0319 34.9229C58.8833 34.6797 58.6631 34.558 58.3712 34.558C58.0819 34.558 57.8668 34.6758 57.7259 34.9114C57.5851 35.1444 57.5147 35.5016 57.5147 35.983C57.5147 36.9253 57.7976 37.3965 58.3635 37.3965C58.6478 37.3965 58.868 37.2723 59.0242 37.0239C59.1804 36.773 59.2585 36.4171 59.2585 35.9561ZM63.913 38.134C63.2882 38.134 62.8081 37.9496 62.4726 37.5809C62.1372 37.2096 61.9695 36.6693 61.9695 35.96C61.9695 35.2737 62.1397 34.7462 62.4803 34.3775C62.8209 34.0088 63.3036 33.8244 63.9284 33.8244C64.525 33.8244 64.9808 34.0228 65.2957 34.4197C65.6107 34.8141 65.7682 35.3928 65.7682 36.1559V36.1866H63.1025C63.1025 36.5912 63.1768 36.8972 63.3253 37.1046C63.4764 37.3094 63.6902 37.4119 63.9668 37.4119C64.3483 37.4119 64.589 37.2467 64.6889 36.9164L65.7067 37.0047C65.4123 37.7576 64.8143 38.134 63.913 38.134ZM63.913 34.5042C63.6595 34.5042 63.4636 34.5926 63.3253 34.7693C63.1896 34.946 63.1179 35.1931 63.1102 35.5106H64.7234C64.703 35.1751 64.6223 34.9242 64.4815 34.7578C64.3406 34.5887 64.1511 34.5042 63.913 34.5042Z" fill="#EFE9FF"/>
<path d="M51.3981 55.3707C50.6527 54.6254 49.4442 54.6254 48.6988 55.3707L47.3491 56.7204C46.6038 57.4658 46.6038 58.6743 47.3491 59.4197C48.0945 60.1651 49.303 60.1651 50.0484 59.4197L50.7232 58.7448" stroke="white" stroke-width="1.31106" stroke-linecap="round" stroke-linejoin="round"/>
<path d="M50.0472 56.7204C50.7926 57.4658 52.0011 57.4658 52.7465 56.7204L54.0961 55.3707C54.8415 54.6254 54.8415 53.4169 54.0961 52.6715C53.3507 51.9261 52.1422 51.9261 51.3968 52.6715L50.722 53.3463" stroke="white" stroke-width="1.31106" stroke-linecap="round" stroke-linejoin="round"/>
<path d="M65.3003 56.3864C65.3003 57.4409 65.1136 58.2461 64.7402 58.8017C64.3698 59.3574 63.8216 59.6352 63.0956 59.6352C62.3697 59.6352 61.8245 59.3589 61.46 58.8062C61.0955 58.2535 60.9133 57.4469 60.9133 56.3864C60.9133 55.3019 61.0896 54.4894 61.4421 53.9486C61.7976 53.4079 62.3577 53.1375 63.1225 53.1375C63.8664 53.1375 64.4146 53.4109 64.7671 53.9576C65.1226 54.5043 65.3003 55.3139 65.3003 56.3864ZM64.4803 56.3864C64.4803 55.4752 64.3742 54.815 64.1621 54.4057C63.953 53.9964 63.6065 53.7918 63.1225 53.7918C62.6266 53.7918 62.2696 53.9934 62.0515 54.3968C61.8364 54.8001 61.7289 55.4633 61.7289 56.3864C61.7289 57.2826 61.8379 57.9384 62.056 58.3536C62.2771 58.7689 62.6266 58.9765 63.1046 58.9765C63.5796 58.9765 63.9276 58.7644 64.1487 58.3402C64.3698 57.9159 64.4803 57.2647 64.4803 56.3864ZM70.4089 56.3864C70.4089 57.4409 70.2221 58.2461 69.8487 58.8017C69.4783 59.3574 68.9301 59.6352 68.2041 59.6352C67.4782 59.6352 66.933 59.3589 66.5685 58.8062C66.204 58.2535 66.0218 57.4469 66.0218 56.3864C66.0218 55.3019 66.1981 54.4894 66.5506 53.9486C66.9061 53.4079 67.4662 53.1375 68.231 53.1375C68.9749 53.1375 69.5231 53.4109 69.8756 53.9576C70.2311 54.5043 70.4089 55.3139 70.4089 56.3864ZM69.5888 56.3864C69.5888 55.4752 69.4828 54.815 69.2706 54.4057C69.0615 53.9964 68.715 53.7918 68.231 53.7918C67.7351 53.7918 67.3781 53.9934 67.16 54.3968C66.9449 54.8001 66.8374 55.4633 66.8374 56.3864C66.8374 57.2826 66.9464 57.9384 67.1645 58.3536C67.3856 58.7689 67.7351 58.9765 68.2131 58.9765C68.6881 58.9765 69.0361 58.7644 69.2572 58.3402C69.4783 57.9159 69.5888 57.2647 69.5888 56.3864Z" fill="white"/>
<rect x="31.385" y="45.6292" width="55.5747" height="20.8329" rx="4.91646" stroke="#EFE9FF" stroke-width="0.655528"/>
<path d="M34.879 84.6127L32.5206 80.4452C32.5667 80.8498 32.5897 81.175 32.5897 81.4208V84.6127H31.5834V79.2008H32.8778L35.2708 83.4028C35.2247 83.0161 35.2016 82.664 35.2016 82.3465V79.2008H36.208V84.6127H34.879ZM39.038 84.6895C38.636 84.6895 38.3223 84.5807 38.097 84.363C37.8716 84.1428 37.7589 83.8343 37.7589 83.4374C37.7589 83.0072 37.8985 82.6794 38.1776 82.4541C38.4593 82.2287 38.8664 82.1135 39.399 82.1084L40.294 82.093V81.8818C40.294 81.6103 40.2466 81.4093 40.1519 81.2787C40.0571 81.1456 39.9022 81.079 39.6871 81.079C39.4874 81.079 39.3402 81.1251 39.2454 81.2173C39.1532 81.3069 39.0956 81.4567 39.0726 81.6667L37.9472 81.6129C38.0163 81.2083 38.2007 80.9023 38.5003 80.6949C38.8024 80.4849 39.2134 80.3799 39.7332 80.3799C40.2581 80.3799 40.6627 80.5092 40.947 80.7679C41.2312 81.0265 41.3733 81.394 41.3733 81.8702V83.3836C41.3733 83.6166 41.3989 83.7779 41.4501 83.8675C41.5039 83.9546 41.5922 83.9981 41.7152 83.9981C41.7971 83.9981 41.8765 83.9905 41.9533 83.9751V84.5589C41.8893 84.5743 41.8317 84.5884 41.7805 84.6012C41.7292 84.614 41.678 84.6242 41.6268 84.6319C41.5756 84.6396 41.5206 84.646 41.4617 84.6511C41.4053 84.6562 41.3387 84.6588 41.2619 84.6588C40.9905 84.6588 40.7895 84.5922 40.6589 84.4591C40.5309 84.3259 40.454 84.13 40.4284 83.8714H40.4054C40.1032 84.4168 39.6474 84.6895 39.038 84.6895ZM40.294 82.6884L39.7409 82.696C39.4899 82.7063 39.312 82.7345 39.207 82.7806C39.102 82.8241 39.0213 82.8919 38.965 82.9841C38.9112 83.0763 38.8844 83.1992 38.8844 83.3529C38.8844 83.55 38.9292 83.6973 39.0188 83.7946C39.111 83.8893 39.2326 83.9367 39.3837 83.9367C39.5527 83.9367 39.7063 83.8906 39.8446 83.7984C39.9854 83.7062 40.0955 83.5795 40.1749 83.4182C40.2543 83.2543 40.294 83.0814 40.294 82.8996V82.6884ZM45.6898 84.6127V82.2812C45.6898 81.5514 45.4798 81.1865 45.0599 81.1865C44.8422 81.1865 44.6643 81.2979 44.526 81.5207C44.3903 81.7435 44.3224 82.0316 44.3224 82.3849V84.6127H43.2431V81.3863C43.2431 81.1635 43.2393 80.9817 43.2316 80.8409C43.2265 80.6975 43.2201 80.5694 43.2124 80.4568H44.2418C44.2494 80.5054 44.2597 80.636 44.2725 80.8485C44.2853 81.0585 44.2917 81.2032 44.2917 81.2826H44.3071C44.4402 80.965 44.6054 80.7346 44.8025 80.5912C45.0023 80.4478 45.2404 80.3761 45.517 80.3761C46.152 80.3761 46.5374 80.6783 46.6731 81.2826H46.6962C46.837 80.9599 47.006 80.7282 47.2032 80.5873C47.4003 80.4465 47.6513 80.3761 47.956 80.3761C48.3606 80.3761 48.6691 80.5144 48.8817 80.7909C49.0942 81.0649 49.2005 81.4593 49.2005 81.9739V84.6127H48.1288V82.2812C48.1288 81.5514 47.9189 81.1865 47.4989 81.1865C47.2889 81.1865 47.1161 81.289 46.9804 81.4938C46.8472 81.6961 46.7743 81.9765 46.7615 82.335V84.6127H45.6898ZM52.7296 84.6895C52.1048 84.6895 51.6247 84.5052 51.2892 84.1364C50.9538 83.7651 50.786 83.2248 50.786 82.5155C50.786 81.8293 50.9563 81.3018 51.2969 80.933C51.6375 80.5643 52.1201 80.3799 52.7449 80.3799C53.3416 80.3799 53.7974 80.5784 54.1123 80.9753C54.4273 81.3696 54.5848 81.9483 54.5848 82.7114V82.7421H51.9191C51.9191 83.1467 51.9934 83.4527 52.1419 83.6601C52.293 83.865 52.5068 83.9674 52.7834 83.9674C53.1649 83.9674 53.4056 83.8023 53.5055 83.4719L54.5233 83.5603C54.2288 84.3131 53.6309 84.6895 52.7296 84.6895ZM52.7296 81.0598C52.4761 81.0598 52.2802 81.1481 52.1419 81.3248C52.0062 81.5015 51.9345 81.7486 51.9268 82.0661H53.54C53.5195 81.7307 53.4389 81.4797 53.298 81.3133C53.1572 81.1443 52.9677 81.0598 52.7296 81.0598Z" fill="#EFE9FF"/>
<path d="M52.49 104.358C52.49 104.941 52.2615 105.392 51.8044 105.711C51.3503 106.031 50.7095 106.191 49.882 106.191C48.3434 106.191 47.4517 105.656 47.2067 104.587L48.0357 104.421C48.1313 104.8 48.3345 105.08 48.6452 105.259C48.9559 105.435 49.3786 105.523 49.9133 105.523C50.466 105.523 50.8917 105.429 51.1905 105.241C51.4922 105.05 51.6431 104.77 51.6431 104.403C51.6431 104.197 51.5953 104.03 51.4997 103.901C51.4071 103.773 51.2756 103.667 51.1053 103.583C50.935 103.499 50.7319 103.429 50.4959 103.372C50.2599 103.316 49.9985 103.254 49.7117 103.189C49.2128 103.078 48.8334 102.967 48.5735 102.857C48.3166 102.746 48.1134 102.624 47.964 102.489C47.8147 102.352 47.6997 102.192 47.619 102.01C47.5413 101.828 47.5025 101.619 47.5025 101.383C47.5025 100.842 47.7086 100.425 48.1209 100.132C48.5361 99.8396 49.1291 99.6932 49.8999 99.6932C50.6169 99.6932 51.1651 99.8038 51.5445 100.025C51.9239 100.243 52.1898 100.616 52.3421 101.145L51.4997 101.293C51.4071 100.958 51.2308 100.716 50.9709 100.567C50.711 100.415 50.351 100.339 49.8909 100.339C49.3861 100.339 49.0007 100.422 48.7348 100.589C48.4689 100.757 48.336 101.006 48.336 101.338C48.336 101.532 48.3868 101.693 48.4883 101.822C48.5929 101.947 48.7423 102.055 48.9364 102.144C49.1306 102.231 49.5175 102.339 50.0971 102.467C50.2913 102.512 50.4839 102.558 50.6751 102.606C50.8693 102.651 51.0545 102.706 51.2308 102.772C51.4071 102.835 51.5714 102.909 51.7237 102.996C51.8791 103.082 52.0135 103.189 52.127 103.314C52.2406 103.439 52.3287 103.587 52.3914 103.758C52.4571 103.928 52.49 104.128 52.49 104.358ZM56.1377 100.486V106.101H55.2862V100.486H53.1174V99.7873H58.3065V100.486H56.1377ZM65.0507 102.915C65.0507 103.575 64.9237 104.153 64.6698 104.649C64.4188 105.145 64.0573 105.526 63.5853 105.792C63.1133 106.058 62.5562 106.191 61.9139 106.191C61.2656 106.191 60.7054 106.059 60.2334 105.797C59.7644 105.534 59.4059 105.154 59.158 104.658C58.91 104.159 58.786 103.578 58.786 102.915C58.786 101.905 59.0624 101.117 59.615 100.549C60.1677 99.9785 60.937 99.6932 61.9228 99.6932C62.5651 99.6932 63.1223 99.8217 63.5943 100.079C64.0663 100.333 64.4263 100.703 64.6743 101.19C64.9252 101.677 65.0507 102.252 65.0507 102.915ZM64.1768 102.915C64.1768 102.129 63.9797 101.513 63.5853 101.064C63.194 100.616 62.6398 100.392 61.9228 100.392C61.1999 100.392 60.6412 100.613 60.2469 101.056C59.8525 101.498 59.6554 102.118 59.6554 102.915C59.6554 103.707 59.854 104.336 60.2514 104.802C60.6517 105.265 61.2058 105.496 61.9139 105.496C62.6428 105.496 63.2014 105.272 63.5898 104.824C63.9812 104.373 64.1768 103.737 64.1768 102.915ZM71.1316 101.687C71.1316 102.285 70.9359 102.76 70.5446 103.112C70.1562 103.465 69.6274 103.641 68.9582 103.641H67.103V106.101H66.2471V99.7873H68.9045C69.6125 99.7873 70.1607 99.9531 70.549 100.285C70.9374 100.616 71.1316 101.084 71.1316 101.687ZM70.2712 101.696C70.2712 100.881 69.7813 100.473 68.8014 100.473H67.103V102.964H68.8372C69.7932 102.964 70.2712 102.542 70.2712 101.696Z" fill="white"/>
<rect x="31.385" y="92.1847" width="55.8098" height="20.8329" rx="4.91646" stroke="#EFE9FF" stroke-width="0.655528"/>
<path d="M36.0774 131.168V127.888C36.0774 127.814 36.0774 127.74 36.0774 127.665C36.0799 127.591 36.0927 127.272 36.1158 126.709C35.934 127.398 35.7995 127.878 35.7125 128.149L34.7369 131.168H33.9302L32.9546 128.149L32.5437 126.709C32.5744 127.303 32.5897 127.696 32.5897 127.888V131.168H31.5834V125.756H33.1006L34.0685 128.783L34.153 129.075L34.3374 129.801L34.5794 128.933L35.5742 125.756H37.0837V131.168H36.0774ZM38.9458 126.263V125.468H40.0251V126.263H38.9458ZM38.9458 131.168V127.012H40.0251V131.168H38.9458ZM44.6143 131.168V128.837C44.6143 128.107 44.3672 127.742 43.873 127.742C43.6118 127.742 43.4006 127.855 43.2393 128.08C43.0805 128.303 43.0011 128.59 43.0011 128.941V131.168H41.9218V127.942C41.9218 127.719 41.918 127.537 41.9103 127.396C41.9052 127.253 41.8988 127.125 41.8911 127.012H42.9205C42.9281 127.061 42.9384 127.192 42.9512 127.404C42.964 127.614 42.9704 127.759 42.9704 127.838H42.9858C43.1317 127.521 43.3148 127.29 43.535 127.147C43.7552 127.003 44.0177 126.932 44.3224 126.932C44.7629 126.932 45.1009 127.067 45.3364 127.339C45.572 127.61 45.6898 128.007 45.6898 128.53V131.168H44.6143ZM47.5174 126.263V125.468H48.5967V126.263H47.5174ZM47.5174 131.168V127.012H48.5967V131.168H47.5174ZM52.9401 131.168V128.837C52.9401 128.107 52.7301 127.742 52.3101 127.742C52.0925 127.742 51.9145 127.854 51.7762 128.076C51.6405 128.299 51.5727 128.587 51.5727 128.941V131.168H50.4934V127.942C50.4934 127.719 50.4895 127.537 50.4818 127.396C50.4767 127.253 50.4703 127.125 50.4626 127.012H51.492C51.4997 127.061 51.5099 127.192 51.5227 127.404C51.5355 127.614 51.5419 127.759 51.5419 127.838H51.5573C51.6905 127.521 51.8556 127.29 52.0528 127.147C52.2525 127.003 52.4907 126.932 52.7672 126.932C53.4023 126.932 53.7876 127.234 53.9234 127.838H53.9464C54.0872 127.515 54.2562 127.284 54.4534 127.143C54.6506 127.002 54.9015 126.932 55.2062 126.932C55.6108 126.932 55.9194 127.07 56.1319 127.346C56.3445 127.62 56.4507 128.015 56.4507 128.53V131.168H55.3791V128.837C55.3791 128.107 55.1691 127.742 54.7492 127.742C54.5392 127.742 54.3663 127.845 54.2306 128.049C54.0975 128.252 54.0245 128.532 54.0117 128.891V131.168H52.9401ZM59.2961 127.012V129.344C59.2961 130.074 59.5419 130.438 60.0336 130.438C60.2948 130.438 60.5048 130.327 60.6635 130.104C60.8248 129.879 60.9055 129.591 60.9055 129.24V127.012H61.9848V130.239C61.9848 130.592 61.9951 130.902 62.0155 131.168H60.9862C60.9554 130.8 60.9401 130.524 60.9401 130.342H60.9209C60.7775 130.657 60.5944 130.887 60.3716 131.03C60.1514 131.173 59.8889 131.245 59.5842 131.245C59.1438 131.245 58.8058 131.111 58.5702 130.842C58.3346 130.57 58.2168 130.173 58.2168 129.651V127.012H59.2961ZM66.3205 131.168V128.837C66.3205 128.107 66.1106 127.742 65.6906 127.742C65.4729 127.742 65.295 127.854 65.1567 128.076C65.021 128.299 64.9531 128.587 64.9531 128.941V131.168H63.8738V127.942C63.8738 127.719 63.87 127.537 63.8623 127.396C63.8572 127.253 63.8508 127.125 63.8431 127.012H64.8725C64.8802 127.061 64.8904 127.192 64.9032 127.404C64.916 127.614 64.9224 127.759 64.9224 127.838H64.9378C65.0709 127.521 65.2361 127.29 65.4333 127.147C65.633 127.003 65.8711 126.932 66.1477 126.932C66.7827 126.932 67.1681 127.234 67.3038 127.838H67.3269C67.4677 127.515 67.6367 127.284 67.8339 127.143C68.031 127.002 68.282 126.932 68.5867 126.932C68.9913 126.932 69.2999 127.07 69.5124 127.346C69.7249 127.62 69.8312 128.015 69.8312 128.53V131.168H68.7596V128.837C68.7596 128.107 68.5496 127.742 68.1296 127.742C67.9197 127.742 67.7468 127.845 67.6111 128.049C67.4779 128.252 67.405 128.532 67.3922 128.891V131.168H66.3205ZM77.1813 130.358C77.4758 130.358 77.7613 130.316 78.0378 130.231C78.3144 130.144 78.5282 130.034 78.6793 129.901V129.152H77.358V128.314H79.7164V130.304C79.4296 130.599 79.0557 130.829 78.5948 130.995C78.1364 131.162 77.655 131.245 77.1506 131.245C76.2697 131.245 75.5924 131.002 75.1187 130.515C74.645 130.026 74.4081 129.334 74.4081 128.437C74.4081 127.546 74.6462 126.864 75.1225 126.39C75.5988 125.914 76.2838 125.676 77.1775 125.676C78.4475 125.676 79.2554 126.146 79.6011 127.085L78.5564 127.4C78.4437 127.126 78.267 126.919 78.0263 126.778C77.7856 126.637 77.5027 126.567 77.1775 126.567C76.6448 126.567 76.2403 126.728 75.9637 127.051C75.6872 127.373 75.5489 127.836 75.5489 128.437C75.5489 129.049 75.691 129.523 75.9752 129.858C76.262 130.191 76.664 130.358 77.1813 130.358ZM82.5041 131.245C82.1021 131.245 81.7884 131.136 81.5631 130.919C81.3378 130.698 81.2251 130.39 81.2251 129.993C81.2251 129.563 81.3646 129.235 81.6438 129.01C81.9254 128.784 82.3326 128.669 82.8652 128.664L83.7601 128.649V128.437C83.7601 128.166 83.7128 127.965 83.618 127.834C83.5233 127.701 83.3684 127.635 83.1533 127.635C82.9535 127.635 82.8063 127.681 82.7116 127.773C82.6194 127.862 82.5618 128.012 82.5387 128.222L81.4133 128.168C81.4824 127.764 81.6668 127.458 81.9664 127.25C82.2686 127.04 82.6795 126.936 83.1994 126.936C83.7243 126.936 84.1289 127.065 84.4131 127.323C84.6973 127.582 84.8395 127.95 84.8395 128.426V129.939C84.8395 130.172 84.8651 130.333 84.9163 130.423C84.9701 130.51 85.0584 130.554 85.1813 130.554C85.2632 130.554 85.3426 130.546 85.4194 130.531V131.115C85.3554 131.13 85.2978 131.144 85.2466 131.157C85.1954 131.17 85.1442 131.18 85.093 131.187C85.0418 131.195 84.9867 131.202 84.9278 131.207C84.8715 131.212 84.8049 131.214 84.7281 131.214C84.4566 131.214 84.2556 131.148 84.125 131.015C83.997 130.881 83.9202 130.686 83.8946 130.427H83.8715C83.5694 130.972 83.1136 131.245 82.5041 131.245ZM83.7601 129.244L83.207 129.252C82.9561 129.262 82.7781 129.29 82.6731 129.336C82.5682 129.38 82.4875 129.448 82.4312 129.54C82.3774 129.632 82.3505 129.755 82.3505 129.908C82.3505 130.106 82.3953 130.253 82.4849 130.35C82.5771 130.445 82.6988 130.492 82.8498 130.492C83.0188 130.492 83.1725 130.446 83.3107 130.354C83.4516 130.262 83.5617 130.135 83.6411 129.974C83.7205 129.81 83.7601 129.637 83.7601 129.455V129.244ZM90.2122 129.955C90.2122 130.357 90.0471 130.673 89.7167 130.903C89.389 131.131 88.9345 131.245 88.3532 131.245C87.7822 131.245 87.3443 131.155 87.0396 130.976C86.7374 130.794 86.5364 130.513 86.4365 130.131L87.3853 129.989C87.439 130.186 87.5312 130.326 87.6618 130.408C87.795 130.49 88.0254 130.531 88.3532 130.531C88.6554 130.531 88.8756 130.492 89.0138 130.415C89.1521 130.339 89.2213 130.218 89.2213 130.054C89.2213 129.921 89.1649 129.816 89.0523 129.739C88.9421 129.66 88.7539 129.593 88.4876 129.54C87.8782 129.419 87.4672 129.308 87.2547 129.206C87.0421 129.101 86.8795 128.966 86.7669 128.802C86.6568 128.636 86.6017 128.432 86.6017 128.192C86.6017 127.795 86.7541 127.486 87.0588 127.266C87.3661 127.043 87.8001 126.932 88.3609 126.932C88.8551 126.932 89.252 127.028 89.5516 127.22C89.8537 127.412 90.0419 127.69 90.1162 128.053L89.1598 128.153C89.1291 127.984 89.0535 127.859 88.9332 127.777C88.8128 127.692 88.6221 127.65 88.3609 127.65C88.1048 127.65 87.9128 127.683 87.7847 127.75C87.6567 127.814 87.5927 127.923 87.5927 128.076C87.5927 128.197 87.6413 128.293 87.7386 128.364C87.8385 128.433 88.0049 128.491 88.238 128.537C88.5632 128.604 88.8512 128.673 89.1022 128.745C89.3557 128.814 89.558 128.897 89.7091 128.994C89.8627 129.092 89.9843 129.217 90.074 129.371C90.1661 129.522 90.2122 129.716 90.2122 129.955Z" fill="#EFE9FF"/>
<path d="M51.5355 149.497C51.5355 150.552 51.3488 151.357 50.9754 151.913C50.6049 152.468 50.0567 152.746 49.3308 152.746C48.6048 152.746 48.0596 152.47 47.6952 151.917C47.3307 151.365 47.1485 150.558 47.1485 149.497C47.1485 148.413 47.3247 147.6 47.6772 147.06C48.0328 146.519 48.5929 146.249 49.3577 146.249C50.1015 146.249 50.6497 146.522 51.0023 147.069C51.3578 147.615 51.5355 148.425 51.5355 149.497ZM50.7155 149.497C50.7155 148.586 50.6094 147.926 50.3973 147.517C50.1882 147.108 49.8416 146.903 49.3577 146.903C48.8618 146.903 48.5048 147.105 48.2867 147.508C48.0716 147.911 47.964 148.574 47.964 149.497C47.964 150.394 48.0731 151.049 48.2912 151.465C48.5122 151.88 48.8618 152.088 49.3398 152.088C49.8148 152.088 50.1628 151.875 50.3839 151.451C50.6049 151.027 50.7155 150.376 50.7155 149.497ZM56.644 149.497C56.644 150.552 56.4573 151.357 56.0839 151.913C55.7134 152.468 55.1652 152.746 54.4393 152.746C53.7134 152.746 53.1681 152.47 52.8037 151.917C52.4392 151.365 52.257 150.558 52.257 149.497C52.257 148.413 52.4332 147.6 52.7858 147.06C53.1413 146.519 53.7014 146.249 54.4662 146.249C55.2101 146.249 55.7583 146.522 56.1108 147.069C56.4663 147.615 56.644 148.425 56.644 149.497ZM55.824 149.497C55.824 148.586 55.7179 147.926 55.5058 147.517C55.2967 147.108 54.9502 146.903 54.4662 146.903C53.9703 146.903 53.6133 147.105 53.3952 147.508C53.1801 147.911 53.0726 148.574 53.0726 149.497C53.0726 150.394 53.1816 151.049 53.3997 151.465C53.6207 151.88 53.9703 152.088 54.4483 152.088C54.9233 152.088 55.2713 151.875 55.4924 151.451C55.7134 151.027 55.824 150.376 55.824 149.497ZM61.7525 149.497C61.7525 150.552 61.5658 151.357 61.1924 151.913C60.822 152.468 60.2738 152.746 59.5478 152.746C58.8219 152.746 58.2767 152.47 57.9122 151.917C57.5477 151.365 57.3655 150.558 57.3655 149.497C57.3655 148.413 57.5418 147.6 57.8943 147.06C58.2498 146.519 58.8099 146.249 59.5747 146.249C60.3186 146.249 60.8668 146.522 61.2193 147.069C61.5748 147.615 61.7525 148.425 61.7525 149.497ZM60.9325 149.497C60.9325 148.586 60.8264 147.926 60.6143 147.517C60.4052 147.108 60.0587 146.903 59.5747 146.903C59.0788 146.903 58.7218 147.105 58.5037 147.508C58.2886 147.911 58.1811 148.574 58.1811 149.497C58.1811 150.394 58.2901 151.049 58.5082 151.465C58.7293 151.88 59.0788 152.088 59.5568 152.088C60.0318 152.088 60.3798 151.875 60.6009 151.451C60.822 151.027 60.9325 150.376 60.9325 149.497Z" fill="white"/>
<rect x="31.385" y="138.74" width="46.8098" height="20.8329" rx="4.91646" stroke="#EFE9FF" stroke-width="0.655528"/>
</g>
<defs>
<filter id="filter0_f_1_190" x="0" y="0" width="122.114" height="190.958" filterUnits="userSpaceOnUse" color-interpolation-filters="sRGB">
<feFlood flood-opacity="0" result="BackgroundImageFix"/>
<feBlend mode="normal" in="SourceGraphic" in2="BackgroundImageFix" result="shape"/>
<feGaussianBlur stdDeviation="2" result="effect1_foregroundBlur_1_190"/>
</filter>
</defs>
</svg>
