<svg width="162" height="274" viewBox="0 0 162 274" fill="none" xmlns="http://www.w3.org/2000/svg">
<rect width="171" height="274" rx="16" fill="url(#paint0_linear_1_38)"/>
<path d="M48.8301 46.834C48.8301 47.6934 48.6602 48.4492 48.3203 49.1016C47.9805 49.7539 47.4941 50.2539 46.8613 50.6016C46.2285 50.9453 45.4902 51.1172 44.6465 51.1172C43.3496 51.1172 42.332 50.7363 41.5938 49.9746C40.8594 49.209 40.4922 48.1621 40.4922 46.834C40.4922 45.5098 40.8594 44.4766 41.5938 43.7344C42.3281 42.9922 43.3496 42.6211 44.6582 42.6211C45.9668 42.6211 46.9883 42.9961 47.7227 43.7461C48.4609 44.4961 48.8301 45.5254 48.8301 46.834ZM47.0664 46.834C47.0664 45.9434 46.8555 45.2461 46.4336 44.7422C46.0117 44.2344 45.4199 43.9805 44.6582 43.9805C43.8848 43.9805 43.2871 44.2324 42.8652 44.7363C42.4434 45.2363 42.2324 45.9355 42.2324 46.834C42.2324 47.7402 42.4473 48.4551 42.877 48.9785C43.3105 49.498 43.9004 49.7578 44.6465 49.7578C45.4199 49.7578 46.0156 49.5039 46.4336 48.9961C46.8555 48.4883 47.0664 47.7676 47.0664 46.834ZM58.1336 45.3574C58.1336 45.8887 58.0125 46.3633 57.7703 46.7812C57.5281 47.1992 57.1805 47.5234 56.7273 47.7539C56.2781 47.9805 55.743 48.0938 55.1219 48.0938H53.0711V51H51.3426V42.7441H55.0516C56.0398 42.7441 56.7996 42.9727 57.3309 43.4297C57.866 43.8828 58.1336 44.5254 58.1336 45.3574ZM56.3934 45.3867C56.3934 44.5195 55.8816 44.0859 54.8582 44.0859H53.0711V46.7637H54.9051C55.3816 46.7637 55.7488 46.6465 56.0066 46.4121C56.2645 46.1738 56.3934 45.832 56.3934 45.3867ZM64.402 49.7578C65.4449 49.7578 66.1695 49.2344 66.5758 48.1875L68.0816 48.7559C67.7574 49.5527 67.2809 50.1465 66.652 50.5371C66.027 50.9238 65.277 51.1172 64.402 51.1172C63.0738 51.1172 62.0465 50.7422 61.3199 49.9922C60.5973 49.2383 60.2359 48.1855 60.2359 46.834C60.2359 45.4785 60.5855 44.4375 61.2848 43.7109C61.984 42.9844 62.9977 42.6211 64.3258 42.6211C65.2945 42.6211 66.0836 42.8164 66.693 43.207C67.3023 43.5938 67.7301 44.1641 67.9762 44.918L66.4527 45.334C66.3238 44.9199 66.0699 44.5918 65.691 44.3496C65.316 44.1035 64.8727 43.9805 64.3609 43.9805C63.5797 43.9805 62.9859 44.2227 62.5797 44.707C62.1773 45.1914 61.9762 45.9004 61.9762 46.834C61.9762 47.7832 62.1832 48.5078 62.5973 49.0078C63.0152 49.5078 63.6168 49.7578 64.402 49.7578ZM76.477 47.8242C76.477 48.8516 76.1918 49.6582 75.6215 50.2441C75.0512 50.8262 74.2621 51.1172 73.2543 51.1172C72.266 51.1172 71.4906 50.8242 70.9281 50.2383C70.3656 49.6523 70.0844 48.8477 70.0844 47.8242C70.0844 46.8047 70.3656 46.0039 70.9281 45.4219C71.4906 44.8359 72.2777 44.543 73.2895 44.543C74.3246 44.543 75.1137 44.8262 75.6566 45.3926C76.2035 45.9551 76.477 46.7656 76.477 47.8242ZM74.7543 47.8242C74.7543 47.0703 74.6313 46.5234 74.3852 46.1836C74.1391 45.8438 73.7816 45.6738 73.3129 45.6738C72.3129 45.6738 71.8129 46.3906 71.8129 47.8242C71.8129 48.5312 71.934 49.0703 72.1762 49.4414C72.4223 49.8086 72.7758 49.9922 73.2367 49.9922C74.2484 49.9922 74.7543 49.2695 74.7543 47.8242ZM83.0969 51C83.0812 50.9414 83.0617 50.7949 83.0383 50.5605C83.0187 50.3223 83.009 50.125 83.009 49.9688H82.9855C82.6301 50.7344 81.9543 51.1172 80.9582 51.1172C80.2199 51.1172 79.6496 50.8301 79.2473 50.2559C78.8449 49.6777 78.6437 48.8711 78.6437 47.8359C78.6437 46.7852 78.8547 45.9746 79.2766 45.4043C79.7023 44.8301 80.3039 44.543 81.0812 44.543C81.5305 44.543 81.9172 44.6367 82.2414 44.8242C82.5695 45.0117 82.8215 45.291 82.9973 45.6621H83.009L82.9973 44.6191V42.3047H84.6437V49.6172C84.6437 50.0078 84.6594 50.4688 84.6906 51H83.0969ZM83.0207 47.7949C83.0207 47.1113 82.9055 46.5859 82.675 46.2188C82.4484 45.8477 82.1125 45.6621 81.6672 45.6621C81.2258 45.6621 80.8977 45.8418 80.6828 46.2012C80.468 46.5566 80.3605 47.1016 80.3605 47.8359C80.3605 49.2734 80.7922 49.9922 81.6555 49.9922C82.0891 49.9922 82.425 49.8027 82.6633 49.4238C82.9016 49.041 83.0207 48.498 83.0207 47.7949ZM90.1211 51.1172C89.168 51.1172 88.4355 50.8359 87.9238 50.2734C87.4121 49.707 87.1562 48.8828 87.1562 47.8008C87.1562 46.7539 87.416 45.9492 87.9355 45.3867C88.4551 44.8242 89.1914 44.543 90.1445 44.543C91.0547 44.543 91.75 44.8457 92.2305 45.4512C92.7109 46.0527 92.9512 46.9355 92.9512 48.0996V48.1465H88.8848C88.8848 48.7637 88.998 49.2305 89.2246 49.5469C89.4551 49.8594 89.7812 50.0156 90.2031 50.0156C90.7852 50.0156 91.1523 49.7637 91.3047 49.2598L92.8574 49.3945C92.4082 50.543 91.4961 51.1172 90.1211 51.1172ZM90.1211 45.5801C89.7344 45.5801 89.4355 45.7148 89.2246 45.9844C89.0176 46.2539 88.9082 46.6309 88.8965 47.1152H91.3574C91.3262 46.6035 91.2031 46.2207 90.9883 45.9668C90.7734 45.709 90.4844 45.5801 90.1211 45.5801Z" fill="#EFE9FF"/>
<path d="M71.0294 76.9705C69.8923 75.8335 68.0487 75.8335 66.9117 76.9705L64.8528 79.0294C63.7157 80.1665 63.7157 82.0101 64.8528 83.1471C65.9899 84.2842 67.8334 84.2842 68.9705 83.1471L70 82.1177" stroke="white" stroke-width="2" stroke-linecap="round" stroke-linejoin="round"/>
<path d="M68.9688 79.0295C70.1058 80.1665 71.9494 80.1665 73.0865 79.0295L75.1453 76.9706C76.2824 75.8335 76.2824 73.9899 75.1453 72.8529C74.0082 71.7158 72.1647 71.7158 71.0276 72.8529L69.9982 73.8823" stroke="white" stroke-width="2" stroke-linecap="round" stroke-linejoin="round"/>
<path d="M92.2374 78.1807C92.2374 79.7894 91.9526 81.0176 91.3829 81.8652C90.8178 82.7129 89.9816 83.1367 88.8741 83.1367C87.7667 83.1367 86.935 82.7152 86.379 81.8721C85.823 81.029 85.545 79.7985 85.545 78.1807C85.545 76.5264 85.8139 75.2868 86.3517 74.4619C86.894 73.637 87.7485 73.2246 88.9152 73.2246C90.0499 73.2246 90.8862 73.6416 91.424 74.4756C91.9663 75.3096 92.2374 76.5446 92.2374 78.1807ZM90.9865 78.1807C90.9865 76.7907 90.8247 75.7835 90.5011 75.1592C90.1821 74.5348 89.6534 74.2227 88.9152 74.2227C88.1587 74.2227 87.6141 74.5303 87.2814 75.1455C86.9532 75.7607 86.7892 76.7725 86.7892 78.1807C86.7892 79.5479 86.9555 80.5482 87.2882 81.1816C87.6254 81.8151 88.1587 82.1318 88.8878 82.1318C89.6124 82.1318 90.1434 81.8083 90.4806 81.1611C90.8178 80.514 90.9865 79.5205 90.9865 78.1807ZM100.03 78.1807C100.03 79.7894 99.7456 81.0176 99.1759 81.8652C98.6108 82.7129 97.7745 83.1367 96.6671 83.1367C95.5597 83.1367 94.728 82.7152 94.172 81.8721C93.616 81.029 93.338 79.7985 93.338 78.1807C93.338 76.5264 93.6069 75.2868 94.1447 74.4619C94.687 73.637 95.5415 73.2246 96.7081 73.2246C97.8429 73.2246 98.6792 73.6416 99.2169 74.4756C99.7592 75.3096 100.03 76.5446 100.03 78.1807ZM98.7794 78.1807C98.7794 76.7907 98.6176 75.7835 98.2941 75.1592C97.9751 74.5348 97.4464 74.2227 96.7081 74.2227C95.9516 74.2227 95.407 74.5303 95.0743 75.1455C94.7462 75.7607 94.5822 76.7725 94.5822 78.1807C94.5822 79.5479 94.7485 80.5482 95.0812 81.1816C95.4184 81.8151 95.9516 82.1318 96.6808 82.1318C97.4054 82.1318 97.9363 81.8083 98.2736 81.1611C98.6108 80.514 98.7794 79.5205 98.7794 78.1807Z" fill="white"/>
<rect x="40.5" y="62.5" width="83.9981" height="31" rx="7.5" stroke="#EFE9FF"/>
<path d="M45.8301 121L42.2324 114.643C42.3027 115.26 42.3379 115.756 42.3379 116.131V121H40.8027V112.744H42.7773L46.4277 119.154C46.3574 118.564 46.3223 118.027 46.3223 117.543V112.744H47.8574V121H45.8301ZM52.1746 121.117C51.5613 121.117 51.0828 120.951 50.7391 120.619C50.3953 120.283 50.2234 119.812 50.2234 119.207C50.2234 118.551 50.4363 118.051 50.8621 117.707C51.2918 117.363 51.9129 117.188 52.7254 117.18L54.0906 117.156V116.834C54.0906 116.42 54.0184 116.113 53.8738 115.914C53.7293 115.711 53.493 115.609 53.1648 115.609C52.8602 115.609 52.6355 115.68 52.491 115.82C52.3504 115.957 52.2625 116.186 52.2273 116.506L50.5105 116.424C50.616 115.807 50.8973 115.34 51.3543 115.023C51.8152 114.703 52.4422 114.543 53.2352 114.543C54.0359 114.543 54.6531 114.74 55.0867 115.135C55.5203 115.529 55.7371 116.09 55.7371 116.816V119.125C55.7371 119.48 55.7762 119.727 55.8543 119.863C55.9363 119.996 56.0711 120.062 56.2586 120.062C56.3836 120.062 56.5047 120.051 56.6219 120.027V120.918C56.5242 120.941 56.4363 120.963 56.3582 120.982C56.2801 121.002 56.202 121.018 56.1238 121.029C56.0457 121.041 55.9617 121.051 55.8719 121.059C55.7859 121.066 55.6844 121.07 55.5672 121.07C55.1531 121.07 54.8465 120.969 54.6473 120.766C54.452 120.562 54.3348 120.264 54.2957 119.869H54.2605C53.7996 120.701 53.1043 121.117 52.1746 121.117ZM54.0906 118.064L53.2469 118.076C52.8641 118.092 52.5926 118.135 52.4324 118.205C52.2723 118.271 52.1492 118.375 52.0633 118.516C51.9812 118.656 51.9402 118.844 51.9402 119.078C51.9402 119.379 52.0086 119.604 52.1453 119.752C52.2859 119.896 52.4715 119.969 52.702 119.969C52.9598 119.969 53.1941 119.898 53.4051 119.758C53.6199 119.617 53.7879 119.424 53.909 119.178C54.0301 118.928 54.0906 118.664 54.0906 118.387V118.064ZM62.3219 121V117.443C62.3219 116.33 62.0016 115.773 61.3609 115.773C61.0289 115.773 60.7574 115.943 60.5465 116.283C60.3395 116.623 60.2359 117.062 60.2359 117.602V121H58.5895V116.078C58.5895 115.738 58.5836 115.461 58.5719 115.246C58.5641 115.027 58.5543 114.832 58.5426 114.66H60.1129C60.1246 114.734 60.1402 114.934 60.1598 115.258C60.1793 115.578 60.1891 115.799 60.1891 115.92H60.2125C60.4156 115.436 60.6676 115.084 60.9684 114.865C61.273 114.646 61.6363 114.537 62.0582 114.537C63.027 114.537 63.6148 114.998 63.8219 115.92H63.857C64.0719 115.428 64.3297 115.074 64.6305 114.859C64.9312 114.645 65.3141 114.537 65.7789 114.537C66.3961 114.537 66.8668 114.748 67.191 115.17C67.5152 115.588 67.6773 116.189 67.6773 116.975V121H66.0426V117.443C66.0426 116.33 65.7223 115.773 65.0816 115.773C64.7613 115.773 64.4977 115.93 64.2906 116.242C64.0875 116.551 63.9762 116.979 63.9566 117.525V121H62.3219ZM73.0609 121.117C72.1078 121.117 71.3754 120.836 70.8637 120.273C70.352 119.707 70.0961 118.883 70.0961 117.801C70.0961 116.754 70.3559 115.949 70.8754 115.387C71.3949 114.824 72.1313 114.543 73.0844 114.543C73.9945 114.543 74.6898 114.846 75.1703 115.451C75.6508 116.053 75.891 116.936 75.891 118.1V118.146H71.8246C71.8246 118.764 71.9379 119.23 72.1645 119.547C72.3949 119.859 72.7211 120.016 73.143 120.016C73.725 120.016 74.0922 119.764 74.2445 119.26L75.7973 119.395C75.348 120.543 74.4359 121.117 73.0609 121.117ZM73.0609 115.58C72.6742 115.58 72.3754 115.715 72.1645 115.984C71.9574 116.254 71.848 116.631 71.8363 117.115H74.2973C74.266 116.604 74.143 116.221 73.9281 115.967C73.7133 115.709 73.4242 115.58 73.0609 115.58Z" fill="#EFE9FF"/>
<path d="M72.6953 150.341C72.6953 151.229 72.3467 151.918 71.6494 152.405C70.9567 152.893 69.9792 153.137 68.7168 153.137C66.3698 153.137 65.0094 152.321 64.6357 150.689L65.9004 150.437C66.0462 151.015 66.3561 151.441 66.8301 151.715C67.304 151.984 67.9489 152.118 68.7646 152.118C69.6077 152.118 70.2572 151.975 70.7129 151.688C71.1732 151.396 71.4033 150.97 71.4033 150.409C71.4033 150.095 71.3304 149.84 71.1846 149.644C71.0433 149.448 70.8428 149.286 70.583 149.158C70.3232 149.031 70.0133 148.924 69.6533 148.837C69.2933 148.75 68.8945 148.657 68.457 148.557C67.696 148.388 67.1172 148.219 66.7207 148.051C66.3288 147.882 66.0189 147.695 65.791 147.49C65.5632 147.281 65.3877 147.037 65.2646 146.759C65.1462 146.481 65.0869 146.162 65.0869 145.802C65.0869 144.977 65.4014 144.341 66.0303 143.895C66.6637 143.448 67.5684 143.225 68.7441 143.225C69.8379 143.225 70.6742 143.393 71.2529 143.73C71.8317 144.063 72.2373 144.633 72.4697 145.439L71.1846 145.665C71.0433 145.155 70.7744 144.785 70.3779 144.558C69.9814 144.325 69.4323 144.209 68.7305 144.209C67.9603 144.209 67.3724 144.337 66.9668 144.592C66.5612 144.847 66.3584 145.228 66.3584 145.733C66.3584 146.03 66.4359 146.276 66.5908 146.472C66.7503 146.663 66.9782 146.827 67.2744 146.964C67.5706 147.096 68.1608 147.26 69.0449 147.456C69.3411 147.524 69.6351 147.595 69.9268 147.668C70.223 147.736 70.5055 147.821 70.7744 147.921C71.0433 148.017 71.2939 148.131 71.5264 148.263C71.7633 148.395 71.9684 148.557 72.1416 148.748C72.3148 148.939 72.4492 149.165 72.5449 149.425C72.6452 149.685 72.6953 149.99 72.6953 150.341ZM78.2598 144.435V153H76.9609V144.435H73.6523V143.368H81.5684V144.435H78.2598ZM91.8564 148.14C91.8564 149.147 91.6628 150.029 91.2754 150.785C90.8926 151.542 90.3411 152.123 89.6211 152.528C88.901 152.934 88.0511 153.137 87.0713 153.137C86.0824 153.137 85.2279 152.936 84.5078 152.535C83.7923 152.134 83.2454 151.555 82.8672 150.799C82.4889 150.038 82.2998 149.151 82.2998 148.14C82.2998 146.599 82.7214 145.396 83.5645 144.53C84.4076 143.66 85.5811 143.225 87.085 143.225C88.0648 143.225 88.9147 143.421 89.6348 143.812C90.3548 144.2 90.904 144.765 91.2822 145.508C91.665 146.251 91.8564 147.128 91.8564 148.14ZM90.5234 148.14C90.5234 146.941 90.2227 146 89.6211 145.316C89.0241 144.633 88.1787 144.291 87.085 144.291C85.9821 144.291 85.1299 144.628 84.5283 145.303C83.9268 145.977 83.626 146.923 83.626 148.14C83.626 149.347 83.929 150.307 84.5352 151.018C85.1458 151.724 85.9912 152.077 87.0713 152.077C88.1833 152.077 89.0355 151.735 89.6279 151.052C90.2249 150.364 90.5234 149.393 90.5234 148.14ZM101.133 146.267C101.133 147.178 100.834 147.903 100.237 148.44C99.6449 148.978 98.8382 149.247 97.8174 149.247H94.9873V153H93.6816V143.368H97.7354C98.8154 143.368 99.6517 143.621 100.244 144.127C100.837 144.633 101.133 145.346 101.133 146.267ZM99.8203 146.28C99.8203 145.036 99.0729 144.414 97.5781 144.414H94.9873V148.215H97.6328C99.0911 148.215 99.8203 147.57 99.8203 146.28Z" fill="white"/>
<rect x="40.5" y="132.5" width="85" height="31" rx="7.5" stroke="#EFE9FF"/>
<path d="M47.6582 191V185.996C47.6582 185.883 47.6582 185.77 47.6582 185.656C47.6621 185.543 47.6816 185.057 47.7168 184.197C47.4395 185.248 47.2344 185.98 47.1016 186.395L45.6133 191H44.3828L42.8945 186.395L42.2676 184.197C42.3145 185.104 42.3379 185.703 42.3379 185.996V191H40.8027V182.744H43.1172L44.5938 187.361L44.7227 187.807L45.0039 188.914L45.373 187.59L46.8906 182.744H49.1934V191H47.6582ZM52.034 183.518V182.305H53.6805V183.518H52.034ZM52.034 191V184.66H53.6805V191H52.034ZM60.6812 191V187.443C60.6812 186.33 60.3043 185.773 59.5504 185.773C59.152 185.773 58.8297 185.945 58.5836 186.289C58.3414 186.629 58.2203 187.066 58.2203 187.602V191H56.5738V186.078C56.5738 185.738 56.568 185.461 56.5562 185.246C56.5484 185.027 56.5387 184.832 56.527 184.66H58.0973C58.109 184.734 58.1246 184.934 58.1441 185.258C58.1637 185.578 58.1734 185.799 58.1734 185.92H58.1969C58.4195 185.436 58.6988 185.084 59.0348 184.865C59.3707 184.646 59.7711 184.537 60.2359 184.537C60.9078 184.537 61.4234 184.744 61.7828 185.158C62.1422 185.572 62.3219 186.178 62.3219 186.975V191H60.6812ZM65.1098 183.518V182.305H66.7563V183.518H65.1098ZM65.1098 191V184.66H66.7563V191H65.1098ZM73.382 191V187.443C73.382 186.33 73.0617 185.773 72.4211 185.773C72.0891 185.773 71.8176 185.943 71.6066 186.283C71.3996 186.623 71.2961 187.062 71.2961 187.602V191H69.6496V186.078C69.6496 185.738 69.6437 185.461 69.632 185.246C69.6242 185.027 69.6145 184.832 69.6027 184.66H71.173C71.1848 184.734 71.2004 184.934 71.2199 185.258C71.2395 185.578 71.2492 185.799 71.2492 185.92H71.2727C71.4758 185.436 71.7277 185.084 72.0285 184.865C72.3332 184.646 72.6965 184.537 73.1184 184.537C74.0871 184.537 74.675 184.998 74.882 185.92H74.9172C75.132 185.428 75.3898 185.074 75.6906 184.859C75.9914 184.645 76.3742 184.537 76.8391 184.537C77.4562 184.537 77.927 184.748 78.2512 185.17C78.5754 185.588 78.7375 186.189 78.7375 186.975V191H77.1027V187.443C77.1027 186.33 76.7824 185.773 76.1418 185.773C75.8215 185.773 75.5578 185.93 75.3508 186.242C75.1477 186.551 75.0363 186.979 75.0168 187.525V191H73.382ZM83.0781 184.66V188.217C83.0781 189.33 83.4531 189.887 84.2031 189.887C84.6016 189.887 84.9219 189.717 85.1641 189.377C85.4102 189.033 85.5332 188.594 85.5332 188.059V184.66H87.1797V189.582C87.1797 190.121 87.1953 190.594 87.2266 191H85.6562C85.6094 190.438 85.5859 190.018 85.5859 189.74H85.5566C85.3379 190.221 85.0586 190.57 84.7188 190.789C84.3828 191.008 83.9824 191.117 83.5176 191.117C82.8457 191.117 82.3301 190.912 81.9707 190.502C81.6113 190.088 81.4316 189.482 81.4316 188.686V184.66H83.0781ZM93.7938 191V187.443C93.7938 186.33 93.4734 185.773 92.8328 185.773C92.5008 185.773 92.2293 185.943 92.0184 186.283C91.8113 186.623 91.7078 187.062 91.7078 187.602V191H90.0613V186.078C90.0613 185.738 90.0555 185.461 90.0438 185.246C90.0359 185.027 90.0262 184.832 90.0145 184.66H91.5848C91.5965 184.734 91.6121 184.934 91.6316 185.258C91.6512 185.578 91.6609 185.799 91.6609 185.92H91.6844C91.8875 185.436 92.1395 185.084 92.4402 184.865C92.7449 184.646 93.1082 184.537 93.5301 184.537C94.4988 184.537 95.0867 184.998 95.2938 185.92H95.3289C95.5438 185.428 95.8016 185.074 96.1023 184.859C96.4031 184.645 96.7859 184.537 97.2508 184.537C97.868 184.537 98.3387 184.748 98.6629 185.17C98.9871 185.588 99.1492 186.189 99.1492 186.975V191H97.5145V187.443C97.5145 186.33 97.1941 185.773 96.5535 185.773C96.2332 185.773 95.9695 185.93 95.7625 186.242C95.5594 186.551 95.448 186.979 95.4285 187.525V191H93.7938ZM110.362 189.764C110.811 189.764 111.246 189.699 111.668 189.57C112.09 189.438 112.416 189.27 112.647 189.066V187.924H110.631V186.646H114.229V189.682C113.791 190.131 113.221 190.482 112.518 190.736C111.819 190.99 111.084 191.117 110.315 191.117C108.971 191.117 107.938 190.746 107.215 190.004C106.493 189.258 106.131 188.201 106.131 186.834C106.131 185.475 106.495 184.434 107.221 183.711C107.948 182.984 108.993 182.621 110.356 182.621C112.293 182.621 113.526 183.338 114.053 184.771L112.459 185.252C112.287 184.834 112.018 184.518 111.651 184.303C111.284 184.088 110.852 183.98 110.356 183.98C109.543 183.98 108.926 184.227 108.504 184.719C108.082 185.211 107.871 185.916 107.871 186.834C107.871 187.768 108.088 188.49 108.522 189.002C108.959 189.51 109.573 189.764 110.362 189.764ZM118.482 191.117C117.868 191.117 117.39 190.951 117.046 190.619C116.702 190.283 116.53 189.812 116.53 189.207C116.53 188.551 116.743 188.051 117.169 187.707C117.599 187.363 118.22 187.188 119.032 187.18L120.398 187.156V186.834C120.398 186.42 120.325 186.113 120.181 185.914C120.036 185.711 119.8 185.609 119.472 185.609C119.167 185.609 118.943 185.68 118.798 185.82C118.657 185.957 118.57 186.186 118.534 186.506L116.818 186.424C116.923 185.807 117.204 185.34 117.661 185.023C118.122 184.703 118.749 184.543 119.542 184.543C120.343 184.543 120.96 184.74 121.394 185.135C121.827 185.529 122.044 186.09 122.044 186.816V189.125C122.044 189.48 122.083 189.727 122.161 189.863C122.243 189.996 122.378 190.062 122.566 190.062C122.691 190.062 122.812 190.051 122.929 190.027V190.918C122.831 190.941 122.743 190.963 122.665 190.982C122.587 191.002 122.509 191.018 122.431 191.029C122.353 191.041 122.269 191.051 122.179 191.059C122.093 191.066 121.991 191.07 121.874 191.07C121.46 191.07 121.154 190.969 120.954 190.766C120.759 190.562 120.642 190.264 120.603 189.869H120.568C120.107 190.701 119.411 191.117 118.482 191.117ZM120.398 188.064L119.554 188.076C119.171 188.092 118.9 188.135 118.739 188.205C118.579 188.271 118.456 188.375 118.37 188.516C118.288 188.656 118.247 188.844 118.247 189.078C118.247 189.379 118.316 189.604 118.452 189.752C118.593 189.896 118.779 189.969 119.009 189.969C119.267 189.969 119.501 189.898 119.712 189.758C119.927 189.617 120.095 189.424 120.216 189.178C120.337 188.928 120.398 188.664 120.398 188.387V188.064ZM130.24 189.148C130.24 189.762 129.988 190.244 129.484 190.596C128.984 190.943 128.291 191.117 127.404 191.117C126.533 191.117 125.865 190.98 125.4 190.707C124.939 190.43 124.633 190 124.48 189.418L125.928 189.201C126.01 189.502 126.15 189.715 126.35 189.84C126.553 189.965 126.904 190.027 127.404 190.027C127.865 190.027 128.201 189.969 128.412 189.852C128.623 189.734 128.729 189.551 128.729 189.301C128.729 189.098 128.643 188.938 128.471 188.82C128.303 188.699 128.016 188.598 127.609 188.516C126.68 188.332 126.053 188.162 125.729 188.006C125.404 187.846 125.156 187.641 124.984 187.391C124.816 187.137 124.732 186.826 124.732 186.459C124.732 185.854 124.965 185.383 125.43 185.047C125.898 184.707 126.561 184.537 127.416 184.537C128.17 184.537 128.775 184.684 129.232 184.977C129.693 185.27 129.98 185.693 130.094 186.248L128.635 186.4C128.588 186.143 128.473 185.951 128.289 185.826C128.105 185.697 127.814 185.633 127.416 185.633C127.025 185.633 126.732 185.684 126.537 185.785C126.342 185.883 126.244 186.049 126.244 186.283C126.244 186.467 126.318 186.613 126.467 186.723C126.619 186.828 126.873 186.916 127.229 186.986C127.725 187.088 128.164 187.193 128.547 187.303C128.934 187.408 129.242 187.535 129.473 187.684C129.707 187.832 129.893 188.023 130.029 188.258C130.17 188.488 130.24 188.785 130.24 189.148Z" fill="#EFE9FF"/>
<path d="M71.2393 218.181C71.2393 219.789 70.9544 221.018 70.3848 221.865C69.8197 222.713 68.9834 223.137 67.876 223.137C66.7686 223.137 65.9368 222.715 65.3809 221.872C64.8249 221.029 64.5469 219.799 64.5469 218.181C64.5469 216.526 64.8158 215.287 65.3535 214.462C65.8958 213.637 66.7503 213.225 67.917 213.225C69.0518 213.225 69.888 213.642 70.4258 214.476C70.9681 215.31 71.2393 216.545 71.2393 218.181ZM69.9883 218.181C69.9883 216.791 69.8265 215.784 69.5029 215.159C69.1839 214.535 68.6553 214.223 67.917 214.223C67.1605 214.223 66.6159 214.53 66.2832 215.146C65.9551 215.761 65.791 216.772 65.791 218.181C65.791 219.548 65.9574 220.548 66.29 221.182C66.6273 221.815 67.1605 222.132 67.8896 222.132C68.6143 222.132 69.1452 221.808 69.4824 221.161C69.8197 220.514 69.9883 219.521 69.9883 218.181ZM79.0322 218.181C79.0322 219.789 78.7474 221.018 78.1777 221.865C77.6126 222.713 76.7764 223.137 75.6689 223.137C74.5615 223.137 73.7298 222.715 73.1738 221.872C72.6178 221.029 72.3398 219.799 72.3398 218.181C72.3398 216.526 72.6087 215.287 73.1465 214.462C73.6888 213.637 74.5433 213.225 75.71 213.225C76.8447 213.225 77.681 213.642 78.2188 214.476C78.7611 215.31 79.0322 216.545 79.0322 218.181ZM77.7812 218.181C77.7812 216.791 77.6195 215.784 77.2959 215.159C76.9769 214.535 76.4482 214.223 75.71 214.223C74.9535 214.223 74.4089 214.53 74.0762 215.146C73.748 215.761 73.584 216.772 73.584 218.181C73.584 219.548 73.7503 220.548 74.083 221.182C74.4202 221.815 74.9535 222.132 75.6826 222.132C76.4072 222.132 76.9382 221.808 77.2754 221.161C77.6126 220.514 77.7812 219.521 77.7812 218.181ZM86.8252 218.181C86.8252 219.789 86.5404 221.018 85.9707 221.865C85.4056 222.713 84.5693 223.137 83.4619 223.137C82.3545 223.137 81.5228 222.715 80.9668 221.872C80.4108 221.029 80.1328 219.799 80.1328 218.181C80.1328 216.526 80.4017 215.287 80.9395 214.462C81.4818 213.637 82.3363 213.225 83.5029 213.225C84.6377 213.225 85.474 213.642 86.0117 214.476C86.554 215.31 86.8252 216.545 86.8252 218.181ZM85.5742 218.181C85.5742 216.791 85.4124 215.784 85.0889 215.159C84.7699 214.535 84.2412 214.223 83.5029 214.223C82.7464 214.223 82.2018 214.53 81.8691 215.146C81.541 215.761 81.377 216.772 81.377 218.181C81.377 219.548 81.5433 220.548 81.876 221.182C82.2132 221.815 82.7464 222.132 83.4756 222.132C84.2002 222.132 84.7311 221.808 85.0684 221.161C85.4056 220.514 85.5742 219.521 85.5742 218.181Z" fill="white"/>
<rect x="40.5" y="202.5" width="71" height="31" rx="7.5" stroke="#EFE9FF"/>
<defs>
<linearGradient id="paint0_linear_1_38" x1="-20.6024" y1="-70.5147" x2="308.524" y2="297.695" gradientUnits="userSpaceOnUse">
<stop stop-color="#5841CA"/>
<stop offset="1" stop-color="#A190E0"/>
</linearGradient>
</defs>
</svg>
