<svg width="127" height="196" viewBox="0 0 127 196" fill="none" xmlns="http://www.w3.org/2000/svg">
<g filter="url(#filter0_f_1_76)">
<rect x="5" y="5" width="116.619" height="185.625" rx="10.9239" fill="url(#paint0_linear_1_76)"/>
<path d="M38.3384 36.4654C38.3384 37.0521 38.2224 37.5682 37.9903 38.0135C37.7583 38.4589 37.4263 38.8003 36.9942 39.0377C36.5622 39.2724 36.0581 39.3897 35.482 39.3897C34.5966 39.3897 33.9019 39.1297 33.3978 38.6096C32.8964 38.0869 32.6457 37.3721 32.6457 36.4654C32.6457 35.5613 32.8964 34.8559 33.3978 34.3491C33.8992 33.8424 34.5966 33.5891 35.49 33.5891C36.3835 33.5891 37.0809 33.8451 37.5823 34.3571C38.0863 34.8692 38.3384 35.5719 38.3384 36.4654ZM37.1342 36.4654C37.1342 35.8573 36.9902 35.3813 36.7022 35.0372C36.4141 34.6905 36.0101 34.5172 35.49 34.5172C34.962 34.5172 34.5539 34.6892 34.2659 35.0332C33.9779 35.3746 33.8339 35.852 33.8339 36.4654C33.8339 37.0841 33.9805 37.5722 34.2739 37.9295C34.5699 38.2842 34.9727 38.4616 35.482 38.4616C36.0101 38.4616 36.4168 38.2882 36.7022 37.9415C36.9902 37.5948 37.1342 37.1028 37.1342 36.4654ZM44.6903 35.4573C44.6903 35.82 44.6076 36.144 44.4422 36.4294C44.2769 36.7147 44.0395 36.9361 43.7302 37.0934C43.4235 37.2481 43.0581 37.3255 42.634 37.3255H41.2339V39.3097H40.0538V33.6731H42.586C43.2608 33.6731 43.7795 33.8291 44.1422 34.1411C44.5076 34.4505 44.6903 34.8892 44.6903 35.4573ZM43.5021 35.4773C43.5021 34.8852 43.1528 34.5892 42.454 34.5892H41.2339V36.4174H42.486C42.8114 36.4174 43.0621 36.3374 43.2381 36.1773C43.4141 36.0147 43.5021 35.7813 43.5021 35.4773ZM48.9699 38.4616C49.682 38.4616 50.1767 38.1042 50.4541 37.3895L51.4822 37.7775C51.2609 38.3216 50.9355 38.727 50.5061 38.9937C50.0794 39.2577 49.5673 39.3897 48.9699 39.3897C48.0632 39.3897 47.3618 39.1337 46.8657 38.6216C46.3723 38.1069 46.1256 37.3881 46.1256 36.4654C46.1256 35.5399 46.3643 34.8292 46.8417 34.3331C47.3191 33.8371 48.0112 33.5891 48.9179 33.5891C49.5793 33.5891 50.1181 33.7224 50.5341 33.9891C50.9502 34.2531 51.2422 34.6425 51.4102 35.1572L50.3701 35.4413C50.2821 35.1586 50.1087 34.9345 49.85 34.7692C49.594 34.6012 49.2913 34.5172 48.9419 34.5172C48.4086 34.5172 48.0032 34.6825 47.7258 35.0132C47.4511 35.3439 47.3138 35.828 47.3138 36.4654C47.3138 37.1134 47.4551 37.6082 47.7378 37.9495C48.0232 38.2909 48.4339 38.4616 48.9699 38.4616ZM57.2141 37.1415C57.2141 37.8429 57.0194 38.3936 56.63 38.7936C56.2406 39.191 55.7019 39.3897 55.0138 39.3897C54.3391 39.3897 53.8097 39.1897 53.4256 38.7896C53.0416 38.3896 52.8496 37.8402 52.8496 37.1415C52.8496 36.4454 53.0416 35.8986 53.4256 35.5013C53.8097 35.1012 54.3471 34.9012 55.0378 34.9012C55.7446 34.9012 56.2833 35.0946 56.654 35.4813C57.0274 35.8653 57.2141 36.4187 57.2141 37.1415ZM56.0379 37.1415C56.0379 36.6267 55.9539 36.2534 55.7859 36.0213C55.6179 35.7893 55.3739 35.6733 55.0538 35.6733C54.3711 35.6733 54.0297 36.1627 54.0297 37.1415C54.0297 37.6242 54.1124 37.9922 54.2777 38.2456C54.4458 38.4963 54.6871 38.6216 55.0018 38.6216C55.6926 38.6216 56.0379 38.1282 56.0379 37.1415ZM61.7338 39.3097C61.7231 39.2697 61.7098 39.1697 61.6938 39.0097C61.6804 38.847 61.6738 38.7123 61.6738 38.6056H61.6578C61.4151 39.1283 60.9537 39.3897 60.2736 39.3897C59.7695 39.3897 59.3802 39.1937 59.1055 38.8016C58.8308 38.4069 58.6934 37.8562 58.6934 37.1495C58.6934 36.432 58.8374 35.8786 59.1255 35.4893C59.4162 35.0972 59.8269 34.9012 60.3576 34.9012C60.6643 34.9012 60.9283 34.9652 61.1497 35.0932C61.3737 35.2212 61.5457 35.4119 61.6658 35.6653H61.6738L61.6658 34.9532V33.373H62.7899V38.3656C62.7899 38.6323 62.8006 38.947 62.8219 39.3097H61.7338ZM61.6818 37.1214C61.6818 36.6547 61.6031 36.296 61.4457 36.0453C61.2911 35.792 61.0617 35.6653 60.7577 35.6653C60.4563 35.6653 60.2323 35.788 60.0856 36.0333C59.9389 36.276 59.8656 36.6481 59.8656 37.1495C59.8656 38.1309 60.1603 38.6216 60.7497 38.6216C61.0457 38.6216 61.275 38.4923 61.4377 38.2336C61.6004 37.9722 61.6818 37.6015 61.6818 37.1214ZM66.5295 39.3897C65.8788 39.3897 65.3787 39.1977 65.0293 38.8136C64.68 38.4269 64.5053 37.8642 64.5053 37.1254C64.5053 36.4107 64.6826 35.8613 65.0373 35.4773C65.392 35.0932 65.8948 34.9012 66.5455 34.9012C67.1669 34.9012 67.6416 35.1079 67.9697 35.5213C68.2977 35.932 68.4617 36.5347 68.4617 37.3295V37.3615H65.6854C65.6854 37.7829 65.7628 38.1016 65.9174 38.3176C66.0748 38.5309 66.2975 38.6376 66.5855 38.6376C66.9829 38.6376 67.2336 38.4656 67.3376 38.1216L68.3977 38.2136C68.091 38.9977 67.4683 39.3897 66.5295 39.3897ZM66.5295 35.6093C66.2655 35.6093 66.0615 35.7013 65.9174 35.8853C65.7761 36.0693 65.7014 36.3267 65.6934 36.6574H67.3736C67.3523 36.308 67.2683 36.0467 67.1216 35.8733C66.9749 35.6973 66.7775 35.6093 66.5295 35.6093Z" fill="#EFE9FF"/>
<path d="M53.4948 57.0307C52.7185 56.2544 51.4598 56.2544 50.6835 57.0307L49.2778 58.4364C48.5015 59.2127 48.5015 60.4714 49.2778 61.2477C50.0541 62.024 51.3128 62.024 52.0891 61.2477L52.792 60.5449" stroke="white" stroke-width="1.36549" stroke-linecap="round" stroke-linejoin="round"/>
<path d="M52.088 58.4364C52.8643 59.2127 54.123 59.2127 54.8993 58.4364L56.305 57.0307C57.0814 56.2544 57.0814 54.9957 56.305 54.2194C55.5287 53.4431 54.27 53.4431 53.4937 54.2194L52.7909 54.9222" stroke="white" stroke-width="1.36549" stroke-linecap="round" stroke-linejoin="round"/>
<path d="M67.9743 57.9432C67.9743 59.0415 67.7799 59.8801 67.391 60.4588C67.0051 61.0375 66.4342 61.3269 65.6781 61.3269C64.922 61.3269 64.3542 61.0391 63.9746 60.4635C63.595 59.8878 63.4052 59.0478 63.4052 57.9432C63.4052 56.8137 63.5888 55.9674 63.9559 55.4042C64.3262 54.8411 64.9096 54.5595 65.7061 54.5595C66.4808 54.5595 67.0518 54.8442 67.419 55.4136C67.7892 55.983 67.9743 56.8262 67.9743 57.9432ZM67.1203 57.9432C67.1203 56.9942 67.0098 56.3066 66.7889 55.8803C66.5711 55.454 66.2102 55.2409 65.7061 55.2409C65.1896 55.2409 64.8178 55.4509 64.5906 55.871C64.3666 56.291 64.2546 56.9817 64.2546 57.9432C64.2546 58.8766 64.3682 59.5596 64.5953 59.9921C64.8256 60.4246 65.1896 60.6408 65.6874 60.6408C66.1821 60.6408 66.5446 60.4199 66.7749 59.9781C67.0051 59.5363 67.1203 58.858 67.1203 57.9432ZM73.2949 57.9432C73.2949 59.0415 73.1005 59.8801 72.7115 60.4588C72.3257 61.0375 71.7548 61.3269 70.9987 61.3269C70.2426 61.3269 69.6748 61.0391 69.2952 60.4635C68.9156 59.8878 68.7258 59.0478 68.7258 57.9432C68.7258 56.8137 68.9093 55.9674 69.2765 55.4042C69.6468 54.8411 70.2302 54.5595 71.0267 54.5595C71.8014 54.5595 72.3724 54.8442 72.7395 55.4136C73.1098 55.983 73.2949 56.8262 73.2949 57.9432ZM72.4408 57.9432C72.4408 56.9942 72.3304 56.3066 72.1095 55.8803C71.8917 55.454 71.5307 55.2409 71.0267 55.2409C70.5102 55.2409 70.1384 55.4509 69.9112 55.871C69.6872 56.291 69.5752 56.9817 69.5752 57.9432C69.5752 58.8766 69.6888 59.5596 69.9159 59.9921C70.1461 60.4246 70.5102 60.6408 71.008 60.6408C71.5027 60.6408 71.8652 60.4199 72.0955 59.9781C72.3257 59.5363 72.4408 58.858 72.4408 57.9432Z" fill="white"/>
<rect x="32.6511" y="47.113" width="57.4252" height="21.2411" rx="5.12057" stroke="#EFE9FF" stroke-width="0.682743"/>
<path d="M36.2901 86.6194L33.8339 82.2789C33.8819 82.7003 33.9059 83.039 33.9059 83.295V86.6194H32.8578V80.9828H34.2059L36.6982 85.3593C36.6502 84.9566 36.6262 84.5899 36.6262 84.2592V80.9828H37.6743V86.6194H36.2901ZM40.6218 86.6994C40.2031 86.6994 39.8764 86.5861 39.6417 86.3594C39.407 86.13 39.2897 85.8087 39.2897 85.3953C39.2897 84.9472 39.435 84.6059 39.7257 84.3712C40.0191 84.1365 40.4431 84.0165 40.9979 84.0111L41.93 83.9951V83.7751C41.93 83.4924 41.8806 83.283 41.7819 83.147C41.6833 83.0083 41.5219 82.939 41.2979 82.939C41.0899 82.939 40.9365 82.987 40.8378 83.083C40.7418 83.1764 40.6818 83.3324 40.6578 83.5511L39.4857 83.4951C39.5577 83.0737 39.7497 82.755 40.0618 82.539C40.3765 82.3203 40.8045 82.2109 41.3459 82.2109C41.8926 82.2109 42.314 82.3456 42.61 82.615C42.9061 82.8843 43.0541 83.267 43.0541 83.7631V85.3393C43.0541 85.582 43.0808 85.75 43.1341 85.8433C43.1901 85.934 43.2821 85.9793 43.4101 85.9793C43.4955 85.9793 43.5781 85.9713 43.6582 85.9553V86.5634C43.5915 86.5794 43.5315 86.5941 43.4781 86.6074C43.4248 86.6207 43.3715 86.6314 43.3181 86.6394C43.2648 86.6474 43.2074 86.6541 43.1461 86.6594C43.0874 86.6648 43.0181 86.6674 42.9381 86.6674C42.6554 86.6674 42.446 86.5981 42.31 86.4594C42.1767 86.3207 42.0966 86.1167 42.07 85.8473H42.046C41.7313 86.4154 41.2566 86.6994 40.6218 86.6994ZM41.93 84.6152L41.3539 84.6232C41.0925 84.6339 40.9072 84.6632 40.7978 84.7112C40.6885 84.7565 40.6045 84.8272 40.5458 84.9232C40.4898 85.0192 40.4618 85.1473 40.4618 85.3073C40.4618 85.5126 40.5085 85.666 40.6018 85.7673C40.6978 85.866 40.8245 85.9153 40.9819 85.9153C41.1579 85.9153 41.3179 85.8673 41.4619 85.7713C41.6086 85.6753 41.7233 85.5433 41.8059 85.3753C41.8886 85.2046 41.93 85.0246 41.93 84.8352V84.6152ZM47.5498 86.6194V84.1911C47.5498 83.4311 47.3311 83.051 46.8937 83.051C46.667 83.051 46.4817 83.167 46.3377 83.3991C46.1963 83.6311 46.1256 83.9311 46.1256 84.2992V86.6194H45.0015V83.259C45.0015 83.027 44.9975 82.8377 44.9895 82.691C44.9842 82.5416 44.9775 82.4083 44.9695 82.2909H46.0416C46.0496 82.3416 46.0603 82.4776 46.0736 82.699C46.087 82.9177 46.0936 83.0684 46.0936 83.151H46.1096C46.2483 82.8203 46.4203 82.5803 46.6257 82.4309C46.8337 82.2816 47.0817 82.2069 47.3698 82.2069C48.0312 82.2069 48.4326 82.5216 48.5739 83.151H48.5979C48.7446 82.815 48.9206 82.5736 49.126 82.4269C49.3313 82.2803 49.5927 82.2069 49.9101 82.2069C50.3314 82.2069 50.6528 82.3509 50.8742 82.639C51.0955 82.9243 51.2062 83.335 51.2062 83.8711V86.6194H50.0901V84.1911C50.0901 83.4311 49.8714 83.051 49.434 83.051C49.2153 83.051 49.0353 83.1577 48.8939 83.3711C48.7553 83.5817 48.6792 83.8738 48.6659 84.2472V86.6194H47.5498ZM54.8818 86.6994C54.2311 86.6994 53.731 86.5074 53.3816 86.1234C53.0323 85.7367 52.8576 85.1739 52.8576 84.4352C52.8576 83.7204 53.0349 83.171 53.3896 82.787C53.7443 82.4029 54.2471 82.2109 54.8978 82.2109C55.5192 82.2109 55.9939 82.4176 56.322 82.831C56.65 83.2417 56.814 83.8444 56.814 84.6392V84.6712H54.0377C54.0377 85.0926 54.1151 85.4113 54.2697 85.6273C54.4271 85.8407 54.6498 85.9473 54.9378 85.9473C55.3352 85.9473 55.5859 85.7753 55.6899 85.4313L56.75 85.5233C56.4433 86.3074 55.8206 86.6994 54.8818 86.6994ZM54.8818 82.919C54.6178 82.919 54.4138 83.011 54.2697 83.195C54.1284 83.3791 54.0537 83.6364 54.0457 83.9671H55.7259C55.7046 83.6177 55.6206 83.3564 55.4739 83.183C55.3272 83.007 55.1298 82.919 54.8818 82.919Z" fill="#EFE9FF"/>
<path d="M54.6323 106.728C54.6323 107.335 54.3943 107.804 53.9182 108.137C53.4453 108.47 52.7778 108.637 51.916 108.637C50.3136 108.637 49.3848 108.08 49.1297 106.966L49.9931 106.793C50.0927 107.188 50.3042 107.479 50.6278 107.666C50.9514 107.849 51.3917 107.941 51.9486 107.941C52.5243 107.941 52.9676 107.843 53.2788 107.647C53.5931 107.448 53.7502 107.157 53.7502 106.774C53.7502 106.56 53.7004 106.386 53.6008 106.252C53.5044 106.118 53.3675 106.007 53.1901 105.92C53.0128 105.833 52.8012 105.76 52.5554 105.701C52.3096 105.642 52.0373 105.578 51.7386 105.51C51.219 105.395 50.8239 105.279 50.5532 105.164C50.2856 105.049 50.074 104.922 49.9184 104.782C49.7628 104.638 49.6431 104.472 49.559 104.282C49.4781 104.092 49.4377 103.875 49.4377 103.629C49.4377 103.066 49.6524 102.632 50.0818 102.327C50.5143 102.022 51.1319 101.869 51.9346 101.869C52.6814 101.869 53.2523 101.984 53.6475 102.215C54.0427 102.442 54.3196 102.831 54.4783 103.381L53.6008 103.535C53.5044 103.187 53.3208 102.935 53.0501 102.779C52.7794 102.621 52.4045 102.541 51.9253 102.541C51.3995 102.541 50.9981 102.628 50.7212 102.803C50.4443 102.977 50.3058 103.237 50.3058 103.582C50.3058 103.784 50.3587 103.952 50.4645 104.086C50.5734 104.217 50.729 104.329 50.9312 104.422C51.1334 104.512 51.5364 104.624 52.14 104.758C52.3422 104.805 52.5429 104.853 52.7421 104.903C52.9443 104.95 53.1372 105.007 53.3208 105.076C53.5044 105.141 53.6755 105.219 53.8342 105.309C53.996 105.399 54.136 105.51 54.2542 105.64C54.3725 105.771 54.4643 105.925 54.5296 106.102C54.5981 106.28 54.6323 106.488 54.6323 106.728ZM58.4314 102.695V108.543H57.5446V102.695H55.2857V101.967H60.6903V102.695H58.4314ZM67.7144 105.225C67.7144 105.913 67.5822 106.515 67.3177 107.031C67.0563 107.548 66.6798 107.944 66.1882 108.221C65.6966 108.498 65.1163 108.637 64.4474 108.637C63.7722 108.637 63.1888 108.5 62.6972 108.226C62.2087 107.952 61.8353 107.557 61.5771 107.041C61.3188 106.521 61.1897 105.916 61.1897 105.225C61.1897 104.173 61.4775 103.352 62.0531 102.761C62.6287 102.166 63.4299 101.869 64.4567 101.869C65.1257 101.869 65.706 102.003 66.1976 102.271C66.6892 102.535 67.0641 102.921 67.3224 103.428C67.5837 103.935 67.7144 104.534 67.7144 105.225ZM66.8043 105.225C66.8043 104.407 66.5989 103.764 66.1882 103.297C65.7806 102.831 65.2035 102.597 64.4567 102.597C63.7037 102.597 63.1219 102.828 62.7112 103.288C62.3005 103.749 62.0951 104.394 62.0951 105.225C62.0951 106.05 62.302 106.704 62.7158 107.19C63.1328 107.672 63.71 107.913 64.4474 107.913C65.2066 107.913 65.7884 107.68 66.1929 107.213C66.6005 106.743 66.8043 106.081 66.8043 105.225ZM74.0478 103.946C74.0478 104.568 73.844 105.063 73.4364 105.43C73.0319 105.797 72.4812 105.981 71.7842 105.981H69.852V108.543H68.9605V101.967H71.7282C72.4656 101.967 73.0365 102.14 73.441 102.485C73.8455 102.831 74.0478 103.318 74.0478 103.946ZM73.1517 103.955C73.1517 103.106 72.6414 102.681 71.6208 102.681H69.852V105.276H71.6582C72.6538 105.276 73.1517 104.836 73.1517 103.955Z" fill="white"/>
<rect x="32.6511" y="94.4227" width="58.0889" height="21.2411" rx="5.12057" stroke="#EFE9FF" stroke-width="0.682743"/>
<path d="M37.5383 133.929V130.513C37.5383 130.435 37.5383 130.358 37.5383 130.281C37.5409 130.203 37.5543 129.871 37.5783 129.285C37.3889 130.002 37.2489 130.502 37.1582 130.785L36.1421 133.929H35.302L34.2859 130.785L33.8579 129.285C33.8899 129.903 33.9059 130.313 33.9059 130.513V133.929H32.8578V128.293H34.4379L35.446 131.445L35.5341 131.749L35.7261 132.505L35.9781 131.601L37.0142 128.293H38.5864V133.929H37.5383ZM40.5258 128.821V127.992H41.6499V128.821H40.5258ZM40.5258 133.929V129.601H41.6499V133.929H40.5258ZM46.4297 133.929V131.501C46.4297 130.741 46.1723 130.361 45.6576 130.361C45.3855 130.361 45.1655 130.478 44.9975 130.713C44.8322 130.945 44.7495 131.244 44.7495 131.609V133.929H43.6254V130.569C43.6254 130.337 43.6214 130.147 43.6134 130.001C43.608 129.851 43.6013 129.718 43.5933 129.601H44.6655C44.6735 129.651 44.6841 129.787 44.6975 130.009C44.7108 130.227 44.7175 130.378 44.7175 130.461H44.7335C44.8855 130.13 45.0762 129.89 45.3055 129.741C45.5349 129.591 45.8083 129.517 46.1256 129.517C46.5843 129.517 46.9364 129.658 47.1817 129.941C47.4271 130.223 47.5498 130.637 47.5498 131.181V133.929H46.4297ZM49.4532 128.821V127.992H50.5773V128.821H49.4532ZM49.4532 133.929V129.601H50.5773V133.929H49.4532ZM55.101 133.929V131.501C55.101 130.741 54.8823 130.361 54.445 130.361C54.2183 130.361 54.0329 130.477 53.8889 130.709C53.7475 130.941 53.6769 131.241 53.6769 131.609V133.929H52.5527V130.569C52.5527 130.337 52.5487 130.147 52.5407 130.001C52.5354 129.851 52.5287 129.718 52.5207 129.601H53.5929C53.6009 129.651 53.6115 129.787 53.6249 130.009C53.6382 130.227 53.6449 130.378 53.6449 130.461H53.6609C53.7996 130.13 53.9716 129.89 54.1769 129.741C54.385 129.591 54.633 129.517 54.921 129.517C55.5824 129.517 55.9838 129.831 56.1251 130.461H56.1491C56.2958 130.125 56.4718 129.883 56.6772 129.737C56.8826 129.59 57.1439 129.517 57.4613 129.517C57.8827 129.517 58.204 129.661 58.4254 129.949C58.6468 130.234 58.7574 130.645 58.7574 131.181V133.929H57.6413V131.501C57.6413 130.741 57.4226 130.361 56.9852 130.361C56.7665 130.361 56.5865 130.467 56.4452 130.681C56.3065 130.891 56.2305 131.183 56.2172 131.557V133.929H55.101ZM61.721 129.601V132.029C61.721 132.789 61.977 133.169 62.4891 133.169C62.7611 133.169 62.9798 133.053 63.1451 132.821C63.3131 132.586 63.3972 132.286 63.3972 131.921V129.601H64.5213V132.961C64.5213 133.329 64.5319 133.652 64.5533 133.929H63.4812C63.4492 133.545 63.4332 133.258 63.4332 133.069H63.4132C63.2638 133.397 63.0731 133.636 62.8411 133.785C62.6117 133.934 62.3384 134.009 62.021 134.009C61.5623 134.009 61.2102 133.869 60.9649 133.589C60.7195 133.306 60.5968 132.893 60.5968 132.349V129.601H61.721ZM69.037 133.929V131.501C69.037 130.741 68.8183 130.361 68.3809 130.361C68.1542 130.361 67.9689 130.477 67.8248 130.709C67.6835 130.941 67.6128 131.241 67.6128 131.609V133.929H66.4887V130.569C66.4887 130.337 66.4847 130.147 66.4767 130.001C66.4714 129.851 66.4647 129.718 66.4567 129.601H67.5288C67.5368 129.651 67.5475 129.787 67.5608 130.009C67.5742 130.227 67.5808 130.378 67.5808 130.461H67.5968C67.7355 130.13 67.9075 129.89 68.1129 129.741C68.3209 129.591 68.5689 129.517 68.857 129.517C69.5184 129.517 69.9197 129.831 70.0611 130.461H70.0851C70.2318 130.125 70.4078 129.883 70.6132 129.737C70.8185 129.59 71.0799 129.517 71.3972 129.517C71.8186 129.517 72.14 129.661 72.3614 129.949C72.5827 130.234 72.6934 130.645 72.6934 131.181V133.929H71.5773V131.501C71.5773 130.741 71.3586 130.361 70.9212 130.361C70.7025 130.361 70.5225 130.467 70.3811 130.681C70.2424 130.891 70.1664 131.183 70.1531 131.557V133.929H69.037ZM80.3486 133.085C80.6553 133.085 80.9527 133.041 81.2407 132.953C81.5288 132.862 81.7515 132.748 81.9088 132.609V131.829H80.5327V130.957H82.9889V133.029C82.6902 133.336 82.3009 133.576 81.8208 133.749C81.3434 133.922 80.842 134.009 80.3166 134.009C79.3992 134.009 78.6938 133.756 78.2004 133.249C77.707 132.74 77.4603 132.018 77.4603 131.085C77.4603 130.157 77.7083 129.446 78.2044 128.953C78.7005 128.457 79.4139 128.209 80.3446 128.209C81.6675 128.209 82.5089 128.698 82.8689 129.677L81.7808 130.005C81.6635 129.719 81.4794 129.503 81.2287 129.357C80.978 129.21 80.6833 129.137 80.3446 129.137C79.7899 129.137 79.3685 129.305 79.0805 129.641C78.7925 129.977 78.6485 130.458 78.6485 131.085C78.6485 131.722 78.7965 132.216 79.0925 132.565C79.3912 132.912 79.8099 133.085 80.3486 133.085ZM85.8925 134.009C85.4737 134.009 85.147 133.896 84.9124 133.669C84.6777 133.44 84.5603 133.118 84.5603 132.705C84.5603 132.257 84.7057 131.916 84.9964 131.681C85.2897 131.446 85.7138 131.326 86.2685 131.321L87.2006 131.305V131.085C87.2006 130.802 87.1513 130.593 87.0526 130.457C86.9539 130.318 86.7926 130.249 86.5685 130.249C86.3605 130.249 86.2072 130.297 86.1085 130.393C86.0125 130.486 85.9525 130.642 85.9285 130.861L84.7563 130.805C84.8283 130.383 85.0204 130.065 85.3324 129.849C85.6471 129.63 86.0751 129.521 86.6165 129.521C87.1633 129.521 87.5846 129.655 87.8807 129.925C88.1767 130.194 88.3247 130.577 88.3247 131.073V132.649C88.3247 132.892 88.3514 133.06 88.4047 133.153C88.4607 133.244 88.5528 133.289 88.6808 133.289C88.7661 133.289 88.8488 133.281 88.9288 133.265V133.873C88.8621 133.889 88.8021 133.904 88.7488 133.917C88.6954 133.93 88.6421 133.941 88.5888 133.949C88.5354 133.957 88.4781 133.964 88.4167 133.969C88.3581 133.974 88.2887 133.977 88.2087 133.977C87.926 133.977 87.7167 133.908 87.5806 133.769C87.4473 133.63 87.3673 133.426 87.3406 133.157H87.3166C87.0019 133.725 86.5272 134.009 85.8925 134.009ZM87.2006 131.925L86.6245 131.933C86.3632 131.944 86.1778 131.973 86.0685 132.021C85.9591 132.066 85.8751 132.137 85.8165 132.233C85.7604 132.329 85.7324 132.457 85.7324 132.617C85.7324 132.822 85.7791 132.976 85.8725 133.077C85.9685 133.176 86.0952 133.225 86.2525 133.225C86.4285 133.225 86.5885 133.177 86.7326 133.081C86.8792 132.985 86.9939 132.853 87.0766 132.685C87.1593 132.514 87.2006 132.334 87.2006 132.145V131.925ZM93.9206 132.665C93.9206 133.084 93.7485 133.413 93.4045 133.653C93.0631 133.89 92.5897 134.009 91.9843 134.009C91.3896 134.009 90.9336 133.916 90.6162 133.729C90.3015 133.54 90.0921 133.246 89.9881 132.849L90.9762 132.701C91.0322 132.906 91.1282 133.052 91.2643 133.137C91.4029 133.222 91.643 133.265 91.9843 133.265C92.299 133.265 92.5284 133.225 92.6724 133.145C92.8164 133.065 92.8884 132.94 92.8884 132.769C92.8884 132.63 92.8298 132.521 92.7124 132.441C92.5977 132.358 92.4017 132.289 92.1244 132.233C91.4896 132.108 91.0616 131.992 90.8402 131.885C90.6189 131.776 90.4495 131.636 90.3322 131.465C90.2175 131.292 90.1601 131.079 90.1601 130.829C90.1601 130.415 90.3188 130.094 90.6362 129.865C90.9562 129.633 91.4083 129.517 91.9923 129.517C92.5071 129.517 92.9204 129.617 93.2325 129.817C93.5472 130.017 93.7432 130.306 93.8205 130.685L92.8244 130.789C92.7924 130.613 92.7138 130.482 92.5884 130.397C92.4631 130.309 92.2644 130.265 91.9923 130.265C91.7256 130.265 91.5256 130.299 91.3923 130.369C91.2589 130.435 91.1923 130.549 91.1923 130.709C91.1923 130.834 91.2429 130.934 91.3443 131.009C91.4483 131.081 91.6216 131.141 91.8643 131.189C92.203 131.258 92.5031 131.33 92.7644 131.405C93.0285 131.477 93.2391 131.564 93.3965 131.665C93.5565 131.766 93.6832 131.897 93.7765 132.057C93.8725 132.214 93.9206 132.417 93.9206 132.665Z" fill="#EFE9FF"/>
<path d="M53.6382 152.563C53.6382 153.661 53.4437 154.5 53.0548 155.078C52.6689 155.657 52.098 155.946 51.3419 155.946C50.5858 155.946 50.018 155.659 49.6384 155.083C49.2588 154.507 49.069 153.667 49.069 152.563C49.069 151.433 49.2526 150.587 49.6197 150.024C49.99 149.461 50.5734 149.179 51.3699 149.179C52.1447 149.179 52.7156 149.464 53.0828 150.033C53.453 150.602 53.6382 151.446 53.6382 152.563ZM52.7841 152.563C52.7841 151.614 52.6736 150.926 52.4527 150.5C52.2349 150.074 51.874 149.86 51.3699 149.86C50.8534 149.86 50.4816 150.07 50.2545 150.49C50.0304 150.911 49.9184 151.601 49.9184 152.563C49.9184 153.496 50.032 154.179 50.2591 154.612C50.4894 155.044 50.8534 155.26 51.3512 155.26C51.846 155.26 52.2085 155.039 52.4387 154.598C52.6689 154.156 52.7841 153.477 52.7841 152.563ZM58.9588 152.563C58.9588 153.661 58.7643 154.5 58.3754 155.078C57.9895 155.657 57.4186 155.946 56.6625 155.946C55.9064 155.946 55.3386 155.659 54.959 155.083C54.5794 154.507 54.3896 153.667 54.3896 152.563C54.3896 151.433 54.5732 150.587 54.9403 150.024C55.3106 149.461 55.894 149.179 56.6905 149.179C57.4653 149.179 58.0362 149.464 58.4034 150.033C58.7736 150.602 58.9588 151.446 58.9588 152.563ZM58.1047 152.563C58.1047 151.614 57.9942 150.926 57.7733 150.5C57.5555 150.074 57.1946 149.86 56.6905 149.86C56.174 149.86 55.8022 150.07 55.5751 150.49C55.351 150.911 55.239 151.601 55.239 152.563C55.239 153.496 55.3526 154.179 55.5797 154.612C55.81 155.044 56.174 155.26 56.6718 155.26C57.1666 155.26 57.529 155.039 57.7593 154.598C57.9895 154.156 58.1047 153.477 58.1047 152.563ZM64.2794 152.563C64.2794 153.661 64.0849 154.5 63.696 155.078C63.3101 155.657 62.7392 155.946 61.9831 155.946C61.227 155.946 60.6592 155.659 60.2796 155.083C59.9 154.507 59.7102 153.667 59.7102 152.563C59.7102 151.433 59.8938 150.587 60.2609 150.024C60.6312 149.461 61.2146 149.179 62.0111 149.179C62.7859 149.179 63.3568 149.464 63.724 150.033C64.0942 150.602 64.2794 151.446 64.2794 152.563ZM63.4253 152.563C63.4253 151.614 63.3148 150.926 63.0939 150.5C62.8761 150.074 62.5152 149.86 62.0111 149.86C61.4946 149.86 61.1228 150.07 60.8956 150.49C60.6716 150.911 60.5596 151.601 60.5596 152.563C60.5596 153.496 60.6732 154.179 60.9003 154.612C61.1306 155.044 61.4946 155.26 61.9924 155.26C62.4872 155.26 62.8496 155.039 63.0799 154.598C63.3101 154.156 63.4253 153.477 63.4253 152.563Z" fill="white"/>
<rect x="32.6511" y="141.732" width="48.0889" height="21.2411" rx="5.12057" stroke="#EFE9FF" stroke-width="0.682743"/>
</g>
<defs>
<filter id="filter0_f_1_76" x="0.421608" y="0.421608" width="125.776" height="194.781" filterUnits="userSpaceOnUse" color-interpolation-filters="sRGB">
<feFlood flood-opacity="0" result="BackgroundImageFix"/>
<feBlend mode="normal" in="SourceGraphic" in2="BackgroundImageFix" result="shape"/>
<feGaussianBlur stdDeviation="2.2892" result="effect1_foregroundBlur_1_76"/>
</filter>
<linearGradient id="paint0_linear_1_76" x1="-9.05053" y1="-42.7711" x2="213.75" y2="208.15" gradientUnits="userSpaceOnUse">
<stop stop-color="#5841CA"/>
<stop offset="1" stop-color="#A190E0"/>
</linearGradient>
</defs>
</svg>
