<svg width="131" height="205" viewBox="0 0 131 205" fill="none" xmlns="http://www.w3.org/2000/svg">
<g filter="url(#filter0_f_1_95)">
<rect x="6" y="6" width="119.562" height="193.774" rx="8.91249" fill="url(#paint0_linear_1_95)"/>
<path d="M35.5644 33.845C35.5644 34.5538 35.4242 35.1773 35.1439 35.7153C34.8636 36.2534 34.4625 36.6658 33.9405 36.9526C33.4186 37.2361 32.8096 37.3778 32.1137 37.3778C31.044 37.3778 30.2047 37.0637 29.5957 36.4354C28.99 35.8039 28.6872 34.9404 28.6872 33.845C28.6872 32.7527 28.99 31.9005 29.5957 31.2884C30.2015 30.6762 31.044 30.3701 32.1234 30.3701C33.2027 30.3701 34.0452 30.6794 34.651 31.298C35.2599 31.9167 35.5644 32.7656 35.5644 33.845ZM34.1097 33.845C34.1097 33.1104 33.9357 32.5353 33.5877 32.1196C33.2398 31.7008 32.7516 31.4914 32.1234 31.4914C31.4854 31.4914 30.9925 31.6992 30.6445 32.1148C30.2965 32.5272 30.1225 33.1039 30.1225 33.845C30.1225 34.5925 30.2997 35.1821 30.6542 35.6138C31.0118 36.0424 31.4983 36.2566 32.1137 36.2566C32.7516 36.2566 33.243 36.0472 33.5877 35.6283C33.9357 35.2095 34.1097 34.615 34.1097 33.845ZM43.2381 32.6271C43.2381 33.0653 43.1382 33.4567 42.9385 33.8015C42.7387 34.1462 42.4519 34.4137 42.0782 34.6038C41.7077 34.7906 41.2663 34.8841 40.754 34.8841H39.0625V37.2812H37.6367V30.4716H40.696C41.5111 30.4716 42.1378 30.6601 42.576 31.0371C43.0174 31.4108 43.2381 31.9408 43.2381 32.6271ZM41.8027 32.6513C41.8027 31.936 41.3806 31.5783 40.5365 31.5783H39.0625V33.787H40.5752C40.9682 33.787 41.2711 33.6903 41.4837 33.497C41.6964 33.3005 41.8027 33.0186 41.8027 32.6513ZM48.4083 36.2566C49.2686 36.2566 49.8663 35.8249 50.2014 34.9614L51.4434 35.4302C51.176 36.0875 50.7829 36.5772 50.2642 36.8994C49.7487 37.2184 49.1301 37.3778 48.4083 37.3778C47.3129 37.3778 46.4655 37.0685 45.8662 36.4499C45.2702 35.8281 44.9721 34.9598 44.9721 33.845C44.9721 32.727 45.2605 31.8683 45.8372 31.269C46.414 30.6698 47.2501 30.3701 48.3455 30.3701C49.1446 30.3701 49.7954 30.5312 50.298 30.8534C50.8006 31.1724 51.1534 31.6428 51.3564 32.2646L50.0999 32.6078C49.9935 32.2662 49.7841 31.9956 49.4716 31.7958C49.1623 31.5928 48.7966 31.4914 48.3745 31.4914C47.7301 31.4914 47.2404 31.6911 46.9053 32.0906C46.5734 32.4902 46.4075 33.0749 46.4075 33.845C46.4075 34.6279 46.5783 35.2256 46.9198 35.638C47.2646 36.0504 47.7607 36.2566 48.4083 36.2566ZM58.368 34.6617C58.368 35.5091 58.1328 36.1745 57.6624 36.6577C57.192 37.1378 56.5412 37.3778 55.7099 37.3778C54.8948 37.3778 54.2552 37.1362 53.7912 36.6529C53.3273 36.1696 53.0953 35.5059 53.0953 34.6617C53.0953 33.8208 53.3273 33.1603 53.7912 32.6803C54.2552 32.197 54.9044 31.9553 55.7389 31.9553C56.5927 31.9553 57.2436 32.1889 57.6914 32.6561C58.1425 33.12 58.368 33.7886 58.368 34.6617ZM56.9471 34.6617C56.9471 34.0399 56.8457 33.5888 56.6427 33.3085C56.4397 33.0282 56.1449 32.8881 55.7582 32.8881C54.9334 32.8881 54.521 33.4793 54.521 34.6617C54.521 35.2449 54.6209 35.6895 54.8207 35.9956C55.0236 36.2985 55.3152 36.4499 55.6954 36.4499C56.5299 36.4499 56.9471 35.8539 56.9471 34.6617ZM63.8282 37.2812C63.8154 37.2329 63.7992 37.112 63.7799 36.9187C63.7638 36.7222 63.7558 36.5595 63.7558 36.4306H63.7364C63.4432 37.0621 62.8858 37.3778 62.0642 37.3778C61.4553 37.3778 60.9849 37.141 60.653 36.6674C60.3212 36.1906 60.1552 35.5252 60.1552 34.6714C60.1552 33.8047 60.3292 33.1362 60.6772 32.6658C61.0284 32.1921 61.5246 31.9553 62.1657 31.9553C62.5362 31.9553 62.8552 32.0326 63.1226 32.1873C63.3933 32.3419 63.6011 32.5723 63.7461 32.8784H63.7558L63.7461 32.0181V30.1091H65.1041V36.1406C65.1041 36.4628 65.117 36.843 65.1428 37.2812H63.8282ZM63.7654 34.6376C63.7654 34.0737 63.6704 33.6404 63.4803 33.3375C63.2934 33.0314 63.0163 32.8784 62.649 32.8784C62.2849 32.8784 62.0143 33.0266 61.8371 33.323C61.6599 33.6162 61.5713 34.0657 61.5713 34.6714C61.5713 35.8571 61.9273 36.4499 62.6393 36.4499C62.997 36.4499 63.2741 36.2937 63.4706 35.9811C63.6671 35.6654 63.7654 35.2175 63.7654 34.6376ZM69.6219 37.3778C68.8358 37.3778 68.2317 37.1459 67.8096 36.6819C67.3875 36.2147 67.1765 35.5349 67.1765 34.6424C67.1765 33.7789 67.3907 33.1152 67.8193 32.6513C68.2478 32.1873 68.8551 31.9553 69.6413 31.9553C70.392 31.9553 70.9655 32.205 71.3618 32.7044C71.7581 33.2006 71.9562 33.9288 71.9562 34.8889V34.9276H68.6022C68.6022 35.4366 68.6956 35.8216 68.8825 36.0826C69.0726 36.3404 69.3416 36.4693 69.6896 36.4693C70.1697 36.4693 70.4725 36.2614 70.5982 35.8458L71.8789 35.957C71.5084 36.9042 70.7561 37.3778 69.6219 37.3778ZM69.6219 32.8107C69.303 32.8107 69.0565 32.9219 68.8825 33.1442C68.7117 33.3665 68.6215 33.6774 68.6119 34.077H70.6417C70.6159 33.6549 70.5144 33.3391 70.3372 33.1297C70.16 32.9171 69.9216 32.8107 69.6219 32.8107Z" fill="#EFE9FF"/>
<path d="M53.8748 58.1292C52.9369 57.1913 51.4163 57.1913 50.4784 58.1292L48.7803 59.8274C47.8424 60.7653 47.8424 62.2859 48.7803 63.2238C49.7181 64.1616 51.2387 64.1616 52.1766 63.2238L53.0257 62.3746" stroke="white" stroke-width="1.64964" stroke-linecap="round" stroke-linejoin="round"/>
<path d="M52.1752 59.8275C53.113 60.7653 54.6337 60.7653 55.5715 59.8275L57.2697 58.1292C58.2076 57.1914 58.2076 55.6708 57.2697 54.7329C56.3318 53.795 54.8112 53.795 53.8733 54.7329L53.0243 55.582" stroke="white" stroke-width="1.64964" stroke-linecap="round" stroke-linejoin="round"/>
<path d="M71.3676 59.5033C71.3676 60.8302 71.1326 61.8433 70.6628 62.5424C70.1966 63.2416 69.5069 63.5912 68.5935 63.5912C67.68 63.5912 66.994 63.2435 66.5354 62.5481C66.0769 61.8527 65.8476 60.8377 65.8476 59.5033C65.8476 58.1388 66.0693 57.1164 66.5129 56.436C66.9602 55.7557 67.665 55.4155 68.6273 55.4155C69.5633 55.4155 70.253 55.7594 70.6966 56.4473C71.1439 57.1352 71.3676 58.1539 71.3676 59.5033ZM70.3357 59.5033C70.3357 58.3568 70.2023 57.5261 69.9354 57.0111C69.6723 56.4962 69.2362 56.2387 68.6273 56.2387C68.0033 56.2387 67.5541 56.4924 67.2797 56.9999C67.0091 57.5073 66.8737 58.3418 66.8737 59.5033C66.8737 60.631 67.0109 61.4561 67.2853 61.9786C67.5635 62.5011 68.0033 62.7623 68.6047 62.7623C69.2024 62.7623 69.6403 62.4954 69.9185 61.9617C70.1966 61.4279 70.3357 60.6084 70.3357 59.5033ZM77.7953 59.5033C77.7953 60.8302 77.5604 61.8433 77.0905 62.5424C76.6244 63.2416 75.9347 63.5912 75.0212 63.5912C74.1078 63.5912 73.4218 63.2435 72.9632 62.5481C72.5046 61.8527 72.2753 60.8377 72.2753 59.5033C72.2753 58.1388 72.4971 57.1164 72.9407 56.436C73.388 55.7557 74.0928 55.4155 75.0551 55.4155C75.991 55.4155 76.6808 55.7594 77.1244 56.4473C77.5717 57.1352 77.7953 58.1539 77.7953 59.5033ZM76.7635 59.5033C76.7635 58.3568 76.6301 57.5261 76.3632 57.0111C76.1 56.4962 75.664 56.2387 75.0551 56.2387C74.4311 56.2387 73.9819 56.4924 73.7075 56.9999C73.4368 57.5073 73.3015 58.3418 73.3015 59.5033C73.3015 60.631 73.4387 61.4561 73.7131 61.9786C73.9913 62.5011 74.4311 62.7623 75.0325 62.7623C75.6302 62.7623 76.0681 62.4954 76.3463 61.9617C76.6244 61.4279 76.7635 60.6084 76.7635 59.5033Z" fill="white"/>
<rect x="28.6936" y="46.2922" width="69.0861" height="25.3723" rx="6.18613" stroke="#EFE9FF" stroke-width="0.824818"/>
<path d="M33.0899 89.9893L30.1225 84.7456C30.1805 85.2547 30.2095 85.6639 30.2095 85.9732V89.9893H28.9433V83.1797H30.572L33.5829 88.467C33.5249 87.9804 33.4959 87.5374 33.4959 87.1379V83.1797H34.7621V89.9893H33.0899ZM38.323 90.086C37.8172 90.086 37.4225 89.949 37.139 89.6752C36.8554 89.3981 36.7137 89.0098 36.7137 88.5104C36.7137 87.9692 36.8893 87.5568 37.2404 87.2732C37.5949 86.9897 38.1071 86.8447 38.7773 86.8383L39.9034 86.8189V86.5531C39.9034 86.2116 39.8438 85.9587 39.7246 85.7943C39.6054 85.6268 39.4104 85.543 39.1398 85.543C38.8885 85.543 38.7032 85.601 38.584 85.717C38.468 85.8298 38.3955 86.0183 38.3665 86.2825L36.9505 86.2148C37.0375 85.7057 37.2694 85.3207 37.6464 85.0597C38.0266 84.7955 38.5437 84.6634 39.1978 84.6634C39.8583 84.6634 40.3673 84.8262 40.725 85.1516C41.0826 85.477 41.2614 85.9393 41.2614 86.5386V88.4428C41.2614 88.736 41.2937 88.939 41.3581 89.0517C41.4258 89.1613 41.5369 89.2161 41.6916 89.2161C41.7947 89.2161 41.8945 89.2064 41.9912 89.1871V89.9217C41.9107 89.941 41.8382 89.9587 41.7737 89.9748C41.7093 89.9909 41.6448 90.0038 41.5804 90.0135C41.516 90.0231 41.4467 90.0312 41.3726 90.0376C41.3017 90.0441 41.2179 90.0473 41.1213 90.0473C40.7798 90.0473 40.5268 89.9635 40.3625 89.796C40.2014 89.6285 40.1048 89.382 40.0725 89.0566H40.0435C39.6633 89.7428 39.0898 90.086 38.323 90.086ZM39.9034 87.568L39.2074 87.5777C38.8917 87.5906 38.6678 87.626 38.5357 87.684C38.4036 87.7388 38.3021 87.8242 38.2312 87.9402C38.1635 88.0562 38.1297 88.2108 38.1297 88.4041C38.1297 88.6522 38.1861 88.8375 38.2989 88.9599C38.4148 89.0791 38.5679 89.1387 38.758 89.1387C38.9706 89.1387 39.1639 89.0807 39.3379 88.9647C39.5151 88.8488 39.6537 88.6893 39.7536 88.4863C39.8534 88.2801 39.9034 88.0626 39.9034 87.8338V87.568ZM46.6927 89.9893V87.0557C46.6927 86.1375 46.4285 85.6784 45.9001 85.6784C45.6262 85.6784 45.4023 85.8185 45.2283 86.0988C45.0575 86.3791 44.9721 86.7416 44.9721 87.1862V89.9893H43.6141V85.9297C43.6141 85.6494 43.6093 85.4206 43.5996 85.2434C43.5932 85.063 43.5851 84.9019 43.5754 84.7601H44.8707C44.8803 84.8213 44.8932 84.9856 44.9093 85.2531C44.9254 85.5173 44.9335 85.6993 44.9335 85.7992H44.9528C45.1204 85.3997 45.3282 85.1097 45.5763 84.9293C45.8276 84.7488 46.1272 84.6586 46.4752 84.6586C47.2742 84.6586 47.7591 85.0388 47.9299 85.7992H47.9589C48.1361 85.3932 48.3487 85.1016 48.5968 84.9244C48.8449 84.7472 49.1607 84.6586 49.5441 84.6586C50.0531 84.6586 50.4414 84.8326 50.7088 85.1806C50.9762 85.5253 51.1099 86.0215 51.1099 86.6691V89.9893H49.7616V87.0557C49.7616 86.1375 49.4974 85.6784 48.969 85.6784C48.7048 85.6784 48.4873 85.8072 48.3165 86.065C48.149 86.3195 48.0572 86.6723 48.041 87.1234V89.9893H46.6927ZM55.5504 90.086C54.7643 90.086 54.1602 89.854 53.7381 89.39C53.316 88.9229 53.105 88.243 53.105 87.3505C53.105 86.4871 53.3192 85.8233 53.7478 85.3594C54.1763 84.8954 54.7836 84.6634 55.5698 84.6634C56.3205 84.6634 56.894 84.9131 57.2903 85.4125C57.6866 85.9087 57.8847 86.6369 57.8847 87.597V87.6357H54.5307C54.5307 88.1448 54.6241 88.5298 54.811 88.7908C55.0011 89.0485 55.2701 89.1774 55.6181 89.1774C56.0982 89.1774 56.401 88.9696 56.5267 88.5539L57.8074 88.6651C57.4369 89.6124 56.6846 90.086 55.5504 90.086ZM55.5504 85.5189C55.2315 85.5189 54.985 85.63 54.811 85.8523C54.6402 86.0747 54.55 86.3856 54.5403 86.7851H56.5702C56.5444 86.363 56.4429 86.0473 56.2657 85.8378C56.0885 85.6252 55.8501 85.5189 55.5504 85.5189Z" fill="#EFE9FF"/>
<path d="M55.2489 113.993C55.2489 114.726 54.9613 115.294 54.3862 115.696C53.8149 116.098 53.0086 116.299 51.9673 116.299C50.0315 116.299 48.9094 115.626 48.6012 114.281L49.6443 114.072C49.7646 114.549 50.0202 114.901 50.4111 115.126C50.8021 115.348 51.334 115.459 52.0068 115.459C52.7022 115.459 53.2379 115.341 53.6138 115.104C53.9934 114.863 54.1832 114.512 54.1832 114.05C54.1832 113.79 54.1231 113.58 54.0028 113.418C53.8863 113.256 53.7209 113.123 53.5066 113.018C53.2924 112.912 53.0368 112.824 52.7398 112.753C52.4428 112.681 52.1139 112.604 51.7531 112.522C51.1253 112.382 50.648 112.243 50.3209 112.104C49.9977 111.965 49.7421 111.811 49.5541 111.642C49.3662 111.469 49.2214 111.268 49.1199 111.039C49.0222 110.809 48.9733 110.546 48.9733 110.249C48.9733 109.569 49.2327 109.044 49.7514 108.676C50.2739 108.308 51.0201 108.124 51.9899 108.124C52.892 108.124 53.5818 108.263 54.0592 108.541C54.5366 108.815 54.8711 109.285 55.0628 109.95L54.0028 110.136C53.8863 109.715 53.6645 109.411 53.3375 109.223C53.0104 109.031 52.5575 108.935 51.9786 108.935C51.3434 108.935 50.8585 109.041 50.5239 109.251C50.1894 109.462 50.0221 109.776 50.0221 110.193C50.0221 110.437 50.086 110.64 50.2138 110.802C50.3454 110.96 50.5333 111.095 50.7776 111.208C51.022 111.317 51.5088 111.452 52.238 111.614C52.4823 111.67 52.7248 111.728 52.9653 111.789C53.2097 111.845 53.4427 111.914 53.6645 111.997C53.8863 112.076 54.093 112.17 54.2847 112.279C54.4802 112.388 54.6493 112.522 54.7922 112.679C54.935 112.837 55.0459 113.023 55.1248 113.238C55.2075 113.452 55.2489 113.704 55.2489 113.993ZM59.8385 109.122V116.186H58.7673V109.122H56.0383V108.242H62.5675V109.122H59.8385ZM71.0533 112.178C71.0533 113.008 70.8936 113.736 70.5741 114.36C70.2583 114.984 69.8035 115.463 69.2096 115.797C68.6157 116.132 67.9146 116.299 67.1064 116.299C66.2908 116.299 65.586 116.134 64.992 115.803C64.4019 115.472 63.9508 114.995 63.6388 114.371C63.3268 113.743 63.1708 113.012 63.1708 112.178C63.1708 110.907 63.5185 109.915 64.2139 109.2C64.9094 108.483 65.8773 108.124 67.1177 108.124C67.9259 108.124 68.6269 108.285 69.2208 108.608C69.8148 108.928 70.2677 109.394 70.5797 110.007C70.8955 110.619 71.0533 111.343 71.0533 112.178ZM69.9538 112.178C69.9538 111.189 69.7058 110.413 69.2096 109.849C68.7172 109.285 68.0199 109.003 67.1177 109.003C66.2081 109.003 65.5051 109.281 65.009 109.838C64.5128 110.394 64.2647 111.174 64.2647 112.178C64.2647 113.174 64.5147 113.965 65.0146 114.551C65.5183 115.134 66.2156 115.425 67.1064 115.425C68.0236 115.425 68.7265 115.143 69.2152 114.58C69.7076 114.012 69.9538 113.211 69.9538 112.178ZM78.7046 110.633C78.7046 111.384 78.4584 111.982 77.966 112.426C77.4773 112.869 76.812 113.091 75.97 113.091H73.6357V116.186H72.5588V108.242H75.9024C76.7932 108.242 77.483 108.451 77.9716 108.868C78.4603 109.285 78.7046 109.873 78.7046 110.633ZM77.6221 110.644C77.6221 109.618 77.0056 109.105 75.7727 109.105H73.6357V112.24H75.8178C77.0206 112.24 77.6221 111.708 77.6221 110.644Z" fill="white"/>
<rect x="28.6936" y="99.0003" width="70.7664" height="25.3723" rx="6.18613" stroke="#EFE9FF" stroke-width="0.824818"/>
<path d="M34.5978 142.697V138.57C34.5978 138.477 34.5978 138.383 34.5978 138.29C34.601 138.196 34.6171 137.795 34.6461 137.086C34.4174 137.953 34.2482 138.557 34.1387 138.899L32.9111 142.697H31.8962L30.6686 138.899L30.1515 137.086C30.1902 137.834 30.2095 138.328 30.2095 138.57V142.697H28.9433V135.888H30.8523L32.0702 139.696L32.1765 140.063L32.4085 140.977L32.713 139.885L33.9647 135.888H35.864V142.697H34.5978ZM38.207 136.526V135.525H39.5651V136.526H38.207ZM38.207 142.697V137.468H39.5651V142.697H38.207ZM45.3394 142.697V139.764C45.3394 138.846 45.0285 138.386 44.4067 138.386C44.0781 138.386 43.8122 138.528 43.6093 138.812C43.4095 139.092 43.3096 139.453 43.3096 139.894V142.697H41.9516V138.638C41.9516 138.357 41.9467 138.129 41.9371 137.951C41.9306 137.771 41.9226 137.61 41.9129 137.468H43.2081C43.2178 137.529 43.2307 137.694 43.2468 137.961C43.2629 138.225 43.271 138.407 43.271 138.507H43.2903C43.4739 138.108 43.7043 137.818 43.9814 137.637C44.2585 137.457 44.5887 137.367 44.9721 137.367C45.5263 137.367 45.9516 137.537 46.248 137.879C46.5445 138.221 46.6927 138.72 46.6927 139.377V142.697H45.3394ZM48.9922 136.526V135.525H50.3502V136.526H48.9922ZM48.9922 142.697V137.468H50.3502V142.697H48.9922ZM55.8153 142.697V139.764C55.8153 138.846 55.5511 138.386 55.0227 138.386C54.7488 138.386 54.5249 138.527 54.3509 138.807C54.1801 139.087 54.0948 139.45 54.0948 139.894V142.697H52.7367V138.638C52.7367 138.357 52.7319 138.129 52.7222 137.951C52.7158 137.771 52.7077 137.61 52.698 137.468H53.9933C54.0029 137.529 54.0158 137.694 54.0319 137.961C54.048 138.225 54.0561 138.407 54.0561 138.507H54.0754C54.243 138.108 54.4508 137.818 54.6989 137.637C54.9502 137.457 55.2498 137.367 55.5978 137.367C56.3968 137.367 56.8817 137.747 57.0525 138.507H57.0815C57.2587 138.101 57.4714 137.81 57.7194 137.633C57.9675 137.455 58.2833 137.367 58.6667 137.367C59.1758 137.367 59.564 137.541 59.8314 137.889C60.0988 138.233 60.2326 138.73 60.2326 139.377V142.697H58.8842V139.764C58.8842 138.846 58.62 138.386 58.0916 138.386C57.8274 138.386 57.6099 138.515 57.4391 138.773C57.2716 139.028 57.1798 139.38 57.1637 139.831V142.697H55.8153ZM63.8128 137.468V140.402C63.8128 141.32 64.1221 141.779 64.7407 141.779C65.0693 141.779 65.3335 141.639 65.5333 141.359C65.7363 141.075 65.8378 140.713 65.8378 140.271V137.468H67.1958V141.528C67.1958 141.972 67.2087 142.362 67.2345 142.697H65.9393C65.9006 142.233 65.8813 141.887 65.8813 141.658H65.8571C65.6767 142.055 65.4463 142.343 65.166 142.523C64.8889 142.704 64.5587 142.794 64.1752 142.794C63.6211 142.794 63.1958 142.625 62.8994 142.287C62.6029 141.945 62.4547 141.446 62.4547 140.788V137.468H63.8128ZM72.6512 142.697V139.764C72.6512 138.846 72.387 138.386 71.8586 138.386C71.5848 138.386 71.3608 138.527 71.1868 138.807C71.0161 139.087 70.9307 139.45 70.9307 139.894V142.697H69.5726V138.638C69.5726 138.357 69.5678 138.129 69.5582 137.951C69.5517 137.771 69.5437 137.61 69.534 137.468H70.8292C70.8389 137.529 70.8518 137.694 70.8679 137.961C70.884 138.225 70.892 138.407 70.892 138.507H70.9114C71.0789 138.108 71.2867 137.818 71.5348 137.637C71.7861 137.457 72.0858 137.367 72.4337 137.367C73.2328 137.367 73.7177 137.747 73.8884 138.507H73.9174C74.0946 138.101 74.3073 137.81 74.5554 137.633C74.8035 137.455 75.1192 137.367 75.5026 137.367C76.0117 137.367 76.3999 137.541 76.6674 137.889C76.9348 138.233 77.0685 138.73 77.0685 139.377V142.697H75.7201V139.764C75.7201 138.846 75.4559 138.386 74.9275 138.386C74.6633 138.386 74.4458 138.515 74.2751 138.773C74.1075 139.028 74.0157 139.38 73.9996 139.831V142.697H72.6512ZM86.3168 141.678C86.6873 141.678 87.0465 141.625 87.3945 141.518C87.7425 141.409 88.0115 141.27 88.2016 141.103V140.16H86.5391V139.107H89.5065V141.61C89.1456 141.981 88.6752 142.271 88.0953 142.48C87.5186 142.689 86.9128 142.794 86.2781 142.794C85.1698 142.794 84.3175 142.488 83.7215 141.876C83.1254 141.26 82.8274 140.389 82.8274 139.261C82.8274 138.14 83.127 137.281 83.7263 136.685C84.3256 136.086 85.1875 135.786 86.3119 135.786C87.91 135.786 88.9265 136.378 89.3615 137.56L88.0469 137.956C87.9052 137.612 87.6829 137.351 87.38 137.173C87.0771 136.996 86.7211 136.908 86.3119 136.908C85.6418 136.908 85.1327 137.111 84.7847 137.517C84.4368 137.922 84.2628 138.504 84.2628 139.261C84.2628 140.031 84.4416 140.627 84.7992 141.049C85.1601 141.468 85.6659 141.678 86.3168 141.678ZM93.0142 142.794C92.5084 142.794 92.1137 142.657 91.8302 142.383C91.5466 142.106 91.4049 141.718 91.4049 141.219C91.4049 140.677 91.5805 140.265 91.9316 139.981C92.2861 139.698 92.7983 139.553 93.4685 139.546L94.5946 139.527V139.261C94.5946 138.92 94.535 138.667 94.4158 138.502C94.2966 138.335 94.1016 138.251 93.831 138.251C93.5797 138.251 93.3944 138.309 93.2752 138.425C93.1592 138.538 93.0867 138.726 93.0577 138.991L91.6417 138.923C91.7287 138.414 91.9606 138.029 92.3376 137.768C92.7178 137.504 93.2349 137.372 93.889 137.372C94.5495 137.372 95.0585 137.534 95.4162 137.86C95.7738 138.185 95.9526 138.647 95.9526 139.247V141.151C95.9526 141.444 95.9849 141.647 96.0493 141.76C96.117 141.869 96.2281 141.924 96.3828 141.924C96.4859 141.924 96.5857 141.914 96.6824 141.895V142.63C96.6019 142.649 96.5294 142.667 96.4649 142.683C96.4005 142.699 96.336 142.712 96.2716 142.722C96.2072 142.731 96.1379 142.739 96.0638 142.746C95.9929 142.752 95.9091 142.755 95.8125 142.755C95.471 142.755 95.218 142.672 95.0537 142.504C94.8926 142.337 94.796 142.09 94.7637 141.765H94.7347C94.3545 142.451 93.781 142.794 93.0142 142.794ZM94.5946 140.276L93.8986 140.286C93.5829 140.299 93.359 140.334 93.2269 140.392C93.0948 140.447 92.9933 140.532 92.9224 140.648C92.8547 140.764 92.8209 140.919 92.8209 141.112C92.8209 141.36 92.8773 141.546 92.9901 141.668C93.106 141.787 93.2591 141.847 93.4492 141.847C93.6618 141.847 93.8551 141.789 94.0291 141.673C94.2063 141.557 94.3449 141.397 94.4448 141.194C94.5446 140.988 94.5946 140.771 94.5946 140.542V140.276ZM102.713 141.17C102.713 141.676 102.505 142.074 102.089 142.364C101.677 142.651 101.105 142.794 100.374 142.794C99.6553 142.794 99.1043 142.681 98.7209 142.456C98.3407 142.227 98.0878 141.873 97.9622 141.393L99.1559 141.214C99.2235 141.462 99.3395 141.637 99.5039 141.741C99.6714 141.844 99.9614 141.895 100.374 141.895C100.754 141.895 101.031 141.847 101.205 141.75C101.379 141.654 101.466 141.502 101.466 141.296C101.466 141.128 101.395 140.996 101.253 140.9C101.115 140.8 100.878 140.716 100.543 140.648C99.7761 140.497 99.259 140.357 98.9916 140.228C98.7241 140.096 98.5196 139.927 98.3778 139.72C98.2392 139.511 98.17 139.255 98.17 138.952C98.17 138.453 98.3617 138.064 98.7451 137.787C99.1317 137.507 99.6778 137.367 100.383 137.367C101.005 137.367 101.505 137.488 101.882 137.729C102.262 137.971 102.499 138.32 102.592 138.778L101.389 138.904C101.35 138.691 101.255 138.533 101.104 138.43C100.952 138.324 100.712 138.27 100.383 138.27C100.061 138.27 99.8196 138.312 99.6585 138.396C99.4974 138.477 99.4169 138.614 99.4169 138.807C99.4169 138.958 99.4781 139.079 99.6005 139.169C99.7262 139.256 99.9356 139.329 100.229 139.387C100.638 139.471 101 139.558 101.316 139.648C101.635 139.735 101.89 139.84 102.08 139.962C102.273 140.084 102.426 140.242 102.539 140.436C102.655 140.626 102.713 140.871 102.713 141.17Z" fill="#EFE9FF"/>
<path d="M54.0479 164.919C54.0479 166.246 53.813 167.259 53.3431 167.958C52.877 168.658 52.1872 169.007 51.2738 169.007C50.3604 169.007 49.6744 168.66 49.2158 167.964C48.7572 167.269 48.5279 166.254 48.5279 164.919C48.5279 163.555 48.7497 162.532 49.1932 161.852C49.6406 161.172 50.3454 160.832 51.3076 160.832C52.2436 160.832 52.9334 161.175 53.3769 161.863C53.8243 162.551 54.0479 163.57 54.0479 164.919ZM53.0161 164.919C53.0161 163.773 52.8826 162.942 52.6158 162.427C52.3526 161.912 51.9166 161.655 51.3076 161.655C50.6837 161.655 50.2345 161.908 49.9601 162.416C49.6894 162.923 49.5541 163.758 49.5541 164.919C49.5541 166.047 49.6913 166.872 49.9657 167.395C50.2439 167.917 50.6837 168.178 51.2851 168.178C51.8828 168.178 52.3207 167.912 52.5988 167.378C52.877 166.844 53.0161 166.025 53.0161 164.919ZM60.4757 164.919C60.4757 166.246 60.2408 167.259 59.7709 167.958C59.3048 168.658 58.615 169.007 57.7016 169.007C56.7882 169.007 56.1022 168.66 55.6436 167.964C55.185 167.269 54.9557 166.254 54.9557 164.919C54.9557 163.555 55.1775 162.532 55.621 161.852C56.0683 161.172 56.7731 160.832 57.7354 160.832C58.6714 160.832 59.3612 161.175 59.8047 161.863C60.252 162.551 60.4757 163.57 60.4757 164.919ZM59.4439 164.919C59.4439 163.773 59.3104 162.942 59.0435 162.427C58.7804 161.912 58.3444 161.655 57.7354 161.655C57.1114 161.655 56.6622 161.908 56.3878 162.416C56.1172 162.923 55.9819 163.758 55.9819 164.919C55.9819 166.047 56.1191 166.872 56.3935 167.395C56.6716 167.917 57.1114 168.178 57.7129 168.178C58.3105 168.178 58.7485 167.912 59.0266 167.378C59.3048 166.844 59.4439 166.025 59.4439 164.919ZM66.9035 164.919C66.9035 166.246 66.6685 167.259 66.1987 167.958C65.7326 168.658 65.0428 169.007 64.1294 169.007C63.216 169.007 62.5299 168.66 62.0714 167.964C61.6128 167.269 61.3835 166.254 61.3835 164.919C61.3835 163.555 61.6052 162.532 62.0488 161.852C62.4961 161.172 63.2009 160.832 64.1632 160.832C65.0992 160.832 65.7889 161.175 66.2325 161.863C66.6798 162.551 66.9035 163.57 66.9035 164.919ZM65.8716 164.919C65.8716 163.773 65.7382 162.942 65.4713 162.427C65.2082 161.912 64.7721 161.655 64.1632 161.655C63.5392 161.655 63.09 161.908 62.8156 162.416C62.545 162.923 62.4097 163.758 62.4097 164.919C62.4097 166.047 62.5469 166.872 62.8213 167.395C63.0994 167.917 63.5392 168.178 64.1406 168.178C64.7383 168.178 65.1762 167.912 65.4544 167.378C65.7326 166.844 65.8716 166.025 65.8716 164.919Z" fill="white"/>
<rect x="28.6936" y="151.708" width="58.7664" height="25.3723" rx="6.18613" stroke="#EFE9FF" stroke-width="0.824818"/>
</g>
<defs>
<filter id="filter0_f_1_95" x="0.904161" y="0.904161" width="129.754" height="203.966" filterUnits="userSpaceOnUse" color-interpolation-filters="sRGB">
<feFlood flood-opacity="0" result="BackgroundImageFix"/>
<feBlend mode="normal" in="SourceGraphic" in2="BackgroundImageFix" result="shape"/>
<feGaussianBlur stdDeviation="2.54792" result="effect1_foregroundBlur_1_95"/>
</filter>
<linearGradient id="paint0_linear_1_95" x1="-8.40511" y1="-43.8684" x2="206.024" y2="184.302" gradientUnits="userSpaceOnUse">
<stop stop-color="#41B9CA"/>
<stop offset="1" stop-color="#83F9EA"/>
</linearGradient>
</defs>
</svg>
