<svg width="103" height="205" viewBox="0 0 103 205" fill="none" xmlns="http://www.w3.org/2000/svg">
<g filter="url(#filter0_f_1_114)">
<rect x="-22" y="6" width="119.562" height="193.774" rx="8.91249" fill="url(#paint0_linear_1_114)"/>
<path d="M7.56439 33.845C7.56439 34.5538 7.42424 35.1773 7.14393 35.7154C6.86362 36.2534 6.46249 36.6658 5.94053 36.9526C5.41858 37.2361 4.80963 37.3779 4.11369 37.3779C3.04401 37.3779 2.20469 37.0637 1.59574 36.4355C0.990017 35.804 0.687154 34.9405 0.687154 33.845C0.687154 32.7528 0.990017 31.9006 1.59574 31.2884C2.20147 30.6762 3.04401 30.3702 4.12336 30.3702C5.20271 30.3702 6.04525 30.6795 6.65097 31.2981C7.25992 31.9167 7.56439 32.7657 7.56439 33.845ZM6.10968 33.845C6.10968 33.1104 5.9357 32.5353 5.58773 32.1197C5.23976 31.7008 4.75164 31.4914 4.12336 31.4914C3.48541 31.4914 2.99245 31.6992 2.64448 32.1148C2.29651 32.5272 2.12253 33.104 2.12253 33.845C2.12253 34.5925 2.29974 35.1821 2.65415 35.6139C3.01179 36.0424 3.4983 36.2566 4.11369 36.2566C4.75164 36.2566 5.24298 36.0472 5.58773 35.6284C5.9357 35.2095 6.10968 34.6151 6.10968 33.845ZM15.2381 32.6271C15.2381 33.0653 15.1382 33.4568 14.9385 33.8015C14.7387 34.1463 14.4519 34.4137 14.0782 34.6038C13.7077 34.7907 13.2663 34.8841 12.754 34.8841H11.0625V37.2812H9.63675V30.4716H12.696C13.5111 30.4716 14.1378 30.6601 14.576 31.0371C15.0174 31.4108 15.2381 31.9408 15.2381 32.6271ZM13.8027 32.6513C13.8027 31.936 13.3806 31.5784 12.5365 31.5784H11.0625V33.787H12.5752C12.9682 33.787 13.2711 33.6904 13.4837 33.497C13.6964 33.3005 13.8027 33.0186 13.8027 32.6513ZM20.4083 36.2566C21.2686 36.2566 21.8663 35.8249 22.2014 34.9614L23.4434 35.4302C23.176 36.0875 22.7829 36.5772 22.2642 36.8994C21.7487 37.2184 21.1301 37.3779 20.4083 37.3779C19.3129 37.3779 18.4655 37.0686 17.8662 36.45C17.2702 35.8281 16.9721 34.9598 16.9721 33.845C16.9721 32.727 17.2605 31.8684 17.8372 31.2691C18.414 30.6698 19.2501 30.3702 20.3455 30.3702C21.1446 30.3702 21.7954 30.5312 22.298 30.8534C22.8006 31.1724 23.1534 31.6428 23.3564 32.2647L22.0999 32.6078C21.9935 32.2663 21.7841 31.9956 21.4716 31.7959C21.1623 31.5929 20.7966 31.4914 20.3745 31.4914C19.7301 31.4914 19.2404 31.6911 18.9053 32.0907C18.5734 32.4902 18.4075 33.075 18.4075 33.845C18.4075 34.6279 18.5783 35.2256 18.9198 35.638C19.2646 36.0504 19.7607 36.2566 20.4083 36.2566ZM30.368 34.6618C30.368 35.5092 30.1328 36.1745 29.6624 36.6578C29.192 37.1378 28.5412 37.3779 27.7099 37.3779C26.8948 37.3779 26.2552 37.1362 25.7912 36.6529C25.3273 36.1696 25.0953 35.5059 25.0953 34.6618C25.0953 33.8209 25.3273 33.1604 25.7912 32.6803C26.2552 32.197 26.9044 31.9553 27.7389 31.9553C28.5927 31.9553 29.2436 32.1889 29.6914 32.6561C30.1425 33.1201 30.368 33.7886 30.368 34.6618ZM28.9471 34.6618C28.9471 34.0399 28.8457 33.5889 28.6427 33.3086C28.4397 33.0283 28.1449 32.8881 27.7582 32.8881C26.9334 32.8881 26.521 33.4793 26.521 34.6618C26.521 35.245 26.6209 35.6896 26.8207 35.9957C27.0236 36.2985 27.3152 36.45 27.6954 36.45C28.5299 36.45 28.9471 35.8539 28.9471 34.6618ZM35.8282 37.2812C35.8154 37.2329 35.7992 37.1121 35.7799 36.9188C35.7638 36.7222 35.7558 36.5595 35.7558 36.4306H35.7364C35.4432 37.0621 34.8858 37.3779 34.0642 37.3779C33.4553 37.3779 32.9849 37.1411 32.653 36.6674C32.3212 36.1906 32.1552 35.5253 32.1552 34.6714C32.1552 33.8047 32.3292 33.1362 32.6772 32.6658C33.0284 32.1922 33.5246 31.9553 34.1657 31.9553C34.5362 31.9553 34.8552 32.0327 35.1226 32.1873C35.3933 32.342 35.6011 32.5723 35.7461 32.8784H35.7558L35.7461 32.0182V30.1092H37.1041V36.1407C37.1041 36.4628 37.117 36.843 37.1428 37.2812H35.8282ZM35.7654 34.6376C35.7654 34.0738 35.6704 33.6404 35.4803 33.3376C35.2934 33.0315 35.0163 32.8784 34.649 32.8784C34.2849 32.8784 34.0143 33.0266 33.8371 33.3231C33.6599 33.6163 33.5713 34.0657 33.5713 34.6714C33.5713 35.8571 33.9273 36.45 34.6393 36.45C34.997 36.45 35.2741 36.2937 35.4706 35.9812C35.6671 35.6654 35.7654 35.2176 35.7654 34.6376ZM41.6219 37.3779C40.8358 37.3779 40.2317 37.1459 39.8096 36.6819C39.3875 36.2148 39.1765 35.5349 39.1765 34.6424C39.1765 33.779 39.3907 33.1152 39.8193 32.6513C40.2478 32.1873 40.8551 31.9553 41.6413 31.9553C42.392 31.9553 42.9655 32.205 43.3618 32.7044C43.7581 33.2006 43.9562 33.9288 43.9562 34.8889V34.9276H40.6022C40.6022 35.4367 40.6956 35.8217 40.8825 36.0827C41.0726 36.3404 41.3416 36.4693 41.6896 36.4693C42.1697 36.4693 42.4725 36.2615 42.5982 35.8458L43.8789 35.957C43.5084 36.9043 42.7561 37.3779 41.6219 37.3779ZM41.6219 32.8108C41.303 32.8108 41.0565 32.9219 40.8825 33.1442C40.7117 33.3666 40.6215 33.6775 40.6119 34.077H42.6417C42.6159 33.6549 42.5144 33.3392 42.3372 33.1297C42.16 32.9171 41.9216 32.8108 41.6219 32.8108Z" fill="#EFE9FF"/>
<path d="M25.8748 58.1292C24.9369 57.1913 23.4163 57.1913 22.4784 58.1292L20.7803 59.8274C19.8424 60.7653 19.8424 62.2859 20.7803 63.2238C21.7181 64.1616 23.2387 64.1616 24.1766 63.2238L25.0257 62.3746" stroke="white" stroke-width="1.64964" stroke-linecap="round" stroke-linejoin="round"/>
<path d="M24.1752 59.8274C25.113 60.7653 26.6337 60.7653 27.5715 59.8274L29.2697 58.1292C30.2076 57.1913 30.2076 55.6707 29.2697 54.7329C28.3318 53.795 26.8112 53.795 25.8733 54.7329L25.0243 55.582" stroke="white" stroke-width="1.64964" stroke-linecap="round" stroke-linejoin="round"/>
<path d="M43.3676 59.5033C43.3676 60.8302 43.1326 61.8432 42.6628 62.5424C42.1966 63.2415 41.5069 63.5911 40.5935 63.5911C39.68 63.5911 38.994 63.2434 38.5354 62.548C38.0769 61.8526 37.8476 60.8377 37.8476 59.5033C37.8476 58.1388 38.0693 57.1163 38.5129 56.436C38.9602 55.7556 39.665 55.4154 40.6273 55.4154C41.5633 55.4154 42.253 55.7594 42.6966 56.4472C43.1439 57.1351 43.3676 58.1538 43.3676 59.5033ZM42.3357 59.5033C42.3357 58.3568 42.2023 57.5261 41.9354 57.0111C41.6723 56.4961 41.2362 56.2386 40.6273 56.2386C40.0033 56.2386 39.5541 56.4924 39.2797 56.9998C39.0091 57.5073 38.8737 58.3417 38.8737 59.5033C38.8737 60.6309 39.0109 61.456 39.2853 61.9785C39.5635 62.501 40.0033 62.7623 40.6047 62.7623C41.2024 62.7623 41.6403 62.4954 41.9185 61.9616C42.1966 61.4278 42.3357 60.6084 42.3357 59.5033ZM49.7953 59.5033C49.7953 60.8302 49.5604 61.8432 49.0905 62.5424C48.6244 63.2415 47.9347 63.5911 47.0212 63.5911C46.1078 63.5911 45.4218 63.2434 44.9632 62.548C44.5046 61.8526 44.2753 60.8377 44.2753 59.5033C44.2753 58.1388 44.4971 57.1163 44.9407 56.436C45.388 55.7556 46.0928 55.4154 47.0551 55.4154C47.991 55.4154 48.6808 55.7594 49.1244 56.4472C49.5717 57.1351 49.7953 58.1538 49.7953 59.5033ZM48.7635 59.5033C48.7635 58.3568 48.6301 57.5261 48.3632 57.0111C48.1 56.4961 47.664 56.2386 47.0551 56.2386C46.4311 56.2386 45.9819 56.4924 45.7075 56.9998C45.4368 57.5073 45.3015 58.3417 45.3015 59.5033C45.3015 60.6309 45.4387 61.456 45.7131 61.9785C45.9913 62.501 46.4311 62.7623 47.0325 62.7623C47.6302 62.7623 48.0681 62.4954 48.3463 61.9616C48.6244 61.4278 48.7635 60.6084 48.7635 59.5033Z" fill="white"/>
<rect x="0.693598" y="46.2922" width="69.0861" height="25.3723" rx="6.18613" stroke="#EFE9FF" stroke-width="0.824818"/>
<path d="M5.08994 89.9893L2.12253 84.7456C2.18052 85.2547 2.20952 85.6639 2.20952 85.9732V89.9893H0.943298V83.1797H2.57199L5.5829 88.467C5.5249 87.9804 5.4959 87.5374 5.4959 87.1379V83.1797H6.76213V89.9893H5.08994ZM10.323 90.086C9.81717 90.086 9.42249 89.949 9.13896 89.6752C8.85542 89.3981 8.71366 89.0098 8.71366 88.5104C8.71366 87.9692 8.88925 87.5568 9.24045 87.2732C9.59486 86.9897 10.1071 86.8447 10.7773 86.8383L11.9034 86.8189V86.5531C11.9034 86.2116 11.8438 85.9587 11.7246 85.7943C11.6054 85.6268 11.4104 85.543 11.1398 85.543C10.8885 85.543 10.7032 85.601 10.584 85.717C10.468 85.8298 10.3955 86.0183 10.3665 86.2825L8.95047 86.2148C9.03746 85.7057 9.26944 85.3207 9.64641 85.0597C10.0266 84.7955 10.5437 84.6634 11.1978 84.6634C11.8583 84.6634 12.3673 84.8262 12.725 85.1516C13.0826 85.477 13.2614 85.9393 13.2614 86.5386V88.4428C13.2614 88.736 13.2937 88.939 13.3581 89.0517C13.4258 89.1613 13.5369 89.2161 13.6916 89.2161C13.7947 89.2161 13.8945 89.2064 13.9912 89.1871V89.9217C13.9107 89.941 13.8382 89.9587 13.7737 89.9748C13.7093 89.9909 13.6448 90.0038 13.5804 90.0135C13.516 90.0231 13.4467 90.0312 13.3726 90.0376C13.3017 90.0441 13.2179 90.0473 13.1213 90.0473C12.7798 90.0473 12.5268 89.9635 12.3625 89.796C12.2014 89.6285 12.1048 89.382 12.0725 89.0566H12.0435C11.6633 89.7428 11.0898 90.086 10.323 90.086ZM11.9034 87.568L11.2074 87.5777C10.8917 87.5906 10.6678 87.626 10.5357 87.684C10.4036 87.7388 10.3021 87.8242 10.2312 87.9402C10.1635 88.0562 10.1297 88.2108 10.1297 88.4041C10.1297 88.6522 10.1861 88.8375 10.2989 88.9599C10.4148 89.0791 10.5679 89.1387 10.758 89.1387C10.9706 89.1387 11.1639 89.0807 11.3379 88.9647C11.5151 88.8488 11.6537 88.6893 11.7536 88.4863C11.8534 88.2801 11.9034 88.0626 11.9034 87.8338V87.568ZM18.6927 89.9893V87.0557C18.6927 86.1375 18.4285 85.6784 17.9001 85.6784C17.6262 85.6784 17.4023 85.8185 17.2283 86.0988C17.0575 86.3791 16.9721 86.7416 16.9721 87.1862V89.9893H15.6141V85.9297C15.6141 85.6494 15.6093 85.4206 15.5996 85.2434C15.5932 85.063 15.5851 84.9019 15.5754 84.7601H16.8707C16.8803 84.8213 16.8932 84.9856 16.9093 85.2531C16.9254 85.5173 16.9335 85.6993 16.9335 85.7992H16.9528C17.1204 85.3997 17.3282 85.1097 17.5763 84.9293C17.8276 84.7488 18.1272 84.6586 18.4752 84.6586C19.2742 84.6586 19.7591 85.0388 19.9299 85.7992H19.9589C20.1361 85.3932 20.3487 85.1016 20.5968 84.9244C20.8449 84.7472 21.1607 84.6586 21.5441 84.6586C22.0531 84.6586 22.4414 84.8326 22.7088 85.1806C22.9762 85.5253 23.1099 86.0215 23.1099 86.6691V89.9893H21.7616V87.0557C21.7616 86.1375 21.4974 85.6784 20.969 85.6784C20.7048 85.6784 20.4873 85.8072 20.3165 86.065C20.149 86.3195 20.0572 86.6723 20.041 87.1234V89.9893H18.6927ZM27.5504 90.086C26.7643 90.086 26.1602 89.854 25.7381 89.39C25.316 88.9229 25.105 88.243 25.105 87.3505C25.105 86.4871 25.3192 85.8233 25.7478 85.3594C26.1763 84.8954 26.7836 84.6634 27.5698 84.6634C28.3205 84.6634 28.894 84.9131 29.2903 85.4125C29.6866 85.9087 29.8847 86.6369 29.8847 87.597V87.6357H26.5307C26.5307 88.1448 26.6241 88.5298 26.811 88.7908C27.0011 89.0485 27.2701 89.1774 27.6181 89.1774C28.0982 89.1774 28.401 88.9696 28.5267 88.5539L29.8074 88.6651C29.4369 89.6124 28.6846 90.086 27.5504 90.086ZM27.5504 85.5189C27.2315 85.5189 26.985 85.63 26.811 85.8523C26.6402 86.0747 26.55 86.3856 26.5403 86.7851H28.5702C28.5444 86.363 28.4429 86.0473 28.2657 85.8378C28.0885 85.6252 27.8501 85.5189 27.5504 85.5189Z" fill="#EFE9FF"/>
<path d="M27.2489 113.993C27.2489 114.726 26.9613 115.294 26.3862 115.696C25.8149 116.098 25.0086 116.299 23.9673 116.299C22.0315 116.299 20.9094 115.626 20.6012 114.281L21.6443 114.072C21.7646 114.549 22.0202 114.901 22.4111 115.126C22.8021 115.348 23.334 115.459 24.0068 115.459C24.7022 115.459 25.2379 115.341 25.6138 115.104C25.9934 114.863 26.1832 114.512 26.1832 114.05C26.1832 113.79 26.1231 113.58 26.0028 113.418C25.8863 113.256 25.7209 113.123 25.5066 113.018C25.2924 112.912 25.0368 112.824 24.7398 112.753C24.4428 112.681 24.1139 112.604 23.7531 112.522C23.1253 112.382 22.648 112.243 22.3209 112.104C21.9977 111.965 21.7421 111.811 21.5541 111.642C21.3662 111.469 21.2214 111.268 21.1199 111.039C21.0222 110.809 20.9733 110.546 20.9733 110.249C20.9733 109.569 21.2327 109.044 21.7514 108.676C22.2739 108.308 23.0201 108.124 23.9899 108.124C24.892 108.124 25.5818 108.263 26.0592 108.541C26.5366 108.815 26.8711 109.285 27.0628 109.95L26.0028 110.136C25.8863 109.715 25.6645 109.411 25.3375 109.223C25.0104 109.031 24.5575 108.935 23.9786 108.935C23.3434 108.935 22.8585 109.041 22.5239 109.251C22.1894 109.462 22.0221 109.776 22.0221 110.193C22.0221 110.437 22.086 110.64 22.2138 110.802C22.3454 110.96 22.5333 111.095 22.7776 111.208C23.022 111.317 23.5088 111.452 24.238 111.614C24.4823 111.67 24.7248 111.728 24.9653 111.789C25.2097 111.845 25.4427 111.914 25.6645 111.997C25.8863 112.076 26.093 112.17 26.2847 112.279C26.4802 112.388 26.6493 112.522 26.7922 112.679C26.935 112.837 27.0459 113.023 27.1248 113.238C27.2075 113.452 27.2489 113.704 27.2489 113.993ZM31.8385 109.122V116.186H30.7673V109.122H28.0383V108.242H34.5675V109.122H31.8385ZM43.0533 112.178C43.0533 113.008 42.8936 113.736 42.5741 114.36C42.2583 114.984 41.8035 115.463 41.2096 115.797C40.6157 116.132 39.9146 116.299 39.1064 116.299C38.2908 116.299 37.586 116.134 36.992 115.803C36.4019 115.472 35.9508 114.995 35.6388 114.371C35.3268 113.743 35.1708 113.012 35.1708 112.178C35.1708 110.907 35.5185 109.915 36.2139 109.2C36.9094 108.483 37.8773 108.124 39.1177 108.124C39.9259 108.124 40.6269 108.285 41.2208 108.608C41.8148 108.928 42.2677 109.394 42.5797 110.007C42.8955 110.619 43.0533 111.343 43.0533 112.178ZM41.9538 112.178C41.9538 111.189 41.7058 110.413 41.2096 109.849C40.7172 109.285 40.0199 109.003 39.1177 109.003C38.2081 109.003 37.5051 109.281 37.009 109.838C36.5128 110.394 36.2647 111.174 36.2647 112.178C36.2647 113.174 36.5147 113.965 37.0146 114.551C37.5183 115.134 38.2156 115.425 39.1064 115.425C40.0236 115.425 40.7265 115.143 41.2152 114.58C41.7076 114.012 41.9538 113.211 41.9538 112.178ZM50.7046 110.633C50.7046 111.384 50.4584 111.982 49.966 112.426C49.4773 112.869 48.812 113.091 47.97 113.091H45.6357V116.186H44.5588V108.242H47.9024C48.7932 108.242 49.483 108.451 49.9716 108.868C50.4603 109.285 50.7046 109.873 50.7046 110.633ZM49.6221 110.644C49.6221 109.618 49.0056 109.105 47.7727 109.105H45.6357V112.24H47.8178C49.0206 112.24 49.6221 111.708 49.6221 110.644Z" fill="white"/>
<rect x="0.693598" y="99.0003" width="70.7664" height="25.3723" rx="6.18613" stroke="#EFE9FF" stroke-width="0.824818"/>
<path d="M6.59781 142.697V138.57C6.59781 138.477 6.59781 138.383 6.59781 138.29C6.60103 138.196 6.61714 137.795 6.64614 137.086C6.41738 137.953 6.24823 138.557 6.13868 138.899L4.91112 142.697H3.89621L2.66865 138.899L2.15153 137.086C2.19019 137.834 2.20952 138.328 2.20952 138.57V142.697H0.943298V135.888H2.8523L4.07019 139.696L4.17652 140.064L4.4085 140.977L4.71297 139.885L5.9647 135.888H7.86403V142.697H6.59781ZM10.207 136.526V135.525H11.5651V136.526H10.207ZM10.207 142.697V137.468H11.5651V142.697H10.207ZM17.3394 142.697V139.764C17.3394 138.846 17.0285 138.386 16.4067 138.386C16.0781 138.386 15.8122 138.528 15.6093 138.812C15.4095 139.092 15.3096 139.453 15.3096 139.894V142.697H13.9516V138.638C13.9516 138.357 13.9467 138.129 13.9371 137.952C13.9306 137.771 13.9226 137.61 13.9129 137.468H15.2081C15.2178 137.529 15.2307 137.694 15.2468 137.961C15.2629 138.225 15.271 138.407 15.271 138.507H15.2903C15.4739 138.108 15.7043 137.818 15.9814 137.637C16.2585 137.457 16.5887 137.367 16.9721 137.367C17.5263 137.367 17.9516 137.538 18.248 137.879C18.5445 138.221 18.6927 138.72 18.6927 139.377V142.697H17.3394ZM20.9922 136.526V135.525H22.3502V136.526H20.9922ZM20.9922 142.697V137.468H22.3502V142.697H20.9922ZM27.8153 142.697V139.764C27.8153 138.846 27.5511 138.386 27.0227 138.386C26.7488 138.386 26.5249 138.527 26.3509 138.807C26.1801 139.087 26.0948 139.45 26.0948 139.894V142.697H24.7367V138.638C24.7367 138.357 24.7319 138.129 24.7222 137.952C24.7158 137.771 24.7077 137.61 24.698 137.468H25.9933C26.0029 137.529 26.0158 137.694 26.0319 137.961C26.048 138.225 26.0561 138.407 26.0561 138.507H26.0754C26.243 138.108 26.4508 137.818 26.6989 137.637C26.9502 137.457 27.2498 137.367 27.5978 137.367C28.3968 137.367 28.8817 137.747 29.0525 138.507H29.0815C29.2587 138.101 29.4714 137.81 29.7194 137.633C29.9675 137.455 30.2833 137.367 30.6667 137.367C31.1758 137.367 31.564 137.541 31.8314 137.889C32.0988 138.233 32.2326 138.73 32.2326 139.377V142.697H30.8842V139.764C30.8842 138.846 30.62 138.386 30.0916 138.386C29.8274 138.386 29.6099 138.515 29.4391 138.773C29.2716 139.028 29.1798 139.38 29.1637 139.832V142.697H27.8153ZM35.8128 137.468V140.402C35.8128 141.32 36.1221 141.779 36.7407 141.779C37.0693 141.779 37.3335 141.639 37.5333 141.359C37.7363 141.075 37.8378 140.713 37.8378 140.271V137.468H39.1958V141.528C39.1958 141.973 39.2087 142.362 39.2345 142.697H37.9393C37.9006 142.233 37.8813 141.887 37.8813 141.658H37.8571C37.6767 142.055 37.4463 142.343 37.166 142.523C36.8889 142.704 36.5587 142.794 36.1752 142.794C35.6211 142.794 35.1958 142.625 34.8994 142.287C34.6029 141.945 34.4547 141.446 34.4547 140.788V137.468H35.8128ZM44.6512 142.697V139.764C44.6512 138.846 44.387 138.386 43.8586 138.386C43.5848 138.386 43.3608 138.527 43.1868 138.807C43.0161 139.087 42.9307 139.45 42.9307 139.894V142.697H41.5726V138.638C41.5726 138.357 41.5678 138.129 41.5582 137.952C41.5517 137.771 41.5437 137.61 41.534 137.468H42.8292C42.8389 137.529 42.8518 137.694 42.8679 137.961C42.884 138.225 42.892 138.407 42.892 138.507H42.9114C43.0789 138.108 43.2867 137.818 43.5348 137.637C43.7861 137.457 44.0858 137.367 44.4337 137.367C45.2328 137.367 45.7177 137.747 45.8884 138.507H45.9174C46.0946 138.101 46.3073 137.81 46.5554 137.633C46.8035 137.455 47.1192 137.367 47.5026 137.367C48.0117 137.367 48.3999 137.541 48.6674 137.889C48.9348 138.233 49.0685 138.73 49.0685 139.377V142.697H47.7201V139.764C47.7201 138.846 47.4559 138.386 46.9275 138.386C46.6633 138.386 46.4458 138.515 46.2751 138.773C46.1075 139.028 46.0157 139.38 45.9996 139.832V142.697H44.6512ZM58.3168 141.678C58.6873 141.678 59.0465 141.625 59.3945 141.518C59.7425 141.409 60.0115 141.27 60.2016 141.103V140.16H58.5391V139.107H61.5065V141.61C61.1456 141.981 60.6752 142.271 60.0953 142.48C59.5186 142.689 58.9128 142.794 58.2781 142.794C57.1698 142.794 56.3175 142.488 55.7215 141.876C55.1254 141.26 54.8274 140.389 54.8274 139.261C54.8274 138.14 55.127 137.281 55.7263 136.685C56.3256 136.086 57.1875 135.786 58.3119 135.786C59.91 135.786 60.9265 136.378 61.3615 137.56L60.0469 137.956C59.9052 137.612 59.6829 137.351 59.38 137.173C59.0771 136.996 58.7211 136.908 58.3119 136.908C57.6418 136.908 57.1327 137.111 56.7847 137.517C56.4368 137.923 56.2628 138.504 56.2628 139.261C56.2628 140.031 56.4416 140.627 56.7992 141.049C57.1601 141.468 57.6659 141.678 58.3168 141.678ZM65.0142 142.794C64.5084 142.794 64.1137 142.657 63.8302 142.383C63.5466 142.106 63.4049 141.718 63.4049 141.219C63.4049 140.677 63.5805 140.265 63.9316 139.981C64.2861 139.698 64.7983 139.553 65.4685 139.546L66.5946 139.527V139.261C66.5946 138.92 66.535 138.667 66.4158 138.502C66.2966 138.335 66.1016 138.251 65.831 138.251C65.5797 138.251 65.3944 138.309 65.2752 138.425C65.1592 138.538 65.0867 138.726 65.0577 138.991L63.6417 138.923C63.7287 138.414 63.9606 138.029 64.3376 137.768C64.7178 137.504 65.2349 137.372 65.889 137.372C66.5495 137.372 67.0585 137.534 67.4162 137.86C67.7738 138.185 67.9526 138.647 67.9526 139.247V141.151C67.9526 141.444 67.9849 141.647 68.0493 141.76C68.117 141.869 68.2281 141.924 68.3828 141.924C68.4859 141.924 68.5857 141.915 68.6824 141.895V142.63C68.6019 142.649 68.5294 142.667 68.4649 142.683C68.4005 142.699 68.336 142.712 68.2716 142.722C68.2072 142.731 68.1379 142.739 68.0638 142.746C67.9929 142.752 67.9091 142.755 67.8125 142.755C67.471 142.755 67.218 142.672 67.0537 142.504C66.8926 142.337 66.796 142.09 66.7637 141.765H66.7347C66.3545 142.451 65.781 142.794 65.0142 142.794ZM66.5946 140.276L65.8986 140.286C65.5829 140.299 65.359 140.334 65.2269 140.392C65.0948 140.447 64.9933 140.532 64.9224 140.648C64.8547 140.764 64.8209 140.919 64.8209 141.112C64.8209 141.36 64.8773 141.546 64.9901 141.668C65.106 141.787 65.2591 141.847 65.4492 141.847C65.6618 141.847 65.8551 141.789 66.0291 141.673C66.2063 141.557 66.3449 141.397 66.4448 141.194C66.5446 140.988 66.5946 140.771 66.5946 140.542V140.276ZM74.7129 141.17C74.7129 141.676 74.5051 142.074 74.0895 142.364C73.6771 142.651 73.1052 142.794 72.3738 142.794C71.6553 142.794 71.1043 142.681 70.7209 142.456C70.3407 142.227 70.0878 141.873 69.9622 141.393L71.1559 141.214C71.2235 141.462 71.3395 141.637 71.5039 141.741C71.6714 141.844 71.9614 141.895 72.3738 141.895C72.754 141.895 73.0311 141.847 73.205 141.75C73.379 141.654 73.466 141.502 73.466 141.296C73.466 141.128 73.3951 140.996 73.2534 140.9C73.1148 140.8 72.878 140.716 72.5429 140.648C71.7761 140.497 71.259 140.357 70.9916 140.228C70.7241 140.096 70.5196 139.927 70.3778 139.72C70.2392 139.511 70.17 139.255 70.17 138.952C70.17 138.453 70.3617 138.064 70.7451 137.787C71.1317 137.507 71.6778 137.367 72.3834 137.367C73.0053 137.367 73.5047 137.488 73.8817 137.729C74.2618 137.971 74.4987 138.32 74.5921 138.778L73.3887 138.904C73.35 138.691 73.255 138.533 73.1036 138.43C72.9521 138.324 72.7121 138.27 72.3834 138.27C72.0613 138.27 71.8196 138.312 71.6585 138.396C71.4974 138.477 71.4169 138.614 71.4169 138.807C71.4169 138.958 71.4781 139.079 71.6005 139.169C71.7262 139.256 71.9356 139.329 72.2288 139.387C72.638 139.471 73.0005 139.558 73.3162 139.648C73.6352 139.735 73.8897 139.84 74.0798 139.962C74.2731 140.084 74.4262 140.242 74.5389 140.436C74.6549 140.626 74.7129 140.871 74.7129 141.17Z" fill="#EFE9FF"/>
<path d="M26.0479 164.919C26.0479 166.246 25.813 167.259 25.3431 167.959C24.877 168.658 24.1872 169.007 23.2738 169.007C22.3604 169.007 21.6744 168.66 21.2158 167.964C20.7572 167.269 20.5279 166.254 20.5279 164.919C20.5279 163.555 20.7497 162.533 21.1932 161.852C21.6406 161.172 22.3454 160.832 23.3076 160.832C24.2436 160.832 24.9334 161.176 25.3769 161.863C25.8243 162.551 26.0479 163.57 26.0479 164.919ZM25.0161 164.919C25.0161 163.773 24.8826 162.942 24.6158 162.427C24.3526 161.912 23.9166 161.655 23.3076 161.655C22.6837 161.655 22.2345 161.909 21.9601 162.416C21.6894 162.923 21.5541 163.758 21.5541 164.919C21.5541 166.047 21.6913 166.872 21.9657 167.395C22.2439 167.917 22.6837 168.178 23.2851 168.178C23.8828 168.178 24.3207 167.912 24.5988 167.378C24.877 166.844 25.0161 166.025 25.0161 164.919ZM32.4757 164.919C32.4757 166.246 32.2408 167.259 31.7709 167.959C31.3048 168.658 30.615 169.007 29.7016 169.007C28.7882 169.007 28.1022 168.66 27.6436 167.964C27.185 167.269 26.9557 166.254 26.9557 164.919C26.9557 163.555 27.1775 162.533 27.621 161.852C28.0683 161.172 28.7731 160.832 29.7354 160.832C30.6714 160.832 31.3612 161.176 31.8047 161.863C32.252 162.551 32.4757 163.57 32.4757 164.919ZM31.4439 164.919C31.4439 163.773 31.3104 162.942 31.0435 162.427C30.7804 161.912 30.3444 161.655 29.7354 161.655C29.1114 161.655 28.6622 161.909 28.3878 162.416C28.1172 162.923 27.9819 163.758 27.9819 164.919C27.9819 166.047 28.1191 166.872 28.3935 167.395C28.6716 167.917 29.1114 168.178 29.7129 168.178C30.3105 168.178 30.7485 167.912 31.0266 167.378C31.3048 166.844 31.4439 166.025 31.4439 164.919ZM38.9035 164.919C38.9035 166.246 38.6685 167.259 38.1987 167.959C37.7326 168.658 37.0428 169.007 36.1294 169.007C35.216 169.007 34.5299 168.66 34.0714 167.964C33.6128 167.269 33.3835 166.254 33.3835 164.919C33.3835 163.555 33.6052 162.533 34.0488 161.852C34.4961 161.172 35.2009 160.832 36.1632 160.832C37.0992 160.832 37.7889 161.176 38.2325 161.863C38.6798 162.551 38.9035 163.57 38.9035 164.919ZM37.8716 164.919C37.8716 163.773 37.7382 162.942 37.4713 162.427C37.2082 161.912 36.7721 161.655 36.1632 161.655C35.5392 161.655 35.09 161.909 34.8156 162.416C34.545 162.923 34.4097 163.758 34.4097 164.919C34.4097 166.047 34.5469 166.872 34.8213 167.395C35.0994 167.917 35.5392 168.178 36.1406 168.178C36.7383 168.178 37.1762 167.912 37.4544 167.378C37.7326 166.844 37.8716 166.025 37.8716 164.919Z" fill="white"/>
<rect x="0.693598" y="151.708" width="58.7664" height="25.3723" rx="6.18613" stroke="#EFE9FF" stroke-width="0.824818"/>
</g>
<defs>
<filter id="filter0_f_1_114" x="-27.0958" y="0.904161" width="129.754" height="203.966" filterUnits="userSpaceOnUse" color-interpolation-filters="sRGB">
<feFlood flood-opacity="0" result="BackgroundImageFix"/>
<feBlend mode="normal" in="SourceGraphic" in2="BackgroundImageFix" result="shape"/>
<feGaussianBlur stdDeviation="2.54792" result="effect1_foregroundBlur_1_114"/>
</filter>
<linearGradient id="paint0_linear_1_114" x1="-36.4051" y1="-43.8684" x2="178.024" y2="184.302" gradientUnits="userSpaceOnUse">
<stop stop-color="#41B9CA"/>
<stop offset="1" stop-color="#83F9EA"/>
</linearGradient>
</defs>
</svg>
