<svg width="103" height="193" viewBox="0 0 103 193" fill="none" xmlns="http://www.w3.org/2000/svg">
<g filter="url(#filter0_f_1_133)">
<rect x="-18" y="4" width="116.114" height="184.463" rx="10.8229" fill="url(#paint0_linear_1_133)"/>
<path d="M15.0301 35.2391C15.0301 35.8205 14.9151 36.3317 14.6852 36.773C14.4554 37.2143 14.1264 37.5525 13.6983 37.7876C13.2703 38.0202 12.7709 38.1364 12.2001 38.1364C11.3229 38.1364 10.6346 37.8788 10.1352 37.3636C9.63844 36.8457 9.39006 36.1375 9.39006 35.2391C9.39006 34.3434 9.63844 33.6445 10.1352 33.1425C10.6319 32.6404 11.3229 32.3894 12.2081 32.3894C13.0932 32.3894 13.7842 32.6431 14.281 33.1504C14.7804 33.6577 15.0301 34.354 15.0301 35.2391ZM13.8371 35.2391C13.8371 34.6367 13.6944 34.165 13.409 33.8242C13.1236 33.4807 12.7233 33.3089 12.2081 33.3089C11.6849 33.3089 11.2806 33.4794 10.9953 33.8202C10.7099 34.1584 10.5672 34.6314 10.5672 35.2391C10.5672 35.8522 10.7125 36.3357 11.0032 36.6898C11.2965 37.0412 11.6955 37.2169 12.2001 37.2169C12.7233 37.2169 13.1263 37.0452 13.409 36.7017C13.6944 36.3582 13.8371 35.8707 13.8371 35.2391ZM21.3232 34.2404C21.3232 34.5997 21.2413 34.9207 21.0775 35.2035C20.9137 35.4862 20.6785 35.7055 20.372 35.8614C20.0681 36.0147 19.7061 36.0913 19.286 36.0913H17.8988V38.0572H16.7296V32.4727H19.2384C19.9069 32.4727 20.4209 32.6272 20.7802 32.9364C21.1422 33.2429 21.3232 33.6775 21.3232 34.2404ZM20.1461 34.2602C20.1461 33.6736 19.7999 33.3803 19.1077 33.3803H17.8988V35.1916H19.1394C19.4617 35.1916 19.7101 35.1123 19.8845 34.9538C20.0589 34.7926 20.1461 34.5614 20.1461 34.2602ZM25.5633 37.2169C26.2688 37.2169 26.759 36.8628 27.0338 36.1547L28.0524 36.5392C27.8331 37.0782 27.5107 37.4798 27.0853 37.744C26.6625 38.0056 26.1552 38.1364 25.5633 38.1364C24.6649 38.1364 23.97 37.8828 23.4785 37.3754C22.9897 36.8655 22.7453 36.1534 22.7453 35.2391C22.7453 34.3223 22.9818 33.6181 23.4548 33.1266C23.9277 32.6352 24.6134 32.3894 25.5118 32.3894C26.1671 32.3894 26.7008 32.5215 27.113 32.7858C27.5252 33.0474 27.8146 33.4331 27.981 33.9431L26.9505 34.2245C26.8633 33.9444 26.6916 33.7225 26.4353 33.5586C26.1816 33.3922 25.8817 33.3089 25.5356 33.3089C25.0071 33.3089 24.6055 33.4728 24.3307 33.8004C24.0585 34.1281 23.9225 34.6076 23.9225 35.2391C23.9225 35.8812 24.0625 36.3714 24.3426 36.7096C24.6253 37.0478 25.0322 37.2169 25.5633 37.2169ZM33.7312 35.909C33.7312 36.6039 33.5383 37.1495 33.1525 37.5459C32.7668 37.9396 32.233 38.1364 31.5513 38.1364C30.8828 38.1364 30.3583 37.9383 29.9778 37.5419C29.5973 37.1456 29.4071 36.6013 29.4071 35.909C29.4071 35.2193 29.5973 34.6777 29.9778 34.284C30.3583 33.8876 30.8907 33.6894 31.5751 33.6894C32.2753 33.6894 32.809 33.881 33.1763 34.2641C33.5462 34.6446 33.7312 35.1929 33.7312 35.909ZM32.5659 35.909C32.5659 35.399 32.4827 35.0291 32.3162 34.7992C32.1498 34.5693 31.908 34.4544 31.5909 34.4544C30.9145 34.4544 30.5763 34.9392 30.5763 35.909C30.5763 36.3872 30.6582 36.7519 30.822 37.0029C30.9885 37.2513 31.2276 37.3754 31.5394 37.3754C32.2238 37.3754 32.5659 36.8866 32.5659 35.909ZM38.2091 38.0572C38.1985 38.0175 38.1853 37.9184 38.1695 37.7599C38.1563 37.5987 38.1497 37.4653 38.1497 37.3596H38.1338C37.8934 37.8775 37.4362 38.1364 36.7624 38.1364C36.2631 38.1364 35.8773 37.9422 35.6051 37.5538C35.333 37.1627 35.1969 36.6171 35.1969 35.9169C35.1969 35.2061 35.3396 34.6578 35.6249 34.2721C35.913 33.8836 36.3199 33.6894 36.8457 33.6894C37.1495 33.6894 37.4111 33.7529 37.6304 33.8797C37.8524 34.0065 38.0228 34.1954 38.1417 34.4465H38.1497L38.1417 33.741V32.1754H39.2555V37.1218C39.2555 37.386 39.266 37.6978 39.2872 38.0572H38.2091ZM38.1576 35.8892C38.1576 35.4267 38.0796 35.0714 37.9237 34.823C37.7705 34.572 37.5432 34.4465 37.242 34.4465C36.9434 34.4465 36.7215 34.568 36.5762 34.8111C36.4308 35.0515 36.3582 35.4201 36.3582 35.9169C36.3582 36.8893 36.6502 37.3754 37.2341 37.3754C37.5274 37.3754 37.7546 37.2473 37.9158 36.991C38.077 36.732 38.1576 36.3648 38.1576 35.8892ZM42.9605 38.1364C42.3158 38.1364 41.8203 37.9462 41.4742 37.5657C41.1281 37.1826 40.955 36.625 40.955 35.8931C40.955 35.185 41.1307 34.6407 41.4821 34.2602C41.8336 33.8797 42.3316 33.6894 42.9763 33.6894C43.592 33.6894 44.0623 33.8942 44.3873 34.3038C44.7123 34.7107 44.8748 35.3078 44.8748 36.0953V36.127H42.1242C42.1242 36.5444 42.2008 36.8602 42.3541 37.0742C42.51 37.2856 42.7306 37.3913 43.016 37.3913C43.4097 37.3913 43.6581 37.2209 43.7611 36.88L44.8114 36.9712C44.5076 37.748 43.8906 38.1364 42.9605 38.1364ZM42.9605 34.391C42.6989 34.391 42.4968 34.4821 42.3541 34.6644C42.214 34.8468 42.1401 35.1017 42.1321 35.4294H43.7968C43.7756 35.0832 43.6924 34.8243 43.5471 34.6526C43.4018 34.4782 43.2062 34.391 42.9605 34.391Z" fill="#EFE9FF"/>
<path d="M30.0465 55.6836C29.2773 54.9144 28.0303 54.9144 27.2612 55.6836L25.8685 57.0763C25.0993 57.8454 25.0993 59.0925 25.8685 59.8616C26.6376 60.6308 27.8847 60.6308 28.6538 59.8616L29.3502 59.1653" stroke="white" stroke-width="1.35286" stroke-linecap="round" stroke-linejoin="round"/>
<path d="M28.6523 57.0763C29.4214 57.8454 30.6685 57.8454 31.4376 57.0763L32.8303 55.6836C33.5995 54.9144 33.5995 53.6674 32.8303 52.8982C32.0611 52.1291 30.8141 52.1291 30.0449 52.8982L29.3486 53.5946" stroke="white" stroke-width="1.35286" stroke-linecap="round" stroke-linejoin="round"/>
<path d="M44.3918 56.62C44.3918 57.7082 44.1992 58.539 43.8138 59.1124C43.4316 59.6857 42.8659 59.9724 42.1168 59.9724C41.3677 59.9724 40.8051 59.6873 40.429 59.117C40.053 58.5467 39.8649 57.7144 39.8649 56.62C39.8649 55.501 40.0468 54.6625 40.4106 54.1045C40.7774 53.5466 41.3554 53.2676 42.1446 53.2676C42.9122 53.2676 43.4778 53.5497 43.8416 54.1138C44.2084 54.6779 44.3918 55.5133 44.3918 56.62ZM43.5456 56.62C43.5456 55.6798 43.4362 54.9985 43.2173 54.5762C43.0015 54.1539 42.644 53.9427 42.1446 53.9427C41.6328 53.9427 41.2645 54.1508 41.0394 54.5669C40.8175 54.9831 40.7065 55.6675 40.7065 56.62C40.7065 57.5448 40.819 58.2215 41.044 58.65C41.2722 59.0784 41.6328 59.2927 42.1261 59.2927C42.6162 59.2927 42.9753 59.0738 43.2035 58.6361C43.4316 58.1983 43.5456 57.5263 43.5456 56.62ZM49.6632 56.62C49.6632 57.7082 49.4706 58.539 49.0852 59.1124C48.703 59.6857 48.1373 59.9724 47.3882 59.9724C46.6391 59.9724 46.0765 59.6873 45.7004 59.117C45.3244 58.5467 45.1363 57.7144 45.1363 56.62C45.1363 55.501 45.3182 54.6625 45.6819 54.1045C46.0488 53.5466 46.6268 53.2676 47.416 53.2676C48.1835 53.2676 48.7492 53.5497 49.113 54.1138C49.4798 54.6779 49.6632 55.5133 49.6632 56.62ZM48.817 56.62C48.817 55.6798 48.7076 54.9985 48.4887 54.5762C48.2729 54.1539 47.9153 53.9427 47.416 53.9427C46.9042 53.9427 46.5358 54.1508 46.3108 54.5669C46.0889 54.9831 45.9779 55.6675 45.9779 56.62C45.9779 57.5448 46.0904 58.2215 46.3154 58.65C46.5436 59.0784 46.9042 59.2927 47.3975 59.2927C47.8876 59.2927 48.2467 59.0738 48.4749 58.6361C48.703 58.1983 48.817 57.5263 48.817 56.62Z" fill="white"/>
<rect x="9.39534" y="45.8068" width="56.9956" height="21.1464" rx="5.07322" stroke="#EFE9FF" stroke-width="0.676429"/>
<path d="M13.0008 85.1143L10.5673 80.814C10.6148 81.2315 10.6386 81.567 10.6386 81.8207V85.1143H9.60018V79.5298H10.9359L13.4051 83.8658C13.3575 83.4668 13.3338 83.1035 13.3338 82.7759V79.5298H14.3722V85.1143H13.0008ZM17.2925 85.1936C16.8776 85.1936 16.5539 85.0813 16.3214 84.8567C16.0889 84.6295 15.9726 84.3111 15.9726 83.9015C15.9726 83.4576 16.1166 83.1194 16.4046 82.8869C16.6953 82.6543 17.1154 82.5354 17.665 82.5301L18.5885 82.5143V82.2963C18.5885 82.0162 18.5396 81.8088 18.4419 81.674C18.3441 81.5366 18.1842 81.4679 17.9623 81.4679C17.7562 81.4679 17.6042 81.5155 17.5065 81.6106C17.4114 81.7031 17.3519 81.8577 17.3281 82.0744L16.1668 82.0189C16.2382 81.6014 16.4284 81.2856 16.7376 81.0716C17.0494 80.8549 17.4734 80.7466 18.0098 80.7466C18.5515 80.7466 18.969 80.88 19.2623 81.1469C19.5556 81.4138 19.7022 81.7929 19.7022 82.2844V83.846C19.7022 84.0865 19.7287 84.2529 19.7815 84.3454C19.837 84.4352 19.9281 84.4802 20.055 84.4802C20.1395 84.4802 20.2214 84.4722 20.3007 84.4564V85.0588C20.2347 85.0747 20.1752 85.0892 20.1224 85.1024C20.0695 85.1156 20.0167 85.1262 19.9638 85.1341C19.911 85.1421 19.8542 85.1487 19.7934 85.154C19.7353 85.1592 19.6666 85.1619 19.5873 85.1619C19.3072 85.1619 19.0998 85.0932 18.965 84.9558C18.8329 84.8184 18.7536 84.6162 18.7272 84.3494H18.7034C18.3916 84.9122 17.9213 85.1936 17.2925 85.1936ZM18.5885 83.1286L18.0178 83.1366C17.7588 83.1471 17.5752 83.1762 17.4668 83.2238C17.3585 83.2687 17.2753 83.3387 17.2171 83.4338C17.1617 83.5289 17.1339 83.6558 17.1339 83.8143C17.1339 84.0178 17.1802 84.1697 17.2726 84.2701C17.3678 84.3679 17.4933 84.4168 17.6492 84.4168C17.8236 84.4168 17.9821 84.3692 18.1248 84.2741C18.2701 84.1789 18.3837 84.0482 18.4656 83.8817C18.5475 83.7126 18.5885 83.5342 18.5885 83.3466V83.1286ZM24.1564 85.1143V82.7085C24.1564 81.9554 23.9397 81.5789 23.5063 81.5789C23.2818 81.5789 23.0981 81.6939 22.9554 81.9237C22.8154 82.1536 22.7454 82.4509 22.7454 82.8155V85.1143H21.6316V81.785C21.6316 81.5551 21.6277 81.3675 21.6197 81.2222C21.6145 81.0742 21.6079 80.9421 21.5999 80.8259H22.6621C22.6701 80.8761 22.6806 81.0108 22.6938 81.2301C22.7071 81.4468 22.7137 81.5961 22.7137 81.678H22.7295C22.8669 81.3504 23.0373 81.1126 23.2408 80.9646C23.4469 80.8166 23.6926 80.7426 23.978 80.7426C24.6333 80.7426 25.031 81.0544 25.171 81.678H25.1948C25.3401 81.3451 25.5145 81.1059 25.718 80.9606C25.9214 80.8153 26.1804 80.7426 26.4948 80.7426C26.9123 80.7426 27.2307 80.8853 27.45 81.1707C27.6693 81.4534 27.779 81.8603 27.779 82.3914V85.1143H26.6731V82.7085C26.6731 81.9554 26.4565 81.5789 26.0231 81.5789C25.8065 81.5789 25.6281 81.6846 25.4881 81.896C25.3507 82.1047 25.2754 82.3941 25.2622 82.764V85.1143H24.1564ZM31.4206 85.1936C30.7758 85.1936 30.2804 85.0033 29.9343 84.6229C29.5881 84.2397 29.4151 83.6822 29.4151 82.9503C29.4151 82.2421 29.5908 81.6978 29.9422 81.3173C30.2936 80.9368 30.7917 80.7466 31.4364 80.7466C32.0521 80.7466 32.5224 80.9514 32.8474 81.3609C33.1724 81.7678 33.3349 82.365 33.3349 83.1524V83.1841H30.5843C30.5843 83.6016 30.6609 83.9174 30.8142 84.1314C30.9701 84.3428 31.1907 84.4485 31.4761 84.4485C31.8698 84.4485 32.1181 84.278 32.2212 83.9372L33.2715 84.0283C32.9676 84.8052 32.3507 85.1936 31.4206 85.1936ZM31.4206 81.4481C31.159 81.4481 30.9568 81.5393 30.8142 81.7216C30.6741 81.9039 30.6001 82.1589 30.5922 82.4866H32.2569C32.2357 82.1404 32.1525 81.8815 32.0072 81.7097C31.8618 81.5353 31.6663 81.4481 31.4206 81.4481Z" fill="#EFE9FF"/>
<path d="M31.1734 105.138C31.1734 105.739 30.9376 106.205 30.4659 106.535C29.9973 106.865 29.3361 107.03 28.4822 107.03C26.8946 107.03 25.9744 106.478 25.7217 105.374L26.5771 105.203C26.6758 105.595 26.8854 105.883 27.206 106.068C27.5266 106.25 27.9628 106.341 28.5146 106.341C29.0849 106.341 29.5242 106.243 29.8324 106.049C30.1438 105.852 30.2994 105.564 30.2994 105.185C30.2994 104.972 30.2501 104.799 30.1515 104.667C30.0559 104.534 29.9203 104.425 29.7446 104.338C29.5689 104.252 29.3592 104.18 29.1157 104.121C28.8722 104.062 28.6024 103.999 28.3065 103.931C27.7917 103.817 27.4002 103.703 27.132 103.589C26.8669 103.475 26.6573 103.349 26.5031 103.21C26.349 103.068 26.2303 102.903 26.1471 102.715C26.0669 102.527 26.0268 102.312 26.0268 102.068C26.0268 101.51 26.2396 101.08 26.665 100.778C27.0935 100.476 27.7054 100.325 28.5007 100.325C29.2405 100.325 29.8062 100.439 30.1977 100.667C30.5892 100.892 30.8636 101.277 31.0208 101.823L30.1515 101.975C30.0559 101.63 29.874 101.381 29.6058 101.226C29.3376 101.069 28.9662 100.991 28.4915 100.991C27.9705 100.991 27.5728 101.077 27.2985 101.25C27.0241 101.422 26.8869 101.68 26.8869 102.022C26.8869 102.222 26.9393 102.389 27.0441 102.521C27.152 102.651 27.3062 102.762 27.5065 102.854C27.7069 102.943 28.1061 103.054 28.7042 103.187C28.9045 103.233 29.1034 103.281 29.3007 103.33C29.501 103.377 29.6922 103.434 29.874 103.501C30.0559 103.566 30.2255 103.643 30.3827 103.733C30.543 103.822 30.6817 103.931 30.7988 104.061C30.916 104.19 31.0069 104.343 31.0717 104.519C31.1395 104.694 31.1734 104.901 31.1734 105.138ZM34.9373 101.143V106.937H34.0588V101.143H31.8208V100.422H37.1754V101.143H34.9373ZM44.1345 103.649C44.1345 104.331 44.0035 104.927 43.7415 105.439C43.4825 105.951 43.1095 106.344 42.6225 106.618C42.1354 106.892 41.5605 107.03 40.8977 107.03C40.2288 107.03 39.6508 106.894 39.1637 106.623C38.6797 106.351 38.3098 105.96 38.0539 105.448C37.7981 104.933 37.6701 104.334 37.6701 103.649C37.6701 102.607 37.9553 101.794 38.5256 101.208C39.0959 100.619 39.8897 100.325 40.907 100.325C41.5697 100.325 42.1447 100.457 42.6317 100.722C43.1188 100.984 43.4903 101.367 43.7461 101.869C44.0051 102.372 44.1345 102.965 44.1345 103.649ZM43.2328 103.649C43.2328 102.839 43.0294 102.202 42.6225 101.74C42.2186 101.277 41.6468 101.046 40.907 101.046C40.161 101.046 39.5845 101.274 39.1776 101.73C38.7707 102.187 38.5672 102.826 38.5672 103.649C38.5672 104.466 38.7722 105.115 39.1822 105.596C39.5953 106.074 40.1671 106.313 40.8977 106.313C41.6499 106.313 42.2264 106.082 42.6271 105.619C43.0309 105.154 43.2328 104.497 43.2328 103.649ZM50.4093 102.382C50.4093 102.999 50.2074 103.489 49.8036 103.853C49.4028 104.217 48.8572 104.398 48.1667 104.398H46.2523V106.937H45.3692V100.422H48.1112C48.8418 100.422 49.4075 100.593 49.8082 100.935C50.209 101.277 50.4093 101.76 50.4093 102.382ZM49.5215 102.392C49.5215 101.55 49.016 101.129 48.0048 101.129H46.2523V103.7H48.0418C49.0283 103.7 49.5215 103.264 49.5215 102.392Z" fill="white"/>
<rect x="9.3954" y="92.864" width="57.7922" height="21.1464" rx="5.07322" stroke="#EFE9FF" stroke-width="0.676429"/>
<path d="M14.2374 132.172V128.787C14.2374 128.71 14.2374 128.633 14.2374 128.557C14.2401 128.48 14.2533 128.151 14.2771 127.57C14.0895 128.281 13.9507 128.776 13.8609 129.056L12.8542 132.172H12.0219L11.0151 129.056L10.591 127.57C10.6228 128.183 10.6386 128.589 10.6386 128.787V132.172H9.60018V126.587H11.1657L12.1645 129.71L12.2517 130.011L12.442 130.761L12.6917 129.865L13.7182 126.587H15.2758V132.172H14.2374ZM17.1973 127.11V126.29H18.3111V127.11H17.1973ZM17.1973 132.172V127.883H18.3111V132.172H17.1973ZM23.0466 132.172V129.766C23.0466 129.013 22.7916 128.636 22.2816 128.636C22.0121 128.636 21.7941 128.752 21.6277 128.985C21.4639 129.215 21.3819 129.511 21.3819 129.873V132.172H20.2682V128.842C20.2682 128.612 20.2642 128.425 20.2563 128.279C20.251 128.131 20.2444 127.999 20.2365 127.883H21.2987C21.3066 127.933 21.3172 128.068 21.3304 128.287C21.3436 128.504 21.3502 128.653 21.3502 128.735H21.3661C21.5167 128.408 21.7056 128.17 21.9329 128.022C22.1601 127.874 22.4309 127.8 22.7454 127.8C23.1998 127.8 23.5486 127.94 23.7917 128.22C24.0348 128.5 24.1564 128.91 24.1564 129.449V132.172H23.0466ZM26.0422 127.11V126.29H27.1559V127.11H26.0422ZM26.0422 132.172V127.883H27.1559V132.172H26.0422ZM31.6378 132.172V129.766C31.6378 129.013 31.4211 128.636 30.9878 128.636C30.7632 128.636 30.5795 128.751 30.4368 128.981C30.2968 129.211 30.2268 129.508 30.2268 129.873V132.172H29.113V128.842C29.113 128.612 29.1091 128.425 29.1012 128.279C29.0959 128.131 29.0893 127.999 29.0813 127.883H30.1435C30.1515 127.933 30.162 128.068 30.1753 128.287C30.1885 128.504 30.1951 128.653 30.1951 128.735H30.2109C30.3483 128.408 30.5188 128.17 30.7222 128.022C30.9283 127.874 31.174 127.8 31.4594 127.8C32.1147 127.8 32.5124 128.112 32.6524 128.735H32.6762C32.8215 128.402 32.9959 128.163 33.1994 128.018C33.4028 127.872 33.6618 127.8 33.9762 127.8C34.3937 127.8 34.7121 127.943 34.9314 128.228C35.1507 128.511 35.2604 128.918 35.2604 129.449V132.172H34.1546V129.766C34.1546 129.013 33.9379 128.636 33.5046 128.636C33.2879 128.636 33.1095 128.742 32.9695 128.953C32.8321 129.162 32.7568 129.451 32.7436 129.821V132.172H31.6378ZM38.1965 127.883V130.289C38.1965 131.042 38.4501 131.418 38.9575 131.418C39.227 131.418 39.4437 131.304 39.6075 131.074C39.7739 130.841 39.8572 130.544 39.8572 130.182V127.883H40.9709V131.212C40.9709 131.577 40.9815 131.897 41.0026 132.172H39.9404C39.9087 131.791 39.8928 131.507 39.8928 131.319H39.873C39.7251 131.644 39.5361 131.881 39.3063 132.029C39.079 132.177 38.8082 132.251 38.4937 132.251C38.0393 132.251 37.6905 132.112 37.4474 131.835C37.2043 131.555 37.0828 131.145 37.0828 130.606V127.883H38.1965ZM45.4448 132.172V129.766C45.4448 129.013 45.2282 128.636 44.7948 128.636C44.5702 128.636 44.3866 128.751 44.2439 128.981C44.1039 129.211 44.0339 129.508 44.0339 129.873V132.172H42.9201V128.842C42.9201 128.612 42.9162 128.425 42.9082 128.279C42.903 128.131 42.8963 127.999 42.8884 127.883H43.9506C43.9586 127.933 43.9691 128.068 43.9823 128.287C43.9955 128.504 44.0022 128.653 44.0022 128.735H44.018C44.1554 128.408 44.3258 128.17 44.5293 128.022C44.7354 127.874 44.9811 127.8 45.2665 127.8C45.9218 127.8 46.3194 128.112 46.4595 128.735H46.4833C46.6286 128.402 46.803 128.163 47.0064 128.018C47.2099 127.872 47.4689 127.8 47.7833 127.8C48.2008 127.8 48.5192 127.943 48.7385 128.228C48.9578 128.511 49.0674 128.918 49.0674 129.449V132.172H47.9616V129.766C47.9616 129.013 47.745 128.636 47.3116 128.636C47.095 128.636 46.9166 128.742 46.7766 128.953C46.6392 129.162 46.5639 129.451 46.5507 129.821V132.172H45.4448ZM56.6519 131.335C56.9558 131.335 57.2504 131.292 57.5358 131.204C57.8211 131.115 58.0418 131.001 58.1977 130.864V130.091H56.8342V129.227H59.2678V131.28C58.9718 131.584 58.5861 131.821 58.1105 131.993C57.6375 132.165 57.1407 132.251 56.6202 132.251C55.7112 132.251 55.0124 132 54.5235 131.498C54.0347 130.993 53.7903 130.278 53.7903 129.353C53.7903 128.434 54.036 127.73 54.5275 127.241C55.019 126.75 55.7258 126.504 56.6479 126.504C57.9585 126.504 58.7922 126.989 59.1489 127.958L58.0708 128.283C57.9546 128.001 57.7722 127.787 57.5239 127.641C57.2755 127.496 56.9835 127.423 56.6479 127.423C56.0983 127.423 55.6809 127.59 55.3955 127.923C55.1101 128.256 54.9674 128.733 54.9674 129.353C54.9674 129.985 55.1141 130.474 55.4074 130.82C55.7033 131.163 56.1182 131.335 56.6519 131.335ZM62.1445 132.251C61.7296 132.251 61.4059 132.138 61.1734 131.914C60.9409 131.687 60.8246 131.368 60.8246 130.959C60.8246 130.515 60.9686 130.177 61.2566 129.944C61.5473 129.712 61.9674 129.593 62.517 129.587L63.4405 129.571V129.353C63.4405 129.073 63.3916 128.866 63.2939 128.731C63.1961 128.594 63.0362 128.525 62.8143 128.525C62.6082 128.525 62.4562 128.573 62.3585 128.668C62.2634 128.76 62.2039 128.915 62.1801 129.132L61.0188 129.076C61.0902 128.659 61.2804 128.343 61.5896 128.129C61.9014 127.912 62.3255 127.804 62.8618 127.804C63.4035 127.804 63.821 127.937 64.1143 128.204C64.4076 128.471 64.5542 128.85 64.5542 129.342V130.903C64.5542 131.144 64.5807 131.31 64.6335 131.403C64.689 131.492 64.7802 131.537 64.907 131.537C64.9915 131.537 65.0734 131.529 65.1527 131.514V132.116C65.0867 132.132 65.0272 132.146 64.9744 132.16C64.9215 132.173 64.8687 132.183 64.8158 132.191C64.763 132.199 64.7062 132.206 64.6454 132.211C64.5873 132.216 64.5186 132.219 64.4393 132.219C64.1592 132.219 63.9518 132.15 63.817 132.013C63.6849 131.876 63.6056 131.673 63.5792 131.407H63.5554C63.2437 131.969 62.7733 132.251 62.1445 132.251ZM63.4405 130.186L62.8698 130.194C62.6108 130.204 62.4272 130.233 62.3188 130.281C62.2105 130.326 62.1273 130.396 62.0691 130.491C62.0137 130.586 61.9859 130.713 61.9859 130.871C61.9859 131.075 62.0322 131.227 62.1246 131.327C62.2198 131.425 62.3453 131.474 62.5012 131.474C62.6756 131.474 62.8341 131.426 62.9768 131.331C63.1221 131.236 63.2357 131.105 63.3176 130.939C63.3995 130.77 63.4405 130.591 63.4405 130.404V130.186ZM70.0983 130.919C70.0983 131.334 69.9279 131.66 69.587 131.898C69.2488 132.133 68.7798 132.251 68.18 132.251C67.5908 132.251 67.1389 132.158 66.8245 131.973C66.5127 131.786 66.3053 131.495 66.2022 131.101L67.1812 130.955C67.2367 131.158 67.3318 131.302 67.4666 131.387C67.604 131.471 67.8418 131.514 68.18 131.514C68.4918 131.514 68.719 131.474 68.8617 131.395C69.0044 131.315 69.0757 131.191 69.0757 131.022C69.0757 130.885 69.0176 130.776 68.9013 130.697C68.7877 130.615 68.5935 130.546 68.3187 130.491C67.6899 130.367 67.2658 130.252 67.0465 130.146C66.8271 130.038 66.6594 129.899 66.5431 129.73C66.4295 129.558 66.3727 129.348 66.3727 129.1C66.3727 128.69 66.5299 128.372 66.8443 128.145C67.1614 127.915 67.6093 127.8 68.1879 127.8C68.6979 127.8 69.1074 127.899 69.4166 128.097C69.7284 128.295 69.9226 128.582 69.9992 128.957L69.0123 129.06C68.9806 128.886 68.9027 128.756 68.7785 128.672C68.6543 128.585 68.4574 128.541 68.1879 128.541C67.9237 128.541 67.7255 128.575 67.5934 128.644C67.4613 128.71 67.3952 128.822 67.3952 128.981C67.3952 129.105 67.4454 129.204 67.5458 129.278C67.6489 129.35 67.8206 129.409 68.0611 129.457C68.3967 129.525 68.6939 129.597 68.9529 129.671C69.2145 129.742 69.4232 129.828 69.5791 129.928C69.7376 130.029 69.8631 130.158 69.9556 130.317C70.0508 130.473 70.0983 130.673 70.0983 130.919Z" fill="#EFE9FF"/>
<path d="M30.1885 150.734C30.1885 151.823 29.9958 152.653 29.6105 153.227C29.2282 153.8 28.6625 154.087 27.9134 154.087C27.1644 154.087 26.6018 153.802 26.2257 153.231C25.8496 152.661 25.6615 151.829 25.6615 150.734C25.6615 149.615 25.8434 148.777 26.2072 148.219C26.574 147.661 27.152 147.382 27.9412 147.382C28.7088 147.382 29.2745 147.664 29.6382 148.228C30.0051 148.792 30.1885 149.628 30.1885 150.734ZM29.3423 150.734C29.3423 149.794 29.2328 149.113 29.014 148.691C28.7982 148.268 28.4406 148.057 27.9412 148.057C27.4295 148.057 27.0611 148.265 26.8361 148.681C26.6141 149.097 26.5031 149.782 26.5031 150.734C26.5031 151.659 26.6156 152.336 26.8407 152.764C27.0688 153.193 27.4295 153.407 27.9227 153.407C28.4128 153.407 28.772 153.188 29.0001 152.75C29.2282 152.313 29.3423 151.641 29.3423 150.734ZM35.4599 150.734C35.4599 151.823 35.2672 152.653 34.8819 153.227C34.4996 153.8 33.9339 154.087 33.1848 154.087C32.4357 154.087 31.8732 153.802 31.4971 153.231C31.121 152.661 30.9329 151.829 30.9329 150.734C30.9329 149.615 31.1148 148.777 31.4786 148.219C31.8454 147.661 32.4234 147.382 33.2126 147.382C33.9802 147.382 34.5458 147.664 34.9096 148.228C35.2764 148.792 35.4599 149.628 35.4599 150.734ZM34.6137 150.734C34.6137 149.794 34.5042 149.113 34.2854 148.691C34.0696 148.268 33.712 148.057 33.2126 148.057C32.7009 148.057 32.3325 148.265 32.1074 148.681C31.8855 149.097 31.7745 149.782 31.7745 150.734C31.7745 151.659 31.887 152.336 32.1121 152.764C32.3402 153.193 32.7009 153.407 33.1941 153.407C33.6842 153.407 34.0434 153.188 34.2715 152.75C34.4996 152.313 34.6137 151.641 34.6137 150.734ZM40.7313 150.734C40.7313 151.823 40.5386 152.653 40.1532 153.227C39.771 153.8 39.2053 154.087 38.4562 154.087C37.7071 154.087 37.1445 153.802 36.7685 153.231C36.3924 152.661 36.2043 151.829 36.2043 150.734C36.2043 149.615 36.3862 148.777 36.75 148.219C37.1168 147.661 37.6948 147.382 38.484 147.382C39.2516 147.382 39.8172 147.664 40.181 148.228C40.5478 148.792 40.7313 149.628 40.7313 150.734ZM39.8851 150.734C39.8851 149.794 39.7756 149.113 39.5567 148.691C39.341 148.268 38.9834 148.057 38.484 148.057C37.9722 148.057 37.6039 148.265 37.3788 148.681C37.1569 149.097 37.0459 149.782 37.0459 150.734C37.0459 151.659 37.1584 152.336 37.3835 152.764C37.6116 153.193 37.9722 153.407 38.4655 153.407C38.9556 153.407 39.3148 153.188 39.5429 152.75C39.771 152.313 39.8851 151.641 39.8851 150.734Z" fill="white"/>
<rect x="9.3954" y="139.921" width="47.7922" height="21.1464" rx="5.07322" stroke="#EFE9FF" stroke-width="0.676429"/>
</g>
<defs>
<filter id="filter0_f_1_133" x="-22" y="0" width="124.114" height="192.463" filterUnits="userSpaceOnUse" color-interpolation-filters="sRGB">
<feFlood flood-opacity="0" result="BackgroundImageFix"/>
<feBlend mode="normal" in="SourceGraphic" in2="BackgroundImageFix" result="shape"/>
<feGaussianBlur stdDeviation="2" result="effect1_foregroundBlur_1_133"/>
</filter>
<linearGradient id="paint0_linear_1_133" x1="-19" y1="-23" x2="130.5" y2="254" gradientUnits="userSpaceOnUse">
<stop stop-color="#D389FF"/>
<stop offset="1" stop-color="#F2DCFF"/>
</linearGradient>
</defs>
</svg>
