<svg width="83" height="149" viewBox="0 0 83 149" fill="none" xmlns="http://www.w3.org/2000/svg">
<g filter="url(#filter0_f_1_228)">
<rect x="-10" y="5" width="87.9963" height="139.292" rx="8.19927" fill="url(#paint0_linear_1_228)"/>
<path d="M15.0232 29.3633C15.0232 29.8037 14.9361 30.191 14.7619 30.5253C14.5878 30.8596 14.3386 31.1158 14.0143 31.294C13.69 31.4701 13.3117 31.5582 12.8793 31.5582C12.2147 31.5582 11.6932 31.363 11.3149 30.9727C10.9386 30.5804 10.7504 30.0439 10.7504 29.3633C10.7504 28.6847 10.9386 28.1552 11.3149 27.7749C11.6912 27.3945 12.2147 27.2044 12.8853 27.2044C13.5559 27.2044 14.0793 27.3965 14.4557 27.7809C14.834 28.1652 15.0232 28.6927 15.0232 29.3633ZM14.1194 29.3633C14.1194 28.9069 14.0113 28.5496 13.7951 28.2913C13.5789 28.0311 13.2756 27.901 12.8853 27.901C12.4889 27.901 12.1827 28.0301 11.9665 28.2883C11.7503 28.5446 11.6422 28.9029 11.6422 29.3633C11.6422 29.8277 11.7523 30.194 11.9725 30.4623C12.1947 30.7285 12.4969 30.8616 12.8793 30.8616C13.2756 30.8616 13.5809 30.7315 13.7951 30.4713C14.0113 30.211 14.1194 29.8417 14.1194 29.3633ZM19.7908 28.6066C19.7908 28.8788 19.7287 29.1221 19.6046 29.3363C19.4805 29.5504 19.3024 29.7166 19.0702 29.8347C18.84 29.9508 18.5657 30.0088 18.2474 30.0088H17.1965V31.4982H16.3107V27.2674H18.2114C18.7179 27.2674 19.1072 27.3845 19.3794 27.6187C19.6537 27.8509 19.7908 28.1802 19.7908 28.6066ZM18.899 28.6216C18.899 28.1772 18.6368 27.955 18.1123 27.955H17.1965V29.3272H18.1363C18.3806 29.3272 18.5687 29.2672 18.7008 29.1471C18.833 29.025 18.899 28.8498 18.899 28.6216ZM23.0031 30.8616C23.5375 30.8616 23.9089 30.5934 24.117 30.0569L24.8887 30.3481C24.7226 30.7565 24.4784 31.0608 24.1561 31.261C23.8358 31.4591 23.4514 31.5582 23.0031 31.5582C22.3224 31.5582 21.796 31.3661 21.4237 30.9817C21.0533 30.5954 20.8682 30.0559 20.8682 29.3633C20.8682 28.6687 21.0473 28.1352 21.4056 27.7629C21.764 27.3905 22.2834 27.2044 22.964 27.2044C23.4605 27.2044 23.8648 27.3045 24.1771 27.5046C24.4894 27.7028 24.7086 27.9951 24.8347 28.3814L24.054 28.5946C23.9879 28.3824 23.8578 28.2143 23.6636 28.0901C23.4715 27.964 23.2443 27.901 22.982 27.901C22.5817 27.901 22.2774 28.0251 22.0692 28.2733C21.863 28.5215 21.7599 28.8849 21.7599 29.3633C21.7599 29.8497 21.866 30.221 22.0782 30.4773C22.2924 30.7335 22.6007 30.8616 23.0031 30.8616ZM29.1909 29.8707C29.1909 30.3972 29.0448 30.8106 28.7525 31.1108C28.4603 31.4091 28.0559 31.5582 27.5395 31.5582C27.033 31.5582 26.6357 31.4081 26.3474 31.1078C26.0592 30.8076 25.915 30.3952 25.915 29.8707C25.915 29.3483 26.0592 28.9379 26.3474 28.6396C26.6357 28.3394 27.039 28.1892 27.5575 28.1892C28.088 28.1892 28.4923 28.3344 28.7706 28.6246C29.0508 28.9129 29.1909 29.3282 29.1909 29.8707ZM28.3082 29.8707C28.3082 29.4844 28.2451 29.2041 28.119 29.03C27.9929 28.8558 27.8097 28.7688 27.5695 28.7688C27.057 28.7688 26.8008 29.1361 26.8008 29.8707C26.8008 30.233 26.8629 30.5093 26.987 30.6995C27.1131 30.8876 27.2943 30.9817 27.5305 30.9817C28.0489 30.9817 28.3082 30.6114 28.3082 29.8707ZM32.5833 31.4982C32.5753 31.4681 32.5653 31.3931 32.5533 31.273C32.5433 31.1509 32.5383 31.0498 32.5383 30.9697H32.5263C32.3441 31.362 31.9978 31.5582 31.4874 31.5582C31.109 31.5582 30.8168 31.4111 30.6106 31.1168C30.4044 30.8206 30.3013 30.4072 30.3013 29.8767C30.3013 29.3383 30.4094 28.9229 30.6256 28.6306C30.8438 28.3364 31.1521 28.1892 31.5504 28.1892C31.7806 28.1892 31.9788 28.2373 32.145 28.3334C32.3131 28.4294 32.4422 28.5726 32.5323 28.7627H32.5383L32.5323 28.2283V27.0422H33.376V30.7895C33.376 30.9897 33.3841 31.2259 33.4001 31.4982H32.5833ZM32.5443 29.8557C32.5443 29.5054 32.4853 29.2362 32.3671 29.048C32.251 28.8578 32.0789 28.7627 31.8507 28.7627C31.6245 28.7627 31.4563 28.8548 31.3462 29.039C31.2361 29.2212 31.1811 29.5004 31.1811 29.8767C31.1811 30.6134 31.4023 30.9817 31.8447 30.9817C32.0669 30.9817 32.239 30.8846 32.3611 30.6905C32.4833 30.4943 32.5443 30.216 32.5443 29.8557ZM36.1829 31.5582C35.6945 31.5582 35.3192 31.4141 35.0569 31.1258C34.7947 30.8356 34.6636 30.4132 34.6636 29.8587C34.6636 29.3222 34.7967 28.9099 35.0629 28.6216C35.3292 28.3334 35.7065 28.1892 36.1949 28.1892C36.6614 28.1892 37.0177 28.3444 37.2639 28.6546C37.5101 28.9629 37.6332 29.4153 37.6332 30.0119V30.0359H35.5494C35.5494 30.3522 35.6074 30.5914 35.7235 30.7535C35.8416 30.9137 36.0088 30.9937 36.225 30.9937C36.5232 30.9937 36.7114 30.8646 36.7895 30.6064L37.5852 30.6754C37.355 31.264 36.8876 31.5582 36.1829 31.5582ZM36.1829 28.7207C35.9848 28.7207 35.8316 28.7898 35.7235 28.9279C35.6174 29.066 35.5614 29.2592 35.5554 29.5074H36.8165C36.8005 29.2452 36.7374 29.049 36.6273 28.9189C36.5172 28.7868 36.3691 28.7207 36.1829 28.7207Z" fill="#EFE9FF"/>
<path d="M26.3992 44.1698C25.8165 43.5871 24.8718 43.5871 24.2891 44.1698L23.234 45.2249C22.6513 45.8076 22.6513 46.7523 23.234 47.335C23.8167 47.9177 24.7615 47.9177 25.3441 47.335L25.8717 46.8075" stroke="white" stroke-width="1.02491" stroke-linecap="round" stroke-linejoin="round"/>
<path d="M25.3433 45.2249C25.926 45.8076 26.8708 45.8076 27.4535 45.2249L28.5085 44.1698C29.0912 43.5871 29.0912 42.6424 28.5085 42.0597C27.9258 41.477 26.9811 41.477 26.3984 42.0597L25.8709 42.5872" stroke="white" stroke-width="1.02491" stroke-linecap="round" stroke-linejoin="round"/>
<path d="M37.2672 44.2277C37.2672 45.0521 37.1213 45.6815 36.8293 46.1159C36.5397 46.5503 36.1112 46.7674 35.5437 46.7674C34.9762 46.7674 34.55 46.5514 34.2651 46.1194C33.9801 45.6873 33.8377 45.0568 33.8377 44.2277C33.8377 43.3799 33.9755 42.7447 34.251 42.322C34.529 41.8993 34.9668 41.6879 35.5647 41.6879C36.1462 41.6879 36.5748 41.9016 36.8504 42.329C37.1283 42.7564 37.2672 43.3893 37.2672 44.2277ZM36.6262 44.2277C36.6262 43.5154 36.5432 42.9993 36.3774 42.6793C36.214 42.3594 35.943 42.1994 35.5647 42.1994C35.177 42.1994 34.898 42.357 34.7275 42.6723C34.5593 42.9876 34.4752 43.5061 34.4752 44.2277C34.4752 44.9283 34.5605 45.4409 34.731 45.7656C34.9038 46.0902 35.177 46.2525 35.5507 46.2525C35.922 46.2525 36.1941 46.0867 36.3669 45.7551C36.5397 45.4234 36.6262 44.9143 36.6262 44.2277ZM41.2608 44.2277C41.2608 45.0521 41.1148 45.6815 40.8229 46.1159C40.5333 46.5503 40.1047 46.7674 39.5372 46.7674C38.9697 46.7674 38.5435 46.5514 38.2586 46.1194C37.9737 45.6873 37.8312 45.0568 37.8312 44.2277C37.8312 43.3799 37.969 42.7447 38.2446 42.322C38.5225 41.8993 38.9604 41.6879 39.5583 41.6879C40.1398 41.6879 40.5683 41.9016 40.8439 42.329C41.1218 42.7564 41.2608 43.3893 41.2608 44.2277ZM40.6197 44.2277C40.6197 43.5154 40.5368 42.9993 40.371 42.6793C40.2075 42.3594 39.9366 42.1994 39.5583 42.1994C39.1706 42.1994 38.8915 42.357 38.721 42.6723C38.5529 42.9876 38.4688 43.5061 38.4688 44.2277C38.4688 44.9283 38.554 45.4409 38.7245 45.7656C38.8973 46.0902 39.1706 46.2525 39.5442 46.2525C39.9156 46.2525 40.1876 46.0867 40.3605 45.7551C40.5333 45.4234 40.6197 44.9143 40.6197 44.2277Z" fill="white"/>
<rect x="10.7544" y="36.854" width="42.8459" height="15.6868" rx="3.84341" stroke="#EFE9FF" stroke-width="0.512454"/>
<path d="M13.4858 66.9963L11.6422 63.7385C11.6782 64.0547 11.6962 64.309 11.6962 64.5011V66.9963H10.9095V62.7656H11.9214L13.7921 66.0505C13.7561 65.7482 13.738 65.473 13.738 65.2248V62.7656H14.5247V66.9963H13.4858ZM16.7371 67.0564C16.4228 67.0564 16.1776 66.9713 16.0014 66.8012C15.8253 66.629 15.7372 66.3878 15.7372 66.0775C15.7372 65.7412 15.8463 65.485 16.0645 65.3088C16.2847 65.1327 16.603 65.0426 17.0193 65.0386L17.719 65.0266V64.8614C17.719 64.6493 17.6819 64.4921 17.6079 64.39C17.5338 64.2859 17.4127 64.2339 17.2445 64.2339C17.0884 64.2339 16.9733 64.2699 16.8992 64.342C16.8272 64.412 16.7821 64.5292 16.7641 64.6933L15.8843 64.6513C15.9384 64.335 16.0825 64.0958 16.3167 63.9336C16.5529 63.7695 16.8742 63.6874 17.2806 63.6874C17.6909 63.6874 18.0072 63.7885 18.2294 63.9907C18.4516 64.1929 18.5627 64.4801 18.5627 64.8524V66.0355C18.5627 66.2176 18.5827 66.3438 18.6228 66.4138C18.6648 66.4819 18.7339 66.5159 18.83 66.5159C18.894 66.5159 18.9561 66.5099 19.0161 66.4979V66.9543C18.9661 66.9663 18.921 66.9773 18.881 66.9873C18.841 66.9973 18.8009 67.0053 18.7609 67.0114C18.7209 67.0174 18.6778 67.0224 18.6318 67.0264C18.5877 67.0304 18.5357 67.0324 18.4756 67.0324C18.2635 67.0324 18.1063 66.9803 18.0042 66.8762C17.9041 66.7721 17.8441 66.619 17.8241 66.4168H17.806C17.5698 66.8432 17.2135 67.0564 16.7371 67.0564ZM17.719 65.492L17.2866 65.498C17.0904 65.506 16.9513 65.528 16.8692 65.5641C16.7871 65.5981 16.7241 65.6511 16.68 65.7232C16.638 65.7953 16.617 65.8914 16.617 66.0115C16.617 66.1656 16.652 66.2807 16.7221 66.3568C16.7941 66.4308 16.8892 66.4679 17.0073 66.4679C17.1395 66.4679 17.2596 66.4318 17.3677 66.3598C17.4778 66.2877 17.5638 66.1886 17.6259 66.0625C17.6879 65.9344 17.719 65.7993 17.719 65.6572V65.492ZM21.9371 66.9963V65.1737C21.9371 64.6032 21.773 64.318 21.4447 64.318C21.2745 64.318 21.1354 64.405 21.0273 64.5792C20.9212 64.7534 20.8682 64.9785 20.8682 65.2548V66.9963H20.0244V64.4741C20.0244 64.2999 20.0214 64.1578 20.0154 64.0477C20.0114 63.9356 20.0064 63.8355 20.0004 63.7475H20.8051C20.8111 63.7855 20.8191 63.8876 20.8291 64.0537C20.8391 64.2179 20.8441 64.331 20.8441 64.393H20.8561C20.9602 64.1448 21.0894 63.9647 21.2435 63.8526C21.3996 63.7405 21.5858 63.6844 21.802 63.6844C22.2984 63.6844 22.5997 63.9206 22.7058 64.393H22.7238C22.8339 64.1408 22.966 63.9596 23.1202 63.8495C23.2743 63.7395 23.4705 63.6844 23.7087 63.6844C24.025 63.6844 24.2662 63.7925 24.4323 64.0087C24.5985 64.2229 24.6815 64.5312 24.6815 64.9335V66.9963H23.8438V65.1737C23.8438 64.6032 23.6797 64.318 23.3514 64.318C23.1872 64.318 23.0521 64.398 22.946 64.5582C22.8419 64.7163 22.7849 64.9355 22.7748 65.2158V66.9963H21.9371ZM27.4404 67.0564C26.952 67.0564 26.5766 66.9123 26.3144 66.624C26.0522 66.3338 25.921 65.9114 25.921 65.3569C25.921 64.8204 26.0542 64.408 26.3204 64.1198C26.5866 63.8315 26.964 63.6874 27.4524 63.6874C27.9188 63.6874 28.2751 63.8425 28.5213 64.1528C28.7676 64.4611 28.8907 64.9135 28.8907 65.51V65.534H26.8068C26.8068 65.8503 26.8649 66.0895 26.981 66.2517C27.0991 66.4118 27.2662 66.4919 27.4824 66.4919C27.7807 66.4919 27.9689 66.3628 28.0469 66.1045L28.8426 66.1736C28.6124 66.7621 28.145 67.0564 27.4404 67.0564ZM27.4404 64.2189C27.2422 64.2189 27.0891 64.2879 26.981 64.4261C26.8749 64.5642 26.8188 64.7574 26.8128 65.0056H28.0739C28.0579 64.7433 27.9949 64.5472 27.8848 64.4171C27.7747 64.2849 27.6265 64.2189 27.4404 64.2189Z" fill="#EFE9FF"/>
<path d="M27.2529 80.833C27.2529 81.2884 27.0743 81.6411 26.717 81.891C26.362 82.1409 25.861 82.2658 25.2141 82.2658C24.0114 82.2658 23.3143 81.8478 23.1228 81.0117L23.7709 80.8821C23.8456 81.1787 24.0044 81.397 24.2473 81.5372C24.4902 81.6749 24.8206 81.7438 25.2387 81.7438C25.6707 81.7438 26.0035 81.6703 26.237 81.5231C26.4729 81.3737 26.5909 81.1553 26.5909 80.8681C26.5909 80.7069 26.5535 80.5761 26.4788 80.4757C26.4064 80.3753 26.3036 80.2924 26.1705 80.227C26.0374 80.1616 25.8786 80.1067 25.6941 80.0623C25.5096 80.018 25.3052 79.9701 25.081 79.9187C24.691 79.8323 24.3944 79.7459 24.1912 79.6595C23.9904 79.5731 23.8316 79.4773 23.7148 79.3722C23.598 79.2648 23.5081 79.1399 23.4451 78.9974C23.3844 78.8549 23.354 78.6915 23.354 78.507C23.354 78.0843 23.5151 77.7585 23.8374 77.5296C24.162 77.3007 24.6256 77.1863 25.2282 77.1863C25.7886 77.1863 26.2172 77.2727 26.5138 77.4455C26.8104 77.616 27.0182 77.9079 27.1373 78.3213L26.4788 78.4369C26.4064 78.1753 26.2686 77.9862 26.0654 77.8694C25.8622 77.7503 25.5808 77.6907 25.2211 77.6907C24.8265 77.6907 24.5252 77.7561 24.3173 77.8869C24.1095 78.0177 24.0056 78.2127 24.0056 78.4719C24.0056 78.6237 24.0453 78.7499 24.1247 78.8503C24.2064 78.9484 24.3232 79.0324 24.475 79.1025C24.6268 79.1702 24.9292 79.2543 25.3823 79.3547C25.5341 79.3898 25.6847 79.426 25.8342 79.4633C25.986 79.4983 26.1308 79.5416 26.2686 79.5929C26.4064 79.642 26.5348 79.7004 26.6539 79.7681C26.7754 79.8358 26.8804 79.9187 26.9692 80.0168C27.0579 80.1149 27.1268 80.2305 27.1759 80.3636C27.2273 80.4967 27.2529 80.6532 27.2529 80.833ZM30.1045 77.8064V82.1957H29.4389V77.8064H27.7434V77.2599H31.8V77.8064H30.1045ZM37.0721 79.705C37.0721 80.2212 36.9729 80.6731 36.7744 81.0607C36.5782 81.4484 36.2956 81.7462 35.9266 81.954C35.5576 82.1619 35.1221 82.2658 34.62 82.2658C34.1132 82.2658 33.6753 82.163 33.3063 81.9575C32.9397 81.752 32.6594 81.4554 32.4656 81.0677C32.2717 80.6777 32.1748 80.2235 32.1748 79.705C32.1748 78.9157 32.3908 78.2991 32.8229 77.8554C33.2549 77.4093 33.8563 77.1863 34.627 77.1863C35.1291 77.1863 35.5646 77.2867 35.9336 77.4876C36.3026 77.6861 36.584 77.9757 36.7779 78.3563C36.9741 78.737 37.0721 79.1866 37.0721 79.705ZM36.389 79.705C36.389 79.0908 36.2349 78.6086 35.9266 78.2583C35.6207 77.9079 35.1875 77.7328 34.627 77.7328C34.0618 77.7328 33.6251 77.9056 33.3168 78.2512C33.0085 78.5969 32.8544 79.0815 32.8544 79.705C32.8544 80.3239 33.0097 80.8155 33.3203 81.1798C33.6333 81.5418 34.0665 81.7228 34.62 81.7228C35.1898 81.7228 35.6265 81.5477 35.9301 81.1974C36.2361 80.8447 36.389 80.3473 36.389 79.705ZM41.8259 78.7452C41.8259 79.2123 41.6729 79.5836 41.367 79.8592C41.0633 80.1347 40.65 80.2725 40.1269 80.2725H38.6766V82.1957H38.0075V77.2599H40.0848C40.6383 77.2599 41.0669 77.3895 41.3705 77.6487C41.6741 77.9079 41.8259 78.2734 41.8259 78.7452ZM41.1533 78.7522C41.1533 78.1146 40.7703 77.7958 40.0042 77.7958H38.6766V79.7436H40.0323C40.7796 79.7436 41.1533 79.4131 41.1533 78.7522Z" fill="white"/>
<rect x="10.7544" y="72.3522" width="44.0853" height="15.6868" rx="3.84341" stroke="#EFE9FF" stroke-width="0.512454"/>
<path d="M14.4226 102.495V99.9302C14.4226 99.8722 14.4226 99.8141 14.4226 99.7561C14.4246 99.698 14.4347 99.4488 14.4527 99.0084C14.3105 99.5469 14.2055 99.9222 14.1374 100.134L13.3747 102.495H12.7442L11.9815 100.134L11.6602 99.0084C11.6842 99.4728 11.6962 99.7801 11.6962 99.9302V102.495H10.9095V98.2638H12.0956L12.8523 100.63L12.9183 100.858L13.0624 101.426L13.2516 100.747L14.0293 98.2638H15.2093V102.495H14.4226ZM16.665 98.6601V98.0386H17.5088V98.6601H16.665ZM16.665 102.495V99.2456H17.5088V102.495H16.665ZM21.0964 102.495V100.672C21.0964 100.101 20.9032 99.8161 20.5168 99.8161C20.3127 99.8161 20.1475 99.9042 20.0214 100.08C19.8973 100.255 19.8352 100.479 19.8352 100.753V102.495H18.9915V99.9723C18.9915 99.7981 18.9885 99.656 18.9825 99.5459C18.9785 99.4338 18.9735 99.3337 18.9675 99.2456H19.7722C19.7782 99.2837 19.7862 99.3858 19.7962 99.5519C19.8062 99.716 19.8112 99.8291 19.8112 99.8912H19.8232C19.9373 99.643 20.0805 99.4628 20.2526 99.3507C20.4248 99.2386 20.6299 99.1826 20.8682 99.1826C21.2125 99.1826 21.4767 99.2887 21.6609 99.5009C21.845 99.713 21.9371 100.023 21.9371 100.432V102.495H21.0964ZM23.3658 98.6601V98.0386H24.2095V98.6601H23.3658ZM23.3658 102.495V99.2456H24.2095V102.495H23.3658ZM27.6049 102.495V100.672C27.6049 100.101 27.4408 99.8161 27.1125 99.8161C26.9423 99.8161 26.8032 99.9032 26.6951 100.077C26.589 100.252 26.536 100.477 26.536 100.753V102.495H25.6922V99.9723C25.6922 99.7981 25.6892 99.656 25.6832 99.5459C25.6792 99.4338 25.6742 99.3337 25.6682 99.2456H26.4729C26.4789 99.2837 26.4869 99.3858 26.4969 99.5519C26.507 99.716 26.512 99.8291 26.512 99.8912H26.524C26.6281 99.643 26.7572 99.4628 26.9113 99.3507C27.0675 99.2386 27.2536 99.1826 27.4698 99.1826C27.9662 99.1826 28.2675 99.4188 28.3736 99.8912H28.3916C28.5017 99.639 28.6338 99.4578 28.788 99.3477C28.9421 99.2376 29.1383 99.1826 29.3765 99.1826C29.6928 99.1826 29.934 99.2907 30.1001 99.5069C30.2663 99.721 30.3494 100.029 30.3494 100.432V102.495H29.5116V100.672C29.5116 100.101 29.3475 99.8161 29.0192 99.8161C28.855 99.8161 28.7199 99.8962 28.6138 100.056C28.5097 100.214 28.4527 100.434 28.4427 100.714V102.495H27.6049ZM32.5737 99.2456V101.068C32.5737 101.639 32.7659 101.924 33.1502 101.924C33.3544 101.924 33.5186 101.837 33.6427 101.663C33.7688 101.487 33.8318 101.261 33.8318 100.987V99.2456H34.6756V101.768C34.6756 102.044 34.6836 102.286 34.6996 102.495H33.8949C33.8709 102.206 33.8589 101.991 33.8589 101.849H33.8439C33.7318 102.095 33.5886 102.274 33.4145 102.386C33.2423 102.499 33.0371 102.555 32.7989 102.555C32.4546 102.555 32.1904 102.449 32.0062 102.239C31.8221 102.027 31.73 101.717 31.73 101.308V99.2456H32.5737ZM38.065 102.495V100.672C38.065 100.101 37.9009 99.8161 37.5726 99.8161C37.4024 99.8161 37.2633 99.9032 37.1552 100.077C37.0491 100.252 36.9961 100.477 36.9961 100.753V102.495H36.1523V99.9723C36.1523 99.7981 36.1493 99.656 36.1433 99.5459C36.1393 99.4338 36.1343 99.3337 36.1283 99.2456H36.933C36.939 99.2837 36.947 99.3858 36.957 99.5519C36.967 99.716 36.972 99.8291 36.972 99.8912H36.984C37.0881 99.643 37.2172 99.4628 37.3714 99.3507C37.5275 99.2386 37.7137 99.1826 37.9299 99.1826C38.4263 99.1826 38.7276 99.4188 38.8337 99.8912H38.8517C38.9618 99.639 39.0939 99.4578 39.248 99.3477C39.4022 99.2376 39.5984 99.1826 39.8366 99.1826C40.1528 99.1826 40.3941 99.2907 40.5602 99.5069C40.7264 99.721 40.8094 100.029 40.8094 100.432V102.495H39.9717V100.672C39.9717 100.101 39.8075 99.8161 39.4793 99.8161C39.3151 99.8161 39.18 99.8962 39.0739 100.056C38.9698 100.214 38.9128 100.434 38.9027 100.714V102.495H38.065ZM46.5553 101.861C46.7855 101.861 47.0087 101.828 47.2249 101.762C47.4411 101.694 47.6083 101.608 47.7264 101.504V100.918H46.6934V100.264H48.5371V101.819C48.3129 102.049 48.0206 102.229 47.6603 102.359C47.302 102.49 46.9257 102.555 46.5313 102.555C45.8427 102.555 45.3132 102.364 44.9429 101.984C44.5726 101.602 44.3874 101.06 44.3874 100.36C44.3874 99.663 44.5736 99.1295 44.9459 98.7592C45.3182 98.3869 45.8537 98.2007 46.5523 98.2007C47.5452 98.2007 48.1768 98.568 48.447 99.3027L47.6303 99.5489C47.5422 99.3347 47.4041 99.1726 47.2159 99.0625C47.0277 98.9524 46.8065 98.8973 46.5523 98.8973C46.136 98.8973 45.8197 99.0234 45.6035 99.2757C45.3873 99.5279 45.2792 99.8892 45.2792 100.36C45.2792 100.838 45.3903 101.208 45.6125 101.471C45.8367 101.731 46.151 101.861 46.5553 101.861ZM50.7164 102.555C50.4021 102.555 50.1569 102.469 49.9808 102.299C49.8046 102.127 49.7165 101.886 49.7165 101.576C49.7165 101.239 49.8256 100.983 50.0438 100.807C50.264 100.631 50.5823 100.541 50.9987 100.537L51.6983 100.525V100.36C51.6983 100.147 51.6612 99.9903 51.5872 99.8882C51.5131 99.7841 51.392 99.7321 51.2239 99.7321C51.0677 99.7321 50.9526 99.7681 50.8786 99.8402C50.8065 99.9102 50.7615 100.027 50.7434 100.191L49.8637 100.149C49.9177 99.8331 50.0618 99.5939 50.296 99.4318C50.5322 99.2676 50.8535 99.1856 51.2599 99.1856C51.6703 99.1856 51.9865 99.2867 52.2087 99.4888C52.4309 99.691 52.542 99.9783 52.542 100.351V101.534C52.542 101.716 52.562 101.842 52.6021 101.912C52.6441 101.98 52.7132 102.014 52.8093 102.014C52.8733 102.014 52.9354 102.008 52.9954 101.996V102.452C52.9454 102.464 52.9003 102.475 52.8603 102.485C52.8203 102.496 52.7802 102.504 52.7402 102.51C52.7002 102.516 52.6571 102.521 52.6111 102.525C52.5671 102.529 52.515 102.531 52.455 102.531C52.2428 102.531 52.0856 102.478 51.9835 102.374C51.8834 102.27 51.8234 102.117 51.8034 101.915H51.7854C51.5491 102.341 51.1928 102.555 50.7164 102.555ZM51.6983 100.99L51.2659 100.996C51.0697 101.004 50.9306 101.026 50.8485 101.062C50.7665 101.096 50.7034 101.149 50.6594 101.221C50.6173 101.293 50.5963 101.39 50.5963 101.51C50.5963 101.664 50.6313 101.779 50.7014 101.855C50.7735 101.929 50.8685 101.966 50.9867 101.966C51.1188 101.966 51.2389 101.93 51.347 101.858C51.4571 101.786 51.5431 101.687 51.6052 101.561C51.6673 101.433 51.6983 101.297 51.6983 101.155V100.99ZM56.7422 101.546C56.7422 101.86 56.613 102.107 56.3548 102.287C56.0986 102.465 55.7433 102.555 55.2889 102.555C54.8425 102.555 54.5002 102.484 54.262 102.344C54.0257 102.202 53.8686 101.982 53.7905 101.684L54.5322 101.573C54.5742 101.727 54.6463 101.836 54.7484 101.9C54.8525 101.964 55.0326 101.996 55.2889 101.996C55.5251 101.996 55.6972 101.966 55.8053 101.906C55.9134 101.846 55.9675 101.752 55.9675 101.624C55.9675 101.52 55.9234 101.438 55.8353 101.378C55.7493 101.315 55.6021 101.263 55.394 101.221C54.9175 101.127 54.5963 101.04 54.4301 100.96C54.264 100.878 54.1368 100.773 54.0488 100.645C53.9627 100.515 53.9197 100.356 53.9197 100.167C53.9197 99.8572 54.0388 99.616 54.277 99.4438C54.5172 99.2696 54.8565 99.1826 55.2949 99.1826C55.6812 99.1826 55.9915 99.2576 56.2257 99.4078C56.4619 99.5579 56.609 99.7751 56.6671 100.059L55.9194 100.137C55.8954 100.005 55.8363 99.9072 55.7423 99.8432C55.6482 99.7771 55.4991 99.7441 55.2949 99.7441C55.0947 99.7441 54.9446 99.7701 54.8445 99.8221C54.7444 99.8722 54.6943 99.9573 54.6943 100.077C54.6943 100.171 54.7324 100.247 54.8084 100.303C54.8865 100.357 55.0166 100.402 55.1988 100.438C55.453 100.49 55.6782 100.544 55.8744 100.6C56.0726 100.654 56.2307 100.719 56.3488 100.795C56.4689 100.871 56.564 100.969 56.6341 101.089C56.7061 101.207 56.7422 101.36 56.7422 101.546Z" fill="#EFE9FF"/>
<path d="M26.5068 115.224C26.5068 116.048 26.3608 116.678 26.0689 117.112C25.7793 117.547 25.3508 117.764 24.7833 117.764C24.2158 117.764 23.7895 117.548 23.5046 117.116C23.2197 116.684 23.0772 116.053 23.0772 115.224C23.0772 114.376 23.215 113.741 23.4906 113.318C23.7685 112.896 24.2064 112.684 24.8043 112.684C25.3858 112.684 25.8143 112.898 26.0899 113.325C26.3678 113.753 26.5068 114.386 26.5068 115.224ZM25.8657 115.224C25.8657 114.512 25.7828 113.996 25.617 113.676C25.4535 113.356 25.1826 113.196 24.8043 113.196C24.4166 113.196 24.1375 113.353 23.967 113.669C23.7989 113.984 23.7148 114.502 23.7148 115.224C23.7148 115.925 23.8001 116.437 23.9705 116.762C24.1434 117.087 24.4166 117.249 24.7903 117.249C25.1616 117.249 25.4337 117.083 25.6065 116.751C25.7793 116.42 25.8657 115.911 25.8657 115.224ZM30.5003 115.224C30.5003 116.048 30.3544 116.678 30.0624 117.112C29.7728 117.547 29.3443 117.764 28.7768 117.764C28.2093 117.764 27.7831 117.548 27.4982 117.116C27.2132 116.684 27.0708 116.053 27.0708 115.224C27.0708 114.376 27.2086 113.741 27.4842 113.318C27.7621 112.896 28.2 112.684 28.7978 112.684C29.3793 112.684 29.8079 112.898 30.0835 113.325C30.3614 113.753 30.5003 114.386 30.5003 115.224ZM29.8593 115.224C29.8593 114.512 29.7763 113.996 29.6105 113.676C29.4471 113.356 29.1761 113.196 28.7978 113.196C28.4101 113.196 28.1311 113.353 27.9606 113.669C27.7924 113.984 27.7083 114.502 27.7083 115.224C27.7083 115.925 27.7936 116.437 27.9641 116.762C28.1369 117.087 28.4101 117.249 28.7838 117.249C29.1551 117.249 29.4272 117.083 29.6 116.751C29.7728 116.42 29.8593 115.911 29.8593 115.224ZM34.4939 115.224C34.4939 116.048 34.3479 116.678 34.056 117.112C33.7664 117.547 33.3378 117.764 32.7703 117.764C32.2028 117.764 31.7766 117.548 31.4917 117.116C31.2068 116.684 31.0643 116.053 31.0643 115.224C31.0643 114.376 31.2021 113.741 31.4777 113.318C31.7556 112.896 32.1935 112.684 32.7914 112.684C33.3729 112.684 33.8014 112.898 34.077 113.325C34.3549 113.753 34.4939 114.386 34.4939 115.224ZM33.8528 115.224C33.8528 114.512 33.7699 113.996 33.6041 113.676C33.4406 113.356 33.1697 113.196 32.7914 113.196C32.4037 113.196 32.1246 113.353 31.9541 113.669C31.786 113.984 31.7019 114.502 31.7019 115.224C31.7019 115.925 31.7871 116.437 31.9576 116.762C32.1304 117.087 32.4037 117.249 32.7773 117.249C33.1487 117.249 33.4207 117.083 33.5936 116.751C33.7664 116.42 33.8528 115.911 33.8528 115.224Z" fill="white"/>
<rect x="10.7544" y="107.85" width="36.0853" height="15.6868" rx="3.84341" stroke="#EFE9FF" stroke-width="0.512454"/>
</g>
<defs>
<filter id="filter0_f_1_228" x="-14.688" y="0.311954" width="97.3724" height="148.668" filterUnits="userSpaceOnUse" color-interpolation-filters="sRGB">
<feFlood flood-opacity="0" result="BackgroundImageFix"/>
<feBlend mode="normal" in="SourceGraphic" in2="BackgroundImageFix" result="shape"/>
<feGaussianBlur stdDeviation="2.34402" result="effect1_foregroundBlur_1_228"/>
</filter>
<linearGradient id="paint0_linear_1_228" x1="-20.602" y1="-30.8471" x2="133.269" y2="136.791" gradientUnits="userSpaceOnUse">
<stop stop-color="#41B9CA"/>
<stop offset="1" stop-color="#83F9EA"/>
</linearGradient>
</defs>
</svg>
