<svg width="24" height="19" viewBox="0 0 24 19" fill="none" xmlns="http://www.w3.org/2000/svg">
<path d="M2.48438 7.30769L9.78516 14.9008L6.26953 7.30769H2.48438ZM12 16.1226L16.0898 7.30769H7.91016L12 16.1226ZM6.30469 5.84615L8.69532 1.46154H5.625L2.25 5.84615H6.30469ZM14.2148 14.9008L21.5156 7.30769H17.7305L14.2148 14.9008ZM8.00391 5.84615H15.9961L13.6055 1.46154H10.3945L8.00391 5.84615ZM17.6953 5.84615H21.75L18.375 1.46154H15.3047L17.6953 5.84615ZM19.3477 0.296875L23.8477 6.14303C23.957 6.28005 24.0078 6.438 24 6.61689C23.9922 6.79577 23.9258 6.94992 23.8008 7.07933L12.5508 18.7716C12.4102 18.9239 12.2266 19 12 19C11.7734 19 11.5898 18.9239 11.4492 18.7716L0.199222 7.07933C0.0742218 6.94992 0.00781555 6.79577 3.05177e-06 6.61689C-0.00780945 6.438 0.0429718 6.28005 0.152347 6.14303L4.65235 0.296875C4.79297 0.0989583 4.99219 0 5.25 0H18.75C19.0078 0 19.207 0.0989583 19.3477 0.296875Z" fill="#60F9F9"/>
</svg>
