<svg width="119" height="32" viewBox="0 0 119 32" fill="none" xmlns="http://www.w3.org/2000/svg">
<path d="M32.2424 2.246C32.2424 2.858 32.0264 3.38 31.5944 3.812C31.1624 4.244 30.6404 4.46 30.0284 4.46C29.4164 4.46 28.8944 4.244 28.4624 3.812C28.0304 3.38 27.8144 2.858 27.8144 2.246C27.8144 1.634 28.0304 1.112 28.4624 0.679998C28.8944 0.247999 29.4164 0.0319996 30.0284 0.0319996C30.6404 0.0319996 31.1624 0.247999 31.5944 0.679998C32.0264 1.112 32.2424 1.634 32.2424 2.246ZM26.7344 2.246C26.7344 2.858 26.5184 3.38 26.0864 3.812C25.6544 4.244 25.1324 4.46 24.5204 4.46C23.9084 4.46 23.3864 4.244 22.9544 3.812C22.5224 3.38 22.3064 2.858 22.3064 2.246C22.3064 1.634 22.5224 1.112 22.9544 0.679998C23.3864 0.247999 23.9084 0.0319996 24.5204 0.0319996C25.1324 0.0319996 25.6544 0.247999 26.0864 0.679998C26.5184 1.112 26.7344 1.634 26.7344 2.246ZM21.2264 2.246C21.2264 2.858 21.0104 3.38 20.5784 3.812C20.1464 4.244 19.6244 4.46 19.0124 4.46C18.4004 4.46 17.8784 4.244 17.4464 3.812C17.0144 3.38 16.7984 2.858 16.7984 2.246C16.7984 1.634 17.0144 1.112 17.4464 0.679998C17.8784 0.247999 18.4004 0.0319996 19.0124 0.0319996C19.6244 0.0319996 20.1464 0.247999 20.5784 0.679998C21.0104 1.112 21.2264 1.634 21.2264 2.246ZM26.7344 13.262C26.7344 13.874 26.5184 14.396 26.0864 14.828C25.6544 15.26 25.1324 15.476 24.5204 15.476C23.9084 15.476 23.3864 15.26 22.9544 14.828C22.5224 14.396 22.3064 13.874 22.3064 13.262C22.3064 12.65 22.5224 12.128 22.9544 11.696C23.3864 11.264 23.9084 11.048 24.5204 11.048C25.1324 11.048 25.6544 11.264 26.0864 11.696C26.5184 12.128 26.7344 12.65 26.7344 13.262ZM15.7184 2.246C15.7184 2.858 15.5024 3.38 15.0704 3.812C14.6384 4.244 14.1164 4.46 13.5044 4.46C12.8924 4.46 12.3704 4.244 11.9384 3.812C11.5064 3.38 11.2904 2.858 11.2904 2.246C11.2904 1.634 11.5064 1.112 11.9384 0.679998C12.3704 0.247999 12.8924 0.0319996 13.5044 0.0319996C14.1164 0.0319996 14.6384 0.247999 15.0704 0.679998C15.5024 1.112 15.7184 1.634 15.7184 2.246ZM21.2264 13.262C21.2264 13.874 21.0104 14.396 20.5784 14.828C20.1464 15.26 19.6244 15.476 19.0124 15.476C18.4004 15.476 17.8784 15.26 17.4464 14.828C17.0144 14.396 16.7984 13.874 16.7984 13.262C16.7984 12.65 17.0144 12.128 17.4464 11.696C17.8784 11.264 18.4004 11.048 19.0124 11.048C19.6244 11.048 20.1464 11.264 20.5784 11.696C21.0104 12.128 21.2264 12.65 21.2264 13.262ZM10.2104 2.246C10.2104 2.858 9.99441 3.38 9.56241 3.812C9.13041 4.244 8.60841 4.46 7.99641 4.46C7.38441 4.46 6.86241 4.244 6.43041 3.812C5.99841 3.38 5.78241 2.858 5.78241 2.246C5.78241 1.634 5.99841 1.112 6.43041 0.679998C6.86241 0.247999 7.38441 0.0319996 7.99641 0.0319996C8.60841 0.0319996 9.13041 0.247999 9.56241 0.679998C9.99441 1.112 10.2104 1.634 10.2104 2.246ZM15.7184 13.262C15.7184 13.874 15.5024 14.396 15.0704 14.828C14.6384 15.26 14.1164 15.476 13.5044 15.476C12.8924 15.476 12.3704 15.26 11.9384 14.828C11.5064 14.396 11.2904 13.874 11.2904 13.262C11.2904 12.65 11.5064 12.128 11.9384 11.696C12.3704 11.264 12.8924 11.048 13.5044 11.048C14.1164 11.048 14.6384 11.264 15.0704 11.696C15.5024 12.128 15.7184 12.65 15.7184 13.262ZM10.2104 7.754C10.2104 8.366 9.99441 8.888 9.56241 9.32C9.13041 9.752 8.60841 9.968 7.99641 9.968C7.38441 9.968 6.86241 9.752 6.43041 9.32C5.99841 8.888 5.78241 8.366 5.78241 7.754C5.78241 7.142 5.99841 6.62 6.43041 6.188C6.86241 5.756 7.38441 5.54 7.99641 5.54C8.60841 5.54 9.13041 5.756 9.56241 6.188C9.99441 6.62 10.2104 7.142 10.2104 7.754ZM4.70241 7.754C4.70241 8.366 4.48641 8.888 4.05441 9.32C3.62241 9.752 3.10041 9.968 2.48841 9.968C1.87641 9.968 1.35441 9.752 0.922414 9.32C0.490414 8.888 0.274414 8.366 0.274414 7.754C0.274414 7.142 0.490414 6.62 0.922414 6.188C1.35441 5.756 1.87641 5.54 2.48841 5.54C3.10041 5.54 3.62241 5.756 4.05441 6.188C4.48641 6.62 4.70241 7.142 4.70241 7.754ZM10.2104 13.262C10.2104 13.874 9.99441 14.396 9.56241 14.828C9.13041 15.26 8.60841 15.476 7.99641 15.476C7.38441 15.476 6.86241 15.26 6.43041 14.828C5.99841 14.396 5.78241 13.874 5.78241 13.262C5.78241 12.65 5.99841 12.128 6.43041 11.696C6.86241 11.264 7.38441 11.048 7.99641 11.048C8.60841 11.048 9.13041 11.264 9.56241 11.696C9.99441 12.128 10.2104 12.65 10.2104 13.262ZM4.70241 13.262C4.70241 13.874 4.48641 14.396 4.05441 14.828C3.62241 15.26 3.10041 15.476 2.48841 15.476C1.87641 15.476 1.35441 15.26 0.922414 14.828C0.490414 14.396 0.274414 13.874 0.274414 13.262C0.274414 12.65 0.490414 12.128 0.922414 11.696C1.35441 11.264 1.87641 11.048 2.48841 11.048C3.10041 11.048 3.62241 11.264 4.05441 11.696C4.48641 12.128 4.70241 12.65 4.70241 13.262ZM10.2104 18.77C10.2104 19.382 9.99441 19.904 9.56241 20.336C9.13041 20.768 8.60841 20.984 7.99641 20.984C7.38441 20.984 6.86241 20.768 6.43041 20.336C5.99841 19.904 5.78241 19.382 5.78241 18.77C5.78241 18.158 5.99841 17.636 6.43041 17.204C6.86241 16.772 7.38441 16.556 7.99641 16.556C8.60841 16.556 9.13041 16.772 9.56241 17.204C9.99441 17.636 10.2104 18.158 10.2104 18.77ZM4.70241 18.77C4.70241 19.382 4.48641 19.904 4.05441 20.336C3.62241 20.768 3.10041 20.984 2.48841 20.984C1.87641 20.984 1.35441 20.768 0.922414 20.336C0.490414 19.904 0.274414 19.382 0.274414 18.77C0.274414 18.158 0.490414 17.636 0.922414 17.204C1.35441 16.772 1.87641 16.556 2.48841 16.556C3.10041 16.556 3.62241 16.772 4.05441 17.204C4.48641 17.636 4.70241 18.158 4.70241 18.77ZM10.2104 24.278C10.2104 24.89 9.99441 25.412 9.56241 25.844C9.13041 26.276 8.60841 26.492 7.99641 26.492C7.38441 26.492 6.86241 26.276 6.43041 25.844C5.99841 25.412 5.78241 24.89 5.78241 24.278C5.78241 23.666 5.99841 23.144 6.43041 22.712C6.86241 22.28 7.38441 22.064 7.99641 22.064C8.60841 22.064 9.13041 22.28 9.56241 22.712C9.99441 23.144 10.2104 23.666 10.2104 24.278ZM4.70241 24.278C4.70241 24.89 4.48641 25.412 4.05441 25.844C3.62241 26.276 3.10041 26.492 2.48841 26.492C1.87641 26.492 1.35441 26.276 0.922414 25.844C0.490414 25.412 0.274414 24.89 0.274414 24.278C0.274414 23.666 0.490414 23.144 0.922414 22.712C1.35441 22.28 1.87641 22.064 2.48841 22.064C3.10041 22.064 3.62241 22.28 4.05441 22.712C4.48641 23.144 4.70241 23.666 4.70241 24.278ZM10.2104 29.786C10.2104 30.398 9.99441 30.92 9.56241 31.352C9.13041 31.784 8.60841 32 7.99641 32C7.38441 32 6.86241 31.784 6.43041 31.352C5.99841 30.92 5.78241 30.398 5.78241 29.786C5.78241 29.174 5.99841 28.652 6.43041 28.22C6.86241 27.788 7.38441 27.572 7.99641 27.572C8.60841 27.572 9.13041 27.788 9.56241 28.22C9.99441 28.652 10.2104 29.174 10.2104 29.786ZM4.70241 29.786C4.70241 30.398 4.48641 30.92 4.05441 31.352C3.62241 31.784 3.10041 32 2.48841 32C1.87641 32 1.35441 31.784 0.922414 31.352C0.490414 30.92 0.274414 30.398 0.274414 29.786C0.274414 29.174 0.490414 28.652 0.922414 28.22C1.35441 27.788 1.87641 27.572 2.48841 27.572C3.10041 27.572 3.62241 27.788 4.05441 28.22C4.48641 28.652 4.70241 29.174 4.70241 29.786ZM75.2446 7.754C75.2446 8.366 75.0286 8.888 74.5966 9.32C74.1646 9.752 73.6426 9.968 73.0306 9.968C72.4186 9.968 71.8966 9.752 71.4646 9.32C71.0326 8.888 70.8166 8.366 70.8166 7.754C70.8166 7.142 71.0326 6.62 71.4646 6.188C71.8966 5.756 72.4186 5.54 73.0306 5.54C73.6426 5.54 74.1646 5.756 74.5966 6.188C75.0286 6.62 75.2446 7.142 75.2446 7.754ZM69.7366 2.246C69.7366 2.858 69.5206 3.38 69.0886 3.812C68.6566 4.244 68.1346 4.46 67.5226 4.46C66.9106 4.46 66.3886 4.244 65.9566 3.812C65.5246 3.38 65.3086 2.858 65.3086 2.246C65.3086 1.634 65.5246 1.112 65.9566 0.679998C66.3886 0.247999 66.9106 0.0319996 67.5226 0.0319996C68.1346 0.0319996 68.6566 0.247999 69.0886 0.679998C69.5206 1.112 69.7366 1.634 69.7366 2.246ZM75.2446 13.262C75.2446 13.874 75.0286 14.396 74.5966 14.828C74.1646 15.26 73.6426 15.476 73.0306 15.476C72.4186 15.476 71.8966 15.26 71.4646 14.828C71.0326 14.396 70.8166 13.874 70.8166 13.262C70.8166 12.65 71.0326 12.128 71.4646 11.696C71.8966 11.264 72.4186 11.048 73.0306 11.048C73.6426 11.048 74.1646 11.264 74.5966 11.696C75.0286 12.128 75.2446 12.65 75.2446 13.262ZM64.2286 2.246C64.2286 2.858 64.0126 3.38 63.5806 3.812C63.1486 4.244 62.6266 4.46 62.0146 4.46C61.4026 4.46 60.8806 4.244 60.4486 3.812C60.0166 3.38 59.8006 2.858 59.8006 2.246C59.8006 1.634 60.0166 1.112 60.4486 0.679998C60.8806 0.247999 61.4026 0.0319996 62.0146 0.0319996C62.6266 0.0319996 63.1486 0.247999 63.5806 0.679998C64.0126 1.112 64.2286 1.634 64.2286 2.246ZM69.7366 7.754C69.7366 8.366 69.5206 8.888 69.0886 9.32C68.6566 9.752 68.1346 9.968 67.5226 9.968C66.9106 9.968 66.3886 9.752 65.9566 9.32C65.5246 8.888 65.3086 8.366 65.3086 7.754C65.3086 7.142 65.5246 6.62 65.9566 6.188C66.3886 5.756 66.9106 5.54 67.5226 5.54C68.1346 5.54 68.6566 5.756 69.0886 6.188C69.5206 6.62 69.7366 7.142 69.7366 7.754ZM75.2446 18.77C75.2446 19.382 75.0286 19.904 74.5966 20.336C74.1646 20.768 73.6426 20.984 73.0306 20.984C72.4186 20.984 71.8966 20.768 71.4646 20.336C71.0326 19.904 70.8166 19.382 70.8166 18.77C70.8166 18.158 71.0326 17.636 71.4646 17.204C71.8966 16.772 72.4186 16.556 73.0306 16.556C73.6426 16.556 74.1646 16.772 74.5966 17.204C75.0286 17.636 75.2446 18.158 75.2446 18.77ZM58.7206 2.246C58.7206 2.858 58.5046 3.38 58.0726 3.812C57.6406 4.244 57.1186 4.46 56.5066 4.46C55.8946 4.46 55.3726 4.244 54.9406 3.812C54.5086 3.38 54.2926 2.858 54.2926 2.246C54.2926 1.634 54.5086 1.112 54.9406 0.679998C55.3726 0.247999 55.8946 0.0319996 56.5066 0.0319996C57.1186 0.0319996 57.6406 0.247999 58.0726 0.679998C58.5046 1.112 58.7206 1.634 58.7206 2.246ZM69.7366 13.262C69.7366 13.874 69.5206 14.396 69.0886 14.828C68.6566 15.26 68.1346 15.476 67.5226 15.476C66.9106 15.476 66.3886 15.26 65.9566 14.828C65.5246 14.396 65.3086 13.874 65.3086 13.262C65.3086 12.65 65.5246 12.128 65.9566 11.696C66.3886 11.264 66.9106 11.048 67.5226 11.048C68.1346 11.048 68.6566 11.264 69.0886 11.696C69.5206 12.128 69.7366 12.65 69.7366 13.262ZM64.2286 13.262C64.2286 13.874 64.0126 14.396 63.5806 14.828C63.1486 15.26 62.6266 15.476 62.0146 15.476C61.4026 15.476 60.8806 15.26 60.4486 14.828C60.0166 14.396 59.8006 13.874 59.8006 13.262C59.8006 12.65 60.0166 12.128 60.4486 11.696C60.8806 11.264 61.4026 11.048 62.0146 11.048C62.6266 11.048 63.1486 11.264 63.5806 11.696C64.0126 12.128 64.2286 12.65 64.2286 13.262ZM75.2446 24.278C75.2446 24.89 75.0286 25.412 74.5966 25.844C74.1646 26.276 73.6426 26.492 73.0306 26.492C72.4186 26.492 71.8966 26.276 71.4646 25.844C71.0326 25.412 70.8166 24.89 70.8166 24.278C70.8166 23.666 71.0326 23.144 71.4646 22.712C71.8966 22.28 72.4186 22.064 73.0306 22.064C73.6426 22.064 74.1646 22.28 74.5966 22.712C75.0286 23.144 75.2446 23.666 75.2446 24.278ZM53.2126 2.246C53.2126 2.858 52.9966 3.38 52.5646 3.812C52.1326 4.244 51.6106 4.46 50.9986 4.46C50.3866 4.46 49.8646 4.244 49.4326 3.812C49.0006 3.38 48.7846 2.858 48.7846 2.246C48.7846 1.634 49.0006 1.112 49.4326 0.679998C49.8646 0.247999 50.3866 0.0319996 50.9986 0.0319996C51.6106 0.0319996 52.1326 0.247999 52.5646 0.679998C52.9966 1.112 53.2126 1.634 53.2126 2.246ZM69.7366 18.77C69.7366 19.382 69.5206 19.904 69.0886 20.336C68.6566 20.768 68.1346 20.984 67.5226 20.984C66.9106 20.984 66.3886 20.768 65.9566 20.336C65.5246 19.904 65.3086 19.382 65.3086 18.77C65.3086 18.158 65.5246 17.636 65.9566 17.204C66.3886 16.772 66.9106 16.556 67.5226 16.556C68.1346 16.556 68.6566 16.772 69.0886 17.204C69.5206 17.636 69.7366 18.158 69.7366 18.77ZM58.7206 13.262C58.7206 13.874 58.5046 14.396 58.0726 14.828C57.6406 15.26 57.1186 15.476 56.5066 15.476C55.8946 15.476 55.3726 15.26 54.9406 14.828C54.5086 14.396 54.2926 13.874 54.2926 13.262C54.2926 12.65 54.5086 12.128 54.9406 11.696C55.3726 11.264 55.8946 11.048 56.5066 11.048C57.1186 11.048 57.6406 11.264 58.0726 11.696C58.5046 12.128 58.7206 12.65 58.7206 13.262ZM69.7366 24.278C69.7366 24.89 69.5206 25.412 69.0886 25.844C68.6566 26.276 68.1346 26.492 67.5226 26.492C66.9106 26.492 66.3886 26.276 65.9566 25.844C65.5246 25.412 65.3086 24.89 65.3086 24.278C65.3086 23.666 65.5246 23.144 65.9566 22.712C66.3886 22.28 66.9106 22.064 67.5226 22.064C68.1346 22.064 68.6566 22.28 69.0886 22.712C69.5206 23.144 69.7366 23.666 69.7366 24.278ZM47.7046 2.246C47.7046 2.858 47.4886 3.38 47.0566 3.812C46.6246 4.244 46.1026 4.46 45.4906 4.46C44.8786 4.46 44.3566 4.244 43.9246 3.812C43.4926 3.38 43.2766 2.858 43.2766 2.246C43.2766 1.634 43.4926 1.112 43.9246 0.679998C44.3566 0.247999 44.8786 0.0319996 45.4906 0.0319996C46.1026 0.0319996 46.6246 0.247999 47.0566 0.679998C47.4886 1.112 47.7046 1.634 47.7046 2.246ZM53.2126 13.262C53.2126 13.874 52.9966 14.396 52.5646 14.828C52.1326 15.26 51.6106 15.476 50.9986 15.476C50.3866 15.476 49.8646 15.26 49.4326 14.828C49.0006 14.396 48.7846 13.874 48.7846 13.262C48.7846 12.65 49.0006 12.128 49.4326 11.696C49.8646 11.264 50.3866 11.048 50.9986 11.048C51.6106 11.048 52.1326 11.264 52.5646 11.696C52.9966 12.128 53.2126 12.65 53.2126 13.262ZM69.7366 29.786C69.7366 30.398 69.5206 30.92 69.0886 31.352C68.6566 31.784 68.1346 32 67.5226 32C66.9106 32 66.3886 31.784 65.9566 31.352C65.5246 30.92 65.3086 30.398 65.3086 29.786C65.3086 29.174 65.5246 28.652 65.9566 28.22C66.3886 27.788 66.9106 27.572 67.5226 27.572C68.1346 27.572 68.6566 27.788 69.0886 28.22C69.5206 28.652 69.7366 29.174 69.7366 29.786ZM64.2286 29.786C64.2286 30.398 64.0126 30.92 63.5806 31.352C63.1486 31.784 62.6266 32 62.0146 32C61.4026 32 60.8806 31.784 60.4486 31.352C60.0166 30.92 59.8006 30.398 59.8006 29.786C59.8006 29.174 60.0166 28.652 60.4486 28.22C60.8806 27.788 61.4026 27.572 62.0146 27.572C62.6266 27.572 63.1486 27.788 63.5806 28.22C64.0126 28.652 64.2286 29.174 64.2286 29.786ZM47.7046 13.262C47.7046 13.874 47.4886 14.396 47.0566 14.828C46.6246 15.26 46.1026 15.476 45.4906 15.476C44.8786 15.476 44.3566 15.26 43.9246 14.828C43.4926 14.396 43.2766 13.874 43.2766 13.262C43.2766 12.65 43.4926 12.128 43.9246 11.696C44.3566 11.264 44.8786 11.048 45.4906 11.048C46.1026 11.048 46.6246 11.264 47.0566 11.696C47.4886 12.128 47.7046 12.65 47.7046 13.262ZM58.7206 29.786C58.7206 30.398 58.5046 30.92 58.0726 31.352C57.6406 31.784 57.1186 32 56.5066 32C55.8946 32 55.3726 31.784 54.9406 31.352C54.5086 30.92 54.2926 30.398 54.2926 29.786C54.2926 29.174 54.5086 28.652 54.9406 28.22C55.3726 27.788 55.8946 27.572 56.5066 27.572C57.1186 27.572 57.6406 27.788 58.0726 28.22C58.5046 28.652 58.7206 29.174 58.7206 29.786ZM47.7046 18.77C47.7046 19.382 47.4886 19.904 47.0566 20.336C46.6246 20.768 46.1026 20.984 45.4906 20.984C44.8786 20.984 44.3566 20.768 43.9246 20.336C43.4926 19.904 43.2766 19.382 43.2766 18.77C43.2766 18.158 43.4926 17.636 43.9246 17.204C44.3566 16.772 44.8786 16.556 45.4906 16.556C46.1026 16.556 46.6246 16.772 47.0566 17.204C47.4886 17.636 47.7046 18.158 47.7046 18.77ZM42.1966 18.77C42.1966 19.382 41.9806 19.904 41.5486 20.336C41.1166 20.768 40.5946 20.984 39.9826 20.984C39.3706 20.984 38.8486 20.768 38.4166 20.336C37.9846 19.904 37.7686 19.382 37.7686 18.77C37.7686 18.158 37.9846 17.636 38.4166 17.204C38.8486 16.772 39.3706 16.556 39.9826 16.556C40.5946 16.556 41.1166 16.772 41.5486 17.204C41.9806 17.636 42.1966 18.158 42.1966 18.77ZM53.2126 29.786C53.2126 30.398 52.9966 30.92 52.5646 31.352C52.1326 31.784 51.6106 32 50.9986 32C50.3866 32 49.8646 31.784 49.4326 31.352C49.0006 30.92 48.7846 30.398 48.7846 29.786C48.7846 29.174 49.0006 28.652 49.4326 28.22C49.8646 27.788 50.3866 27.572 50.9986 27.572C51.6106 27.572 52.1326 27.788 52.5646 28.22C52.9966 28.652 53.2126 29.174 53.2126 29.786ZM47.7046 24.278C47.7046 24.89 47.4886 25.412 47.0566 25.844C46.6246 26.276 46.1026 26.492 45.4906 26.492C44.8786 26.492 44.3566 26.276 43.9246 25.844C43.4926 25.412 43.2766 24.89 43.2766 24.278C43.2766 23.666 43.4926 23.144 43.9246 22.712C44.3566 22.28 44.8786 22.064 45.4906 22.064C46.1026 22.064 46.6246 22.28 47.0566 22.712C47.4886 23.144 47.7046 23.666 47.7046 24.278ZM42.1966 24.278C42.1966 24.89 41.9806 25.412 41.5486 25.844C41.1166 26.276 40.5946 26.492 39.9826 26.492C39.3706 26.492 38.8486 26.276 38.4166 25.844C37.9846 25.412 37.7686 24.89 37.7686 24.278C37.7686 23.666 37.9846 23.144 38.4166 22.712C38.8486 22.28 39.3706 22.064 39.9826 22.064C40.5946 22.064 41.1166 22.28 41.5486 22.712C41.9806 23.144 42.1966 23.666 42.1966 24.278ZM47.7046 29.786C47.7046 30.398 47.4886 30.92 47.0566 31.352C46.6246 31.784 46.1026 32 45.4906 32C44.8786 32 44.3566 31.784 43.9246 31.352C43.4926 30.92 43.2766 30.398 43.2766 29.786C43.2766 29.174 43.4926 28.652 43.9246 28.22C44.3566 27.788 44.8786 27.572 45.4906 27.572C46.1026 27.572 46.6246 27.788 47.0566 28.22C47.4886 28.652 47.7046 29.174 47.7046 29.786ZM118.223 7.754C118.223 8.366 118.007 8.888 117.575 9.32C117.143 9.752 116.621 9.968 116.009 9.968C115.397 9.968 114.875 9.752 114.443 9.32C114.011 8.888 113.795 8.366 113.795 7.754C113.795 7.142 114.011 6.62 114.443 6.188C114.875 5.756 115.397 5.54 116.009 5.54C116.621 5.54 117.143 5.756 117.575 6.188C118.007 6.62 118.223 7.142 118.223 7.754ZM112.715 2.246C112.715 2.858 112.499 3.38 112.067 3.812C111.635 4.244 111.113 4.46 110.501 4.46C109.889 4.46 109.367 4.244 108.935 3.812C108.503 3.38 108.287 2.858 108.287 2.246C108.287 1.634 108.503 1.112 108.935 0.679998C109.367 0.247999 109.889 0.0319996 110.501 0.0319996C111.113 0.0319996 111.635 0.247999 112.067 0.679998C112.499 1.112 112.715 1.634 112.715 2.246ZM118.223 13.262C118.223 13.874 118.007 14.396 117.575 14.828C117.143 15.26 116.621 15.476 116.009 15.476C115.397 15.476 114.875 15.26 114.443 14.828C114.011 14.396 113.795 13.874 113.795 13.262C113.795 12.65 114.011 12.128 114.443 11.696C114.875 11.264 115.397 11.048 116.009 11.048C116.621 11.048 117.143 11.264 117.575 11.696C118.007 12.128 118.223 12.65 118.223 13.262ZM107.207 2.246C107.207 2.858 106.991 3.38 106.559 3.812C106.127 4.244 105.605 4.46 104.993 4.46C104.381 4.46 103.859 4.244 103.427 3.812C102.995 3.38 102.779 2.858 102.779 2.246C102.779 1.634 102.995 1.112 103.427 0.679998C103.859 0.247999 104.381 0.0319996 104.993 0.0319996C105.605 0.0319996 106.127 0.247999 106.559 0.679998C106.991 1.112 107.207 1.634 107.207 2.246ZM112.715 7.754C112.715 8.366 112.499 8.888 112.067 9.32C111.635 9.752 111.113 9.968 110.501 9.968C109.889 9.968 109.367 9.752 108.935 9.32C108.503 8.888 108.287 8.366 108.287 7.754C108.287 7.142 108.503 6.62 108.935 6.188C109.367 5.756 109.889 5.54 110.501 5.54C111.113 5.54 111.635 5.756 112.067 6.188C112.499 6.62 112.715 7.142 112.715 7.754ZM118.223 18.77C118.223 19.382 118.007 19.904 117.575 20.336C117.143 20.768 116.621 20.984 116.009 20.984C115.397 20.984 114.875 20.768 114.443 20.336C114.011 19.904 113.795 19.382 113.795 18.77C113.795 18.158 114.011 17.636 114.443 17.204C114.875 16.772 115.397 16.556 116.009 16.556C116.621 16.556 117.143 16.772 117.575 17.204C118.007 17.636 118.223 18.158 118.223 18.77ZM101.699 2.246C101.699 2.858 101.483 3.38 101.051 3.812C100.619 4.244 100.097 4.46 99.4851 4.46C98.8731 4.46 98.3511 4.244 97.9191 3.812C97.4871 3.38 97.2711 2.858 97.2711 2.246C97.2711 1.634 97.4871 1.112 97.9191 0.679998C98.3511 0.247999 98.8731 0.0319996 99.4851 0.0319996C100.097 0.0319996 100.619 0.247999 101.051 0.679998C101.483 1.112 101.699 1.634 101.699 2.246ZM112.715 13.262C112.715 13.874 112.499 14.396 112.067 14.828C111.635 15.26 111.113 15.476 110.501 15.476C109.889 15.476 109.367 15.26 108.935 14.828C108.503 14.396 108.287 13.874 108.287 13.262C108.287 12.65 108.503 12.128 108.935 11.696C109.367 11.264 109.889 11.048 110.501 11.048C111.113 11.048 111.635 11.264 112.067 11.696C112.499 12.128 112.715 12.65 112.715 13.262ZM96.1911 2.246C96.1911 2.858 95.9751 3.38 95.5431 3.812C95.1111 4.244 94.5891 4.46 93.9771 4.46C93.3651 4.46 92.8431 4.244 92.4111 3.812C91.9791 3.38 91.7631 2.858 91.7631 2.246C91.7631 1.634 91.9791 1.112 92.4111 0.679998C92.8431 0.247999 93.3651 0.0319996 93.9771 0.0319996C94.5891 0.0319996 95.1111 0.247999 95.5431 0.679998C95.9751 1.112 96.1911 1.634 96.1911 2.246ZM112.715 18.77C112.715 19.382 112.499 19.904 112.067 20.336C111.635 20.768 111.113 20.984 110.501 20.984C109.889 20.984 109.367 20.768 108.935 20.336C108.503 19.904 108.287 19.382 108.287 18.77C108.287 18.158 108.503 17.636 108.935 17.204C109.367 16.772 109.889 16.556 110.501 16.556C111.113 16.556 111.635 16.772 112.067 17.204C112.499 17.636 112.715 18.158 112.715 18.77ZM118.223 29.786C118.223 30.398 118.007 30.92 117.575 31.352C117.143 31.784 116.621 32 116.009 32C115.397 32 114.875 31.784 114.443 31.352C114.011 30.92 113.795 30.398 113.795 29.786C113.795 29.174 114.011 28.652 114.443 28.22C114.875 27.788 115.397 27.572 116.009 27.572C116.621 27.572 117.143 27.788 117.575 28.22C118.007 28.652 118.223 29.174 118.223 29.786ZM112.715 24.278C112.715 24.89 112.499 25.412 112.067 25.844C111.635 26.276 111.113 26.492 110.501 26.492C109.889 26.492 109.367 26.276 108.935 25.844C108.503 25.412 108.287 24.89 108.287 24.278C108.287 23.666 108.503 23.144 108.935 22.712C109.367 22.28 109.889 22.064 110.501 22.064C111.113 22.064 111.635 22.28 112.067 22.712C112.499 23.144 112.715 23.666 112.715 24.278ZM90.6831 2.246C90.6831 2.858 90.4671 3.38 90.0351 3.812C89.6031 4.244 89.0811 4.46 88.4691 4.46C87.8571 4.46 87.3351 4.244 86.9031 3.812C86.4711 3.38 86.2551 2.858 86.2551 2.246C86.2551 1.634 86.4711 1.112 86.9031 0.679998C87.3351 0.247999 87.8571 0.0319996 88.4691 0.0319996C89.0811 0.0319996 89.6031 0.247999 90.0351 0.679998C90.4671 1.112 90.6831 1.634 90.6831 2.246ZM107.207 24.278C107.207 24.89 106.991 25.412 106.559 25.844C106.127 26.276 105.605 26.492 104.993 26.492C104.381 26.492 103.859 26.276 103.427 25.844C102.995 25.412 102.779 24.89 102.779 24.278C102.779 23.666 102.995 23.144 103.427 22.712C103.859 22.28 104.381 22.064 104.993 22.064C105.605 22.064 106.127 22.28 106.559 22.712C106.991 23.144 107.207 23.666 107.207 24.278ZM90.6831 7.754C90.6831 8.366 90.4671 8.888 90.0351 9.32C89.6031 9.752 89.0811 9.968 88.4691 9.968C87.8571 9.968 87.3351 9.752 86.9031 9.32C86.4711 8.888 86.2551 8.366 86.2551 7.754C86.2551 7.142 86.4711 6.62 86.9031 6.188C87.3351 5.756 87.8571 5.54 88.4691 5.54C89.0811 5.54 89.6031 5.756 90.0351 6.188C90.4671 6.62 90.6831 7.142 90.6831 7.754ZM112.715 29.786C112.715 30.398 112.499 30.92 112.067 31.352C111.635 31.784 111.113 32 110.501 32C109.889 32 109.367 31.784 108.935 31.352C108.503 30.92 108.287 30.398 108.287 29.786C108.287 29.174 108.503 28.652 108.935 28.22C109.367 27.788 109.889 27.572 110.501 27.572C111.113 27.572 111.635 27.788 112.067 28.22C112.499 28.652 112.715 29.174 112.715 29.786ZM85.1751 7.754C85.1751 8.366 84.9591 8.888 84.5271 9.32C84.0951 9.752 83.5731 9.968 82.9611 9.968C82.3491 9.968 81.8271 9.752 81.3951 9.32C80.9631 8.888 80.7471 8.366 80.7471 7.754C80.7471 7.142 80.9631 6.62 81.3951 6.188C81.8271 5.756 82.3491 5.54 82.9611 5.54C83.5731 5.54 84.0951 5.756 84.5271 6.188C84.9591 6.62 85.1751 7.142 85.1751 7.754ZM90.6831 13.262C90.6831 13.874 90.4671 14.396 90.0351 14.828C89.6031 15.26 89.0811 15.476 88.4691 15.476C87.8571 15.476 87.3351 15.26 86.9031 14.828C86.4711 14.396 86.2551 13.874 86.2551 13.262C86.2551 12.65 86.4711 12.128 86.9031 11.696C87.3351 11.264 87.8571 11.048 88.4691 11.048C89.0811 11.048 89.6031 11.264 90.0351 11.696C90.4671 12.128 90.6831 12.65 90.6831 13.262ZM85.1751 13.262C85.1751 13.874 84.9591 14.396 84.5271 14.828C84.0951 15.26 83.5731 15.476 82.9611 15.476C82.3491 15.476 81.8271 15.26 81.3951 14.828C80.9631 14.396 80.7471 13.874 80.7471 13.262C80.7471 12.65 80.9631 12.128 81.3951 11.696C81.8271 11.264 82.3491 11.048 82.9611 11.048C83.5731 11.048 84.0951 11.264 84.5271 11.696C84.9591 12.128 85.1751 12.65 85.1751 13.262ZM101.699 29.786C101.699 30.398 101.483 30.92 101.051 31.352C100.619 31.784 100.097 32 99.4851 32C98.8731 32 98.3511 31.784 97.9191 31.352C97.4871 30.92 97.2711 30.398 97.2711 29.786C97.2711 29.174 97.4871 28.652 97.9191 28.22C98.3511 27.788 98.8731 27.572 99.4851 27.572C100.097 27.572 100.619 27.788 101.051 28.22C101.483 28.652 101.699 29.174 101.699 29.786ZM90.6831 18.77C90.6831 19.382 90.4671 19.904 90.0351 20.336C89.6031 20.768 89.0811 20.984 88.4691 20.984C87.8571 20.984 87.3351 20.768 86.9031 20.336C86.4711 19.904 86.2551 19.382 86.2551 18.77C86.2551 18.158 86.4711 17.636 86.9031 17.204C87.3351 16.772 87.8571 16.556 88.4691 16.556C89.0811 16.556 89.6031 16.772 90.0351 17.204C90.4671 17.636 90.6831 18.158 90.6831 18.77ZM85.1751 18.77C85.1751 19.382 84.9591 19.904 84.5271 20.336C84.0951 20.768 83.5731 20.984 82.9611 20.984C82.3491 20.984 81.8271 20.768 81.3951 20.336C80.9631 19.904 80.7471 19.382 80.7471 18.77C80.7471 18.158 80.9631 17.636 81.3951 17.204C81.8271 16.772 82.3491 16.556 82.9611 16.556C83.5731 16.556 84.0951 16.772 84.5271 17.204C84.9591 17.636 85.1751 18.158 85.1751 18.77ZM96.1911 29.786C96.1911 30.398 95.9751 30.92 95.5431 31.352C95.1111 31.784 94.5891 32 93.9771 32C93.3651 32 92.8431 31.784 92.4111 31.352C91.9791 30.92 91.7631 30.398 91.7631 29.786C91.7631 29.174 91.9791 28.652 92.4111 28.22C92.8431 27.788 93.3651 27.572 93.9771 27.572C94.5891 27.572 95.1111 27.788 95.5431 28.22C95.9751 28.652 96.1911 29.174 96.1911 29.786ZM90.6831 24.278C90.6831 24.89 90.4671 25.412 90.0351 25.844C89.6031 26.276 89.0811 26.492 88.4691 26.492C87.8571 26.492 87.3351 26.276 86.9031 25.844C86.4711 25.412 86.2551 24.89 86.2551 24.278C86.2551 23.666 86.4711 23.144 86.9031 22.712C87.3351 22.28 87.8571 22.064 88.4691 22.064C89.0811 22.064 89.6031 22.28 90.0351 22.712C90.4671 23.144 90.6831 23.666 90.6831 24.278ZM85.1751 24.278C85.1751 24.89 84.9591 25.412 84.5271 25.844C84.0951 26.276 83.5731 26.492 82.9611 26.492C82.3491 26.492 81.8271 26.276 81.3951 25.844C80.9631 25.412 80.7471 24.89 80.7471 24.278C80.7471 23.666 80.9631 23.144 81.3951 22.712C81.8271 22.28 82.3491 22.064 82.9611 22.064C83.5731 22.064 84.0951 22.28 84.5271 22.712C84.9591 23.144 85.1751 23.666 85.1751 24.278ZM90.6831 29.786C90.6831 30.398 90.4671 30.92 90.0351 31.352C89.6031 31.784 89.0811 32 88.4691 32C87.8571 32 87.3351 31.784 86.9031 31.352C86.4711 30.92 86.2551 30.398 86.2551 29.786C86.2551 29.174 86.4711 28.652 86.9031 28.22C87.3351 27.788 87.8571 27.572 88.4691 27.572C89.0811 27.572 89.6031 27.788 90.0351 28.22C90.4671 28.652 90.6831 29.174 90.6831 29.786Z" fill="#60F9F9"/>
</svg>
