<svg width="16" height="16" viewBox="0 0 16 16" fill="none" xmlns="http://www.w3.org/2000/svg">
<path d="M11.7474 12.3428C10.9808 12.3427 10.3571 11.6659 10.3571 10.8341V8.32855C10.3571 7.49666 10.9808 6.81988 11.7474 6.81988H15.3702C15.3921 6.81988 15.4139 6.8206 15.4356 6.82166V4.32577C15.4356 3.6833 14.9557 3.16248 14.3636 3.16248H1.07207C0.479963 3.16244 0 3.68326 0 4.32573V14.8368C0 15.4793 0.479963 16.0002 1.07207 16.0002H14.3636C14.9557 16.0002 15.4356 15.4793 15.4356 14.8368V12.3409C15.4139 12.342 15.3921 12.3428 15.3702 12.3428H11.7474Z" fill="#5E8BFF"/>
<path d="M15.3715 7.64612H11.7488C11.4017 7.64612 11.1203 7.95147 11.1203 8.32811V10.8336C11.1203 11.2103 11.4017 11.5156 11.7488 11.5156H15.3715C15.7186 11.5156 16 11.2103 16 10.8336V8.32811C16 7.95143 15.7186 7.64612 15.3715 7.64612ZM12.9971 10.5652C12.4961 10.5652 12.09 10.1245 12.09 9.58083C12.09 9.03718 12.4961 8.59648 12.9971 8.59648C13.4981 8.59648 13.9043 9.03718 13.9043 9.58083C13.9043 10.1245 13.4981 10.5652 12.9971 10.5652Z" fill="#5E8BFF"/>
<path d="M12.4979 1.03133C12.2581 0.243584 11.4752 -0.184022 10.7492 0.0762372L5.30298 2.02871H12.8016L12.4979 1.03133Z" fill="#5E8BFF"/>
</svg>
