<svg width="210" height="29" viewBox="0 0 210 29" fill="none" xmlns="http://www.w3.org/2000/svg">
<path d="M18.624 2.552C18.624 3.096 18.432 3.56 18.048 3.944C17.664 4.328 17.2 4.52 16.656 4.52C16.112 4.52 15.648 4.328 15.264 3.944C14.88 3.56 14.688 3.096 14.688 2.552C14.688 2.008 14.88 1.544 15.264 1.16C15.648 0.775999 16.112 0.584 16.656 0.584C17.2 0.584 17.664 0.775999 18.048 1.16C18.432 1.544 18.624 2.008 18.624 2.552ZM13.728 2.552C13.728 3.096 13.536 3.56 13.152 3.944C12.768 4.328 12.304 4.52 11.76 4.52C11.216 4.52 10.752 4.328 10.368 3.944C9.984 3.56 9.792 3.096 9.792 2.552C9.792 2.008 9.984 1.544 10.368 1.16C10.752 0.775999 11.216 0.584 11.76 0.584C12.304 0.584 12.768 0.775999 13.152 1.16C13.536 1.544 13.728 2.008 13.728 2.552ZM18.624 7.448C18.624 7.992 18.432 8.456 18.048 8.84C17.664 9.224 17.2 9.416 16.656 9.416C16.112 9.416 15.648 9.224 15.264 8.84C14.88 8.456 14.688 7.992 14.688 7.448C14.688 6.904 14.88 6.44 15.264 6.056C15.648 5.672 16.112 5.48 16.656 5.48C17.2 5.48 17.664 5.672 18.048 6.056C18.432 6.44 18.624 6.904 18.624 7.448ZM8.832 2.552C8.832 3.096 8.64 3.56 8.256 3.944C7.872 4.328 7.408 4.52 6.864 4.52C6.32 4.52 5.856 4.328 5.472 3.944C5.088 3.56 4.896 3.096 4.896 2.552C4.896 2.008 5.088 1.544 5.472 1.16C5.856 0.775999 6.32 0.584 6.864 0.584C7.408 0.584 7.872 0.775999 8.256 1.16C8.64 1.544 8.832 2.008 8.832 2.552ZM13.728 7.448C13.728 7.992 13.536 8.456 13.152 8.84C12.768 9.224 12.304 9.416 11.76 9.416C11.216 9.416 10.752 9.224 10.368 8.84C9.984 8.456 9.792 7.992 9.792 7.448C9.792 6.904 9.984 6.44 10.368 6.056C10.752 5.672 11.216 5.48 11.76 5.48C12.304 5.48 12.768 5.672 13.152 6.056C13.536 6.44 13.728 6.904 13.728 7.448ZM18.624 12.344C18.624 12.888 18.432 13.352 18.048 13.736C17.664 14.12 17.2 14.312 16.656 14.312C16.112 14.312 15.648 14.12 15.264 13.736C14.88 13.352 14.688 12.888 14.688 12.344C14.688 11.8 14.88 11.336 15.264 10.952C15.648 10.568 16.112 10.376 16.656 10.376C17.2 10.376 17.664 10.568 18.048 10.952C18.432 11.336 18.624 11.8 18.624 12.344ZM8.832 7.448C8.832 7.992 8.64 8.456 8.256 8.84C7.872 9.224 7.408 9.416 6.864 9.416C6.32 9.416 5.856 9.224 5.472 8.84C5.088 8.456 4.896 7.992 4.896 7.448C4.896 6.904 5.088 6.44 5.472 6.056C5.856 5.672 6.32 5.48 6.864 5.48C7.408 5.48 7.872 5.672 8.256 6.056C8.64 6.44 8.832 6.904 8.832 7.448ZM13.728 12.344C13.728 12.888 13.536 13.352 13.152 13.736C12.768 14.12 12.304 14.312 11.76 14.312C11.216 14.312 10.752 14.12 10.368 13.736C9.984 13.352 9.792 12.888 9.792 12.344C9.792 11.8 9.984 11.336 10.368 10.952C10.752 10.568 11.216 10.376 11.76 10.376C12.304 10.376 12.768 10.568 13.152 10.952C13.536 11.336 13.728 11.8 13.728 12.344ZM18.624 17.24C18.624 17.784 18.432 18.248 18.048 18.632C17.664 19.016 17.2 19.208 16.656 19.208C16.112 19.208 15.648 19.016 15.264 18.632C14.88 18.248 14.688 17.784 14.688 17.24C14.688 16.696 14.88 16.232 15.264 15.848C15.648 15.464 16.112 15.272 16.656 15.272C17.2 15.272 17.664 15.464 18.048 15.848C18.432 16.232 18.624 16.696 18.624 17.24ZM3.936 7.448C3.936 7.992 3.744 8.456 3.36 8.84C2.976 9.224 2.512 9.416 1.968 9.416C1.424 9.416 0.96 9.224 0.576 8.84C0.192 8.456 0 7.992 0 7.448C0 6.904 0.192 6.44 0.576 6.056C0.96 5.672 1.424 5.48 1.968 5.48C2.512 5.48 2.976 5.672 3.36 6.056C3.744 6.44 3.936 6.904 3.936 7.448ZM13.728 17.24C13.728 17.784 13.536 18.248 13.152 18.632C12.768 19.016 12.304 19.208 11.76 19.208C11.216 19.208 10.752 19.016 10.368 18.632C9.984 18.248 9.792 17.784 9.792 17.24C9.792 16.696 9.984 16.232 10.368 15.848C10.752 15.464 11.216 15.272 11.76 15.272C12.304 15.272 12.768 15.464 13.152 15.848C13.536 16.232 13.728 16.696 13.728 17.24ZM18.624 22.136C18.624 22.68 18.432 23.144 18.048 23.528C17.664 23.912 17.2 24.104 16.656 24.104C16.112 24.104 15.648 23.912 15.264 23.528C14.88 23.144 14.688 22.68 14.688 22.136C14.688 21.592 14.88 21.128 15.264 20.744C15.648 20.36 16.112 20.168 16.656 20.168C17.2 20.168 17.664 20.36 18.048 20.744C18.432 21.128 18.624 21.592 18.624 22.136ZM18.624 27.032C18.624 27.576 18.432 28.04 18.048 28.424C17.664 28.808 17.2 29 16.656 29C16.112 29 15.648 28.808 15.264 28.424C14.88 28.04 14.688 27.576 14.688 27.032C14.688 26.488 14.88 26.024 15.264 25.64C15.648 25.256 16.112 25.064 16.656 25.064C17.2 25.064 17.664 25.256 18.048 25.64C18.432 26.024 18.624 26.488 18.624 27.032ZM13.728 22.136C13.728 22.68 13.536 23.144 13.152 23.528C12.768 23.912 12.304 24.104 11.76 24.104C11.216 24.104 10.752 23.912 10.368 23.528C9.984 23.144 9.792 22.68 9.792 22.136C9.792 21.592 9.984 21.128 10.368 20.744C10.752 20.36 11.216 20.168 11.76 20.168C12.304 20.168 12.768 20.36 13.152 20.744C13.536 21.128 13.728 21.592 13.728 22.136ZM13.728 27.032C13.728 27.576 13.536 28.04 13.152 28.424C12.768 28.808 12.304 29 11.76 29C11.216 29 10.752 28.808 10.368 28.424C9.984 28.04 9.792 27.576 9.792 27.032C9.792 26.488 9.984 26.024 10.368 25.64C10.752 25.256 11.216 25.064 11.76 25.064C12.304 25.064 12.768 25.256 13.152 25.64C13.536 26.024 13.728 26.488 13.728 27.032ZM65.5793 7.448C65.5793 7.992 65.3873 8.456 65.0033 8.84C64.6193 9.224 64.1553 9.416 63.6113 9.416C63.0673 9.416 62.6033 9.224 62.2193 8.84C61.8353 8.456 61.6433 7.992 61.6433 7.448C61.6433 6.904 61.8353 6.44 62.2193 6.056C62.6033 5.672 63.0673 5.48 63.6113 5.48C64.1553 5.48 64.6193 5.672 65.0033 6.056C65.3873 6.44 65.5793 6.904 65.5793 7.448ZM60.6833 2.552C60.6833 3.096 60.4913 3.56 60.1073 3.944C59.7233 4.328 59.2593 4.52 58.7153 4.52C58.1713 4.52 57.7073 4.328 57.3233 3.944C56.9393 3.56 56.7473 3.096 56.7473 2.552C56.7473 2.008 56.9393 1.544 57.3233 1.16C57.7073 0.775999 58.1713 0.584 58.7153 0.584C59.2593 0.584 59.7233 0.775999 60.1073 1.16C60.4913 1.544 60.6833 2.008 60.6833 2.552ZM65.5793 12.344C65.5793 12.888 65.3873 13.352 65.0033 13.736C64.6193 14.12 64.1553 14.312 63.6113 14.312C63.0673 14.312 62.6033 14.12 62.2193 13.736C61.8353 13.352 61.6433 12.888 61.6433 12.344C61.6433 11.8 61.8353 11.336 62.2193 10.952C62.6033 10.568 63.0673 10.376 63.6113 10.376C64.1553 10.376 64.6193 10.568 65.0033 10.952C65.3873 11.336 65.5793 11.8 65.5793 12.344ZM55.7873 2.552C55.7873 3.096 55.5953 3.56 55.2113 3.944C54.8273 4.328 54.3633 4.52 53.8193 4.52C53.2753 4.52 52.8113 4.328 52.4273 3.944C52.0433 3.56 51.8513 3.096 51.8513 2.552C51.8513 2.008 52.0433 1.544 52.4273 1.16C52.8113 0.775999 53.2753 0.584 53.8193 0.584C54.3633 0.584 54.8273 0.775999 55.2113 1.16C55.5953 1.544 55.7873 2.008 55.7873 2.552ZM60.6833 7.448C60.6833 7.992 60.4913 8.456 60.1073 8.84C59.7233 9.224 59.2593 9.416 58.7153 9.416C58.1713 9.416 57.7073 9.224 57.3233 8.84C56.9393 8.456 56.7473 7.992 56.7473 7.448C56.7473 6.904 56.9393 6.44 57.3233 6.056C57.7073 5.672 58.1713 5.48 58.7153 5.48C59.2593 5.48 59.7233 5.672 60.1073 6.056C60.4913 6.44 60.6833 6.904 60.6833 7.448ZM65.5793 17.24C65.5793 17.784 65.3873 18.248 65.0033 18.632C64.6193 19.016 64.1553 19.208 63.6113 19.208C63.0673 19.208 62.6033 19.016 62.2193 18.632C61.8353 18.248 61.6433 17.784 61.6433 17.24C61.6433 16.696 61.8353 16.232 62.2193 15.848C62.6033 15.464 63.0673 15.272 63.6113 15.272C64.1553 15.272 64.6193 15.464 65.0033 15.848C65.3873 16.232 65.5793 16.696 65.5793 17.24ZM50.8913 2.552C50.8913 3.096 50.6993 3.56 50.3153 3.944C49.9313 4.328 49.4673 4.52 48.9233 4.52C48.3793 4.52 47.9153 4.328 47.5313 3.944C47.1473 3.56 46.9553 3.096 46.9553 2.552C46.9553 2.008 47.1473 1.544 47.5313 1.16C47.9153 0.775999 48.3793 0.584 48.9233 0.584C49.4673 0.584 49.9313 0.775999 50.3153 1.16C50.6993 1.544 50.8913 2.008 50.8913 2.552ZM60.6833 12.344C60.6833 12.888 60.4913 13.352 60.1073 13.736C59.7233 14.12 59.2593 14.312 58.7153 14.312C58.1713 14.312 57.7073 14.12 57.3233 13.736C56.9393 13.352 56.7473 12.888 56.7473 12.344C56.7473 11.8 56.9393 11.336 57.3233 10.952C57.7073 10.568 58.1713 10.376 58.7153 10.376C59.2593 10.376 59.7233 10.568 60.1073 10.952C60.4913 11.336 60.6833 11.8 60.6833 12.344ZM65.5793 22.136C65.5793 22.68 65.3873 23.144 65.0033 23.528C64.6193 23.912 64.1553 24.104 63.6113 24.104C63.0673 24.104 62.6033 23.912 62.2193 23.528C61.8353 23.144 61.6433 22.68 61.6433 22.136C61.6433 21.592 61.8353 21.128 62.2193 20.744C62.6033 20.36 63.0673 20.168 63.6113 20.168C64.1553 20.168 64.6193 20.36 65.0033 20.744C65.3873 21.128 65.5793 21.592 65.5793 22.136ZM45.9953 2.552C45.9953 3.096 45.8033 3.56 45.4193 3.944C45.0353 4.328 44.5713 4.52 44.0273 4.52C43.4833 4.52 43.0193 4.328 42.6353 3.944C42.2513 3.56 42.0593 3.096 42.0593 2.552C42.0593 2.008 42.2513 1.544 42.6353 1.16C43.0193 0.775999 43.4833 0.584 44.0273 0.584C44.5713 0.584 45.0353 0.775999 45.4193 1.16C45.8033 1.544 45.9953 2.008 45.9953 2.552ZM60.6833 17.24C60.6833 17.784 60.4913 18.248 60.1073 18.632C59.7233 19.016 59.2593 19.208 58.7153 19.208C58.1713 19.208 57.7073 19.016 57.3233 18.632C56.9393 18.248 56.7473 17.784 56.7473 17.24C56.7473 16.696 56.9393 16.232 57.3233 15.848C57.7073 15.464 58.1713 15.272 58.7153 15.272C59.2593 15.272 59.7233 15.464 60.1073 15.848C60.4913 16.232 60.6833 16.696 60.6833 17.24ZM50.8913 12.344C50.8913 12.888 50.6993 13.352 50.3153 13.736C49.9313 14.12 49.4673 14.312 48.9233 14.312C48.3793 14.312 47.9153 14.12 47.5313 13.736C47.1473 13.352 46.9553 12.888 46.9553 12.344C46.9553 11.8 47.1473 11.336 47.5313 10.952C47.9153 10.568 48.3793 10.376 48.9233 10.376C49.4673 10.376 49.9313 10.568 50.3153 10.952C50.6993 11.336 50.8913 11.8 50.8913 12.344ZM60.6833 22.136C60.6833 22.68 60.4913 23.144 60.1073 23.528C59.7233 23.912 59.2593 24.104 58.7153 24.104C58.1713 24.104 57.7073 23.912 57.3233 23.528C56.9393 23.144 56.7473 22.68 56.7473 22.136C56.7473 21.592 56.9393 21.128 57.3233 20.744C57.7073 20.36 58.1713 20.168 58.7153 20.168C59.2593 20.168 59.7233 20.36 60.1073 20.744C60.4913 21.128 60.6833 21.592 60.6833 22.136ZM41.0993 2.552C41.0993 3.096 40.9073 3.56 40.5233 3.944C40.1393 4.328 39.6753 4.52 39.1313 4.52C38.5873 4.52 38.1233 4.328 37.7393 3.944C37.3553 3.56 37.1633 3.096 37.1633 2.552C37.1633 2.008 37.3553 1.544 37.7393 1.16C38.1233 0.775999 38.5873 0.584 39.1313 0.584C39.6753 0.584 40.1393 0.775999 40.5233 1.16C40.9073 1.544 41.0993 2.008 41.0993 2.552ZM45.9953 12.344C45.9953 12.888 45.8033 13.352 45.4193 13.736C45.0353 14.12 44.5713 14.312 44.0273 14.312C43.4833 14.312 43.0193 14.12 42.6353 13.736C42.2513 13.352 42.0593 12.888 42.0593 12.344C42.0593 11.8 42.2513 11.336 42.6353 10.952C43.0193 10.568 43.4833 10.376 44.0273 10.376C44.5713 10.376 45.0353 10.568 45.4193 10.952C45.8033 11.336 45.9953 11.8 45.9953 12.344ZM50.8913 17.24C50.8913 17.784 50.6993 18.248 50.3153 18.632C49.9313 19.016 49.4673 19.208 48.9233 19.208C48.3793 19.208 47.9153 19.016 47.5313 18.632C47.1473 18.248 46.9553 17.784 46.9553 17.24C46.9553 16.696 47.1473 16.232 47.5313 15.848C47.9153 15.464 48.3793 15.272 48.9233 15.272C49.4673 15.272 49.9313 15.464 50.3153 15.848C50.6993 16.232 50.8913 16.696 50.8913 17.24ZM36.2033 2.552C36.2033 3.096 36.0113 3.56 35.6273 3.944C35.2433 4.328 34.7793 4.52 34.2353 4.52C33.6913 4.52 33.2273 4.328 32.8433 3.944C32.4593 3.56 32.2673 3.096 32.2673 2.552C32.2673 2.008 32.4593 1.544 32.8433 1.16C33.2273 0.775999 33.6913 0.584 34.2353 0.584C34.7793 0.584 35.2433 0.775999 35.6273 1.16C36.0113 1.544 36.2033 2.008 36.2033 2.552ZM60.6833 27.032C60.6833 27.576 60.4913 28.04 60.1073 28.424C59.7233 28.808 59.2593 29 58.7153 29C58.1713 29 57.7073 28.808 57.3233 28.424C56.9393 28.04 56.7473 27.576 56.7473 27.032C56.7473 26.488 56.9393 26.024 57.3233 25.64C57.7073 25.256 58.1713 25.064 58.7153 25.064C59.2593 25.064 59.7233 25.256 60.1073 25.64C60.4913 26.024 60.6833 26.488 60.6833 27.032ZM36.2033 7.448C36.2033 7.992 36.0113 8.456 35.6273 8.84C35.2433 9.224 34.7793 9.416 34.2353 9.416C33.6913 9.416 33.2273 9.224 32.8433 8.84C32.4593 8.456 32.2673 7.992 32.2673 7.448C32.2673 6.904 32.4593 6.44 32.8433 6.056C33.2273 5.672 33.6913 5.48 34.2353 5.48C34.7793 5.48 35.2433 5.672 35.6273 6.056C36.0113 6.44 36.2033 6.904 36.2033 7.448ZM45.9953 17.24C45.9953 17.784 45.8033 18.248 45.4193 18.632C45.0353 19.016 44.5713 19.208 44.0273 19.208C43.4833 19.208 43.0193 19.016 42.6353 18.632C42.2513 18.248 42.0593 17.784 42.0593 17.24C42.0593 16.696 42.2513 16.232 42.6353 15.848C43.0193 15.464 43.4833 15.272 44.0273 15.272C44.5713 15.272 45.0353 15.464 45.4193 15.848C45.8033 16.232 45.9953 16.696 45.9953 17.24ZM55.7873 27.032C55.7873 27.576 55.5953 28.04 55.2113 28.424C54.8273 28.808 54.3633 29 53.8193 29C53.2753 29 52.8113 28.808 52.4273 28.424C52.0433 28.04 51.8513 27.576 51.8513 27.032C51.8513 26.488 52.0433 26.024 52.4273 25.64C52.8113 25.256 53.2753 25.064 53.8193 25.064C54.3633 25.064 54.8273 25.256 55.2113 25.64C55.5953 26.024 55.7873 26.488 55.7873 27.032ZM31.3073 7.448C31.3073 7.992 31.1153 8.456 30.7313 8.84C30.3473 9.224 29.8833 9.416 29.3393 9.416C28.7953 9.416 28.3313 9.224 27.9473 8.84C27.5633 8.456 27.3713 7.992 27.3713 7.448C27.3713 6.904 27.5633 6.44 27.9473 6.056C28.3313 5.672 28.7953 5.48 29.3393 5.48C29.8833 5.48 30.3473 5.672 30.7313 6.056C31.1153 6.44 31.3073 6.904 31.3073 7.448ZM36.2033 12.344C36.2033 12.888 36.0113 13.352 35.6273 13.736C35.2433 14.12 34.7793 14.312 34.2353 14.312C33.6913 14.312 33.2273 14.12 32.8433 13.736C32.4593 13.352 32.2673 12.888 32.2673 12.344C32.2673 11.8 32.4593 11.336 32.8433 10.952C33.2273 10.568 33.6913 10.376 34.2353 10.376C34.7793 10.376 35.2433 10.568 35.6273 10.952C36.0113 11.336 36.2033 11.8 36.2033 12.344ZM50.8913 27.032C50.8913 27.576 50.6993 28.04 50.3153 28.424C49.9313 28.808 49.4673 29 48.9233 29C48.3793 29 47.9153 28.808 47.5313 28.424C47.1473 28.04 46.9553 27.576 46.9553 27.032C46.9553 26.488 47.1473 26.024 47.5313 25.64C47.9153 25.256 48.3793 25.064 48.9233 25.064C49.4673 25.064 49.9313 25.256 50.3153 25.64C50.6993 26.024 50.8913 26.488 50.8913 27.032ZM31.3073 12.344C31.3073 12.888 31.1153 13.352 30.7313 13.736C30.3473 14.12 29.8833 14.312 29.3393 14.312C28.7953 14.312 28.3313 14.12 27.9473 13.736C27.5633 13.352 27.3713 12.888 27.3713 12.344C27.3713 11.8 27.5633 11.336 27.9473 10.952C28.3313 10.568 28.7953 10.376 29.3393 10.376C29.8833 10.376 30.3473 10.568 30.7313 10.952C31.1153 11.336 31.3073 11.8 31.3073 12.344ZM36.2033 17.24C36.2033 17.784 36.0113 18.248 35.6273 18.632C35.2433 19.016 34.7793 19.208 34.2353 19.208C33.6913 19.208 33.2273 19.016 32.8433 18.632C32.4593 18.248 32.2673 17.784 32.2673 17.24C32.2673 16.696 32.4593 16.232 32.8433 15.848C33.2273 15.464 33.6913 15.272 34.2353 15.272C34.7793 15.272 35.2433 15.464 35.6273 15.848C36.0113 16.232 36.2033 16.696 36.2033 17.24ZM45.9953 27.032C45.9953 27.576 45.8033 28.04 45.4193 28.424C45.0353 28.808 44.5713 29 44.0273 29C43.4833 29 43.0193 28.808 42.6353 28.424C42.2513 28.04 42.0593 27.576 42.0593 27.032C42.0593 26.488 42.2513 26.024 42.6353 25.64C43.0193 25.256 43.4833 25.064 44.0273 25.064C44.5713 25.064 45.0353 25.256 45.4193 25.64C45.8033 26.024 45.9953 26.488 45.9953 27.032ZM31.3073 17.24C31.3073 17.784 31.1153 18.248 30.7313 18.632C30.3473 19.016 29.8833 19.208 29.3393 19.208C28.7953 19.208 28.3313 19.016 27.9473 18.632C27.5633 18.248 27.3713 17.784 27.3713 17.24C27.3713 16.696 27.5633 16.232 27.9473 15.848C28.3313 15.464 28.7953 15.272 29.3393 15.272C29.8833 15.272 30.3473 15.464 30.7313 15.848C31.1153 16.232 31.3073 16.696 31.3073 17.24ZM36.2033 22.136C36.2033 22.68 36.0113 23.144 35.6273 23.528C35.2433 23.912 34.7793 24.104 34.2353 24.104C33.6913 24.104 33.2273 23.912 32.8433 23.528C32.4593 23.144 32.2673 22.68 32.2673 22.136C32.2673 21.592 32.4593 21.128 32.8433 20.744C33.2273 20.36 33.6913 20.168 34.2353 20.168C34.7793 20.168 35.2433 20.36 35.6273 20.744C36.0113 21.128 36.2033 21.592 36.2033 22.136ZM41.0993 27.032C41.0993 27.576 40.9073 28.04 40.5233 28.424C40.1393 28.808 39.6753 29 39.1313 29C38.5873 29 38.1233 28.808 37.7393 28.424C37.3553 28.04 37.1633 27.576 37.1633 27.032C37.1633 26.488 37.3553 26.024 37.7393 25.64C38.1233 25.256 38.5873 25.064 39.1313 25.064C39.6753 25.064 40.1393 25.256 40.5233 25.64C40.9073 26.024 41.0993 26.488 41.0993 27.032ZM31.3073 22.136C31.3073 22.68 31.1153 23.144 30.7313 23.528C30.3473 23.912 29.8833 24.104 29.3393 24.104C28.7953 24.104 28.3313 23.912 27.9473 23.528C27.5633 23.144 27.3713 22.68 27.3713 22.136C27.3713 21.592 27.5633 21.128 27.9473 20.744C28.3313 20.36 28.7953 20.168 29.3393 20.168C29.8833 20.168 30.3473 20.36 30.7313 20.744C31.1153 21.128 31.3073 21.592 31.3073 22.136ZM36.2033 27.032C36.2033 27.576 36.0113 28.04 35.6273 28.424C35.2433 28.808 34.7793 29 34.2353 29C33.6913 29 33.2273 28.808 32.8433 28.424C32.4593 28.04 32.2673 27.576 32.2673 27.032C32.2673 26.488 32.4593 26.024 32.8433 25.64C33.2273 25.256 33.6913 25.064 34.2353 25.064C34.7793 25.064 35.2433 25.256 35.6273 25.64C36.0113 26.024 36.2033 26.488 36.2033 27.032ZM112.544 7.448C112.544 7.992 112.352 8.456 111.968 8.84C111.584 9.224 111.12 9.416 110.576 9.416C110.032 9.416 109.568 9.224 109.184 8.84C108.8 8.456 108.608 7.992 108.608 7.448C108.608 6.904 108.8 6.44 109.184 6.056C109.568 5.672 110.032 5.48 110.576 5.48C111.12 5.48 111.584 5.672 111.968 6.056C112.352 6.44 112.544 6.904 112.544 7.448ZM107.648 2.552C107.648 3.096 107.456 3.56 107.072 3.944C106.688 4.328 106.224 4.52 105.68 4.52C105.136 4.52 104.672 4.328 104.288 3.944C103.904 3.56 103.712 3.096 103.712 2.552C103.712 2.008 103.904 1.544 104.288 1.16C104.672 0.775999 105.136 0.584 105.68 0.584C106.224 0.584 106.688 0.775999 107.072 1.16C107.456 1.544 107.648 2.008 107.648 2.552ZM112.544 12.344C112.544 12.888 112.352 13.352 111.968 13.736C111.584 14.12 111.12 14.312 110.576 14.312C110.032 14.312 109.568 14.12 109.184 13.736C108.8 13.352 108.608 12.888 108.608 12.344C108.608 11.8 108.8 11.336 109.184 10.952C109.568 10.568 110.032 10.376 110.576 10.376C111.12 10.376 111.584 10.568 111.968 10.952C112.352 11.336 112.544 11.8 112.544 12.344ZM102.752 2.552C102.752 3.096 102.56 3.56 102.176 3.944C101.792 4.328 101.328 4.52 100.784 4.52C100.24 4.52 99.7763 4.328 99.3923 3.944C99.0083 3.56 98.8163 3.096 98.8163 2.552C98.8163 2.008 99.0083 1.544 99.3923 1.16C99.7763 0.775999 100.24 0.584 100.784 0.584C101.328 0.584 101.792 0.775999 102.176 1.16C102.56 1.544 102.752 2.008 102.752 2.552ZM107.648 7.448C107.648 7.992 107.456 8.456 107.072 8.84C106.688 9.224 106.224 9.416 105.68 9.416C105.136 9.416 104.672 9.224 104.288 8.84C103.904 8.456 103.712 7.992 103.712 7.448C103.712 6.904 103.904 6.44 104.288 6.056C104.672 5.672 105.136 5.48 105.68 5.48C106.224 5.48 106.688 5.672 107.072 6.056C107.456 6.44 107.648 6.904 107.648 7.448ZM112.544 17.24C112.544 17.784 112.352 18.248 111.968 18.632C111.584 19.016 111.12 19.208 110.576 19.208C110.032 19.208 109.568 19.016 109.184 18.632C108.8 18.248 108.608 17.784 108.608 17.24C108.608 16.696 108.8 16.232 109.184 15.848C109.568 15.464 110.032 15.272 110.576 15.272C111.12 15.272 111.584 15.464 111.968 15.848C112.352 16.232 112.544 16.696 112.544 17.24ZM97.8563 2.552C97.8563 3.096 97.6643 3.56 97.2803 3.944C96.8963 4.328 96.4323 4.52 95.8883 4.52C95.3443 4.52 94.8803 4.328 94.4963 3.944C94.1123 3.56 93.9203 3.096 93.9203 2.552C93.9203 2.008 94.1123 1.544 94.4963 1.16C94.8803 0.775999 95.3443 0.584 95.8883 0.584C96.4323 0.584 96.8963 0.775999 97.2803 1.16C97.6643 1.544 97.8563 2.008 97.8563 2.552ZM107.648 12.344C107.648 12.888 107.456 13.352 107.072 13.736C106.688 14.12 106.224 14.312 105.68 14.312C105.136 14.312 104.672 14.12 104.288 13.736C103.904 13.352 103.712 12.888 103.712 12.344C103.712 11.8 103.904 11.336 104.288 10.952C104.672 10.568 105.136 10.376 105.68 10.376C106.224 10.376 106.688 10.568 107.072 10.952C107.456 11.336 107.648 11.8 107.648 12.344ZM112.544 22.136C112.544 22.68 112.352 23.144 111.968 23.528C111.584 23.912 111.12 24.104 110.576 24.104C110.032 24.104 109.568 23.912 109.184 23.528C108.8 23.144 108.608 22.68 108.608 22.136C108.608 21.592 108.8 21.128 109.184 20.744C109.568 20.36 110.032 20.168 110.576 20.168C111.12 20.168 111.584 20.36 111.968 20.744C112.352 21.128 112.544 21.592 112.544 22.136ZM92.9603 2.552C92.9603 3.096 92.7683 3.56 92.3843 3.944C92.0003 4.328 91.5363 4.52 90.9923 4.52C90.4483 4.52 89.9843 4.328 89.6003 3.944C89.2163 3.56 89.0243 3.096 89.0243 2.552C89.0243 2.008 89.2163 1.544 89.6003 1.16C89.9843 0.775999 90.4483 0.584 90.9923 0.584C91.5363 0.584 92.0003 0.775999 92.3843 1.16C92.7683 1.544 92.9603 2.008 92.9603 2.552ZM107.648 17.24C107.648 17.784 107.456 18.248 107.072 18.632C106.688 19.016 106.224 19.208 105.68 19.208C105.136 19.208 104.672 19.016 104.288 18.632C103.904 18.248 103.712 17.784 103.712 17.24C103.712 16.696 103.904 16.232 104.288 15.848C104.672 15.464 105.136 15.272 105.68 15.272C106.224 15.272 106.688 15.464 107.072 15.848C107.456 16.232 107.648 16.696 107.648 17.24ZM97.8563 12.344C97.8563 12.888 97.6643 13.352 97.2803 13.736C96.8963 14.12 96.4323 14.312 95.8883 14.312C95.3443 14.312 94.8803 14.12 94.4963 13.736C94.1123 13.352 93.9203 12.888 93.9203 12.344C93.9203 11.8 94.1123 11.336 94.4963 10.952C94.8803 10.568 95.3443 10.376 95.8883 10.376C96.4323 10.376 96.8963 10.568 97.2803 10.952C97.6643 11.336 97.8563 11.8 97.8563 12.344ZM107.648 22.136C107.648 22.68 107.456 23.144 107.072 23.528C106.688 23.912 106.224 24.104 105.68 24.104C105.136 24.104 104.672 23.912 104.288 23.528C103.904 23.144 103.712 22.68 103.712 22.136C103.712 21.592 103.904 21.128 104.288 20.744C104.672 20.36 105.136 20.168 105.68 20.168C106.224 20.168 106.688 20.36 107.072 20.744C107.456 21.128 107.648 21.592 107.648 22.136ZM88.0643 2.552C88.0643 3.096 87.8723 3.56 87.4883 3.944C87.1043 4.328 86.6403 4.52 86.0963 4.52C85.5523 4.52 85.0883 4.328 84.7043 3.944C84.3203 3.56 84.1283 3.096 84.1283 2.552C84.1283 2.008 84.3203 1.544 84.7043 1.16C85.0883 0.775999 85.5523 0.584 86.0963 0.584C86.6403 0.584 87.1043 0.775999 87.4883 1.16C87.8723 1.544 88.0643 2.008 88.0643 2.552ZM92.9603 12.344C92.9603 12.888 92.7683 13.352 92.3843 13.736C92.0003 14.12 91.5363 14.312 90.9923 14.312C90.4483 14.312 89.9843 14.12 89.6003 13.736C89.2163 13.352 89.0243 12.888 89.0243 12.344C89.0243 11.8 89.2163 11.336 89.6003 10.952C89.9843 10.568 90.4483 10.376 90.9923 10.376C91.5363 10.376 92.0003 10.568 92.3843 10.952C92.7683 11.336 92.9603 11.8 92.9603 12.344ZM97.8563 17.24C97.8563 17.784 97.6643 18.248 97.2803 18.632C96.8963 19.016 96.4323 19.208 95.8883 19.208C95.3443 19.208 94.8803 19.016 94.4963 18.632C94.1123 18.248 93.9203 17.784 93.9203 17.24C93.9203 16.696 94.1123 16.232 94.4963 15.848C94.8803 15.464 95.3443 15.272 95.8883 15.272C96.4323 15.272 96.8963 15.464 97.2803 15.848C97.6643 16.232 97.8563 16.696 97.8563 17.24ZM83.1683 2.552C83.1683 3.096 82.9763 3.56 82.5923 3.944C82.2083 4.328 81.7443 4.52 81.2003 4.52C80.6563 4.52 80.1923 4.328 79.8083 3.944C79.4243 3.56 79.2323 3.096 79.2323 2.552C79.2323 2.008 79.4243 1.544 79.8083 1.16C80.1923 0.775999 80.6563 0.584 81.2003 0.584C81.7443 0.584 82.2083 0.775999 82.5923 1.16C82.9763 1.544 83.1683 2.008 83.1683 2.552ZM107.648 27.032C107.648 27.576 107.456 28.04 107.072 28.424C106.688 28.808 106.224 29 105.68 29C105.136 29 104.672 28.808 104.288 28.424C103.904 28.04 103.712 27.576 103.712 27.032C103.712 26.488 103.904 26.024 104.288 25.64C104.672 25.256 105.136 25.064 105.68 25.064C106.224 25.064 106.688 25.256 107.072 25.64C107.456 26.024 107.648 26.488 107.648 27.032ZM83.1683 7.448C83.1683 7.992 82.9763 8.456 82.5923 8.84C82.2083 9.224 81.7443 9.416 81.2003 9.416C80.6563 9.416 80.1923 9.224 79.8083 8.84C79.4243 8.456 79.2323 7.992 79.2323 7.448C79.2323 6.904 79.4243 6.44 79.8083 6.056C80.1923 5.672 80.6563 5.48 81.2003 5.48C81.7443 5.48 82.2083 5.672 82.5923 6.056C82.9763 6.44 83.1683 6.904 83.1683 7.448ZM92.9603 17.24C92.9603 17.784 92.7683 18.248 92.3843 18.632C92.0003 19.016 91.5363 19.208 90.9923 19.208C90.4483 19.208 89.9843 19.016 89.6003 18.632C89.2163 18.248 89.0243 17.784 89.0243 17.24C89.0243 16.696 89.2163 16.232 89.6003 15.848C89.9843 15.464 90.4483 15.272 90.9923 15.272C91.5363 15.272 92.0003 15.464 92.3843 15.848C92.7683 16.232 92.9603 16.696 92.9603 17.24ZM102.752 27.032C102.752 27.576 102.56 28.04 102.176 28.424C101.792 28.808 101.328 29 100.784 29C100.24 29 99.7763 28.808 99.3923 28.424C99.0083 28.04 98.8163 27.576 98.8163 27.032C98.8163 26.488 99.0083 26.024 99.3923 25.64C99.7763 25.256 100.24 25.064 100.784 25.064C101.328 25.064 101.792 25.256 102.176 25.64C102.56 26.024 102.752 26.488 102.752 27.032ZM78.2723 7.448C78.2723 7.992 78.0803 8.456 77.6963 8.84C77.3123 9.224 76.8483 9.416 76.3043 9.416C75.7603 9.416 75.2963 9.224 74.9123 8.84C74.5283 8.456 74.3363 7.992 74.3363 7.448C74.3363 6.904 74.5283 6.44 74.9123 6.056C75.2963 5.672 75.7603 5.48 76.3043 5.48C76.8483 5.48 77.3123 5.672 77.6963 6.056C78.0803 6.44 78.2723 6.904 78.2723 7.448ZM83.1683 12.344C83.1683 12.888 82.9763 13.352 82.5923 13.736C82.2083 14.12 81.7443 14.312 81.2003 14.312C80.6563 14.312 80.1923 14.12 79.8083 13.736C79.4243 13.352 79.2323 12.888 79.2323 12.344C79.2323 11.8 79.4243 11.336 79.8083 10.952C80.1923 10.568 80.6563 10.376 81.2003 10.376C81.7443 10.376 82.2083 10.568 82.5923 10.952C82.9763 11.336 83.1683 11.8 83.1683 12.344ZM97.8563 27.032C97.8563 27.576 97.6643 28.04 97.2803 28.424C96.8963 28.808 96.4323 29 95.8883 29C95.3443 29 94.8803 28.808 94.4963 28.424C94.1123 28.04 93.9203 27.576 93.9203 27.032C93.9203 26.488 94.1123 26.024 94.4963 25.64C94.8803 25.256 95.3443 25.064 95.8883 25.064C96.4323 25.064 96.8963 25.256 97.2803 25.64C97.6643 26.024 97.8563 26.488 97.8563 27.032ZM78.2723 12.344C78.2723 12.888 78.0803 13.352 77.6963 13.736C77.3123 14.12 76.8483 14.312 76.3043 14.312C75.7603 14.312 75.2963 14.12 74.9123 13.736C74.5283 13.352 74.3363 12.888 74.3363 12.344C74.3363 11.8 74.5283 11.336 74.9123 10.952C75.2963 10.568 75.7603 10.376 76.3043 10.376C76.8483 10.376 77.3123 10.568 77.6963 10.952C78.0803 11.336 78.2723 11.8 78.2723 12.344ZM83.1683 17.24C83.1683 17.784 82.9763 18.248 82.5923 18.632C82.2083 19.016 81.7443 19.208 81.2003 19.208C80.6563 19.208 80.1923 19.016 79.8083 18.632C79.4243 18.248 79.2323 17.784 79.2323 17.24C79.2323 16.696 79.4243 16.232 79.8083 15.848C80.1923 15.464 80.6563 15.272 81.2003 15.272C81.7443 15.272 82.2083 15.464 82.5923 15.848C82.9763 16.232 83.1683 16.696 83.1683 17.24ZM92.9603 27.032C92.9603 27.576 92.7683 28.04 92.3843 28.424C92.0003 28.808 91.5363 29 90.9923 29C90.4483 29 89.9843 28.808 89.6003 28.424C89.2163 28.04 89.0243 27.576 89.0243 27.032C89.0243 26.488 89.2163 26.024 89.6003 25.64C89.9843 25.256 90.4483 25.064 90.9923 25.064C91.5363 25.064 92.0003 25.256 92.3843 25.64C92.7683 26.024 92.9603 26.488 92.9603 27.032ZM78.2723 17.24C78.2723 17.784 78.0803 18.248 77.6963 18.632C77.3123 19.016 76.8483 19.208 76.3043 19.208C75.7603 19.208 75.2963 19.016 74.9123 18.632C74.5283 18.248 74.3363 17.784 74.3363 17.24C74.3363 16.696 74.5283 16.232 74.9123 15.848C75.2963 15.464 75.7603 15.272 76.3043 15.272C76.8483 15.272 77.3123 15.464 77.6963 15.848C78.0803 16.232 78.2723 16.696 78.2723 17.24ZM83.1683 22.136C83.1683 22.68 82.9763 23.144 82.5923 23.528C82.2083 23.912 81.7443 24.104 81.2003 24.104C80.6563 24.104 80.1923 23.912 79.8083 23.528C79.4243 23.144 79.2323 22.68 79.2323 22.136C79.2323 21.592 79.4243 21.128 79.8083 20.744C80.1923 20.36 80.6563 20.168 81.2003 20.168C81.7443 20.168 82.2083 20.36 82.5923 20.744C82.9763 21.128 83.1683 21.592 83.1683 22.136ZM88.0643 27.032C88.0643 27.576 87.8723 28.04 87.4883 28.424C87.1043 28.808 86.6403 29 86.0963 29C85.5523 29 85.0883 28.808 84.7043 28.424C84.3203 28.04 84.1283 27.576 84.1283 27.032C84.1283 26.488 84.3203 26.024 84.7043 25.64C85.0883 25.256 85.5523 25.064 86.0963 25.064C86.6403 25.064 87.1043 25.256 87.4883 25.64C87.8723 26.024 88.0643 26.488 88.0643 27.032ZM78.2723 22.136C78.2723 22.68 78.0803 23.144 77.6963 23.528C77.3123 23.912 76.8483 24.104 76.3043 24.104C75.7603 24.104 75.2963 23.912 74.9123 23.528C74.5283 23.144 74.3363 22.68 74.3363 22.136C74.3363 21.592 74.5283 21.128 74.9123 20.744C75.2963 20.36 75.7603 20.168 76.3043 20.168C76.8483 20.168 77.3123 20.36 77.6963 20.744C78.0803 21.128 78.2723 21.592 78.2723 22.136ZM83.1683 27.032C83.1683 27.576 82.9763 28.04 82.5923 28.424C82.2083 28.808 81.7443 29 81.2003 29C80.6563 29 80.1923 28.808 79.8083 28.424C79.4243 28.04 79.2323 27.576 79.2323 27.032C79.2323 26.488 79.4243 26.024 79.8083 25.64C80.1923 25.256 80.6563 25.064 81.2003 25.064C81.7443 25.064 82.2083 25.256 82.5923 25.64C82.9763 26.024 83.1683 26.488 83.1683 27.032ZM130.133 27.032C130.133 27.576 129.941 28.04 129.557 28.424C129.173 28.808 128.709 29 128.165 29C127.621 29 127.157 28.808 126.773 28.424C126.389 28.04 126.197 27.576 126.197 27.032C126.197 26.488 126.389 26.024 126.773 25.64C127.157 25.256 127.621 25.064 128.165 25.064C128.709 25.064 129.173 25.256 129.557 25.64C129.941 26.024 130.133 26.488 130.133 27.032ZM125.237 27.032C125.237 27.576 125.045 28.04 124.661 28.424C124.277 28.808 123.813 29 123.269 29C122.725 29 122.261 28.808 121.877 28.424C121.493 28.04 121.301 27.576 121.301 27.032C121.301 26.488 121.493 26.024 121.877 25.64C122.261 25.256 122.725 25.064 123.269 25.064C123.813 25.064 124.277 25.256 124.661 25.64C125.045 26.024 125.237 26.488 125.237 27.032ZM172.188 7.448C172.188 7.992 171.996 8.456 171.612 8.84C171.228 9.224 170.764 9.416 170.22 9.416C169.676 9.416 169.212 9.224 168.828 8.84C168.444 8.456 168.252 7.992 168.252 7.448C168.252 6.904 168.444 6.44 168.828 6.056C169.212 5.672 169.676 5.48 170.22 5.48C170.764 5.48 171.228 5.672 171.612 6.056C171.996 6.44 172.188 6.904 172.188 7.448ZM167.292 2.552C167.292 3.096 167.1 3.56 166.716 3.944C166.332 4.328 165.868 4.52 165.324 4.52C164.78 4.52 164.316 4.328 163.932 3.944C163.548 3.56 163.356 3.096 163.356 2.552C163.356 2.008 163.548 1.544 163.932 1.16C164.316 0.775999 164.78 0.584 165.324 0.584C165.868 0.584 166.332 0.775999 166.716 1.16C167.1 1.544 167.292 2.008 167.292 2.552ZM172.188 12.344C172.188 12.888 171.996 13.352 171.612 13.736C171.228 14.12 170.764 14.312 170.22 14.312C169.676 14.312 169.212 14.12 168.828 13.736C168.444 13.352 168.252 12.888 168.252 12.344C168.252 11.8 168.444 11.336 168.828 10.952C169.212 10.568 169.676 10.376 170.22 10.376C170.764 10.376 171.228 10.568 171.612 10.952C171.996 11.336 172.188 11.8 172.188 12.344ZM162.396 2.552C162.396 3.096 162.204 3.56 161.82 3.944C161.436 4.328 160.972 4.52 160.428 4.52C159.884 4.52 159.42 4.328 159.036 3.944C158.652 3.56 158.46 3.096 158.46 2.552C158.46 2.008 158.652 1.544 159.036 1.16C159.42 0.775999 159.884 0.584 160.428 0.584C160.972 0.584 161.436 0.775999 161.82 1.16C162.204 1.544 162.396 2.008 162.396 2.552ZM167.292 7.448C167.292 7.992 167.1 8.456 166.716 8.84C166.332 9.224 165.868 9.416 165.324 9.416C164.78 9.416 164.316 9.224 163.932 8.84C163.548 8.456 163.356 7.992 163.356 7.448C163.356 6.904 163.548 6.44 163.932 6.056C164.316 5.672 164.78 5.48 165.324 5.48C165.868 5.48 166.332 5.672 166.716 6.056C167.1 6.44 167.292 6.904 167.292 7.448ZM172.188 17.24C172.188 17.784 171.996 18.248 171.612 18.632C171.228 19.016 170.764 19.208 170.22 19.208C169.676 19.208 169.212 19.016 168.828 18.632C168.444 18.248 168.252 17.784 168.252 17.24C168.252 16.696 168.444 16.232 168.828 15.848C169.212 15.464 169.676 15.272 170.22 15.272C170.764 15.272 171.228 15.464 171.612 15.848C171.996 16.232 172.188 16.696 172.188 17.24ZM157.5 2.552C157.5 3.096 157.308 3.56 156.924 3.944C156.54 4.328 156.076 4.52 155.532 4.52C154.988 4.52 154.524 4.328 154.14 3.944C153.756 3.56 153.564 3.096 153.564 2.552C153.564 2.008 153.756 1.544 154.14 1.16C154.524 0.775999 154.988 0.584 155.532 0.584C156.076 0.584 156.54 0.775999 156.924 1.16C157.308 1.544 157.5 2.008 157.5 2.552ZM167.292 12.344C167.292 12.888 167.1 13.352 166.716 13.736C166.332 14.12 165.868 14.312 165.324 14.312C164.78 14.312 164.316 14.12 163.932 13.736C163.548 13.352 163.356 12.888 163.356 12.344C163.356 11.8 163.548 11.336 163.932 10.952C164.316 10.568 164.78 10.376 165.324 10.376C165.868 10.376 166.332 10.568 166.716 10.952C167.1 11.336 167.292 11.8 167.292 12.344ZM172.188 22.136C172.188 22.68 171.996 23.144 171.612 23.528C171.228 23.912 170.764 24.104 170.22 24.104C169.676 24.104 169.212 23.912 168.828 23.528C168.444 23.144 168.252 22.68 168.252 22.136C168.252 21.592 168.444 21.128 168.828 20.744C169.212 20.36 169.676 20.168 170.22 20.168C170.764 20.168 171.228 20.36 171.612 20.744C171.996 21.128 172.188 21.592 172.188 22.136ZM152.604 2.552C152.604 3.096 152.412 3.56 152.028 3.944C151.644 4.328 151.18 4.52 150.636 4.52C150.092 4.52 149.628 4.328 149.244 3.944C148.86 3.56 148.668 3.096 148.668 2.552C148.668 2.008 148.86 1.544 149.244 1.16C149.628 0.775999 150.092 0.584 150.636 0.584C151.18 0.584 151.644 0.775999 152.028 1.16C152.412 1.544 152.604 2.008 152.604 2.552ZM167.292 17.24C167.292 17.784 167.1 18.248 166.716 18.632C166.332 19.016 165.868 19.208 165.324 19.208C164.78 19.208 164.316 19.016 163.932 18.632C163.548 18.248 163.356 17.784 163.356 17.24C163.356 16.696 163.548 16.232 163.932 15.848C164.316 15.464 164.78 15.272 165.324 15.272C165.868 15.272 166.332 15.464 166.716 15.848C167.1 16.232 167.292 16.696 167.292 17.24ZM162.396 17.24C162.396 17.784 162.204 18.248 161.82 18.632C161.436 19.016 160.972 19.208 160.428 19.208C159.884 19.208 159.42 19.016 159.036 18.632C158.652 18.248 158.46 17.784 158.46 17.24C158.46 16.696 158.652 16.232 159.036 15.848C159.42 15.464 159.884 15.272 160.428 15.272C160.972 15.272 161.436 15.464 161.82 15.848C162.204 16.232 162.396 16.696 162.396 17.24ZM167.292 22.136C167.292 22.68 167.1 23.144 166.716 23.528C166.332 23.912 165.868 24.104 165.324 24.104C164.78 24.104 164.316 23.912 163.932 23.528C163.548 23.144 163.356 22.68 163.356 22.136C163.356 21.592 163.548 21.128 163.932 20.744C164.316 20.36 164.78 20.168 165.324 20.168C165.868 20.168 166.332 20.36 166.716 20.744C167.1 21.128 167.292 21.592 167.292 22.136ZM147.708 2.552C147.708 3.096 147.516 3.56 147.132 3.944C146.748 4.328 146.284 4.52 145.74 4.52C145.196 4.52 144.732 4.328 144.348 3.944C143.964 3.56 143.772 3.096 143.772 2.552C143.772 2.008 143.964 1.544 144.348 1.16C144.732 0.775999 145.196 0.584 145.74 0.584C146.284 0.584 146.748 0.775999 147.132 1.16C147.516 1.544 147.708 2.008 147.708 2.552ZM157.5 17.24C157.5 17.784 157.308 18.248 156.924 18.632C156.54 19.016 156.076 19.208 155.532 19.208C154.988 19.208 154.524 19.016 154.14 18.632C153.756 18.248 153.564 17.784 153.564 17.24C153.564 16.696 153.756 16.232 154.14 15.848C154.524 15.464 154.988 15.272 155.532 15.272C156.076 15.272 156.54 15.464 156.924 15.848C157.308 16.232 157.5 16.696 157.5 17.24ZM147.708 7.448C147.708 7.992 147.516 8.456 147.132 8.84C146.748 9.224 146.284 9.416 145.74 9.416C145.196 9.416 144.732 9.224 144.348 8.84C143.964 8.456 143.772 7.992 143.772 7.448C143.772 6.904 143.964 6.44 144.348 6.056C144.732 5.672 145.196 5.48 145.74 5.48C146.284 5.48 146.748 5.672 147.132 6.056C147.516 6.44 147.708 6.904 147.708 7.448ZM167.292 27.032C167.292 27.576 167.1 28.04 166.716 28.424C166.332 28.808 165.868 29 165.324 29C164.78 29 164.316 28.808 163.932 28.424C163.548 28.04 163.356 27.576 163.356 27.032C163.356 26.488 163.548 26.024 163.932 25.64C164.316 25.256 164.78 25.064 165.324 25.064C165.868 25.064 166.332 25.256 166.716 25.64C167.1 26.024 167.292 26.488 167.292 27.032ZM142.812 7.448C142.812 7.992 142.62 8.456 142.236 8.84C141.852 9.224 141.388 9.416 140.844 9.416C140.3 9.416 139.836 9.224 139.452 8.84C139.068 8.456 138.876 7.992 138.876 7.448C138.876 6.904 139.068 6.44 139.452 6.056C139.836 5.672 140.3 5.48 140.844 5.48C141.388 5.48 141.852 5.672 142.236 6.056C142.62 6.44 142.812 6.904 142.812 7.448ZM152.604 17.24C152.604 17.784 152.412 18.248 152.028 18.632C151.644 19.016 151.18 19.208 150.636 19.208C150.092 19.208 149.628 19.016 149.244 18.632C148.86 18.248 148.668 17.784 148.668 17.24C148.668 16.696 148.86 16.232 149.244 15.848C149.628 15.464 150.092 15.272 150.636 15.272C151.18 15.272 151.644 15.464 152.028 15.848C152.412 16.232 152.604 16.696 152.604 17.24ZM162.396 27.032C162.396 27.576 162.204 28.04 161.82 28.424C161.436 28.808 160.972 29 160.428 29C159.884 29 159.42 28.808 159.036 28.424C158.652 28.04 158.46 27.576 158.46 27.032C158.46 26.488 158.652 26.024 159.036 25.64C159.42 25.256 159.884 25.064 160.428 25.064C160.972 25.064 161.436 25.256 161.82 25.64C162.204 26.024 162.396 26.488 162.396 27.032ZM147.708 12.344C147.708 12.888 147.516 13.352 147.132 13.736C146.748 14.12 146.284 14.312 145.74 14.312C145.196 14.312 144.732 14.12 144.348 13.736C143.964 13.352 143.772 12.888 143.772 12.344C143.772 11.8 143.964 11.336 144.348 10.952C144.732 10.568 145.196 10.376 145.74 10.376C146.284 10.376 146.748 10.568 147.132 10.952C147.516 11.336 147.708 11.8 147.708 12.344ZM142.812 12.344C142.812 12.888 142.62 13.352 142.236 13.736C141.852 14.12 141.388 14.312 140.844 14.312C140.3 14.312 139.836 14.12 139.452 13.736C139.068 13.352 138.876 12.888 138.876 12.344C138.876 11.8 139.068 11.336 139.452 10.952C139.836 10.568 140.3 10.376 140.844 10.376C141.388 10.376 141.852 10.568 142.236 10.952C142.62 11.336 142.812 11.8 142.812 12.344ZM157.5 27.032C157.5 27.576 157.308 28.04 156.924 28.424C156.54 28.808 156.076 29 155.532 29C154.988 29 154.524 28.808 154.14 28.424C153.756 28.04 153.564 27.576 153.564 27.032C153.564 26.488 153.756 26.024 154.14 25.64C154.524 25.256 154.988 25.064 155.532 25.064C156.076 25.064 156.54 25.256 156.924 25.64C157.308 26.024 157.5 26.488 157.5 27.032ZM147.708 17.24C147.708 17.784 147.516 18.248 147.132 18.632C146.748 19.016 146.284 19.208 145.74 19.208C145.196 19.208 144.732 19.016 144.348 18.632C143.964 18.248 143.772 17.784 143.772 17.24C143.772 16.696 143.964 16.232 144.348 15.848C144.732 15.464 145.196 15.272 145.74 15.272C146.284 15.272 146.748 15.464 147.132 15.848C147.516 16.232 147.708 16.696 147.708 17.24ZM152.604 27.032C152.604 27.576 152.412 28.04 152.028 28.424C151.644 28.808 151.18 29 150.636 29C150.092 29 149.628 28.808 149.244 28.424C148.86 28.04 148.668 27.576 148.668 27.032C148.668 26.488 148.86 26.024 149.244 25.64C149.628 25.256 150.092 25.064 150.636 25.064C151.18 25.064 151.644 25.256 152.028 25.64C152.412 26.024 152.604 26.488 152.604 27.032ZM147.708 27.032C147.708 27.576 147.516 28.04 147.132 28.424C146.748 28.808 146.284 29 145.74 29C145.196 29 144.732 28.808 144.348 28.424C143.964 28.04 143.772 27.576 143.772 27.032C143.772 26.488 143.964 26.024 144.348 25.64C144.732 25.256 145.196 25.064 145.74 25.064C146.284 25.064 146.748 25.256 147.132 25.64C147.516 26.024 147.708 26.488 147.708 27.032ZM204.439 7.448C204.439 7.992 204.247 8.456 203.863 8.84C203.479 9.224 203.015 9.416 202.471 9.416C201.927 9.416 201.463 9.224 201.079 8.84C200.695 8.456 200.503 7.992 200.503 7.448C200.503 6.904 200.695 6.44 201.079 6.056C201.463 5.672 201.927 5.48 202.471 5.48C203.015 5.48 203.479 5.672 203.863 6.056C204.247 6.44 204.439 6.904 204.439 7.448ZM199.543 7.448C199.543 7.992 199.351 8.456 198.967 8.84C198.583 9.224 198.119 9.416 197.575 9.416C197.031 9.416 196.567 9.224 196.183 8.84C195.799 8.456 195.607 7.992 195.607 7.448C195.607 6.904 195.799 6.44 196.183 6.056C196.567 5.672 197.031 5.48 197.575 5.48C198.119 5.48 198.583 5.672 198.967 6.056C199.351 6.44 199.543 6.904 199.543 7.448ZM199.543 12.344C199.543 12.888 199.351 13.352 198.967 13.736C198.583 14.12 198.119 14.312 197.575 14.312C197.031 14.312 196.567 14.12 196.183 13.736C195.799 13.352 195.607 12.888 195.607 12.344C195.607 11.8 195.799 11.336 196.183 10.952C196.567 10.568 197.031 10.376 197.575 10.376C198.119 10.376 198.583 10.568 198.967 10.952C199.351 11.336 199.543 11.8 199.543 12.344ZM189.751 2.552C189.751 3.096 189.559 3.56 189.175 3.944C188.791 4.328 188.327 4.52 187.783 4.52C187.239 4.52 186.775 4.328 186.391 3.944C186.007 3.56 185.815 3.096 185.815 2.552C185.815 2.008 186.007 1.544 186.391 1.16C186.775 0.775999 187.239 0.584 187.783 0.584C188.327 0.584 188.791 0.775999 189.175 1.16C189.559 1.544 189.751 2.008 189.751 2.552ZM194.647 12.344C194.647 12.888 194.455 13.352 194.071 13.736C193.687 14.12 193.223 14.312 192.679 14.312C192.135 14.312 191.671 14.12 191.287 13.736C190.903 13.352 190.711 12.888 190.711 12.344C190.711 11.8 190.903 11.336 191.287 10.952C191.671 10.568 192.135 10.376 192.679 10.376C193.223 10.376 193.687 10.568 194.071 10.952C194.455 11.336 194.647 11.8 194.647 12.344ZM199.543 17.24C199.543 17.784 199.351 18.248 198.967 18.632C198.583 19.016 198.119 19.208 197.575 19.208C197.031 19.208 196.567 19.016 196.183 18.632C195.799 18.248 195.607 17.784 195.607 17.24C195.607 16.696 195.799 16.232 196.183 15.848C196.567 15.464 197.031 15.272 197.575 15.272C198.119 15.272 198.583 15.464 198.967 15.848C199.351 16.232 199.543 16.696 199.543 17.24ZM204.439 22.136C204.439 22.68 204.247 23.144 203.863 23.528C203.479 23.912 203.015 24.104 202.471 24.104C201.927 24.104 201.463 23.912 201.079 23.528C200.695 23.144 200.503 22.68 200.503 22.136C200.503 21.592 200.695 21.128 201.079 20.744C201.463 20.36 201.927 20.168 202.471 20.168C203.015 20.168 203.479 20.36 203.863 20.744C204.247 21.128 204.439 21.592 204.439 22.136ZM184.855 2.552C184.855 3.096 184.663 3.56 184.279 3.944C183.895 4.328 183.431 4.52 182.887 4.52C182.343 4.52 181.879 4.328 181.495 3.944C181.111 3.56 180.919 3.096 180.919 2.552C180.919 2.008 181.111 1.544 181.495 1.16C181.879 0.775999 182.343 0.584 182.887 0.584C183.431 0.584 183.895 0.775999 184.279 1.16C184.663 1.544 184.855 2.008 184.855 2.552ZM189.751 7.448C189.751 7.992 189.559 8.456 189.175 8.84C188.791 9.224 188.327 9.416 187.783 9.416C187.239 9.416 186.775 9.224 186.391 8.84C186.007 8.456 185.815 7.992 185.815 7.448C185.815 6.904 186.007 6.44 186.391 6.056C186.775 5.672 187.239 5.48 187.783 5.48C188.327 5.48 188.791 5.672 189.175 6.056C189.559 6.44 189.751 6.904 189.751 7.448ZM209.335 27.032C209.335 27.576 209.143 28.04 208.759 28.424C208.375 28.808 207.911 29 207.367 29C206.823 29 206.359 28.808 205.975 28.424C205.591 28.04 205.399 27.576 205.399 27.032C205.399 26.488 205.591 26.024 205.975 25.64C206.359 25.256 206.823 25.064 207.367 25.064C207.911 25.064 208.375 25.256 208.759 25.64C209.143 26.024 209.335 26.488 209.335 27.032ZM184.855 7.448C184.855 7.992 184.663 8.456 184.279 8.84C183.895 9.224 183.431 9.416 182.887 9.416C182.343 9.416 181.879 9.224 181.495 8.84C181.111 8.456 180.919 7.992 180.919 7.448C180.919 6.904 181.111 6.44 181.495 6.056C181.879 5.672 182.343 5.48 182.887 5.48C183.431 5.48 183.895 5.672 184.279 6.056C184.663 6.44 184.855 6.904 184.855 7.448ZM194.647 17.24C194.647 17.784 194.455 18.248 194.071 18.632C193.687 19.016 193.223 19.208 192.679 19.208C192.135 19.208 191.671 19.016 191.287 18.632C190.903 18.248 190.711 17.784 190.711 17.24C190.711 16.696 190.903 16.232 191.287 15.848C191.671 15.464 192.135 15.272 192.679 15.272C193.223 15.272 193.687 15.464 194.071 15.848C194.455 16.232 194.647 16.696 194.647 17.24ZM199.543 22.136C199.543 22.68 199.351 23.144 198.967 23.528C198.583 23.912 198.119 24.104 197.575 24.104C197.031 24.104 196.567 23.912 196.183 23.528C195.799 23.144 195.607 22.68 195.607 22.136C195.607 21.592 195.799 21.128 196.183 20.744C196.567 20.36 197.031 20.168 197.575 20.168C198.119 20.168 198.583 20.36 198.967 20.744C199.351 21.128 199.543 21.592 199.543 22.136ZM204.439 27.032C204.439 27.576 204.247 28.04 203.863 28.424C203.479 28.808 203.015 29 202.471 29C201.927 29 201.463 28.808 201.079 28.424C200.695 28.04 200.503 27.576 200.503 27.032C200.503 26.488 200.695 26.024 201.079 25.64C201.463 25.256 201.927 25.064 202.471 25.064C203.015 25.064 203.479 25.256 203.863 25.64C204.247 26.024 204.439 26.488 204.439 27.032ZM189.751 12.344C189.751 12.888 189.559 13.352 189.175 13.736C188.791 14.12 188.327 14.312 187.783 14.312C187.239 14.312 186.775 14.12 186.391 13.736C186.007 13.352 185.815 12.888 185.815 12.344C185.815 11.8 186.007 11.336 186.391 10.952C186.775 10.568 187.239 10.376 187.783 10.376C188.327 10.376 188.791 10.568 189.175 10.952C189.559 11.336 189.751 11.8 189.751 12.344ZM184.855 12.344C184.855 12.888 184.663 13.352 184.279 13.736C183.895 14.12 183.431 14.312 182.887 14.312C182.343 14.312 181.879 14.12 181.495 13.736C181.111 13.352 180.919 12.888 180.919 12.344C180.919 11.8 181.111 11.336 181.495 10.952C181.879 10.568 182.343 10.376 182.887 10.376C183.431 10.376 183.895 10.568 184.279 10.952C184.663 11.336 184.855 11.8 184.855 12.344ZM189.751 17.24C189.751 17.784 189.559 18.248 189.175 18.632C188.791 19.016 188.327 19.208 187.783 19.208C187.239 19.208 186.775 19.016 186.391 18.632C186.007 18.248 185.815 17.784 185.815 17.24C185.815 16.696 186.007 16.232 186.391 15.848C186.775 15.464 187.239 15.272 187.783 15.272C188.327 15.272 188.791 15.464 189.175 15.848C189.559 16.232 189.751 16.696 189.751 17.24ZM184.855 17.24C184.855 17.784 184.663 18.248 184.279 18.632C183.895 19.016 183.431 19.208 182.887 19.208C182.343 19.208 181.879 19.016 181.495 18.632C181.111 18.248 180.919 17.784 180.919 17.24C180.919 16.696 181.111 16.232 181.495 15.848C181.879 15.464 182.343 15.272 182.887 15.272C183.431 15.272 183.895 15.464 184.279 15.848C184.663 16.232 184.855 16.696 184.855 17.24ZM189.751 22.136C189.751 22.68 189.559 23.144 189.175 23.528C188.791 23.912 188.327 24.104 187.783 24.104C187.239 24.104 186.775 23.912 186.391 23.528C186.007 23.144 185.815 22.68 185.815 22.136C185.815 21.592 186.007 21.128 186.391 20.744C186.775 20.36 187.239 20.168 187.783 20.168C188.327 20.168 188.791 20.36 189.175 20.744C189.559 21.128 189.751 21.592 189.751 22.136ZM184.855 22.136C184.855 22.68 184.663 23.144 184.279 23.528C183.895 23.912 183.431 24.104 182.887 24.104C182.343 24.104 181.879 23.912 181.495 23.528C181.111 23.144 180.919 22.68 180.919 22.136C180.919 21.592 181.111 21.128 181.495 20.744C181.879 20.36 182.343 20.168 182.887 20.168C183.431 20.168 183.895 20.36 184.279 20.744C184.663 21.128 184.855 21.592 184.855 22.136ZM189.751 27.032C189.751 27.576 189.559 28.04 189.175 28.424C188.791 28.808 188.327 29 187.783 29C187.239 29 186.775 28.808 186.391 28.424C186.007 28.04 185.815 27.576 185.815 27.032C185.815 26.488 186.007 26.024 186.391 25.64C186.775 25.256 187.239 25.064 187.783 25.064C188.327 25.064 188.791 25.256 189.175 25.64C189.559 26.024 189.751 26.488 189.751 27.032ZM184.855 27.032C184.855 27.576 184.663 28.04 184.279 28.424C183.895 28.808 183.431 29 182.887 29C182.343 29 181.879 28.808 181.495 28.424C181.111 28.04 180.919 27.576 180.919 27.032C180.919 26.488 181.111 26.024 181.495 25.64C181.879 25.256 182.343 25.064 182.887 25.064C183.431 25.064 183.895 25.256 184.279 25.64C184.663 26.024 184.855 26.488 184.855 27.032Z" fill="#60F9F9"/>
</svg>
