<svg width="62" height="29" viewBox="0 0 62 29" fill="none" xmlns="http://www.w3.org/2000/svg">
<path d="M19.124 2.552C19.124 3.096 18.932 3.56 18.548 3.944C18.164 4.328 17.7 4.52 17.156 4.52C16.612 4.52 16.148 4.328 15.764 3.944C15.38 3.56 15.188 3.096 15.188 2.552C15.188 2.008 15.38 1.544 15.764 1.16C16.148 0.775999 16.612 0.584 17.156 0.584C17.7 0.584 18.164 0.775999 18.548 1.16C18.932 1.544 19.124 2.008 19.124 2.552ZM14.228 2.552C14.228 3.096 14.036 3.56 13.652 3.944C13.268 4.328 12.804 4.52 12.26 4.52C11.716 4.52 11.252 4.328 10.868 3.944C10.484 3.56 10.292 3.096 10.292 2.552C10.292 2.008 10.484 1.544 10.868 1.16C11.252 0.775999 11.716 0.584 12.26 0.584C12.804 0.584 13.268 0.775999 13.652 1.16C14.036 1.544 14.228 2.008 14.228 2.552ZM19.124 7.448C19.124 7.992 18.932 8.456 18.548 8.84C18.164 9.224 17.7 9.416 17.156 9.416C16.612 9.416 16.148 9.224 15.764 8.84C15.38 8.456 15.188 7.992 15.188 7.448C15.188 6.904 15.38 6.44 15.764 6.056C16.148 5.672 16.612 5.48 17.156 5.48C17.7 5.48 18.164 5.672 18.548 6.056C18.932 6.44 19.124 6.904 19.124 7.448ZM9.332 2.552C9.332 3.096 9.14 3.56 8.756 3.944C8.372 4.328 7.908 4.52 7.364 4.52C6.82 4.52 6.356 4.328 5.972 3.944C5.588 3.56 5.396 3.096 5.396 2.552C5.396 2.008 5.588 1.544 5.972 1.16C6.356 0.775999 6.82 0.584 7.364 0.584C7.908 0.584 8.372 0.775999 8.756 1.16C9.14 1.544 9.332 2.008 9.332 2.552ZM14.228 7.448C14.228 7.992 14.036 8.456 13.652 8.84C13.268 9.224 12.804 9.416 12.26 9.416C11.716 9.416 11.252 9.224 10.868 8.84C10.484 8.456 10.292 7.992 10.292 7.448C10.292 6.904 10.484 6.44 10.868 6.056C11.252 5.672 11.716 5.48 12.26 5.48C12.804 5.48 13.268 5.672 13.652 6.056C14.036 6.44 14.228 6.904 14.228 7.448ZM19.124 12.344C19.124 12.888 18.932 13.352 18.548 13.736C18.164 14.12 17.7 14.312 17.156 14.312C16.612 14.312 16.148 14.12 15.764 13.736C15.38 13.352 15.188 12.888 15.188 12.344C15.188 11.8 15.38 11.336 15.764 10.952C16.148 10.568 16.612 10.376 17.156 10.376C17.7 10.376 18.164 10.568 18.548 10.952C18.932 11.336 19.124 11.8 19.124 12.344ZM9.332 7.448C9.332 7.992 9.14 8.456 8.756 8.84C8.372 9.224 7.908 9.416 7.364 9.416C6.82 9.416 6.356 9.224 5.972 8.84C5.588 8.456 5.396 7.992 5.396 7.448C5.396 6.904 5.588 6.44 5.972 6.056C6.356 5.672 6.82 5.48 7.364 5.48C7.908 5.48 8.372 5.672 8.756 6.056C9.14 6.44 9.332 6.904 9.332 7.448ZM14.228 12.344C14.228 12.888 14.036 13.352 13.652 13.736C13.268 14.12 12.804 14.312 12.26 14.312C11.716 14.312 11.252 14.12 10.868 13.736C10.484 13.352 10.292 12.888 10.292 12.344C10.292 11.8 10.484 11.336 10.868 10.952C11.252 10.568 11.716 10.376 12.26 10.376C12.804 10.376 13.268 10.568 13.652 10.952C14.036 11.336 14.228 11.8 14.228 12.344ZM19.124 17.24C19.124 17.784 18.932 18.248 18.548 18.632C18.164 19.016 17.7 19.208 17.156 19.208C16.612 19.208 16.148 19.016 15.764 18.632C15.38 18.248 15.188 17.784 15.188 17.24C15.188 16.696 15.38 16.232 15.764 15.848C16.148 15.464 16.612 15.272 17.156 15.272C17.7 15.272 18.164 15.464 18.548 15.848C18.932 16.232 19.124 16.696 19.124 17.24ZM4.436 7.448C4.436 7.992 4.244 8.456 3.86 8.84C3.476 9.224 3.012 9.416 2.468 9.416C1.924 9.416 1.46 9.224 1.076 8.84C0.692 8.456 0.5 7.992 0.5 7.448C0.5 6.904 0.692 6.44 1.076 6.056C1.46 5.672 1.924 5.48 2.468 5.48C3.012 5.48 3.476 5.672 3.86 6.056C4.244 6.44 4.436 6.904 4.436 7.448ZM14.228 17.24C14.228 17.784 14.036 18.248 13.652 18.632C13.268 19.016 12.804 19.208 12.26 19.208C11.716 19.208 11.252 19.016 10.868 18.632C10.484 18.248 10.292 17.784 10.292 17.24C10.292 16.696 10.484 16.232 10.868 15.848C11.252 15.464 11.716 15.272 12.26 15.272C12.804 15.272 13.268 15.464 13.652 15.848C14.036 16.232 14.228 16.696 14.228 17.24ZM19.124 22.136C19.124 22.68 18.932 23.144 18.548 23.528C18.164 23.912 17.7 24.104 17.156 24.104C16.612 24.104 16.148 23.912 15.764 23.528C15.38 23.144 15.188 22.68 15.188 22.136C15.188 21.592 15.38 21.128 15.764 20.744C16.148 20.36 16.612 20.168 17.156 20.168C17.7 20.168 18.164 20.36 18.548 20.744C18.932 21.128 19.124 21.592 19.124 22.136ZM19.124 27.032C19.124 27.576 18.932 28.04 18.548 28.424C18.164 28.808 17.7 29 17.156 29C16.612 29 16.148 28.808 15.764 28.424C15.38 28.04 15.188 27.576 15.188 27.032C15.188 26.488 15.38 26.024 15.764 25.64C16.148 25.256 16.612 25.064 17.156 25.064C17.7 25.064 18.164 25.256 18.548 25.64C18.932 26.024 19.124 26.488 19.124 27.032ZM14.228 22.136C14.228 22.68 14.036 23.144 13.652 23.528C13.268 23.912 12.804 24.104 12.26 24.104C11.716 24.104 11.252 23.912 10.868 23.528C10.484 23.144 10.292 22.68 10.292 22.136C10.292 21.592 10.484 21.128 10.868 20.744C11.252 20.36 11.716 20.168 12.26 20.168C12.804 20.168 13.268 20.36 13.652 20.744C14.036 21.128 14.228 21.592 14.228 22.136ZM14.228 27.032C14.228 27.576 14.036 28.04 13.652 28.424C13.268 28.808 12.804 29 12.26 29C11.716 29 11.252 28.808 10.868 28.424C10.484 28.04 10.292 27.576 10.292 27.032C10.292 26.488 10.484 26.024 10.868 25.64C11.252 25.256 11.716 25.064 12.26 25.064C12.804 25.064 13.268 25.256 13.652 25.64C14.036 26.024 14.228 26.488 14.228 27.032ZM61.1833 7.448C61.1833 7.992 60.9913 8.456 60.6073 8.84C60.2233 9.224 59.7593 9.416 59.2153 9.416C58.6713 9.416 58.2073 9.224 57.8233 8.84C57.4393 8.456 57.2473 7.992 57.2473 7.448C57.2473 6.904 57.4393 6.44 57.8233 6.056C58.2073 5.672 58.6713 5.48 59.2153 5.48C59.7593 5.48 60.2233 5.672 60.6073 6.056C60.9913 6.44 61.1833 6.904 61.1833 7.448ZM56.2873 2.552C56.2873 3.096 56.0953 3.56 55.7113 3.944C55.3273 4.328 54.8633 4.52 54.3193 4.52C53.7753 4.52 53.3113 4.328 52.9273 3.944C52.5433 3.56 52.3513 3.096 52.3513 2.552C52.3513 2.008 52.5433 1.544 52.9273 1.16C53.3113 0.775999 53.7753 0.584 54.3193 0.584C54.8633 0.584 55.3273 0.775999 55.7113 1.16C56.0953 1.544 56.2873 2.008 56.2873 2.552ZM51.3913 2.552C51.3913 3.096 51.1993 3.56 50.8153 3.944C50.4313 4.328 49.9673 4.52 49.4233 4.52C48.8793 4.52 48.4153 4.328 48.0313 3.944C47.6473 3.56 47.4553 3.096 47.4553 2.552C47.4553 2.008 47.6473 1.544 48.0313 1.16C48.4153 0.775999 48.8793 0.584 49.4233 0.584C49.9673 0.584 50.4313 0.775999 50.8153 1.16C51.1993 1.544 51.3913 2.008 51.3913 2.552ZM61.1833 12.344C61.1833 12.888 60.9913 13.352 60.6073 13.736C60.2233 14.12 59.7593 14.312 59.2153 14.312C58.6713 14.312 58.2073 14.12 57.8233 13.736C57.4393 13.352 57.2473 12.888 57.2473 12.344C57.2473 11.8 57.4393 11.336 57.8233 10.952C58.2073 10.568 58.6713 10.376 59.2153 10.376C59.7593 10.376 60.2233 10.568 60.6073 10.952C60.9913 11.336 61.1833 11.8 61.1833 12.344ZM56.2873 7.448C56.2873 7.992 56.0953 8.456 55.7113 8.84C55.3273 9.224 54.8633 9.416 54.3193 9.416C53.7753 9.416 53.3113 9.224 52.9273 8.84C52.5433 8.456 52.3513 7.992 52.3513 7.448C52.3513 6.904 52.5433 6.44 52.9273 6.056C53.3113 5.672 53.7753 5.48 54.3193 5.48C54.8633 5.48 55.3273 5.672 55.7113 6.056C56.0953 6.44 56.2873 6.904 56.2873 7.448ZM46.4953 2.552C46.4953 3.096 46.3033 3.56 45.9193 3.944C45.5353 4.328 45.0713 4.52 44.5273 4.52C43.9833 4.52 43.5193 4.328 43.1353 3.944C42.7513 3.56 42.5593 3.096 42.5593 2.552C42.5593 2.008 42.7513 1.544 43.1353 1.16C43.5193 0.775999 43.9833 0.584 44.5273 0.584C45.0713 0.584 45.5353 0.775999 45.9193 1.16C46.3033 1.544 46.4953 2.008 46.4953 2.552ZM56.2873 12.344C56.2873 12.888 56.0953 13.352 55.7113 13.736C55.3273 14.12 54.8633 14.312 54.3193 14.312C53.7753 14.312 53.3113 14.12 52.9273 13.736C52.5433 13.352 52.3513 12.888 52.3513 12.344C52.3513 11.8 52.5433 11.336 52.9273 10.952C53.3113 10.568 53.7753 10.376 54.3193 10.376C54.8633 10.376 55.3273 10.568 55.7113 10.952C56.0953 11.336 56.2873 11.8 56.2873 12.344ZM41.5993 2.552C41.5993 3.096 41.4073 3.56 41.0233 3.944C40.6393 4.328 40.1753 4.52 39.6313 4.52C39.0873 4.52 38.6233 4.328 38.2393 3.944C37.8553 3.56 37.6633 3.096 37.6633 2.552C37.6633 2.008 37.8553 1.544 38.2393 1.16C38.6233 0.775999 39.0873 0.584 39.6313 0.584C40.1753 0.584 40.6393 0.775999 41.0233 1.16C41.4073 1.544 41.5993 2.008 41.5993 2.552ZM51.3913 12.344C51.3913 12.888 51.1993 13.352 50.8153 13.736C50.4313 14.12 49.9673 14.312 49.4233 14.312C48.8793 14.312 48.4153 14.12 48.0313 13.736C47.6473 13.352 47.4553 12.888 47.4553 12.344C47.4553 11.8 47.6473 11.336 48.0313 10.952C48.4153 10.568 48.8793 10.376 49.4233 10.376C49.9673 10.376 50.4313 10.568 50.8153 10.952C51.1993 11.336 51.3913 11.8 51.3913 12.344ZM61.1833 22.136C61.1833 22.68 60.9913 23.144 60.6073 23.528C60.2233 23.912 59.7593 24.104 59.2153 24.104C58.6713 24.104 58.2073 23.912 57.8233 23.528C57.4393 23.144 57.2473 22.68 57.2473 22.136C57.2473 21.592 57.4393 21.128 57.8233 20.744C58.2073 20.36 58.6713 20.168 59.2153 20.168C59.7593 20.168 60.2233 20.36 60.6073 20.744C60.9913 21.128 61.1833 21.592 61.1833 22.136ZM46.4953 12.344C46.4953 12.888 46.3033 13.352 45.9193 13.736C45.5353 14.12 45.0713 14.312 44.5273 14.312C43.9833 14.312 43.5193 14.12 43.1353 13.736C42.7513 13.352 42.5593 12.888 42.5593 12.344C42.5593 11.8 42.7513 11.336 43.1353 10.952C43.5193 10.568 43.9833 10.376 44.5273 10.376C45.0713 10.376 45.5353 10.568 45.9193 10.952C46.3033 11.336 46.4953 11.8 46.4953 12.344ZM61.1833 27.032C61.1833 27.576 60.9913 28.04 60.6073 28.424C60.2233 28.808 59.7593 29 59.2153 29C58.6713 29 58.2073 28.808 57.8233 28.424C57.4393 28.04 57.2473 27.576 57.2473 27.032C57.2473 26.488 57.4393 26.024 57.8233 25.64C58.2073 25.256 58.6713 25.064 59.2153 25.064C59.7593 25.064 60.2233 25.256 60.6073 25.64C60.9913 26.024 61.1833 26.488 61.1833 27.032ZM36.7033 2.552C36.7033 3.096 36.5113 3.56 36.1273 3.944C35.7433 4.328 35.2793 4.52 34.7353 4.52C34.1913 4.52 33.7273 4.328 33.3433 3.944C32.9593 3.56 32.7673 3.096 32.7673 2.552C32.7673 2.008 32.9593 1.544 33.3433 1.16C33.7273 0.775999 34.1913 0.584 34.7353 0.584C35.2793 0.584 35.7433 0.775999 36.1273 1.16C36.5113 1.544 36.7033 2.008 36.7033 2.552ZM56.2873 22.136C56.2873 22.68 56.0953 23.144 55.7113 23.528C55.3273 23.912 54.8633 24.104 54.3193 24.104C53.7753 24.104 53.3113 23.912 52.9273 23.528C52.5433 23.144 52.3513 22.68 52.3513 22.136C52.3513 21.592 52.5433 21.128 52.9273 20.744C53.3113 20.36 53.7753 20.168 54.3193 20.168C54.8633 20.168 55.3273 20.36 55.7113 20.744C56.0953 21.128 56.2873 21.592 56.2873 22.136ZM41.5993 12.344C41.5993 12.888 41.4073 13.352 41.0233 13.736C40.6393 14.12 40.1753 14.312 39.6313 14.312C39.0873 14.312 38.6233 14.12 38.2393 13.736C37.8553 13.352 37.6633 12.888 37.6633 12.344C37.6633 11.8 37.8553 11.336 38.2393 10.952C38.6233 10.568 39.0873 10.376 39.6313 10.376C40.1753 10.376 40.6393 10.568 41.0233 10.952C41.4073 11.336 41.5993 11.8 41.5993 12.344ZM56.2873 27.032C56.2873 27.576 56.0953 28.04 55.7113 28.424C55.3273 28.808 54.8633 29 54.3193 29C53.7753 29 53.3113 28.808 52.9273 28.424C52.5433 28.04 52.3513 27.576 52.3513 27.032C52.3513 26.488 52.5433 26.024 52.9273 25.64C53.3113 25.256 53.7753 25.064 54.3193 25.064C54.8633 25.064 55.3273 25.256 55.7113 25.64C56.0953 26.024 56.2873 26.488 56.2873 27.032ZM51.3913 27.032C51.3913 27.576 51.1993 28.04 50.8153 28.424C50.4313 28.808 49.9673 29 49.4233 29C48.8793 29 48.4153 28.808 48.0313 28.424C47.6473 28.04 47.4553 27.576 47.4553 27.032C47.4553 26.488 47.6473 26.024 48.0313 25.64C48.4153 25.256 48.8793 25.064 49.4233 25.064C49.9673 25.064 50.4313 25.256 50.8153 25.64C51.1993 26.024 51.3913 26.488 51.3913 27.032ZM36.7033 12.344C36.7033 12.888 36.5113 13.352 36.1273 13.736C35.7433 14.12 35.2793 14.312 34.7353 14.312C34.1913 14.312 33.7273 14.12 33.3433 13.736C32.9593 13.352 32.7673 12.888 32.7673 12.344C32.7673 11.8 32.9593 11.336 33.3433 10.952C33.7273 10.568 34.1913 10.376 34.7353 10.376C35.2793 10.376 35.7433 10.568 36.1273 10.952C36.5113 11.336 36.7033 11.8 36.7033 12.344ZM46.4953 27.032C46.4953 27.576 46.3033 28.04 45.9193 28.424C45.5353 28.808 45.0713 29 44.5273 29C43.9833 29 43.5193 28.808 43.1353 28.424C42.7513 28.04 42.5593 27.576 42.5593 27.032C42.5593 26.488 42.7513 26.024 43.1353 25.64C43.5193 25.256 43.9833 25.064 44.5273 25.064C45.0713 25.064 45.5353 25.256 45.9193 25.64C46.3033 26.024 46.4953 26.488 46.4953 27.032ZM36.7033 17.24C36.7033 17.784 36.5113 18.248 36.1273 18.632C35.7433 19.016 35.2793 19.208 34.7353 19.208C34.1913 19.208 33.7273 19.016 33.3433 18.632C32.9593 18.248 32.7673 17.784 32.7673 17.24C32.7673 16.696 32.9593 16.232 33.3433 15.848C33.7273 15.464 34.1913 15.272 34.7353 15.272C35.2793 15.272 35.7433 15.464 36.1273 15.848C36.5113 16.232 36.7033 16.696 36.7033 17.24ZM31.8073 17.24C31.8073 17.784 31.6153 18.248 31.2313 18.632C30.8473 19.016 30.3833 19.208 29.8393 19.208C29.2953 19.208 28.8313 19.016 28.4473 18.632C28.0633 18.248 27.8713 17.784 27.8713 17.24C27.8713 16.696 28.0633 16.232 28.4473 15.848C28.8313 15.464 29.2953 15.272 29.8393 15.272C30.3833 15.272 30.8473 15.464 31.2313 15.848C31.6153 16.232 31.8073 16.696 31.8073 17.24ZM41.5993 27.032C41.5993 27.576 41.4073 28.04 41.0233 28.424C40.6393 28.808 40.1753 29 39.6313 29C39.0873 29 38.6233 28.808 38.2393 28.424C37.8553 28.04 37.6633 27.576 37.6633 27.032C37.6633 26.488 37.8553 26.024 38.2393 25.64C38.6233 25.256 39.0873 25.064 39.6313 25.064C40.1753 25.064 40.6393 25.256 41.0233 25.64C41.4073 26.024 41.5993 26.488 41.5993 27.032ZM36.7033 22.136C36.7033 22.68 36.5113 23.144 36.1273 23.528C35.7433 23.912 35.2793 24.104 34.7353 24.104C34.1913 24.104 33.7273 23.912 33.3433 23.528C32.9593 23.144 32.7673 22.68 32.7673 22.136C32.7673 21.592 32.9593 21.128 33.3433 20.744C33.7273 20.36 34.1913 20.168 34.7353 20.168C35.2793 20.168 35.7433 20.36 36.1273 20.744C36.5113 21.128 36.7033 21.592 36.7033 22.136ZM31.8073 22.136C31.8073 22.68 31.6153 23.144 31.2313 23.528C30.8473 23.912 30.3833 24.104 29.8393 24.104C29.2953 24.104 28.8313 23.912 28.4473 23.528C28.0633 23.144 27.8713 22.68 27.8713 22.136C27.8713 21.592 28.0633 21.128 28.4473 20.744C28.8313 20.36 29.2953 20.168 29.8393 20.168C30.3833 20.168 30.8473 20.36 31.2313 20.744C31.6153 21.128 31.8073 21.592 31.8073 22.136ZM36.7033 27.032C36.7033 27.576 36.5113 28.04 36.1273 28.424C35.7433 28.808 35.2793 29 34.7353 29C34.1913 29 33.7273 28.808 33.3433 28.424C32.9593 28.04 32.7673 27.576 32.7673 27.032C32.7673 26.488 32.9593 26.024 33.3433 25.64C33.7273 25.256 34.1913 25.064 34.7353 25.064C35.2793 25.064 35.7433 25.256 36.1273 25.64C36.5113 26.024 36.7033 26.488 36.7033 27.032ZM31.8073 27.032C31.8073 27.576 31.6153 28.04 31.2313 28.424C30.8473 28.808 30.3833 29 29.8393 29C29.2953 29 28.8313 28.808 28.4473 28.424C28.0633 28.04 27.8713 27.576 27.8713 27.032C27.8713 26.488 28.0633 26.024 28.4473 25.64C28.8313 25.256 29.2953 25.064 29.8393 25.064C30.3833 25.064 30.8473 25.256 31.2313 25.64C31.6153 26.024 31.8073 26.488 31.8073 27.032Z" fill="#60F9F9"/>
</svg>
