<svg width="163" height="29" viewBox="0 0 163 29" fill="none" xmlns="http://www.w3.org/2000/svg">
<path d="M18.624 2.552C18.624 3.096 18.432 3.56 18.048 3.944C17.664 4.328 17.2 4.52 16.656 4.52C16.112 4.52 15.648 4.328 15.264 3.944C14.88 3.56 14.688 3.096 14.688 2.552C14.688 2.008 14.88 1.544 15.264 1.16C15.648 0.775999 16.112 0.584 16.656 0.584C17.2 0.584 17.664 0.775999 18.048 1.16C18.432 1.544 18.624 2.008 18.624 2.552ZM13.728 2.552C13.728 3.096 13.536 3.56 13.152 3.944C12.768 4.328 12.304 4.52 11.76 4.52C11.216 4.52 10.752 4.328 10.368 3.944C9.984 3.56 9.792 3.096 9.792 2.552C9.792 2.008 9.984 1.544 10.368 1.16C10.752 0.775999 11.216 0.584 11.76 0.584C12.304 0.584 12.768 0.775999 13.152 1.16C13.536 1.544 13.728 2.008 13.728 2.552ZM18.624 7.448C18.624 7.992 18.432 8.456 18.048 8.84C17.664 9.224 17.2 9.416 16.656 9.416C16.112 9.416 15.648 9.224 15.264 8.84C14.88 8.456 14.688 7.992 14.688 7.448C14.688 6.904 14.88 6.44 15.264 6.056C15.648 5.672 16.112 5.48 16.656 5.48C17.2 5.48 17.664 5.672 18.048 6.056C18.432 6.44 18.624 6.904 18.624 7.448ZM8.832 2.552C8.832 3.096 8.64 3.56 8.256 3.944C7.872 4.328 7.408 4.52 6.864 4.52C6.32 4.52 5.856 4.328 5.472 3.944C5.088 3.56 4.896 3.096 4.896 2.552C4.896 2.008 5.088 1.544 5.472 1.16C5.856 0.775999 6.32 0.584 6.864 0.584C7.408 0.584 7.872 0.775999 8.256 1.16C8.64 1.544 8.832 2.008 8.832 2.552ZM13.728 7.448C13.728 7.992 13.536 8.456 13.152 8.84C12.768 9.224 12.304 9.416 11.76 9.416C11.216 9.416 10.752 9.224 10.368 8.84C9.984 8.456 9.792 7.992 9.792 7.448C9.792 6.904 9.984 6.44 10.368 6.056C10.752 5.672 11.216 5.48 11.76 5.48C12.304 5.48 12.768 5.672 13.152 6.056C13.536 6.44 13.728 6.904 13.728 7.448ZM18.624 12.344C18.624 12.888 18.432 13.352 18.048 13.736C17.664 14.12 17.2 14.312 16.656 14.312C16.112 14.312 15.648 14.12 15.264 13.736C14.88 13.352 14.688 12.888 14.688 12.344C14.688 11.8 14.88 11.336 15.264 10.952C15.648 10.568 16.112 10.376 16.656 10.376C17.2 10.376 17.664 10.568 18.048 10.952C18.432 11.336 18.624 11.8 18.624 12.344ZM8.832 7.448C8.832 7.992 8.64 8.456 8.256 8.84C7.872 9.224 7.408 9.416 6.864 9.416C6.32 9.416 5.856 9.224 5.472 8.84C5.088 8.456 4.896 7.992 4.896 7.448C4.896 6.904 5.088 6.44 5.472 6.056C5.856 5.672 6.32 5.48 6.864 5.48C7.408 5.48 7.872 5.672 8.256 6.056C8.64 6.44 8.832 6.904 8.832 7.448ZM13.728 12.344C13.728 12.888 13.536 13.352 13.152 13.736C12.768 14.12 12.304 14.312 11.76 14.312C11.216 14.312 10.752 14.12 10.368 13.736C9.984 13.352 9.792 12.888 9.792 12.344C9.792 11.8 9.984 11.336 10.368 10.952C10.752 10.568 11.216 10.376 11.76 10.376C12.304 10.376 12.768 10.568 13.152 10.952C13.536 11.336 13.728 11.8 13.728 12.344ZM18.624 17.24C18.624 17.784 18.432 18.248 18.048 18.632C17.664 19.016 17.2 19.208 16.656 19.208C16.112 19.208 15.648 19.016 15.264 18.632C14.88 18.248 14.688 17.784 14.688 17.24C14.688 16.696 14.88 16.232 15.264 15.848C15.648 15.464 16.112 15.272 16.656 15.272C17.2 15.272 17.664 15.464 18.048 15.848C18.432 16.232 18.624 16.696 18.624 17.24ZM3.936 7.448C3.936 7.992 3.744 8.456 3.36 8.84C2.976 9.224 2.512 9.416 1.968 9.416C1.424 9.416 0.96 9.224 0.576 8.84C0.192 8.456 0 7.992 0 7.448C0 6.904 0.192 6.44 0.576 6.056C0.96 5.672 1.424 5.48 1.968 5.48C2.512 5.48 2.976 5.672 3.36 6.056C3.744 6.44 3.936 6.904 3.936 7.448ZM13.728 17.24C13.728 17.784 13.536 18.248 13.152 18.632C12.768 19.016 12.304 19.208 11.76 19.208C11.216 19.208 10.752 19.016 10.368 18.632C9.984 18.248 9.792 17.784 9.792 17.24C9.792 16.696 9.984 16.232 10.368 15.848C10.752 15.464 11.216 15.272 11.76 15.272C12.304 15.272 12.768 15.464 13.152 15.848C13.536 16.232 13.728 16.696 13.728 17.24ZM18.624 22.136C18.624 22.68 18.432 23.144 18.048 23.528C17.664 23.912 17.2 24.104 16.656 24.104C16.112 24.104 15.648 23.912 15.264 23.528C14.88 23.144 14.688 22.68 14.688 22.136C14.688 21.592 14.88 21.128 15.264 20.744C15.648 20.36 16.112 20.168 16.656 20.168C17.2 20.168 17.664 20.36 18.048 20.744C18.432 21.128 18.624 21.592 18.624 22.136ZM18.624 27.032C18.624 27.576 18.432 28.04 18.048 28.424C17.664 28.808 17.2 29 16.656 29C16.112 29 15.648 28.808 15.264 28.424C14.88 28.04 14.688 27.576 14.688 27.032C14.688 26.488 14.88 26.024 15.264 25.64C15.648 25.256 16.112 25.064 16.656 25.064C17.2 25.064 17.664 25.256 18.048 25.64C18.432 26.024 18.624 26.488 18.624 27.032ZM13.728 22.136C13.728 22.68 13.536 23.144 13.152 23.528C12.768 23.912 12.304 24.104 11.76 24.104C11.216 24.104 10.752 23.912 10.368 23.528C9.984 23.144 9.792 22.68 9.792 22.136C9.792 21.592 9.984 21.128 10.368 20.744C10.752 20.36 11.216 20.168 11.76 20.168C12.304 20.168 12.768 20.36 13.152 20.744C13.536 21.128 13.728 21.592 13.728 22.136ZM13.728 27.032C13.728 27.576 13.536 28.04 13.152 28.424C12.768 28.808 12.304 29 11.76 29C11.216 29 10.752 28.808 10.368 28.424C9.984 28.04 9.792 27.576 9.792 27.032C9.792 26.488 9.984 26.024 10.368 25.64C10.752 25.256 11.216 25.064 11.76 25.064C12.304 25.064 12.768 25.256 13.152 25.64C13.536 26.024 13.728 26.488 13.728 27.032ZM65.5793 7.448C65.5793 7.992 65.3873 8.456 65.0033 8.84C64.6193 9.224 64.1553 9.416 63.6113 9.416C63.0673 9.416 62.6033 9.224 62.2193 8.84C61.8353 8.456 61.6433 7.992 61.6433 7.448C61.6433 6.904 61.8353 6.44 62.2193 6.056C62.6033 5.672 63.0673 5.48 63.6113 5.48C64.1553 5.48 64.6193 5.672 65.0033 6.056C65.3873 6.44 65.5793 6.904 65.5793 7.448ZM60.6833 2.552C60.6833 3.096 60.4913 3.56 60.1073 3.944C59.7233 4.328 59.2593 4.52 58.7153 4.52C58.1713 4.52 57.7073 4.328 57.3233 3.944C56.9393 3.56 56.7473 3.096 56.7473 2.552C56.7473 2.008 56.9393 1.544 57.3233 1.16C57.7073 0.775999 58.1713 0.584 58.7153 0.584C59.2593 0.584 59.7233 0.775999 60.1073 1.16C60.4913 1.544 60.6833 2.008 60.6833 2.552ZM65.5793 12.344C65.5793 12.888 65.3873 13.352 65.0033 13.736C64.6193 14.12 64.1553 14.312 63.6113 14.312C63.0673 14.312 62.6033 14.12 62.2193 13.736C61.8353 13.352 61.6433 12.888 61.6433 12.344C61.6433 11.8 61.8353 11.336 62.2193 10.952C62.6033 10.568 63.0673 10.376 63.6113 10.376C64.1553 10.376 64.6193 10.568 65.0033 10.952C65.3873 11.336 65.5793 11.8 65.5793 12.344ZM55.7873 2.552C55.7873 3.096 55.5953 3.56 55.2113 3.944C54.8273 4.328 54.3633 4.52 53.8193 4.52C53.2753 4.52 52.8113 4.328 52.4273 3.944C52.0433 3.56 51.8513 3.096 51.8513 2.552C51.8513 2.008 52.0433 1.544 52.4273 1.16C52.8113 0.775999 53.2753 0.584 53.8193 0.584C54.3633 0.584 54.8273 0.775999 55.2113 1.16C55.5953 1.544 55.7873 2.008 55.7873 2.552ZM60.6833 7.448C60.6833 7.992 60.4913 8.456 60.1073 8.84C59.7233 9.224 59.2593 9.416 58.7153 9.416C58.1713 9.416 57.7073 9.224 57.3233 8.84C56.9393 8.456 56.7473 7.992 56.7473 7.448C56.7473 6.904 56.9393 6.44 57.3233 6.056C57.7073 5.672 58.1713 5.48 58.7153 5.48C59.2593 5.48 59.7233 5.672 60.1073 6.056C60.4913 6.44 60.6833 6.904 60.6833 7.448ZM65.5793 17.24C65.5793 17.784 65.3873 18.248 65.0033 18.632C64.6193 19.016 64.1553 19.208 63.6113 19.208C63.0673 19.208 62.6033 19.016 62.2193 18.632C61.8353 18.248 61.6433 17.784 61.6433 17.24C61.6433 16.696 61.8353 16.232 62.2193 15.848C62.6033 15.464 63.0673 15.272 63.6113 15.272C64.1553 15.272 64.6193 15.464 65.0033 15.848C65.3873 16.232 65.5793 16.696 65.5793 17.24ZM50.8913 2.552C50.8913 3.096 50.6993 3.56 50.3153 3.944C49.9313 4.328 49.4673 4.52 48.9233 4.52C48.3793 4.52 47.9153 4.328 47.5313 3.944C47.1473 3.56 46.9553 3.096 46.9553 2.552C46.9553 2.008 47.1473 1.544 47.5313 1.16C47.9153 0.775999 48.3793 0.584 48.9233 0.584C49.4673 0.584 49.9313 0.775999 50.3153 1.16C50.6993 1.544 50.8913 2.008 50.8913 2.552ZM60.6833 12.344C60.6833 12.888 60.4913 13.352 60.1073 13.736C59.7233 14.12 59.2593 14.312 58.7153 14.312C58.1713 14.312 57.7073 14.12 57.3233 13.736C56.9393 13.352 56.7473 12.888 56.7473 12.344C56.7473 11.8 56.9393 11.336 57.3233 10.952C57.7073 10.568 58.1713 10.376 58.7153 10.376C59.2593 10.376 59.7233 10.568 60.1073 10.952C60.4913 11.336 60.6833 11.8 60.6833 12.344ZM65.5793 22.136C65.5793 22.68 65.3873 23.144 65.0033 23.528C64.6193 23.912 64.1553 24.104 63.6113 24.104C63.0673 24.104 62.6033 23.912 62.2193 23.528C61.8353 23.144 61.6433 22.68 61.6433 22.136C61.6433 21.592 61.8353 21.128 62.2193 20.744C62.6033 20.36 63.0673 20.168 63.6113 20.168C64.1553 20.168 64.6193 20.36 65.0033 20.744C65.3873 21.128 65.5793 21.592 65.5793 22.136ZM45.9953 2.552C45.9953 3.096 45.8033 3.56 45.4193 3.944C45.0353 4.328 44.5713 4.52 44.0273 4.52C43.4833 4.52 43.0193 4.328 42.6353 3.944C42.2513 3.56 42.0593 3.096 42.0593 2.552C42.0593 2.008 42.2513 1.544 42.6353 1.16C43.0193 0.775999 43.4833 0.584 44.0273 0.584C44.5713 0.584 45.0353 0.775999 45.4193 1.16C45.8033 1.544 45.9953 2.008 45.9953 2.552ZM60.6833 17.24C60.6833 17.784 60.4913 18.248 60.1073 18.632C59.7233 19.016 59.2593 19.208 58.7153 19.208C58.1713 19.208 57.7073 19.016 57.3233 18.632C56.9393 18.248 56.7473 17.784 56.7473 17.24C56.7473 16.696 56.9393 16.232 57.3233 15.848C57.7073 15.464 58.1713 15.272 58.7153 15.272C59.2593 15.272 59.7233 15.464 60.1073 15.848C60.4913 16.232 60.6833 16.696 60.6833 17.24ZM50.8913 12.344C50.8913 12.888 50.6993 13.352 50.3153 13.736C49.9313 14.12 49.4673 14.312 48.9233 14.312C48.3793 14.312 47.9153 14.12 47.5313 13.736C47.1473 13.352 46.9553 12.888 46.9553 12.344C46.9553 11.8 47.1473 11.336 47.5313 10.952C47.9153 10.568 48.3793 10.376 48.9233 10.376C49.4673 10.376 49.9313 10.568 50.3153 10.952C50.6993 11.336 50.8913 11.8 50.8913 12.344ZM60.6833 22.136C60.6833 22.68 60.4913 23.144 60.1073 23.528C59.7233 23.912 59.2593 24.104 58.7153 24.104C58.1713 24.104 57.7073 23.912 57.3233 23.528C56.9393 23.144 56.7473 22.68 56.7473 22.136C56.7473 21.592 56.9393 21.128 57.3233 20.744C57.7073 20.36 58.1713 20.168 58.7153 20.168C59.2593 20.168 59.7233 20.36 60.1073 20.744C60.4913 21.128 60.6833 21.592 60.6833 22.136ZM41.0993 2.552C41.0993 3.096 40.9073 3.56 40.5233 3.944C40.1393 4.328 39.6753 4.52 39.1313 4.52C38.5873 4.52 38.1233 4.328 37.7393 3.944C37.3553 3.56 37.1633 3.096 37.1633 2.552C37.1633 2.008 37.3553 1.544 37.7393 1.16C38.1233 0.775999 38.5873 0.584 39.1313 0.584C39.6753 0.584 40.1393 0.775999 40.5233 1.16C40.9073 1.544 41.0993 2.008 41.0993 2.552ZM45.9953 12.344C45.9953 12.888 45.8033 13.352 45.4193 13.736C45.0353 14.12 44.5713 14.312 44.0273 14.312C43.4833 14.312 43.0193 14.12 42.6353 13.736C42.2513 13.352 42.0593 12.888 42.0593 12.344C42.0593 11.8 42.2513 11.336 42.6353 10.952C43.0193 10.568 43.4833 10.376 44.0273 10.376C44.5713 10.376 45.0353 10.568 45.4193 10.952C45.8033 11.336 45.9953 11.8 45.9953 12.344ZM50.8913 17.24C50.8913 17.784 50.6993 18.248 50.3153 18.632C49.9313 19.016 49.4673 19.208 48.9233 19.208C48.3793 19.208 47.9153 19.016 47.5313 18.632C47.1473 18.248 46.9553 17.784 46.9553 17.24C46.9553 16.696 47.1473 16.232 47.5313 15.848C47.9153 15.464 48.3793 15.272 48.9233 15.272C49.4673 15.272 49.9313 15.464 50.3153 15.848C50.6993 16.232 50.8913 16.696 50.8913 17.24ZM36.2033 2.552C36.2033 3.096 36.0113 3.56 35.6273 3.944C35.2433 4.328 34.7793 4.52 34.2353 4.52C33.6913 4.52 33.2273 4.328 32.8433 3.944C32.4593 3.56 32.2673 3.096 32.2673 2.552C32.2673 2.008 32.4593 1.544 32.8433 1.16C33.2273 0.775999 33.6913 0.584 34.2353 0.584C34.7793 0.584 35.2433 0.775999 35.6273 1.16C36.0113 1.544 36.2033 2.008 36.2033 2.552ZM60.6833 27.032C60.6833 27.576 60.4913 28.04 60.1073 28.424C59.7233 28.808 59.2593 29 58.7153 29C58.1713 29 57.7073 28.808 57.3233 28.424C56.9393 28.04 56.7473 27.576 56.7473 27.032C56.7473 26.488 56.9393 26.024 57.3233 25.64C57.7073 25.256 58.1713 25.064 58.7153 25.064C59.2593 25.064 59.7233 25.256 60.1073 25.64C60.4913 26.024 60.6833 26.488 60.6833 27.032ZM36.2033 7.448C36.2033 7.992 36.0113 8.456 35.6273 8.84C35.2433 9.224 34.7793 9.416 34.2353 9.416C33.6913 9.416 33.2273 9.224 32.8433 8.84C32.4593 8.456 32.2673 7.992 32.2673 7.448C32.2673 6.904 32.4593 6.44 32.8433 6.056C33.2273 5.672 33.6913 5.48 34.2353 5.48C34.7793 5.48 35.2433 5.672 35.6273 6.056C36.0113 6.44 36.2033 6.904 36.2033 7.448ZM45.9953 17.24C45.9953 17.784 45.8033 18.248 45.4193 18.632C45.0353 19.016 44.5713 19.208 44.0273 19.208C43.4833 19.208 43.0193 19.016 42.6353 18.632C42.2513 18.248 42.0593 17.784 42.0593 17.24C42.0593 16.696 42.2513 16.232 42.6353 15.848C43.0193 15.464 43.4833 15.272 44.0273 15.272C44.5713 15.272 45.0353 15.464 45.4193 15.848C45.8033 16.232 45.9953 16.696 45.9953 17.24ZM55.7873 27.032C55.7873 27.576 55.5953 28.04 55.2113 28.424C54.8273 28.808 54.3633 29 53.8193 29C53.2753 29 52.8113 28.808 52.4273 28.424C52.0433 28.04 51.8513 27.576 51.8513 27.032C51.8513 26.488 52.0433 26.024 52.4273 25.64C52.8113 25.256 53.2753 25.064 53.8193 25.064C54.3633 25.064 54.8273 25.256 55.2113 25.64C55.5953 26.024 55.7873 26.488 55.7873 27.032ZM31.3073 7.448C31.3073 7.992 31.1153 8.456 30.7313 8.84C30.3473 9.224 29.8833 9.416 29.3393 9.416C28.7953 9.416 28.3313 9.224 27.9473 8.84C27.5633 8.456 27.3713 7.992 27.3713 7.448C27.3713 6.904 27.5633 6.44 27.9473 6.056C28.3313 5.672 28.7953 5.48 29.3393 5.48C29.8833 5.48 30.3473 5.672 30.7313 6.056C31.1153 6.44 31.3073 6.904 31.3073 7.448ZM36.2033 12.344C36.2033 12.888 36.0113 13.352 35.6273 13.736C35.2433 14.12 34.7793 14.312 34.2353 14.312C33.6913 14.312 33.2273 14.12 32.8433 13.736C32.4593 13.352 32.2673 12.888 32.2673 12.344C32.2673 11.8 32.4593 11.336 32.8433 10.952C33.2273 10.568 33.6913 10.376 34.2353 10.376C34.7793 10.376 35.2433 10.568 35.6273 10.952C36.0113 11.336 36.2033 11.8 36.2033 12.344ZM50.8913 27.032C50.8913 27.576 50.6993 28.04 50.3153 28.424C49.9313 28.808 49.4673 29 48.9233 29C48.3793 29 47.9153 28.808 47.5313 28.424C47.1473 28.04 46.9553 27.576 46.9553 27.032C46.9553 26.488 47.1473 26.024 47.5313 25.64C47.9153 25.256 48.3793 25.064 48.9233 25.064C49.4673 25.064 49.9313 25.256 50.3153 25.64C50.6993 26.024 50.8913 26.488 50.8913 27.032ZM31.3073 12.344C31.3073 12.888 31.1153 13.352 30.7313 13.736C30.3473 14.12 29.8833 14.312 29.3393 14.312C28.7953 14.312 28.3313 14.12 27.9473 13.736C27.5633 13.352 27.3713 12.888 27.3713 12.344C27.3713 11.8 27.5633 11.336 27.9473 10.952C28.3313 10.568 28.7953 10.376 29.3393 10.376C29.8833 10.376 30.3473 10.568 30.7313 10.952C31.1153 11.336 31.3073 11.8 31.3073 12.344ZM36.2033 17.24C36.2033 17.784 36.0113 18.248 35.6273 18.632C35.2433 19.016 34.7793 19.208 34.2353 19.208C33.6913 19.208 33.2273 19.016 32.8433 18.632C32.4593 18.248 32.2673 17.784 32.2673 17.24C32.2673 16.696 32.4593 16.232 32.8433 15.848C33.2273 15.464 33.6913 15.272 34.2353 15.272C34.7793 15.272 35.2433 15.464 35.6273 15.848C36.0113 16.232 36.2033 16.696 36.2033 17.24ZM45.9953 27.032C45.9953 27.576 45.8033 28.04 45.4193 28.424C45.0353 28.808 44.5713 29 44.0273 29C43.4833 29 43.0193 28.808 42.6353 28.424C42.2513 28.04 42.0593 27.576 42.0593 27.032C42.0593 26.488 42.2513 26.024 42.6353 25.64C43.0193 25.256 43.4833 25.064 44.0273 25.064C44.5713 25.064 45.0353 25.256 45.4193 25.64C45.8033 26.024 45.9953 26.488 45.9953 27.032ZM31.3073 17.24C31.3073 17.784 31.1153 18.248 30.7313 18.632C30.3473 19.016 29.8833 19.208 29.3393 19.208C28.7953 19.208 28.3313 19.016 27.9473 18.632C27.5633 18.248 27.3713 17.784 27.3713 17.24C27.3713 16.696 27.5633 16.232 27.9473 15.848C28.3313 15.464 28.7953 15.272 29.3393 15.272C29.8833 15.272 30.3473 15.464 30.7313 15.848C31.1153 16.232 31.3073 16.696 31.3073 17.24ZM36.2033 22.136C36.2033 22.68 36.0113 23.144 35.6273 23.528C35.2433 23.912 34.7793 24.104 34.2353 24.104C33.6913 24.104 33.2273 23.912 32.8433 23.528C32.4593 23.144 32.2673 22.68 32.2673 22.136C32.2673 21.592 32.4593 21.128 32.8433 20.744C33.2273 20.36 33.6913 20.168 34.2353 20.168C34.7793 20.168 35.2433 20.36 35.6273 20.744C36.0113 21.128 36.2033 21.592 36.2033 22.136ZM41.0993 27.032C41.0993 27.576 40.9073 28.04 40.5233 28.424C40.1393 28.808 39.6753 29 39.1313 29C38.5873 29 38.1233 28.808 37.7393 28.424C37.3553 28.04 37.1633 27.576 37.1633 27.032C37.1633 26.488 37.3553 26.024 37.7393 25.64C38.1233 25.256 38.5873 25.064 39.1313 25.064C39.6753 25.064 40.1393 25.256 40.5233 25.64C40.9073 26.024 41.0993 26.488 41.0993 27.032ZM31.3073 22.136C31.3073 22.68 31.1153 23.144 30.7313 23.528C30.3473 23.912 29.8833 24.104 29.3393 24.104C28.7953 24.104 28.3313 23.912 27.9473 23.528C27.5633 23.144 27.3713 22.68 27.3713 22.136C27.3713 21.592 27.5633 21.128 27.9473 20.744C28.3313 20.36 28.7953 20.168 29.3393 20.168C29.8833 20.168 30.3473 20.36 30.7313 20.744C31.1153 21.128 31.3073 21.592 31.3073 22.136ZM36.2033 27.032C36.2033 27.576 36.0113 28.04 35.6273 28.424C35.2433 28.808 34.7793 29 34.2353 29C33.6913 29 33.2273 28.808 32.8433 28.424C32.4593 28.04 32.2673 27.576 32.2673 27.032C32.2673 26.488 32.4593 26.024 32.8433 25.64C33.2273 25.256 33.6913 25.064 34.2353 25.064C34.7793 25.064 35.2433 25.256 35.6273 25.64C36.0113 26.024 36.2033 26.488 36.2033 27.032ZM83.1683 27.032C83.1683 27.576 82.9763 28.04 82.5923 28.424C82.2083 28.808 81.7443 29 81.2003 29C80.6563 29 80.1923 28.808 79.8083 28.424C79.4243 28.04 79.2323 27.576 79.2323 27.032C79.2323 26.488 79.4243 26.024 79.8083 25.64C80.1923 25.256 80.6563 25.064 81.2003 25.064C81.7443 25.064 82.2083 25.256 82.5923 25.64C82.9763 26.024 83.1683 26.488 83.1683 27.032ZM78.2723 27.032C78.2723 27.576 78.0803 28.04 77.6963 28.424C77.3123 28.808 76.8483 29 76.3043 29C75.7603 29 75.2963 28.808 74.9123 28.424C74.5283 28.04 74.3363 27.576 74.3363 27.032C74.3363 26.488 74.5283 26.024 74.9123 25.64C75.2963 25.256 75.7603 25.064 76.3043 25.064C76.8483 25.064 77.3123 25.256 77.6963 25.64C78.0803 26.024 78.2723 26.488 78.2723 27.032ZM120.327 2.552C120.327 3.096 120.135 3.56 119.751 3.944C119.367 4.328 118.903 4.52 118.359 4.52C117.815 4.52 117.351 4.328 116.967 3.944C116.583 3.56 116.391 3.096 116.391 2.552C116.391 2.008 116.583 1.544 116.967 1.16C117.351 0.775999 117.815 0.584 118.359 0.584C118.903 0.584 119.367 0.775999 119.751 1.16C120.135 1.544 120.327 2.008 120.327 2.552ZM115.431 2.552C115.431 3.096 115.239 3.56 114.855 3.944C114.471 4.328 114.007 4.52 113.463 4.52C112.919 4.52 112.455 4.328 112.071 3.944C111.687 3.56 111.495 3.096 111.495 2.552C111.495 2.008 111.687 1.544 112.071 1.16C112.455 0.775999 112.919 0.584 113.463 0.584C114.007 0.584 114.471 0.775999 114.855 1.16C115.239 1.544 115.431 2.008 115.431 2.552ZM120.327 7.448C120.327 7.992 120.135 8.456 119.751 8.84C119.367 9.224 118.903 9.416 118.359 9.416C117.815 9.416 117.351 9.224 116.967 8.84C116.583 8.456 116.391 7.992 116.391 7.448C116.391 6.904 116.583 6.44 116.967 6.056C117.351 5.672 117.815 5.48 118.359 5.48C118.903 5.48 119.367 5.672 119.751 6.056C120.135 6.44 120.327 6.904 120.327 7.448ZM115.431 7.448C115.431 7.992 115.239 8.456 114.855 8.84C114.471 9.224 114.007 9.416 113.463 9.416C112.919 9.416 112.455 9.224 112.071 8.84C111.687 8.456 111.495 7.992 111.495 7.448C111.495 6.904 111.687 6.44 112.071 6.056C112.455 5.672 112.919 5.48 113.463 5.48C114.007 5.48 114.471 5.672 114.855 6.056C115.239 6.44 115.431 6.904 115.431 7.448ZM110.535 2.552C110.535 3.096 110.343 3.56 109.959 3.944C109.575 4.328 109.111 4.52 108.567 4.52C108.023 4.52 107.559 4.328 107.175 3.944C106.791 3.56 106.599 3.096 106.599 2.552C106.599 2.008 106.791 1.544 107.175 1.16C107.559 0.775999 108.023 0.584 108.567 0.584C109.111 0.584 109.575 0.775999 109.959 1.16C110.343 1.544 110.535 2.008 110.535 2.552ZM115.431 12.344C115.431 12.888 115.239 13.352 114.855 13.736C114.471 14.12 114.007 14.312 113.463 14.312C112.919 14.312 112.455 14.12 112.071 13.736C111.687 13.352 111.495 12.888 111.495 12.344C111.495 11.8 111.687 11.336 112.071 10.952C112.455 10.568 112.919 10.376 113.463 10.376C114.007 10.376 114.471 10.568 114.855 10.952C115.239 11.336 115.431 11.8 115.431 12.344ZM105.639 2.552C105.639 3.096 105.447 3.56 105.063 3.944C104.679 4.328 104.215 4.52 103.671 4.52C103.127 4.52 102.663 4.328 102.279 3.944C101.895 3.56 101.703 3.096 101.703 2.552C101.703 2.008 101.895 1.544 102.279 1.16C102.663 0.775999 103.127 0.584 103.671 0.584C104.215 0.584 104.679 0.775999 105.063 1.16C105.447 1.544 105.639 2.008 105.639 2.552ZM110.535 12.344C110.535 12.888 110.343 13.352 109.959 13.736C109.575 14.12 109.111 14.312 108.567 14.312C108.023 14.312 107.559 14.12 107.175 13.736C106.791 13.352 106.599 12.888 106.599 12.344C106.599 11.8 106.791 11.336 107.175 10.952C107.559 10.568 108.023 10.376 108.567 10.376C109.111 10.376 109.575 10.568 109.959 10.952C110.343 11.336 110.535 11.8 110.535 12.344ZM100.743 2.552C100.743 3.096 100.551 3.56 100.167 3.944C99.7826 4.328 99.3186 4.52 98.7746 4.52C98.2306 4.52 97.7666 4.328 97.3826 3.944C96.9986 3.56 96.8066 3.096 96.8066 2.552C96.8066 2.008 96.9986 1.544 97.3826 1.16C97.7666 0.775999 98.2306 0.584 98.7746 0.584C99.3186 0.584 99.7826 0.775999 100.167 1.16C100.551 1.544 100.743 2.008 100.743 2.552ZM110.535 17.24C110.535 17.784 110.343 18.248 109.959 18.632C109.575 19.016 109.111 19.208 108.567 19.208C108.023 19.208 107.559 19.016 107.175 18.632C106.791 18.248 106.599 17.784 106.599 17.24C106.599 16.696 106.791 16.232 107.175 15.848C107.559 15.464 108.023 15.272 108.567 15.272C109.111 15.272 109.575 15.464 109.959 15.848C110.343 16.232 110.535 16.696 110.535 17.24ZM95.8466 2.552C95.8466 3.096 95.6546 3.56 95.2706 3.944C94.8866 4.328 94.4226 4.52 93.8786 4.52C93.3346 4.52 92.8706 4.328 92.4866 3.944C92.1026 3.56 91.9106 3.096 91.9106 2.552C91.9106 2.008 92.1026 1.544 92.4866 1.16C92.8706 0.775999 93.3346 0.584 93.8786 0.584C94.4226 0.584 94.8866 0.775999 95.2706 1.16C95.6546 1.544 95.8466 2.008 95.8466 2.552ZM105.639 17.24C105.639 17.784 105.447 18.248 105.063 18.632C104.679 19.016 104.215 19.208 103.671 19.208C103.127 19.208 102.663 19.016 102.279 18.632C101.895 18.248 101.703 17.784 101.703 17.24C101.703 16.696 101.895 16.232 102.279 15.848C102.663 15.464 103.127 15.272 103.671 15.272C104.215 15.272 104.679 15.464 105.063 15.848C105.447 16.232 105.639 16.696 105.639 17.24ZM110.535 22.136C110.535 22.68 110.343 23.144 109.959 23.528C109.575 23.912 109.111 24.104 108.567 24.104C108.023 24.104 107.559 23.912 107.175 23.528C106.791 23.144 106.599 22.68 106.599 22.136C106.599 21.592 106.791 21.128 107.175 20.744C107.559 20.36 108.023 20.168 108.567 20.168C109.111 20.168 109.575 20.36 109.959 20.744C110.343 21.128 110.535 21.592 110.535 22.136ZM105.639 22.136C105.639 22.68 105.447 23.144 105.063 23.528C104.679 23.912 104.215 24.104 103.671 24.104C103.127 24.104 102.663 23.912 102.279 23.528C101.895 23.144 101.703 22.68 101.703 22.136C101.703 21.592 101.895 21.128 102.279 20.744C102.663 20.36 103.127 20.168 103.671 20.168C104.215 20.168 104.679 20.36 105.063 20.744C105.447 21.128 105.639 21.592 105.639 22.136ZM110.535 27.032C110.535 27.576 110.343 28.04 109.959 28.424C109.575 28.808 109.111 29 108.567 29C108.023 29 107.559 28.808 107.175 28.424C106.791 28.04 106.599 27.576 106.599 27.032C106.599 26.488 106.791 26.024 107.175 25.64C107.559 25.256 108.023 25.064 108.567 25.064C109.111 25.064 109.575 25.256 109.959 25.64C110.343 26.024 110.535 26.488 110.535 27.032ZM105.639 27.032C105.639 27.576 105.447 28.04 105.063 28.424C104.679 28.808 104.215 29 103.671 29C103.127 29 102.663 28.808 102.279 28.424C101.895 28.04 101.703 27.576 101.703 27.032C101.703 26.488 101.895 26.024 102.279 25.64C102.663 25.256 103.127 25.064 103.671 25.064C104.215 25.064 104.679 25.256 105.063 25.64C105.447 26.024 105.639 26.488 105.639 27.032ZM162.391 2.552C162.391 3.096 162.199 3.56 161.815 3.944C161.431 4.328 160.967 4.52 160.423 4.52C159.879 4.52 159.415 4.328 159.031 3.944C158.647 3.56 158.455 3.096 158.455 2.552C158.455 2.008 158.647 1.544 159.031 1.16C159.415 0.775999 159.879 0.584 160.423 0.584C160.967 0.584 161.431 0.775999 161.815 1.16C162.199 1.544 162.391 2.008 162.391 2.552ZM157.495 2.552C157.495 3.096 157.303 3.56 156.919 3.944C156.535 4.328 156.071 4.52 155.527 4.52C154.983 4.52 154.519 4.328 154.135 3.944C153.751 3.56 153.559 3.096 153.559 2.552C153.559 2.008 153.751 1.544 154.135 1.16C154.519 0.775999 154.983 0.584 155.527 0.584C156.071 0.584 156.535 0.775999 156.919 1.16C157.303 1.544 157.495 2.008 157.495 2.552ZM152.599 2.552C152.599 3.096 152.407 3.56 152.023 3.944C151.639 4.328 151.175 4.52 150.631 4.52C150.087 4.52 149.623 4.328 149.239 3.944C148.855 3.56 148.663 3.096 148.663 2.552C148.663 2.008 148.855 1.544 149.239 1.16C149.623 0.775999 150.087 0.584 150.631 0.584C151.175 0.584 151.639 0.775999 152.023 1.16C152.407 1.544 152.599 2.008 152.599 2.552ZM162.391 12.344C162.391 12.888 162.199 13.352 161.815 13.736C161.431 14.12 160.967 14.312 160.423 14.312C159.879 14.312 159.415 14.12 159.031 13.736C158.647 13.352 158.455 12.888 158.455 12.344C158.455 11.8 158.647 11.336 159.031 10.952C159.415 10.568 159.879 10.376 160.423 10.376C160.967 10.376 161.431 10.568 161.815 10.952C162.199 11.336 162.391 11.8 162.391 12.344ZM147.703 2.552C147.703 3.096 147.511 3.56 147.127 3.944C146.743 4.328 146.279 4.52 145.735 4.52C145.191 4.52 144.727 4.328 144.343 3.944C143.959 3.56 143.767 3.096 143.767 2.552C143.767 2.008 143.959 1.544 144.343 1.16C144.727 0.775999 145.191 0.584 145.735 0.584C146.279 0.584 146.743 0.775999 147.127 1.16C147.511 1.544 147.703 2.008 147.703 2.552ZM162.391 17.24C162.391 17.784 162.199 18.248 161.815 18.632C161.431 19.016 160.967 19.208 160.423 19.208C159.879 19.208 159.415 19.016 159.031 18.632C158.647 18.248 158.455 17.784 158.455 17.24C158.455 16.696 158.647 16.232 159.031 15.848C159.415 15.464 159.879 15.272 160.423 15.272C160.967 15.272 161.431 15.464 161.815 15.848C162.199 16.232 162.391 16.696 162.391 17.24ZM157.495 12.344C157.495 12.888 157.303 13.352 156.919 13.736C156.535 14.12 156.071 14.312 155.527 14.312C154.983 14.312 154.519 14.12 154.135 13.736C153.751 13.352 153.559 12.888 153.559 12.344C153.559 11.8 153.751 11.336 154.135 10.952C154.519 10.568 154.983 10.376 155.527 10.376C156.071 10.376 156.535 10.568 156.919 10.952C157.303 11.336 157.495 11.8 157.495 12.344ZM142.807 2.552C142.807 3.096 142.615 3.56 142.231 3.944C141.847 4.328 141.383 4.52 140.839 4.52C140.295 4.52 139.831 4.328 139.447 3.944C139.063 3.56 138.871 3.096 138.871 2.552C138.871 2.008 139.063 1.544 139.447 1.16C139.831 0.775999 140.295 0.584 140.839 0.584C141.383 0.584 141.847 0.775999 142.231 1.16C142.615 1.544 142.807 2.008 142.807 2.552ZM152.599 12.344C152.599 12.888 152.407 13.352 152.023 13.736C151.639 14.12 151.175 14.312 150.631 14.312C150.087 14.312 149.623 14.12 149.239 13.736C148.855 13.352 148.663 12.888 148.663 12.344C148.663 11.8 148.855 11.336 149.239 10.952C149.623 10.568 150.087 10.376 150.631 10.376C151.175 10.376 151.639 10.568 152.023 10.952C152.407 11.336 152.599 11.8 152.599 12.344ZM157.495 17.24C157.495 17.784 157.303 18.248 156.919 18.632C156.535 19.016 156.071 19.208 155.527 19.208C154.983 19.208 154.519 19.016 154.135 18.632C153.751 18.248 153.559 17.784 153.559 17.24C153.559 16.696 153.751 16.232 154.135 15.848C154.519 15.464 154.983 15.272 155.527 15.272C156.071 15.272 156.535 15.464 156.919 15.848C157.303 16.232 157.495 16.696 157.495 17.24ZM162.391 22.136C162.391 22.68 162.199 23.144 161.815 23.528C161.431 23.912 160.967 24.104 160.423 24.104C159.879 24.104 159.415 23.912 159.031 23.528C158.647 23.144 158.455 22.68 158.455 22.136C158.455 21.592 158.647 21.128 159.031 20.744C159.415 20.36 159.879 20.168 160.423 20.168C160.967 20.168 161.431 20.36 161.815 20.744C162.199 21.128 162.391 21.592 162.391 22.136ZM147.703 12.344C147.703 12.888 147.511 13.352 147.127 13.736C146.743 14.12 146.279 14.312 145.735 14.312C145.191 14.312 144.727 14.12 144.343 13.736C143.959 13.352 143.767 12.888 143.767 12.344C143.767 11.8 143.959 11.336 144.343 10.952C144.727 10.568 145.191 10.376 145.735 10.376C146.279 10.376 146.743 10.568 147.127 10.952C147.511 11.336 147.703 11.8 147.703 12.344ZM137.911 2.552C137.911 3.096 137.719 3.56 137.335 3.944C136.951 4.328 136.487 4.52 135.943 4.52C135.399 4.52 134.935 4.328 134.551 3.944C134.167 3.56 133.975 3.096 133.975 2.552C133.975 2.008 134.167 1.544 134.551 1.16C134.935 0.775999 135.399 0.584 135.943 0.584C136.487 0.584 136.951 0.775999 137.335 1.16C137.719 1.544 137.911 2.008 137.911 2.552ZM157.495 22.136C157.495 22.68 157.303 23.144 156.919 23.528C156.535 23.912 156.071 24.104 155.527 24.104C154.983 24.104 154.519 23.912 154.135 23.528C153.751 23.144 153.559 22.68 153.559 22.136C153.559 21.592 153.751 21.128 154.135 20.744C154.519 20.36 154.983 20.168 155.527 20.168C156.071 20.168 156.535 20.36 156.919 20.744C157.303 21.128 157.495 21.592 157.495 22.136ZM133.015 2.552C133.015 3.096 132.823 3.56 132.439 3.944C132.055 4.328 131.591 4.52 131.047 4.52C130.503 4.52 130.039 4.328 129.655 3.944C129.271 3.56 129.079 3.096 129.079 2.552C129.079 2.008 129.271 1.544 129.655 1.16C130.039 0.775999 130.503 0.584 131.047 0.584C131.591 0.584 132.055 0.775999 132.439 1.16C132.823 1.544 133.015 2.008 133.015 2.552ZM142.807 12.344C142.807 12.888 142.615 13.352 142.231 13.736C141.847 14.12 141.383 14.312 140.839 14.312C140.295 14.312 139.831 14.12 139.447 13.736C139.063 13.352 138.871 12.888 138.871 12.344C138.871 11.8 139.063 11.336 139.447 10.952C139.831 10.568 140.295 10.376 140.839 10.376C141.383 10.376 141.847 10.568 142.231 10.952C142.615 11.336 142.807 11.8 142.807 12.344ZM137.911 7.448C137.911 7.992 137.719 8.456 137.335 8.84C136.951 9.224 136.487 9.416 135.943 9.416C135.399 9.416 134.935 9.224 134.551 8.84C134.167 8.456 133.975 7.992 133.975 7.448C133.975 6.904 134.167 6.44 134.551 6.056C134.935 5.672 135.399 5.48 135.943 5.48C136.487 5.48 136.951 5.672 137.335 6.056C137.719 6.44 137.911 6.904 137.911 7.448ZM157.495 27.032C157.495 27.576 157.303 28.04 156.919 28.424C156.535 28.808 156.071 29 155.527 29C154.983 29 154.519 28.808 154.135 28.424C153.751 28.04 153.559 27.576 153.559 27.032C153.559 26.488 153.751 26.024 154.135 25.64C154.519 25.256 154.983 25.064 155.527 25.064C156.071 25.064 156.535 25.256 156.919 25.64C157.303 26.024 157.495 26.488 157.495 27.032ZM133.015 7.448C133.015 7.992 132.823 8.456 132.439 8.84C132.055 9.224 131.591 9.416 131.047 9.416C130.503 9.416 130.039 9.224 129.655 8.84C129.271 8.456 129.079 7.992 129.079 7.448C129.079 6.904 129.271 6.44 129.655 6.056C130.039 5.672 130.503 5.48 131.047 5.48C131.591 5.48 132.055 5.672 132.439 6.056C132.823 6.44 133.015 6.904 133.015 7.448ZM152.599 27.032C152.599 27.576 152.407 28.04 152.023 28.424C151.639 28.808 151.175 29 150.631 29C150.087 29 149.623 28.808 149.239 28.424C148.855 28.04 148.663 27.576 148.663 27.032C148.663 26.488 148.855 26.024 149.239 25.64C149.623 25.256 150.087 25.064 150.631 25.064C151.175 25.064 151.639 25.256 152.023 25.64C152.407 26.024 152.599 26.488 152.599 27.032ZM137.911 12.344C137.911 12.888 137.719 13.352 137.335 13.736C136.951 14.12 136.487 14.312 135.943 14.312C135.399 14.312 134.935 14.12 134.551 13.736C134.167 13.352 133.975 12.888 133.975 12.344C133.975 11.8 134.167 11.336 134.551 10.952C134.935 10.568 135.399 10.376 135.943 10.376C136.487 10.376 136.951 10.568 137.335 10.952C137.719 11.336 137.911 11.8 137.911 12.344ZM133.015 12.344C133.015 12.888 132.823 13.352 132.439 13.736C132.055 14.12 131.591 14.312 131.047 14.312C130.503 14.312 130.039 14.12 129.655 13.736C129.271 13.352 129.079 12.888 129.079 12.344C129.079 11.8 129.271 11.336 129.655 10.952C130.039 10.568 130.503 10.376 131.047 10.376C131.591 10.376 132.055 10.568 132.439 10.952C132.823 11.336 133.015 11.8 133.015 12.344ZM147.703 27.032C147.703 27.576 147.511 28.04 147.127 28.424C146.743 28.808 146.279 29 145.735 29C145.191 29 144.727 28.808 144.343 28.424C143.959 28.04 143.767 27.576 143.767 27.032C143.767 26.488 143.959 26.024 144.343 25.64C144.727 25.256 145.191 25.064 145.735 25.064C146.279 25.064 146.743 25.256 147.127 25.64C147.511 26.024 147.703 26.488 147.703 27.032ZM142.807 27.032C142.807 27.576 142.615 28.04 142.231 28.424C141.847 28.808 141.383 29 140.839 29C140.295 29 139.831 28.808 139.447 28.424C139.063 28.04 138.871 27.576 138.871 27.032C138.871 26.488 139.063 26.024 139.447 25.64C139.831 25.256 140.295 25.064 140.839 25.064C141.383 25.064 141.847 25.256 142.231 25.64C142.615 26.024 142.807 26.488 142.807 27.032ZM137.911 22.136C137.911 22.68 137.719 23.144 137.335 23.528C136.951 23.912 136.487 24.104 135.943 24.104C135.399 24.104 134.935 23.912 134.551 23.528C134.167 23.144 133.975 22.68 133.975 22.136C133.975 21.592 134.167 21.128 134.551 20.744C134.935 20.36 135.399 20.168 135.943 20.168C136.487 20.168 136.951 20.36 137.335 20.744C137.719 21.128 137.911 21.592 137.911 22.136ZM133.015 22.136C133.015 22.68 132.823 23.144 132.439 23.528C132.055 23.912 131.591 24.104 131.047 24.104C130.503 24.104 130.039 23.912 129.655 23.528C129.271 23.144 129.079 22.68 129.079 22.136C129.079 21.592 129.271 21.128 129.655 20.744C130.039 20.36 130.503 20.168 131.047 20.168C131.591 20.168 132.055 20.36 132.439 20.744C132.823 21.128 133.015 21.592 133.015 22.136ZM137.911 27.032C137.911 27.576 137.719 28.04 137.335 28.424C136.951 28.808 136.487 29 135.943 29C135.399 29 134.935 28.808 134.551 28.424C134.167 28.04 133.975 27.576 133.975 27.032C133.975 26.488 134.167 26.024 134.551 25.64C134.935 25.256 135.399 25.064 135.943 25.064C136.487 25.064 136.951 25.256 137.335 25.64C137.719 26.024 137.911 26.488 137.911 27.032Z" fill="#60F9F9"/>
</svg>
