<svg width="108" height="29" viewBox="0 0 108 29" fill="none" xmlns="http://www.w3.org/2000/svg">
<path d="M18.624 2.552C18.624 3.096 18.432 3.56 18.048 3.944C17.664 4.328 17.2 4.52 16.656 4.52C16.112 4.52 15.648 4.328 15.264 3.944C14.88 3.56 14.688 3.096 14.688 2.552C14.688 2.008 14.88 1.544 15.264 1.16C15.648 0.775999 16.112 0.584 16.656 0.584C17.2 0.584 17.664 0.775999 18.048 1.16C18.432 1.544 18.624 2.008 18.624 2.552ZM13.728 2.552C13.728 3.096 13.536 3.56 13.152 3.944C12.768 4.328 12.304 4.52 11.76 4.52C11.216 4.52 10.752 4.328 10.368 3.944C9.984 3.56 9.792 3.096 9.792 2.552C9.792 2.008 9.984 1.544 10.368 1.16C10.752 0.775999 11.216 0.584 11.76 0.584C12.304 0.584 12.768 0.775999 13.152 1.16C13.536 1.544 13.728 2.008 13.728 2.552ZM18.624 7.448C18.624 7.992 18.432 8.456 18.048 8.84C17.664 9.224 17.2 9.416 16.656 9.416C16.112 9.416 15.648 9.224 15.264 8.84C14.88 8.456 14.688 7.992 14.688 7.448C14.688 6.904 14.88 6.44 15.264 6.056C15.648 5.672 16.112 5.48 16.656 5.48C17.2 5.48 17.664 5.672 18.048 6.056C18.432 6.44 18.624 6.904 18.624 7.448ZM8.832 2.552C8.832 3.096 8.64 3.56 8.256 3.944C7.872 4.328 7.408 4.52 6.864 4.52C6.32 4.52 5.856 4.328 5.472 3.944C5.088 3.56 4.896 3.096 4.896 2.552C4.896 2.008 5.088 1.544 5.472 1.16C5.856 0.775999 6.32 0.584 6.864 0.584C7.408 0.584 7.872 0.775999 8.256 1.16C8.64 1.544 8.832 2.008 8.832 2.552ZM13.728 7.448C13.728 7.992 13.536 8.456 13.152 8.84C12.768 9.224 12.304 9.416 11.76 9.416C11.216 9.416 10.752 9.224 10.368 8.84C9.984 8.456 9.792 7.992 9.792 7.448C9.792 6.904 9.984 6.44 10.368 6.056C10.752 5.672 11.216 5.48 11.76 5.48C12.304 5.48 12.768 5.672 13.152 6.056C13.536 6.44 13.728 6.904 13.728 7.448ZM18.624 12.344C18.624 12.888 18.432 13.352 18.048 13.736C17.664 14.12 17.2 14.312 16.656 14.312C16.112 14.312 15.648 14.12 15.264 13.736C14.88 13.352 14.688 12.888 14.688 12.344C14.688 11.8 14.88 11.336 15.264 10.952C15.648 10.568 16.112 10.376 16.656 10.376C17.2 10.376 17.664 10.568 18.048 10.952C18.432 11.336 18.624 11.8 18.624 12.344ZM8.832 7.448C8.832 7.992 8.64 8.456 8.256 8.84C7.872 9.224 7.408 9.416 6.864 9.416C6.32 9.416 5.856 9.224 5.472 8.84C5.088 8.456 4.896 7.992 4.896 7.448C4.896 6.904 5.088 6.44 5.472 6.056C5.856 5.672 6.32 5.48 6.864 5.48C7.408 5.48 7.872 5.672 8.256 6.056C8.64 6.44 8.832 6.904 8.832 7.448ZM13.728 12.344C13.728 12.888 13.536 13.352 13.152 13.736C12.768 14.12 12.304 14.312 11.76 14.312C11.216 14.312 10.752 14.12 10.368 13.736C9.984 13.352 9.792 12.888 9.792 12.344C9.792 11.8 9.984 11.336 10.368 10.952C10.752 10.568 11.216 10.376 11.76 10.376C12.304 10.376 12.768 10.568 13.152 10.952C13.536 11.336 13.728 11.8 13.728 12.344ZM18.624 17.24C18.624 17.784 18.432 18.248 18.048 18.632C17.664 19.016 17.2 19.208 16.656 19.208C16.112 19.208 15.648 19.016 15.264 18.632C14.88 18.248 14.688 17.784 14.688 17.24C14.688 16.696 14.88 16.232 15.264 15.848C15.648 15.464 16.112 15.272 16.656 15.272C17.2 15.272 17.664 15.464 18.048 15.848C18.432 16.232 18.624 16.696 18.624 17.24ZM3.936 7.448C3.936 7.992 3.744 8.456 3.36 8.84C2.976 9.224 2.512 9.416 1.968 9.416C1.424 9.416 0.96 9.224 0.576 8.84C0.192 8.456 0 7.992 0 7.448C0 6.904 0.192 6.44 0.576 6.056C0.96 5.672 1.424 5.48 1.968 5.48C2.512 5.48 2.976 5.672 3.36 6.056C3.744 6.44 3.936 6.904 3.936 7.448ZM13.728 17.24C13.728 17.784 13.536 18.248 13.152 18.632C12.768 19.016 12.304 19.208 11.76 19.208C11.216 19.208 10.752 19.016 10.368 18.632C9.984 18.248 9.792 17.784 9.792 17.24C9.792 16.696 9.984 16.232 10.368 15.848C10.752 15.464 11.216 15.272 11.76 15.272C12.304 15.272 12.768 15.464 13.152 15.848C13.536 16.232 13.728 16.696 13.728 17.24ZM18.624 22.136C18.624 22.68 18.432 23.144 18.048 23.528C17.664 23.912 17.2 24.104 16.656 24.104C16.112 24.104 15.648 23.912 15.264 23.528C14.88 23.144 14.688 22.68 14.688 22.136C14.688 21.592 14.88 21.128 15.264 20.744C15.648 20.36 16.112 20.168 16.656 20.168C17.2 20.168 17.664 20.36 18.048 20.744C18.432 21.128 18.624 21.592 18.624 22.136ZM18.624 27.032C18.624 27.576 18.432 28.04 18.048 28.424C17.664 28.808 17.2 29 16.656 29C16.112 29 15.648 28.808 15.264 28.424C14.88 28.04 14.688 27.576 14.688 27.032C14.688 26.488 14.88 26.024 15.264 25.64C15.648 25.256 16.112 25.064 16.656 25.064C17.2 25.064 17.664 25.256 18.048 25.64C18.432 26.024 18.624 26.488 18.624 27.032ZM13.728 22.136C13.728 22.68 13.536 23.144 13.152 23.528C12.768 23.912 12.304 24.104 11.76 24.104C11.216 24.104 10.752 23.912 10.368 23.528C9.984 23.144 9.792 22.68 9.792 22.136C9.792 21.592 9.984 21.128 10.368 20.744C10.752 20.36 11.216 20.168 11.76 20.168C12.304 20.168 12.768 20.36 13.152 20.744C13.536 21.128 13.728 21.592 13.728 22.136ZM13.728 27.032C13.728 27.576 13.536 28.04 13.152 28.424C12.768 28.808 12.304 29 11.76 29C11.216 29 10.752 28.808 10.368 28.424C9.984 28.04 9.792 27.576 9.792 27.032C9.792 26.488 9.984 26.024 10.368 25.64C10.752 25.256 11.216 25.064 11.76 25.064C12.304 25.064 12.768 25.256 13.152 25.64C13.536 26.024 13.728 26.488 13.728 27.032ZM60.6833 7.448C60.6833 7.992 60.4913 8.456 60.1073 8.84C59.7233 9.224 59.2593 9.416 58.7153 9.416C58.1713 9.416 57.7073 9.224 57.3233 8.84C56.9393 8.456 56.7473 7.992 56.7473 7.448C56.7473 6.904 56.9393 6.44 57.3233 6.056C57.7073 5.672 58.1713 5.48 58.7153 5.48C59.2593 5.48 59.7233 5.672 60.1073 6.056C60.4913 6.44 60.6833 6.904 60.6833 7.448ZM55.7873 2.552C55.7873 3.096 55.5953 3.56 55.2113 3.944C54.8273 4.328 54.3633 4.52 53.8193 4.52C53.2753 4.52 52.8113 4.328 52.4273 3.944C52.0433 3.56 51.8513 3.096 51.8513 2.552C51.8513 2.008 52.0433 1.544 52.4273 1.16C52.8113 0.775999 53.2753 0.584 53.8193 0.584C54.3633 0.584 54.8273 0.775999 55.2113 1.16C55.5953 1.544 55.7873 2.008 55.7873 2.552ZM50.8913 2.552C50.8913 3.096 50.6993 3.56 50.3153 3.944C49.9313 4.328 49.4673 4.52 48.9233 4.52C48.3793 4.52 47.9153 4.328 47.5313 3.944C47.1473 3.56 46.9553 3.096 46.9553 2.552C46.9553 2.008 47.1473 1.544 47.5313 1.16C47.9153 0.775999 48.3793 0.584 48.9233 0.584C49.4673 0.584 49.9313 0.775999 50.3153 1.16C50.6993 1.544 50.8913 2.008 50.8913 2.552ZM60.6833 12.344C60.6833 12.888 60.4913 13.352 60.1073 13.736C59.7233 14.12 59.2593 14.312 58.7153 14.312C58.1713 14.312 57.7073 14.12 57.3233 13.736C56.9393 13.352 56.7473 12.888 56.7473 12.344C56.7473 11.8 56.9393 11.336 57.3233 10.952C57.7073 10.568 58.1713 10.376 58.7153 10.376C59.2593 10.376 59.7233 10.568 60.1073 10.952C60.4913 11.336 60.6833 11.8 60.6833 12.344ZM55.7873 7.448C55.7873 7.992 55.5953 8.456 55.2113 8.84C54.8273 9.224 54.3633 9.416 53.8193 9.416C53.2753 9.416 52.8113 9.224 52.4273 8.84C52.0433 8.456 51.8513 7.992 51.8513 7.448C51.8513 6.904 52.0433 6.44 52.4273 6.056C52.8113 5.672 53.2753 5.48 53.8193 5.48C54.3633 5.48 54.8273 5.672 55.2113 6.056C55.5953 6.44 55.7873 6.904 55.7873 7.448ZM45.9953 2.552C45.9953 3.096 45.8033 3.56 45.4193 3.944C45.0353 4.328 44.5713 4.52 44.0273 4.52C43.4833 4.52 43.0193 4.328 42.6353 3.944C42.2513 3.56 42.0593 3.096 42.0593 2.552C42.0593 2.008 42.2513 1.544 42.6353 1.16C43.0193 0.775999 43.4833 0.584 44.0273 0.584C44.5713 0.584 45.0353 0.775999 45.4193 1.16C45.8033 1.544 45.9953 2.008 45.9953 2.552ZM55.7873 12.344C55.7873 12.888 55.5953 13.352 55.2113 13.736C54.8273 14.12 54.3633 14.312 53.8193 14.312C53.2753 14.312 52.8113 14.12 52.4273 13.736C52.0433 13.352 51.8513 12.888 51.8513 12.344C51.8513 11.8 52.0433 11.336 52.4273 10.952C52.8113 10.568 53.2753 10.376 53.8193 10.376C54.3633 10.376 54.8273 10.568 55.2113 10.952C55.5953 11.336 55.7873 11.8 55.7873 12.344ZM41.0993 2.552C41.0993 3.096 40.9073 3.56 40.5233 3.944C40.1393 4.328 39.6753 4.52 39.1313 4.52C38.5873 4.52 38.1233 4.328 37.7393 3.944C37.3553 3.56 37.1633 3.096 37.1633 2.552C37.1633 2.008 37.3553 1.544 37.7393 1.16C38.1233 0.775999 38.5873 0.584 39.1313 0.584C39.6753 0.584 40.1393 0.775999 40.5233 1.16C40.9073 1.544 41.0993 2.008 41.0993 2.552ZM50.8913 12.344C50.8913 12.888 50.6993 13.352 50.3153 13.736C49.9313 14.12 49.4673 14.312 48.9233 14.312C48.3793 14.312 47.9153 14.12 47.5313 13.736C47.1473 13.352 46.9553 12.888 46.9553 12.344C46.9553 11.8 47.1473 11.336 47.5313 10.952C47.9153 10.568 48.3793 10.376 48.9233 10.376C49.4673 10.376 49.9313 10.568 50.3153 10.952C50.6993 11.336 50.8913 11.8 50.8913 12.344ZM60.6833 22.136C60.6833 22.68 60.4913 23.144 60.1073 23.528C59.7233 23.912 59.2593 24.104 58.7153 24.104C58.1713 24.104 57.7073 23.912 57.3233 23.528C56.9393 23.144 56.7473 22.68 56.7473 22.136C56.7473 21.592 56.9393 21.128 57.3233 20.744C57.7073 20.36 58.1713 20.168 58.7153 20.168C59.2593 20.168 59.7233 20.36 60.1073 20.744C60.4913 21.128 60.6833 21.592 60.6833 22.136ZM45.9953 12.344C45.9953 12.888 45.8033 13.352 45.4193 13.736C45.0353 14.12 44.5713 14.312 44.0273 14.312C43.4833 14.312 43.0193 14.12 42.6353 13.736C42.2513 13.352 42.0593 12.888 42.0593 12.344C42.0593 11.8 42.2513 11.336 42.6353 10.952C43.0193 10.568 43.4833 10.376 44.0273 10.376C44.5713 10.376 45.0353 10.568 45.4193 10.952C45.8033 11.336 45.9953 11.8 45.9953 12.344ZM60.6833 27.032C60.6833 27.576 60.4913 28.04 60.1073 28.424C59.7233 28.808 59.2593 29 58.7153 29C58.1713 29 57.7073 28.808 57.3233 28.424C56.9393 28.04 56.7473 27.576 56.7473 27.032C56.7473 26.488 56.9393 26.024 57.3233 25.64C57.7073 25.256 58.1713 25.064 58.7153 25.064C59.2593 25.064 59.7233 25.256 60.1073 25.64C60.4913 26.024 60.6833 26.488 60.6833 27.032ZM36.2033 2.552C36.2033 3.096 36.0113 3.56 35.6273 3.944C35.2433 4.328 34.7793 4.52 34.2353 4.52C33.6913 4.52 33.2273 4.328 32.8433 3.944C32.4593 3.56 32.2673 3.096 32.2673 2.552C32.2673 2.008 32.4593 1.544 32.8433 1.16C33.2273 0.775999 33.6913 0.584 34.2353 0.584C34.7793 0.584 35.2433 0.775999 35.6273 1.16C36.0113 1.544 36.2033 2.008 36.2033 2.552ZM55.7873 22.136C55.7873 22.68 55.5953 23.144 55.2113 23.528C54.8273 23.912 54.3633 24.104 53.8193 24.104C53.2753 24.104 52.8113 23.912 52.4273 23.528C52.0433 23.144 51.8513 22.68 51.8513 22.136C51.8513 21.592 52.0433 21.128 52.4273 20.744C52.8113 20.36 53.2753 20.168 53.8193 20.168C54.3633 20.168 54.8273 20.36 55.2113 20.744C55.5953 21.128 55.7873 21.592 55.7873 22.136ZM41.0993 12.344C41.0993 12.888 40.9073 13.352 40.5233 13.736C40.1393 14.12 39.6753 14.312 39.1313 14.312C38.5873 14.312 38.1233 14.12 37.7393 13.736C37.3553 13.352 37.1633 12.888 37.1633 12.344C37.1633 11.8 37.3553 11.336 37.7393 10.952C38.1233 10.568 38.5873 10.376 39.1313 10.376C39.6753 10.376 40.1393 10.568 40.5233 10.952C40.9073 11.336 41.0993 11.8 41.0993 12.344ZM55.7873 27.032C55.7873 27.576 55.5953 28.04 55.2113 28.424C54.8273 28.808 54.3633 29 53.8193 29C53.2753 29 52.8113 28.808 52.4273 28.424C52.0433 28.04 51.8513 27.576 51.8513 27.032C51.8513 26.488 52.0433 26.024 52.4273 25.64C52.8113 25.256 53.2753 25.064 53.8193 25.064C54.3633 25.064 54.8273 25.256 55.2113 25.64C55.5953 26.024 55.7873 26.488 55.7873 27.032ZM50.8913 27.032C50.8913 27.576 50.6993 28.04 50.3153 28.424C49.9313 28.808 49.4673 29 48.9233 29C48.3793 29 47.9153 28.808 47.5313 28.424C47.1473 28.04 46.9553 27.576 46.9553 27.032C46.9553 26.488 47.1473 26.024 47.5313 25.64C47.9153 25.256 48.3793 25.064 48.9233 25.064C49.4673 25.064 49.9313 25.256 50.3153 25.64C50.6993 26.024 50.8913 26.488 50.8913 27.032ZM36.2033 12.344C36.2033 12.888 36.0113 13.352 35.6273 13.736C35.2433 14.12 34.7793 14.312 34.2353 14.312C33.6913 14.312 33.2273 14.12 32.8433 13.736C32.4593 13.352 32.2673 12.888 32.2673 12.344C32.2673 11.8 32.4593 11.336 32.8433 10.952C33.2273 10.568 33.6913 10.376 34.2353 10.376C34.7793 10.376 35.2433 10.568 35.6273 10.952C36.0113 11.336 36.2033 11.8 36.2033 12.344ZM45.9953 27.032C45.9953 27.576 45.8033 28.04 45.4193 28.424C45.0353 28.808 44.5713 29 44.0273 29C43.4833 29 43.0193 28.808 42.6353 28.424C42.2513 28.04 42.0593 27.576 42.0593 27.032C42.0593 26.488 42.2513 26.024 42.6353 25.64C43.0193 25.256 43.4833 25.064 44.0273 25.064C44.5713 25.064 45.0353 25.256 45.4193 25.64C45.8033 26.024 45.9953 26.488 45.9953 27.032ZM36.2033 17.24C36.2033 17.784 36.0113 18.248 35.6273 18.632C35.2433 19.016 34.7793 19.208 34.2353 19.208C33.6913 19.208 33.2273 19.016 32.8433 18.632C32.4593 18.248 32.2673 17.784 32.2673 17.24C32.2673 16.696 32.4593 16.232 32.8433 15.848C33.2273 15.464 33.6913 15.272 34.2353 15.272C34.7793 15.272 35.2433 15.464 35.6273 15.848C36.0113 16.232 36.2033 16.696 36.2033 17.24ZM31.3073 17.24C31.3073 17.784 31.1153 18.248 30.7313 18.632C30.3473 19.016 29.8833 19.208 29.3393 19.208C28.7953 19.208 28.3313 19.016 27.9473 18.632C27.5633 18.248 27.3713 17.784 27.3713 17.24C27.3713 16.696 27.5633 16.232 27.9473 15.848C28.3313 15.464 28.7953 15.272 29.3393 15.272C29.8833 15.272 30.3473 15.464 30.7313 15.848C31.1153 16.232 31.3073 16.696 31.3073 17.24ZM41.0993 27.032C41.0993 27.576 40.9073 28.04 40.5233 28.424C40.1393 28.808 39.6753 29 39.1313 29C38.5873 29 38.1233 28.808 37.7393 28.424C37.3553 28.04 37.1633 27.576 37.1633 27.032C37.1633 26.488 37.3553 26.024 37.7393 25.64C38.1233 25.256 38.5873 25.064 39.1313 25.064C39.6753 25.064 40.1393 25.256 40.5233 25.64C40.9073 26.024 41.0993 26.488 41.0993 27.032ZM36.2033 22.136C36.2033 22.68 36.0113 23.144 35.6273 23.528C35.2433 23.912 34.7793 24.104 34.2353 24.104C33.6913 24.104 33.2273 23.912 32.8433 23.528C32.4593 23.144 32.2673 22.68 32.2673 22.136C32.2673 21.592 32.4593 21.128 32.8433 20.744C33.2273 20.36 33.6913 20.168 34.2353 20.168C34.7793 20.168 35.2433 20.36 35.6273 20.744C36.0113 21.128 36.2033 21.592 36.2033 22.136ZM31.3073 22.136C31.3073 22.68 31.1153 23.144 30.7313 23.528C30.3473 23.912 29.8833 24.104 29.3393 24.104C28.7953 24.104 28.3313 23.912 27.9473 23.528C27.5633 23.144 27.3713 22.68 27.3713 22.136C27.3713 21.592 27.5633 21.128 27.9473 20.744C28.3313 20.36 28.7953 20.168 29.3393 20.168C29.8833 20.168 30.3473 20.36 30.7313 20.744C31.1153 21.128 31.3073 21.592 31.3073 22.136ZM36.2033 27.032C36.2033 27.576 36.0113 28.04 35.6273 28.424C35.2433 28.808 34.7793 29 34.2353 29C33.6913 29 33.2273 28.808 32.8433 28.424C32.4593 28.04 32.2673 27.576 32.2673 27.032C32.2673 26.488 32.4593 26.024 32.8433 25.64C33.2273 25.256 33.6913 25.064 34.2353 25.064C34.7793 25.064 35.2433 25.256 35.6273 25.64C36.0113 26.024 36.2033 26.488 36.2033 27.032ZM31.3073 27.032C31.3073 27.576 31.1153 28.04 30.7313 28.424C30.3473 28.808 29.8833 29 29.3393 29C28.7953 29 28.3313 28.808 27.9473 28.424C27.5633 28.04 27.3713 27.576 27.3713 27.032C27.3713 26.488 27.5633 26.024 27.9473 25.64C28.3313 25.256 28.7953 25.064 29.3393 25.064C29.8833 25.064 30.3473 25.256 30.7313 25.64C31.1153 26.024 31.3073 26.488 31.3073 27.032ZM107.622 7.448C107.622 7.992 107.43 8.456 107.046 8.84C106.662 9.224 106.198 9.416 105.654 9.416C105.11 9.416 104.646 9.224 104.262 8.84C103.878 8.456 103.686 7.992 103.686 7.448C103.686 6.904 103.878 6.44 104.262 6.056C104.646 5.672 105.11 5.48 105.654 5.48C106.198 5.48 106.662 5.672 107.046 6.056C107.43 6.44 107.622 6.904 107.622 7.448ZM102.726 2.552C102.726 3.096 102.534 3.56 102.15 3.944C101.766 4.328 101.302 4.52 100.758 4.52C100.214 4.52 99.7504 4.328 99.3664 3.944C98.9824 3.56 98.7904 3.096 98.7904 2.552C98.7904 2.008 98.9824 1.544 99.3664 1.16C99.7504 0.775999 100.214 0.584 100.758 0.584C101.302 0.584 101.766 0.775999 102.15 1.16C102.534 1.544 102.726 2.008 102.726 2.552ZM107.622 12.344C107.622 12.888 107.43 13.352 107.046 13.736C106.662 14.12 106.198 14.312 105.654 14.312C105.11 14.312 104.646 14.12 104.262 13.736C103.878 13.352 103.686 12.888 103.686 12.344C103.686 11.8 103.878 11.336 104.262 10.952C104.646 10.568 105.11 10.376 105.654 10.376C106.198 10.376 106.662 10.568 107.046 10.952C107.43 11.336 107.622 11.8 107.622 12.344ZM97.8304 2.552C97.8304 3.096 97.6384 3.56 97.2544 3.944C96.8704 4.328 96.4064 4.52 95.8624 4.52C95.3184 4.52 94.8544 4.328 94.4704 3.944C94.0864 3.56 93.8944 3.096 93.8944 2.552C93.8944 2.008 94.0864 1.544 94.4704 1.16C94.8544 0.775999 95.3184 0.584 95.8624 0.584C96.4064 0.584 96.8704 0.775999 97.2544 1.16C97.6384 1.544 97.8304 2.008 97.8304 2.552ZM102.726 7.448C102.726 7.992 102.534 8.456 102.15 8.84C101.766 9.224 101.302 9.416 100.758 9.416C100.214 9.416 99.7504 9.224 99.3664 8.84C98.9824 8.456 98.7904 7.992 98.7904 7.448C98.7904 6.904 98.9824 6.44 99.3664 6.056C99.7504 5.672 100.214 5.48 100.758 5.48C101.302 5.48 101.766 5.672 102.15 6.056C102.534 6.44 102.726 6.904 102.726 7.448ZM107.622 17.24C107.622 17.784 107.43 18.248 107.046 18.632C106.662 19.016 106.198 19.208 105.654 19.208C105.11 19.208 104.646 19.016 104.262 18.632C103.878 18.248 103.686 17.784 103.686 17.24C103.686 16.696 103.878 16.232 104.262 15.848C104.646 15.464 105.11 15.272 105.654 15.272C106.198 15.272 106.662 15.464 107.046 15.848C107.43 16.232 107.622 16.696 107.622 17.24ZM92.9344 2.552C92.9344 3.096 92.7424 3.56 92.3584 3.944C91.9744 4.328 91.5104 4.52 90.9664 4.52C90.4224 4.52 89.9584 4.328 89.5744 3.944C89.1904 3.56 88.9984 3.096 88.9984 2.552C88.9984 2.008 89.1904 1.544 89.5744 1.16C89.9584 0.775999 90.4224 0.584 90.9664 0.584C91.5104 0.584 91.9744 0.775999 92.3584 1.16C92.7424 1.544 92.9344 2.008 92.9344 2.552ZM102.726 12.344C102.726 12.888 102.534 13.352 102.15 13.736C101.766 14.12 101.302 14.312 100.758 14.312C100.214 14.312 99.7504 14.12 99.3664 13.736C98.9824 13.352 98.7904 12.888 98.7904 12.344C98.7904 11.8 98.9824 11.336 99.3664 10.952C99.7504 10.568 100.214 10.376 100.758 10.376C101.302 10.376 101.766 10.568 102.15 10.952C102.534 11.336 102.726 11.8 102.726 12.344ZM107.622 22.136C107.622 22.68 107.43 23.144 107.046 23.528C106.662 23.912 106.198 24.104 105.654 24.104C105.11 24.104 104.646 23.912 104.262 23.528C103.878 23.144 103.686 22.68 103.686 22.136C103.686 21.592 103.878 21.128 104.262 20.744C104.646 20.36 105.11 20.168 105.654 20.168C106.198 20.168 106.662 20.36 107.046 20.744C107.43 21.128 107.622 21.592 107.622 22.136ZM88.0384 2.552C88.0384 3.096 87.8464 3.56 87.4624 3.944C87.0784 4.328 86.6144 4.52 86.0704 4.52C85.5264 4.52 85.0624 4.328 84.6784 3.944C84.2944 3.56 84.1024 3.096 84.1024 2.552C84.1024 2.008 84.2944 1.544 84.6784 1.16C85.0624 0.775999 85.5264 0.584 86.0704 0.584C86.6144 0.584 87.0784 0.775999 87.4624 1.16C87.8464 1.544 88.0384 2.008 88.0384 2.552ZM102.726 17.24C102.726 17.784 102.534 18.248 102.15 18.632C101.766 19.016 101.302 19.208 100.758 19.208C100.214 19.208 99.7504 19.016 99.3664 18.632C98.9824 18.248 98.7904 17.784 98.7904 17.24C98.7904 16.696 98.9824 16.232 99.3664 15.848C99.7504 15.464 100.214 15.272 100.758 15.272C101.302 15.272 101.766 15.464 102.15 15.848C102.534 16.232 102.726 16.696 102.726 17.24ZM92.9344 12.344C92.9344 12.888 92.7424 13.352 92.3584 13.736C91.9744 14.12 91.5104 14.312 90.9664 14.312C90.4224 14.312 89.9584 14.12 89.5744 13.736C89.1904 13.352 88.9984 12.888 88.9984 12.344C88.9984 11.8 89.1904 11.336 89.5744 10.952C89.9584 10.568 90.4224 10.376 90.9664 10.376C91.5104 10.376 91.9744 10.568 92.3584 10.952C92.7424 11.336 92.9344 11.8 92.9344 12.344ZM102.726 22.136C102.726 22.68 102.534 23.144 102.15 23.528C101.766 23.912 101.302 24.104 100.758 24.104C100.214 24.104 99.7504 23.912 99.3664 23.528C98.9824 23.144 98.7904 22.68 98.7904 22.136C98.7904 21.592 98.9824 21.128 99.3664 20.744C99.7504 20.36 100.214 20.168 100.758 20.168C101.302 20.168 101.766 20.36 102.15 20.744C102.534 21.128 102.726 21.592 102.726 22.136ZM83.1424 2.552C83.1424 3.096 82.9504 3.56 82.5664 3.944C82.1824 4.328 81.7184 4.52 81.1744 4.52C80.6304 4.52 80.1664 4.328 79.7824 3.944C79.3984 3.56 79.2064 3.096 79.2064 2.552C79.2064 2.008 79.3984 1.544 79.7824 1.16C80.1664 0.775999 80.6304 0.584 81.1744 0.584C81.7184 0.584 82.1824 0.775999 82.5664 1.16C82.9504 1.544 83.1424 2.008 83.1424 2.552ZM88.0384 12.344C88.0384 12.888 87.8464 13.352 87.4624 13.736C87.0784 14.12 86.6144 14.312 86.0704 14.312C85.5264 14.312 85.0624 14.12 84.6784 13.736C84.2944 13.352 84.1024 12.888 84.1024 12.344C84.1024 11.8 84.2944 11.336 84.6784 10.952C85.0624 10.568 85.5264 10.376 86.0704 10.376C86.6144 10.376 87.0784 10.568 87.4624 10.952C87.8464 11.336 88.0384 11.8 88.0384 12.344ZM92.9344 17.24C92.9344 17.784 92.7424 18.248 92.3584 18.632C91.9744 19.016 91.5104 19.208 90.9664 19.208C90.4224 19.208 89.9584 19.016 89.5744 18.632C89.1904 18.248 88.9984 17.784 88.9984 17.24C88.9984 16.696 89.1904 16.232 89.5744 15.848C89.9584 15.464 90.4224 15.272 90.9664 15.272C91.5104 15.272 91.9744 15.464 92.3584 15.848C92.7424 16.232 92.9344 16.696 92.9344 17.24ZM78.2464 2.552C78.2464 3.096 78.0544 3.56 77.6704 3.944C77.2864 4.328 76.8224 4.52 76.2784 4.52C75.7344 4.52 75.2704 4.328 74.8864 3.944C74.5024 3.56 74.3104 3.096 74.3104 2.552C74.3104 2.008 74.5024 1.544 74.8864 1.16C75.2704 0.775999 75.7344 0.584 76.2784 0.584C76.8224 0.584 77.2864 0.775999 77.6704 1.16C78.0544 1.544 78.2464 2.008 78.2464 2.552ZM102.726 27.032C102.726 27.576 102.534 28.04 102.15 28.424C101.766 28.808 101.302 29 100.758 29C100.214 29 99.7504 28.808 99.3664 28.424C98.9824 28.04 98.7904 27.576 98.7904 27.032C98.7904 26.488 98.9824 26.024 99.3664 25.64C99.7504 25.256 100.214 25.064 100.758 25.064C101.302 25.064 101.766 25.256 102.15 25.64C102.534 26.024 102.726 26.488 102.726 27.032ZM78.2464 7.448C78.2464 7.992 78.0544 8.456 77.6704 8.84C77.2864 9.224 76.8224 9.416 76.2784 9.416C75.7344 9.416 75.2704 9.224 74.8864 8.84C74.5024 8.456 74.3104 7.992 74.3104 7.448C74.3104 6.904 74.5024 6.44 74.8864 6.056C75.2704 5.672 75.7344 5.48 76.2784 5.48C76.8224 5.48 77.2864 5.672 77.6704 6.056C78.0544 6.44 78.2464 6.904 78.2464 7.448ZM88.0384 17.24C88.0384 17.784 87.8464 18.248 87.4624 18.632C87.0784 19.016 86.6144 19.208 86.0704 19.208C85.5264 19.208 85.0624 19.016 84.6784 18.632C84.2944 18.248 84.1024 17.784 84.1024 17.24C84.1024 16.696 84.2944 16.232 84.6784 15.848C85.0624 15.464 85.5264 15.272 86.0704 15.272C86.6144 15.272 87.0784 15.464 87.4624 15.848C87.8464 16.232 88.0384 16.696 88.0384 17.24ZM97.8304 27.032C97.8304 27.576 97.6384 28.04 97.2544 28.424C96.8704 28.808 96.4064 29 95.8624 29C95.3184 29 94.8544 28.808 94.4704 28.424C94.0864 28.04 93.8944 27.576 93.8944 27.032C93.8944 26.488 94.0864 26.024 94.4704 25.64C94.8544 25.256 95.3184 25.064 95.8624 25.064C96.4064 25.064 96.8704 25.256 97.2544 25.64C97.6384 26.024 97.8304 26.488 97.8304 27.032ZM73.3504 7.448C73.3504 7.992 73.1584 8.456 72.7744 8.84C72.3904 9.224 71.9264 9.416 71.3824 9.416C70.8384 9.416 70.3744 9.224 69.9904 8.84C69.6064 8.456 69.4144 7.992 69.4144 7.448C69.4144 6.904 69.6064 6.44 69.9904 6.056C70.3744 5.672 70.8384 5.48 71.3824 5.48C71.9264 5.48 72.3904 5.672 72.7744 6.056C73.1584 6.44 73.3504 6.904 73.3504 7.448ZM78.2464 12.344C78.2464 12.888 78.0544 13.352 77.6704 13.736C77.2864 14.12 76.8224 14.312 76.2784 14.312C75.7344 14.312 75.2704 14.12 74.8864 13.736C74.5024 13.352 74.3104 12.888 74.3104 12.344C74.3104 11.8 74.5024 11.336 74.8864 10.952C75.2704 10.568 75.7344 10.376 76.2784 10.376C76.8224 10.376 77.2864 10.568 77.6704 10.952C78.0544 11.336 78.2464 11.8 78.2464 12.344ZM92.9344 27.032C92.9344 27.576 92.7424 28.04 92.3584 28.424C91.9744 28.808 91.5104 29 90.9664 29C90.4224 29 89.9584 28.808 89.5744 28.424C89.1904 28.04 88.9984 27.576 88.9984 27.032C88.9984 26.488 89.1904 26.024 89.5744 25.64C89.9584 25.256 90.4224 25.064 90.9664 25.064C91.5104 25.064 91.9744 25.256 92.3584 25.64C92.7424 26.024 92.9344 26.488 92.9344 27.032ZM73.3504 12.344C73.3504 12.888 73.1584 13.352 72.7744 13.736C72.3904 14.12 71.9264 14.312 71.3824 14.312C70.8384 14.312 70.3744 14.12 69.9904 13.736C69.6064 13.352 69.4144 12.888 69.4144 12.344C69.4144 11.8 69.6064 11.336 69.9904 10.952C70.3744 10.568 70.8384 10.376 71.3824 10.376C71.9264 10.376 72.3904 10.568 72.7744 10.952C73.1584 11.336 73.3504 11.8 73.3504 12.344ZM78.2464 17.24C78.2464 17.784 78.0544 18.248 77.6704 18.632C77.2864 19.016 76.8224 19.208 76.2784 19.208C75.7344 19.208 75.2704 19.016 74.8864 18.632C74.5024 18.248 74.3104 17.784 74.3104 17.24C74.3104 16.696 74.5024 16.232 74.8864 15.848C75.2704 15.464 75.7344 15.272 76.2784 15.272C76.8224 15.272 77.2864 15.464 77.6704 15.848C78.0544 16.232 78.2464 16.696 78.2464 17.24ZM88.0384 27.032C88.0384 27.576 87.8464 28.04 87.4624 28.424C87.0784 28.808 86.6144 29 86.0704 29C85.5264 29 85.0624 28.808 84.6784 28.424C84.2944 28.04 84.1024 27.576 84.1024 27.032C84.1024 26.488 84.2944 26.024 84.6784 25.64C85.0624 25.256 85.5264 25.064 86.0704 25.064C86.6144 25.064 87.0784 25.256 87.4624 25.64C87.8464 26.024 88.0384 26.488 88.0384 27.032ZM73.3504 17.24C73.3504 17.784 73.1584 18.248 72.7744 18.632C72.3904 19.016 71.9264 19.208 71.3824 19.208C70.8384 19.208 70.3744 19.016 69.9904 18.632C69.6064 18.248 69.4144 17.784 69.4144 17.24C69.4144 16.696 69.6064 16.232 69.9904 15.848C70.3744 15.464 70.8384 15.272 71.3824 15.272C71.9264 15.272 72.3904 15.464 72.7744 15.848C73.1584 16.232 73.3504 16.696 73.3504 17.24ZM78.2464 22.136C78.2464 22.68 78.0544 23.144 77.6704 23.528C77.2864 23.912 76.8224 24.104 76.2784 24.104C75.7344 24.104 75.2704 23.912 74.8864 23.528C74.5024 23.144 74.3104 22.68 74.3104 22.136C74.3104 21.592 74.5024 21.128 74.8864 20.744C75.2704 20.36 75.7344 20.168 76.2784 20.168C76.8224 20.168 77.2864 20.36 77.6704 20.744C78.0544 21.128 78.2464 21.592 78.2464 22.136ZM83.1424 27.032C83.1424 27.576 82.9504 28.04 82.5664 28.424C82.1824 28.808 81.7184 29 81.1744 29C80.6304 29 80.1664 28.808 79.7824 28.424C79.3984 28.04 79.2064 27.576 79.2064 27.032C79.2064 26.488 79.3984 26.024 79.7824 25.64C80.1664 25.256 80.6304 25.064 81.1744 25.064C81.7184 25.064 82.1824 25.256 82.5664 25.64C82.9504 26.024 83.1424 26.488 83.1424 27.032ZM73.3504 22.136C73.3504 22.68 73.1584 23.144 72.7744 23.528C72.3904 23.912 71.9264 24.104 71.3824 24.104C70.8384 24.104 70.3744 23.912 69.9904 23.528C69.6064 23.144 69.4144 22.68 69.4144 22.136C69.4144 21.592 69.6064 21.128 69.9904 20.744C70.3744 20.36 70.8384 20.168 71.3824 20.168C71.9264 20.168 72.3904 20.36 72.7744 20.744C73.1584 21.128 73.3504 21.592 73.3504 22.136ZM78.2464 27.032C78.2464 27.576 78.0544 28.04 77.6704 28.424C77.2864 28.808 76.8224 29 76.2784 29C75.7344 29 75.2704 28.808 74.8864 28.424C74.5024 28.04 74.3104 27.576 74.3104 27.032C74.3104 26.488 74.5024 26.024 74.8864 25.64C75.2704 25.256 75.7344 25.064 76.2784 25.064C76.8224 25.064 77.2864 25.256 77.6704 25.64C78.0544 26.024 78.2464 26.488 78.2464 27.032Z" fill="#60F9F9"/>
</svg>
