<svg width="131" height="29" viewBox="0 0 131 29" fill="none" xmlns="http://www.w3.org/2000/svg">
<path d="M28.416 2.552C28.416 3.096 28.224 3.56 27.84 3.944C27.456 4.328 26.992 4.52 26.448 4.52C25.904 4.52 25.44 4.328 25.056 3.944C24.672 3.56 24.48 3.096 24.48 2.552C24.48 2.008 24.672 1.544 25.056 1.16C25.44 0.775999 25.904 0.584 26.448 0.584C26.992 0.584 27.456 0.775999 27.84 1.16C28.224 1.544 28.416 2.008 28.416 2.552ZM23.52 2.552C23.52 3.096 23.328 3.56 22.944 3.944C22.56 4.328 22.096 4.52 21.552 4.52C21.008 4.52 20.544 4.328 20.16 3.944C19.776 3.56 19.584 3.096 19.584 2.552C19.584 2.008 19.776 1.544 20.16 1.16C20.544 0.775999 21.008 0.584 21.552 0.584C22.096 0.584 22.56 0.775999 22.944 1.16C23.328 1.544 23.52 2.008 23.52 2.552ZM33.312 17.24C33.312 17.784 33.12 18.248 32.736 18.632C32.352 19.016 31.888 19.208 31.344 19.208C30.8 19.208 30.336 19.016 29.952 18.632C29.568 18.248 29.376 17.784 29.376 17.24C29.376 16.696 29.568 16.232 29.952 15.848C30.336 15.464 30.8 15.272 31.344 15.272C31.888 15.272 32.352 15.464 32.736 15.848C33.12 16.232 33.312 16.696 33.312 17.24ZM18.624 2.552C18.624 3.096 18.432 3.56 18.048 3.944C17.664 4.328 17.2 4.52 16.656 4.52C16.112 4.52 15.648 4.328 15.264 3.944C14.88 3.56 14.688 3.096 14.688 2.552C14.688 2.008 14.88 1.544 15.264 1.16C15.648 0.775999 16.112 0.584 16.656 0.584C17.2 0.584 17.664 0.775999 18.048 1.16C18.432 1.544 18.624 2.008 18.624 2.552ZM28.416 12.344C28.416 12.888 28.224 13.352 27.84 13.736C27.456 14.12 26.992 14.312 26.448 14.312C25.904 14.312 25.44 14.12 25.056 13.736C24.672 13.352 24.48 12.888 24.48 12.344C24.48 11.8 24.672 11.336 25.056 10.952C25.44 10.568 25.904 10.376 26.448 10.376C26.992 10.376 27.456 10.568 27.84 10.952C28.224 11.336 28.416 11.8 28.416 12.344ZM23.52 12.344C23.52 12.888 23.328 13.352 22.944 13.736C22.56 14.12 22.096 14.312 21.552 14.312C21.008 14.312 20.544 14.12 20.16 13.736C19.776 13.352 19.584 12.888 19.584 12.344C19.584 11.8 19.776 11.336 20.16 10.952C20.544 10.568 21.008 10.376 21.552 10.376C22.096 10.376 22.56 10.568 22.944 10.952C23.328 11.336 23.52 11.8 23.52 12.344ZM33.312 22.136C33.312 22.68 33.12 23.144 32.736 23.528C32.352 23.912 31.888 24.104 31.344 24.104C30.8 24.104 30.336 23.912 29.952 23.528C29.568 23.144 29.376 22.68 29.376 22.136C29.376 21.592 29.568 21.128 29.952 20.744C30.336 20.36 30.8 20.168 31.344 20.168C31.888 20.168 32.352 20.36 32.736 20.744C33.12 21.128 33.312 21.592 33.312 22.136ZM13.728 2.552C13.728 3.096 13.536 3.56 13.152 3.944C12.768 4.328 12.304 4.52 11.76 4.52C11.216 4.52 10.752 4.328 10.368 3.944C9.984 3.56 9.792 3.096 9.792 2.552C9.792 2.008 9.984 1.544 10.368 1.16C10.752 0.775999 11.216 0.584 11.76 0.584C12.304 0.584 12.768 0.775999 13.152 1.16C13.536 1.544 13.728 2.008 13.728 2.552ZM28.416 17.24C28.416 17.784 28.224 18.248 27.84 18.632C27.456 19.016 26.992 19.208 26.448 19.208C25.904 19.208 25.44 19.016 25.056 18.632C24.672 18.248 24.48 17.784 24.48 17.24C24.48 16.696 24.672 16.232 25.056 15.848C25.44 15.464 25.904 15.272 26.448 15.272C26.992 15.272 27.456 15.464 27.84 15.848C28.224 16.232 28.416 16.696 28.416 17.24ZM18.624 12.344C18.624 12.888 18.432 13.352 18.048 13.736C17.664 14.12 17.2 14.312 16.656 14.312C16.112 14.312 15.648 14.12 15.264 13.736C14.88 13.352 14.688 12.888 14.688 12.344C14.688 11.8 14.88 11.336 15.264 10.952C15.648 10.568 16.112 10.376 16.656 10.376C17.2 10.376 17.664 10.568 18.048 10.952C18.432 11.336 18.624 11.8 18.624 12.344ZM28.416 22.136C28.416 22.68 28.224 23.144 27.84 23.528C27.456 23.912 26.992 24.104 26.448 24.104C25.904 24.104 25.44 23.912 25.056 23.528C24.672 23.144 24.48 22.68 24.48 22.136C24.48 21.592 24.672 21.128 25.056 20.744C25.44 20.36 25.904 20.168 26.448 20.168C26.992 20.168 27.456 20.36 27.84 20.744C28.224 21.128 28.416 21.592 28.416 22.136ZM8.832 2.552C8.832 3.096 8.64 3.56 8.256 3.944C7.872 4.328 7.408 4.52 6.864 4.52C6.32 4.52 5.856 4.328 5.472 3.944C5.088 3.56 4.896 3.096 4.896 2.552C4.896 2.008 5.088 1.544 5.472 1.16C5.856 0.775999 6.32 0.584 6.864 0.584C7.408 0.584 7.872 0.775999 8.256 1.16C8.64 1.544 8.832 2.008 8.832 2.552ZM13.728 12.344C13.728 12.888 13.536 13.352 13.152 13.736C12.768 14.12 12.304 14.312 11.76 14.312C11.216 14.312 10.752 14.12 10.368 13.736C9.984 13.352 9.792 12.888 9.792 12.344C9.792 11.8 9.984 11.336 10.368 10.952C10.752 10.568 11.216 10.376 11.76 10.376C12.304 10.376 12.768 10.568 13.152 10.952C13.536 11.336 13.728 11.8 13.728 12.344ZM8.832 7.448C8.832 7.992 8.64 8.456 8.256 8.84C7.872 9.224 7.408 9.416 6.864 9.416C6.32 9.416 5.856 9.224 5.472 8.84C5.088 8.456 4.896 7.992 4.896 7.448C4.896 6.904 5.088 6.44 5.472 6.056C5.856 5.672 6.32 5.48 6.864 5.48C7.408 5.48 7.872 5.672 8.256 6.056C8.64 6.44 8.832 6.904 8.832 7.448ZM28.416 27.032C28.416 27.576 28.224 28.04 27.84 28.424C27.456 28.808 26.992 29 26.448 29C25.904 29 25.44 28.808 25.056 28.424C24.672 28.04 24.48 27.576 24.48 27.032C24.48 26.488 24.672 26.024 25.056 25.64C25.44 25.256 25.904 25.064 26.448 25.064C26.992 25.064 27.456 25.256 27.84 25.64C28.224 26.024 28.416 26.488 28.416 27.032ZM3.936 7.448C3.936 7.992 3.744 8.456 3.36 8.84C2.976 9.224 2.512 9.416 1.968 9.416C1.424 9.416 0.96 9.224 0.576 8.84C0.192 8.456 0 7.992 0 7.448C0 6.904 0.192 6.44 0.576 6.056C0.96 5.672 1.424 5.48 1.968 5.48C2.512 5.48 2.976 5.672 3.36 6.056C3.744 6.44 3.936 6.904 3.936 7.448ZM23.52 27.032C23.52 27.576 23.328 28.04 22.944 28.424C22.56 28.808 22.096 29 21.552 29C21.008 29 20.544 28.808 20.16 28.424C19.776 28.04 19.584 27.576 19.584 27.032C19.584 26.488 19.776 26.024 20.16 25.64C20.544 25.256 21.008 25.064 21.552 25.064C22.096 25.064 22.56 25.256 22.944 25.64C23.328 26.024 23.52 26.488 23.52 27.032ZM8.832 12.344C8.832 12.888 8.64 13.352 8.256 13.736C7.872 14.12 7.408 14.312 6.864 14.312C6.32 14.312 5.856 14.12 5.472 13.736C5.088 13.352 4.896 12.888 4.896 12.344C4.896 11.8 5.088 11.336 5.472 10.952C5.856 10.568 6.32 10.376 6.864 10.376C7.408 10.376 7.872 10.568 8.256 10.952C8.64 11.336 8.832 11.8 8.832 12.344ZM3.936 12.344C3.936 12.888 3.744 13.352 3.36 13.736C2.976 14.12 2.512 14.312 1.968 14.312C1.424 14.312 0.96 14.12 0.576 13.736C0.192 13.352 0 12.888 0 12.344C0 11.8 0.192 11.336 0.576 10.952C0.96 10.568 1.424 10.376 1.968 10.376C2.512 10.376 2.976 10.568 3.36 10.952C3.744 11.336 3.936 11.8 3.936 12.344ZM18.624 27.032C18.624 27.576 18.432 28.04 18.048 28.424C17.664 28.808 17.2 29 16.656 29C16.112 29 15.648 28.808 15.264 28.424C14.88 28.04 14.688 27.576 14.688 27.032C14.688 26.488 14.88 26.024 15.264 25.64C15.648 25.256 16.112 25.064 16.656 25.064C17.2 25.064 17.664 25.256 18.048 25.64C18.432 26.024 18.624 26.488 18.624 27.032ZM8.832 17.24C8.832 17.784 8.64 18.248 8.256 18.632C7.872 19.016 7.408 19.208 6.864 19.208C6.32 19.208 5.856 19.016 5.472 18.632C5.088 18.248 4.896 17.784 4.896 17.24C4.896 16.696 5.088 16.232 5.472 15.848C5.856 15.464 6.32 15.272 6.864 15.272C7.408 15.272 7.872 15.464 8.256 15.848C8.64 16.232 8.832 16.696 8.832 17.24ZM3.936 17.24C3.936 17.784 3.744 18.248 3.36 18.632C2.976 19.016 2.512 19.208 1.968 19.208C1.424 19.208 0.96 19.016 0.576 18.632C0.192 18.248 0 17.784 0 17.24C0 16.696 0.192 16.232 0.576 15.848C0.96 15.464 1.424 15.272 1.968 15.272C2.512 15.272 2.976 15.464 3.36 15.848C3.744 16.232 3.936 16.696 3.936 17.24ZM13.728 27.032C13.728 27.576 13.536 28.04 13.152 28.424C12.768 28.808 12.304 29 11.76 29C11.216 29 10.752 28.808 10.368 28.424C9.984 28.04 9.792 27.576 9.792 27.032C9.792 26.488 9.984 26.024 10.368 25.64C10.752 25.256 11.216 25.064 11.76 25.064C12.304 25.064 12.768 25.256 13.152 25.64C13.536 26.024 13.728 26.488 13.728 27.032ZM8.832 22.136C8.832 22.68 8.64 23.144 8.256 23.528C7.872 23.912 7.408 24.104 6.864 24.104C6.32 24.104 5.856 23.912 5.472 23.528C5.088 23.144 4.896 22.68 4.896 22.136C4.896 21.592 5.088 21.128 5.472 20.744C5.856 20.36 6.32 20.168 6.864 20.168C7.408 20.168 7.872 20.36 8.256 20.744C8.64 21.128 8.832 21.592 8.832 22.136ZM3.936 22.136C3.936 22.68 3.744 23.144 3.36 23.528C2.976 23.912 2.512 24.104 1.968 24.104C1.424 24.104 0.96 23.912 0.576 23.528C0.192 23.144 0 22.68 0 22.136C0 21.592 0.192 21.128 0.576 20.744C0.96 20.36 1.424 20.168 1.968 20.168C2.512 20.168 2.976 20.36 3.36 20.744C3.744 21.128 3.936 21.592 3.936 22.136ZM8.832 27.032C8.832 27.576 8.64 28.04 8.256 28.424C7.872 28.808 7.408 29 6.864 29C6.32 29 5.856 28.808 5.472 28.424C5.088 28.04 4.896 27.576 4.896 27.032C4.896 26.488 5.088 26.024 5.472 25.64C5.856 25.256 6.32 25.064 6.864 25.064C7.408 25.064 7.872 25.256 8.256 25.64C8.64 26.024 8.832 26.488 8.832 27.032ZM50.8751 27.032C50.8751 27.576 50.6831 28.04 50.2991 28.424C49.9151 28.808 49.4511 29 48.9071 29C48.3631 29 47.8991 28.808 47.5151 28.424C47.1311 28.04 46.9391 27.576 46.9391 27.032C46.9391 26.488 47.1311 26.024 47.5151 25.64C47.8991 25.256 48.3631 25.064 48.9071 25.064C49.4511 25.064 49.9151 25.256 50.2991 25.64C50.6831 26.024 50.8751 26.488 50.8751 27.032ZM45.9791 27.032C45.9791 27.576 45.7871 28.04 45.4031 28.424C45.0191 28.808 44.5551 29 44.0111 29C43.4671 29 43.0031 28.808 42.6191 28.424C42.2351 28.04 42.0431 27.576 42.0431 27.032C42.0431 26.488 42.2351 26.024 42.6191 25.64C43.0031 25.256 43.4671 25.064 44.0111 25.064C44.5551 25.064 45.0191 25.256 45.4031 25.64C45.7871 26.024 45.9791 26.488 45.9791 27.032ZM88.0335 2.552C88.0335 3.096 87.8415 3.56 87.4575 3.944C87.0735 4.328 86.6095 4.52 86.0655 4.52C85.5215 4.52 85.0575 4.328 84.6735 3.944C84.2895 3.56 84.0975 3.096 84.0975 2.552C84.0975 2.008 84.2895 1.544 84.6735 1.16C85.0575 0.775999 85.5215 0.584 86.0655 0.584C86.6095 0.584 87.0735 0.775999 87.4575 1.16C87.8415 1.544 88.0335 2.008 88.0335 2.552ZM83.1375 2.552C83.1375 3.096 82.9455 3.56 82.5615 3.944C82.1775 4.328 81.7135 4.52 81.1695 4.52C80.6255 4.52 80.1615 4.328 79.7775 3.944C79.3935 3.56 79.2015 3.096 79.2015 2.552C79.2015 2.008 79.3935 1.544 79.7775 1.16C80.1615 0.775999 80.6255 0.584 81.1695 0.584C81.7135 0.584 82.1775 0.775999 82.5615 1.16C82.9455 1.544 83.1375 2.008 83.1375 2.552ZM92.9295 17.24C92.9295 17.784 92.7375 18.248 92.3535 18.632C91.9695 19.016 91.5055 19.208 90.9615 19.208C90.4175 19.208 89.9535 19.016 89.5695 18.632C89.1855 18.248 88.9935 17.784 88.9935 17.24C88.9935 16.696 89.1855 16.232 89.5695 15.848C89.9535 15.464 90.4175 15.272 90.9615 15.272C91.5055 15.272 91.9695 15.464 92.3535 15.848C92.7375 16.232 92.9295 16.696 92.9295 17.24ZM78.2415 2.552C78.2415 3.096 78.0495 3.56 77.6655 3.944C77.2815 4.328 76.8175 4.52 76.2735 4.52C75.7295 4.52 75.2655 4.328 74.8815 3.944C74.4975 3.56 74.3055 3.096 74.3055 2.552C74.3055 2.008 74.4975 1.544 74.8815 1.16C75.2655 0.775999 75.7295 0.584 76.2735 0.584C76.8175 0.584 77.2815 0.775999 77.6655 1.16C78.0495 1.544 78.2415 2.008 78.2415 2.552ZM88.0335 12.344C88.0335 12.888 87.8415 13.352 87.4575 13.736C87.0735 14.12 86.6095 14.312 86.0655 14.312C85.5215 14.312 85.0575 14.12 84.6735 13.736C84.2895 13.352 84.0975 12.888 84.0975 12.344C84.0975 11.8 84.2895 11.336 84.6735 10.952C85.0575 10.568 85.5215 10.376 86.0655 10.376C86.6095 10.376 87.0735 10.568 87.4575 10.952C87.8415 11.336 88.0335 11.8 88.0335 12.344ZM83.1375 12.344C83.1375 12.888 82.9455 13.352 82.5615 13.736C82.1775 14.12 81.7135 14.312 81.1695 14.312C80.6255 14.312 80.1615 14.12 79.7775 13.736C79.3935 13.352 79.2015 12.888 79.2015 12.344C79.2015 11.8 79.3935 11.336 79.7775 10.952C80.1615 10.568 80.6255 10.376 81.1695 10.376C81.7135 10.376 82.1775 10.568 82.5615 10.952C82.9455 11.336 83.1375 11.8 83.1375 12.344ZM92.9295 22.136C92.9295 22.68 92.7375 23.144 92.3535 23.528C91.9695 23.912 91.5055 24.104 90.9615 24.104C90.4175 24.104 89.9535 23.912 89.5695 23.528C89.1855 23.144 88.9935 22.68 88.9935 22.136C88.9935 21.592 89.1855 21.128 89.5695 20.744C89.9535 20.36 90.4175 20.168 90.9615 20.168C91.5055 20.168 91.9695 20.36 92.3535 20.744C92.7375 21.128 92.9295 21.592 92.9295 22.136ZM73.3455 2.552C73.3455 3.096 73.1535 3.56 72.7695 3.944C72.3855 4.328 71.9215 4.52 71.3775 4.52C70.8335 4.52 70.3695 4.328 69.9855 3.944C69.6015 3.56 69.4095 3.096 69.4095 2.552C69.4095 2.008 69.6015 1.544 69.9855 1.16C70.3695 0.775999 70.8335 0.584 71.3775 0.584C71.9215 0.584 72.3855 0.775999 72.7695 1.16C73.1535 1.544 73.3455 2.008 73.3455 2.552ZM88.0335 17.24C88.0335 17.784 87.8415 18.248 87.4575 18.632C87.0735 19.016 86.6095 19.208 86.0655 19.208C85.5215 19.208 85.0575 19.016 84.6735 18.632C84.2895 18.248 84.0975 17.784 84.0975 17.24C84.0975 16.696 84.2895 16.232 84.6735 15.848C85.0575 15.464 85.5215 15.272 86.0655 15.272C86.6095 15.272 87.0735 15.464 87.4575 15.848C87.8415 16.232 88.0335 16.696 88.0335 17.24ZM78.2415 12.344C78.2415 12.888 78.0495 13.352 77.6655 13.736C77.2815 14.12 76.8175 14.312 76.2735 14.312C75.7295 14.312 75.2655 14.12 74.8815 13.736C74.4975 13.352 74.3055 12.888 74.3055 12.344C74.3055 11.8 74.4975 11.336 74.8815 10.952C75.2655 10.568 75.7295 10.376 76.2735 10.376C76.8175 10.376 77.2815 10.568 77.6655 10.952C78.0495 11.336 78.2415 11.8 78.2415 12.344ZM88.0335 22.136C88.0335 22.68 87.8415 23.144 87.4575 23.528C87.0735 23.912 86.6095 24.104 86.0655 24.104C85.5215 24.104 85.0575 23.912 84.6735 23.528C84.2895 23.144 84.0975 22.68 84.0975 22.136C84.0975 21.592 84.2895 21.128 84.6735 20.744C85.0575 20.36 85.5215 20.168 86.0655 20.168C86.6095 20.168 87.0735 20.36 87.4575 20.744C87.8415 21.128 88.0335 21.592 88.0335 22.136ZM68.4495 2.552C68.4495 3.096 68.2575 3.56 67.8735 3.944C67.4895 4.328 67.0255 4.52 66.4815 4.52C65.9375 4.52 65.4735 4.328 65.0895 3.944C64.7055 3.56 64.5135 3.096 64.5135 2.552C64.5135 2.008 64.7055 1.544 65.0895 1.16C65.4735 0.775999 65.9375 0.584 66.4815 0.584C67.0255 0.584 67.4895 0.775999 67.8735 1.16C68.2575 1.544 68.4495 2.008 68.4495 2.552ZM73.3455 12.344C73.3455 12.888 73.1535 13.352 72.7695 13.736C72.3855 14.12 71.9215 14.312 71.3775 14.312C70.8335 14.312 70.3695 14.12 69.9855 13.736C69.6015 13.352 69.4095 12.888 69.4095 12.344C69.4095 11.8 69.6015 11.336 69.9855 10.952C70.3695 10.568 70.8335 10.376 71.3775 10.376C71.9215 10.376 72.3855 10.568 72.7695 10.952C73.1535 11.336 73.3455 11.8 73.3455 12.344ZM68.4495 7.448C68.4495 7.992 68.2575 8.456 67.8735 8.84C67.4895 9.224 67.0255 9.416 66.4815 9.416C65.9375 9.416 65.4735 9.224 65.0895 8.84C64.7055 8.456 64.5135 7.992 64.5135 7.448C64.5135 6.904 64.7055 6.44 65.0895 6.056C65.4735 5.672 65.9375 5.48 66.4815 5.48C67.0255 5.48 67.4895 5.672 67.8735 6.056C68.2575 6.44 68.4495 6.904 68.4495 7.448ZM88.0335 27.032C88.0335 27.576 87.8415 28.04 87.4575 28.424C87.0735 28.808 86.6095 29 86.0655 29C85.5215 29 85.0575 28.808 84.6735 28.424C84.2895 28.04 84.0975 27.576 84.0975 27.032C84.0975 26.488 84.2895 26.024 84.6735 25.64C85.0575 25.256 85.5215 25.064 86.0655 25.064C86.6095 25.064 87.0735 25.256 87.4575 25.64C87.8415 26.024 88.0335 26.488 88.0335 27.032ZM63.5535 7.448C63.5535 7.992 63.3615 8.456 62.9775 8.84C62.5935 9.224 62.1295 9.416 61.5855 9.416C61.0415 9.416 60.5775 9.224 60.1935 8.84C59.8095 8.456 59.6175 7.992 59.6175 7.448C59.6175 6.904 59.8095 6.44 60.1935 6.056C60.5775 5.672 61.0415 5.48 61.5855 5.48C62.1295 5.48 62.5935 5.672 62.9775 6.056C63.3615 6.44 63.5535 6.904 63.5535 7.448ZM83.1375 27.032C83.1375 27.576 82.9455 28.04 82.5615 28.424C82.1775 28.808 81.7135 29 81.1695 29C80.6255 29 80.1615 28.808 79.7775 28.424C79.3935 28.04 79.2015 27.576 79.2015 27.032C79.2015 26.488 79.3935 26.024 79.7775 25.64C80.1615 25.256 80.6255 25.064 81.1695 25.064C81.7135 25.064 82.1775 25.256 82.5615 25.64C82.9455 26.024 83.1375 26.488 83.1375 27.032ZM68.4495 12.344C68.4495 12.888 68.2575 13.352 67.8735 13.736C67.4895 14.12 67.0255 14.312 66.4815 14.312C65.9375 14.312 65.4735 14.12 65.0895 13.736C64.7055 13.352 64.5135 12.888 64.5135 12.344C64.5135 11.8 64.7055 11.336 65.0895 10.952C65.4735 10.568 65.9375 10.376 66.4815 10.376C67.0255 10.376 67.4895 10.568 67.8735 10.952C68.2575 11.336 68.4495 11.8 68.4495 12.344ZM63.5535 12.344C63.5535 12.888 63.3615 13.352 62.9775 13.736C62.5935 14.12 62.1295 14.312 61.5855 14.312C61.0415 14.312 60.5775 14.12 60.1935 13.736C59.8095 13.352 59.6175 12.888 59.6175 12.344C59.6175 11.8 59.8095 11.336 60.1935 10.952C60.5775 10.568 61.0415 10.376 61.5855 10.376C62.1295 10.376 62.5935 10.568 62.9775 10.952C63.3615 11.336 63.5535 11.8 63.5535 12.344ZM78.2415 27.032C78.2415 27.576 78.0495 28.04 77.6655 28.424C77.2815 28.808 76.8175 29 76.2735 29C75.7295 29 75.2655 28.808 74.8815 28.424C74.4975 28.04 74.3055 27.576 74.3055 27.032C74.3055 26.488 74.4975 26.024 74.8815 25.64C75.2655 25.256 75.7295 25.064 76.2735 25.064C76.8175 25.064 77.2815 25.256 77.6655 25.64C78.0495 26.024 78.2415 26.488 78.2415 27.032ZM68.4495 17.24C68.4495 17.784 68.2575 18.248 67.8735 18.632C67.4895 19.016 67.0255 19.208 66.4815 19.208C65.9375 19.208 65.4735 19.016 65.0895 18.632C64.7055 18.248 64.5135 17.784 64.5135 17.24C64.5135 16.696 64.7055 16.232 65.0895 15.848C65.4735 15.464 65.9375 15.272 66.4815 15.272C67.0255 15.272 67.4895 15.464 67.8735 15.848C68.2575 16.232 68.4495 16.696 68.4495 17.24ZM63.5535 17.24C63.5535 17.784 63.3615 18.248 62.9775 18.632C62.5935 19.016 62.1295 19.208 61.5855 19.208C61.0415 19.208 60.5775 19.016 60.1935 18.632C59.8095 18.248 59.6175 17.784 59.6175 17.24C59.6175 16.696 59.8095 16.232 60.1935 15.848C60.5775 15.464 61.0415 15.272 61.5855 15.272C62.1295 15.272 62.5935 15.464 62.9775 15.848C63.3615 16.232 63.5535 16.696 63.5535 17.24ZM73.3455 27.032C73.3455 27.576 73.1535 28.04 72.7695 28.424C72.3855 28.808 71.9215 29 71.3775 29C70.8335 29 70.3695 28.808 69.9855 28.424C69.6015 28.04 69.4095 27.576 69.4095 27.032C69.4095 26.488 69.6015 26.024 69.9855 25.64C70.3695 25.256 70.8335 25.064 71.3775 25.064C71.9215 25.064 72.3855 25.256 72.7695 25.64C73.1535 26.024 73.3455 26.488 73.3455 27.032ZM68.4495 22.136C68.4495 22.68 68.2575 23.144 67.8735 23.528C67.4895 23.912 67.0255 24.104 66.4815 24.104C65.9375 24.104 65.4735 23.912 65.0895 23.528C64.7055 23.144 64.5135 22.68 64.5135 22.136C64.5135 21.592 64.7055 21.128 65.0895 20.744C65.4735 20.36 65.9375 20.168 66.4815 20.168C67.0255 20.168 67.4895 20.36 67.8735 20.744C68.2575 21.128 68.4495 21.592 68.4495 22.136ZM63.5535 22.136C63.5535 22.68 63.3615 23.144 62.9775 23.528C62.5935 23.912 62.1295 24.104 61.5855 24.104C61.0415 24.104 60.5775 23.912 60.1935 23.528C59.8095 23.144 59.6175 22.68 59.6175 22.136C59.6175 21.592 59.8095 21.128 60.1935 20.744C60.5775 20.36 61.0415 20.168 61.5855 20.168C62.1295 20.168 62.5935 20.36 62.9775 20.744C63.3615 21.128 63.5535 21.592 63.5535 22.136ZM68.4495 27.032C68.4495 27.576 68.2575 28.04 67.8735 28.424C67.4895 28.808 67.0255 29 66.4815 29C65.9375 29 65.4735 28.808 65.0895 28.424C64.7055 28.04 64.5135 27.576 64.5135 27.032C64.5135 26.488 64.7055 26.024 65.0895 25.64C65.4735 25.256 65.9375 25.064 66.4815 25.064C67.0255 25.064 67.4895 25.256 67.8735 25.64C68.2575 26.024 68.4495 26.488 68.4495 27.032ZM130.077 2.552C130.077 3.096 129.885 3.56 129.501 3.944C129.117 4.328 128.653 4.52 128.109 4.52C127.565 4.52 127.101 4.328 126.717 3.944C126.333 3.56 126.141 3.096 126.141 2.552C126.141 2.008 126.333 1.544 126.717 1.16C127.101 0.775999 127.565 0.584 128.109 0.584C128.653 0.584 129.117 0.775999 129.501 1.16C129.885 1.544 130.077 2.008 130.077 2.552ZM125.181 2.552C125.181 3.096 124.989 3.56 124.605 3.944C124.221 4.328 123.757 4.52 123.213 4.52C122.669 4.52 122.205 4.328 121.821 3.944C121.437 3.56 121.245 3.096 121.245 2.552C121.245 2.008 121.437 1.544 121.821 1.16C122.205 0.775999 122.669 0.584 123.213 0.584C123.757 0.584 124.221 0.775999 124.605 1.16C124.989 1.544 125.181 2.008 125.181 2.552ZM125.181 7.448C125.181 7.992 124.989 8.456 124.605 8.84C124.221 9.224 123.757 9.416 123.213 9.416C122.669 9.416 122.205 9.224 121.821 8.84C121.437 8.456 121.245 7.992 121.245 7.448C121.245 6.904 121.437 6.44 121.821 6.056C122.205 5.672 122.669 5.48 123.213 5.48C123.757 5.48 124.221 5.672 124.605 6.056C124.989 6.44 125.181 6.904 125.181 7.448ZM120.285 7.448C120.285 7.992 120.093 8.456 119.709 8.84C119.325 9.224 118.861 9.416 118.317 9.416C117.773 9.416 117.309 9.224 116.925 8.84C116.541 8.456 116.349 7.992 116.349 7.448C116.349 6.904 116.541 6.44 116.925 6.056C117.309 5.672 117.773 5.48 118.317 5.48C118.861 5.48 119.325 5.672 119.709 6.056C120.093 6.44 120.285 6.904 120.285 7.448ZM120.285 12.344C120.285 12.888 120.093 13.352 119.709 13.736C119.325 14.12 118.861 14.312 118.317 14.312C117.773 14.312 117.309 14.12 116.925 13.736C116.541 13.352 116.349 12.888 116.349 12.344C116.349 11.8 116.541 11.336 116.925 10.952C117.309 10.568 117.773 10.376 118.317 10.376C118.861 10.376 119.325 10.568 119.709 10.952C120.093 11.336 120.285 11.8 120.285 12.344ZM110.493 2.552C110.493 3.096 110.301 3.56 109.917 3.944C109.533 4.328 109.069 4.52 108.525 4.52C107.981 4.52 107.517 4.328 107.133 3.944C106.749 3.56 106.557 3.096 106.557 2.552C106.557 2.008 106.749 1.544 107.133 1.16C107.517 0.775999 107.981 0.584 108.525 0.584C109.069 0.584 109.533 0.775999 109.917 1.16C110.301 1.544 110.493 2.008 110.493 2.552ZM115.389 12.344C115.389 12.888 115.197 13.352 114.813 13.736C114.429 14.12 113.965 14.312 113.421 14.312C112.877 14.312 112.413 14.12 112.029 13.736C111.645 13.352 111.453 12.888 111.453 12.344C111.453 11.8 111.645 11.336 112.029 10.952C112.413 10.568 112.877 10.376 113.421 10.376C113.965 10.376 114.429 10.568 114.813 10.952C115.197 11.336 115.389 11.8 115.389 12.344ZM120.285 17.24C120.285 17.784 120.093 18.248 119.709 18.632C119.325 19.016 118.861 19.208 118.317 19.208C117.773 19.208 117.309 19.016 116.925 18.632C116.541 18.248 116.349 17.784 116.349 17.24C116.349 16.696 116.541 16.232 116.925 15.848C117.309 15.464 117.773 15.272 118.317 15.272C118.861 15.272 119.325 15.464 119.709 15.848C120.093 16.232 120.285 16.696 120.285 17.24ZM125.181 22.136C125.181 22.68 124.989 23.144 124.605 23.528C124.221 23.912 123.757 24.104 123.213 24.104C122.669 24.104 122.205 23.912 121.821 23.528C121.437 23.144 121.245 22.68 121.245 22.136C121.245 21.592 121.437 21.128 121.821 20.744C122.205 20.36 122.669 20.168 123.213 20.168C123.757 20.168 124.221 20.36 124.605 20.744C124.989 21.128 125.181 21.592 125.181 22.136ZM105.597 2.552C105.597 3.096 105.405 3.56 105.021 3.944C104.637 4.328 104.173 4.52 103.629 4.52C103.085 4.52 102.621 4.328 102.237 3.944C101.853 3.56 101.661 3.096 101.661 2.552C101.661 2.008 101.853 1.544 102.237 1.16C102.621 0.775999 103.085 0.584 103.629 0.584C104.173 0.584 104.637 0.775999 105.021 1.16C105.405 1.544 105.597 2.008 105.597 2.552ZM110.493 7.448C110.493 7.992 110.301 8.456 109.917 8.84C109.533 9.224 109.069 9.416 108.525 9.416C107.981 9.416 107.517 9.224 107.133 8.84C106.749 8.456 106.557 7.992 106.557 7.448C106.557 6.904 106.749 6.44 107.133 6.056C107.517 5.672 107.981 5.48 108.525 5.48C109.069 5.48 109.533 5.672 109.917 6.056C110.301 6.44 110.493 6.904 110.493 7.448ZM130.077 27.032C130.077 27.576 129.885 28.04 129.501 28.424C129.117 28.808 128.653 29 128.109 29C127.565 29 127.101 28.808 126.717 28.424C126.333 28.04 126.141 27.576 126.141 27.032C126.141 26.488 126.333 26.024 126.717 25.64C127.101 25.256 127.565 25.064 128.109 25.064C128.653 25.064 129.117 25.256 129.501 25.64C129.885 26.024 130.077 26.488 130.077 27.032ZM105.597 7.448C105.597 7.992 105.405 8.456 105.021 8.84C104.637 9.224 104.173 9.416 103.629 9.416C103.085 9.416 102.621 9.224 102.237 8.84C101.853 8.456 101.661 7.992 101.661 7.448C101.661 6.904 101.853 6.44 102.237 6.056C102.621 5.672 103.085 5.48 103.629 5.48C104.173 5.48 104.637 5.672 105.021 6.056C105.405 6.44 105.597 6.904 105.597 7.448ZM115.389 17.24C115.389 17.784 115.197 18.248 114.813 18.632C114.429 19.016 113.965 19.208 113.421 19.208C112.877 19.208 112.413 19.016 112.029 18.632C111.645 18.248 111.453 17.784 111.453 17.24C111.453 16.696 111.645 16.232 112.029 15.848C112.413 15.464 112.877 15.272 113.421 15.272C113.965 15.272 114.429 15.464 114.813 15.848C115.197 16.232 115.389 16.696 115.389 17.24ZM120.285 22.136C120.285 22.68 120.093 23.144 119.709 23.528C119.325 23.912 118.861 24.104 118.317 24.104C117.773 24.104 117.309 23.912 116.925 23.528C116.541 23.144 116.349 22.68 116.349 22.136C116.349 21.592 116.541 21.128 116.925 20.744C117.309 20.36 117.773 20.168 118.317 20.168C118.861 20.168 119.325 20.36 119.709 20.744C120.093 21.128 120.285 21.592 120.285 22.136ZM125.181 27.032C125.181 27.576 124.989 28.04 124.605 28.424C124.221 28.808 123.757 29 123.213 29C122.669 29 122.205 28.808 121.821 28.424C121.437 28.04 121.245 27.576 121.245 27.032C121.245 26.488 121.437 26.024 121.821 25.64C122.205 25.256 122.669 25.064 123.213 25.064C123.757 25.064 124.221 25.256 124.605 25.64C124.989 26.024 125.181 26.488 125.181 27.032ZM110.493 12.344C110.493 12.888 110.301 13.352 109.917 13.736C109.533 14.12 109.069 14.312 108.525 14.312C107.981 14.312 107.517 14.12 107.133 13.736C106.749 13.352 106.557 12.888 106.557 12.344C106.557 11.8 106.749 11.336 107.133 10.952C107.517 10.568 107.981 10.376 108.525 10.376C109.069 10.376 109.533 10.568 109.917 10.952C110.301 11.336 110.493 11.8 110.493 12.344ZM105.597 12.344C105.597 12.888 105.405 13.352 105.021 13.736C104.637 14.12 104.173 14.312 103.629 14.312C103.085 14.312 102.621 14.12 102.237 13.736C101.853 13.352 101.661 12.888 101.661 12.344C101.661 11.8 101.853 11.336 102.237 10.952C102.621 10.568 103.085 10.376 103.629 10.376C104.173 10.376 104.637 10.568 105.021 10.952C105.405 11.336 105.597 11.8 105.597 12.344ZM110.493 17.24C110.493 17.784 110.301 18.248 109.917 18.632C109.533 19.016 109.069 19.208 108.525 19.208C107.981 19.208 107.517 19.016 107.133 18.632C106.749 18.248 106.557 17.784 106.557 17.24C106.557 16.696 106.749 16.232 107.133 15.848C107.517 15.464 107.981 15.272 108.525 15.272C109.069 15.272 109.533 15.464 109.917 15.848C110.301 16.232 110.493 16.696 110.493 17.24ZM105.597 17.24C105.597 17.784 105.405 18.248 105.021 18.632C104.637 19.016 104.173 19.208 103.629 19.208C103.085 19.208 102.621 19.016 102.237 18.632C101.853 18.248 101.661 17.784 101.661 17.24C101.661 16.696 101.853 16.232 102.237 15.848C102.621 15.464 103.085 15.272 103.629 15.272C104.173 15.272 104.637 15.464 105.021 15.848C105.405 16.232 105.597 16.696 105.597 17.24ZM110.493 22.136C110.493 22.68 110.301 23.144 109.917 23.528C109.533 23.912 109.069 24.104 108.525 24.104C107.981 24.104 107.517 23.912 107.133 23.528C106.749 23.144 106.557 22.68 106.557 22.136C106.557 21.592 106.749 21.128 107.133 20.744C107.517 20.36 107.981 20.168 108.525 20.168C109.069 20.168 109.533 20.36 109.917 20.744C110.301 21.128 110.493 21.592 110.493 22.136ZM105.597 22.136C105.597 22.68 105.405 23.144 105.021 23.528C104.637 23.912 104.173 24.104 103.629 24.104C103.085 24.104 102.621 23.912 102.237 23.528C101.853 23.144 101.661 22.68 101.661 22.136C101.661 21.592 101.853 21.128 102.237 20.744C102.621 20.36 103.085 20.168 103.629 20.168C104.173 20.168 104.637 20.36 105.021 20.744C105.405 21.128 105.597 21.592 105.597 22.136ZM110.493 27.032C110.493 27.576 110.301 28.04 109.917 28.424C109.533 28.808 109.069 29 108.525 29C107.981 29 107.517 28.808 107.133 28.424C106.749 28.04 106.557 27.576 106.557 27.032C106.557 26.488 106.749 26.024 107.133 25.64C107.517 25.256 107.981 25.064 108.525 25.064C109.069 25.064 109.533 25.256 109.917 25.64C110.301 26.024 110.493 26.488 110.493 27.032ZM105.597 27.032C105.597 27.576 105.405 28.04 105.021 28.424C104.637 28.808 104.173 29 103.629 29C103.085 29 102.621 28.808 102.237 28.424C101.853 28.04 101.661 27.576 101.661 27.032C101.661 26.488 101.853 26.024 102.237 25.64C102.621 25.256 103.085 25.064 103.629 25.064C104.173 25.064 104.637 25.256 105.021 25.64C105.405 26.024 105.597 26.488 105.597 27.032Z" fill="#60F9F9"/>
</svg>
