<svg width="286" height="49" viewBox="0 0 286 49" fill="none" xmlns="http://www.w3.org/2000/svg">
<path d="M55.52 12.08C55.52 12.9867 55.2 13.76 54.56 14.4C53.92 15.04 53.1467 15.36 52.24 15.36C51.3333 15.36 50.56 15.04 49.92 14.4C49.28 13.76 48.96 12.9867 48.96 12.08C48.96 11.1733 49.28 10.4 49.92 9.76C50.56 9.12 51.3333 8.8 52.24 8.8C53.1467 8.8 53.92 9.12 54.56 9.76C55.2 10.4 55.52 11.1733 55.52 12.08ZM47.36 3.92C47.36 4.82666 47.04 5.6 46.4 6.24C45.76 6.88 44.9867 7.2 44.08 7.2C43.1733 7.2 42.4 6.88 41.76 6.24C41.12 5.6 40.8 4.82666 40.8 3.92C40.8 3.01333 41.12 2.24 41.76 1.6C42.4 0.959998 43.1733 0.639999 44.08 0.639999C44.9867 0.639999 45.76 0.959998 46.4 1.6C47.04 2.24 47.36 3.01333 47.36 3.92ZM55.52 20.24C55.52 21.1467 55.2 21.92 54.56 22.56C53.92 23.2 53.1467 23.52 52.24 23.52C51.3333 23.52 50.56 23.2 49.92 22.56C49.28 21.92 48.96 21.1467 48.96 20.24C48.96 19.3333 49.28 18.56 49.92 17.92C50.56 17.28 51.3333 16.96 52.24 16.96C53.1467 16.96 53.92 17.28 54.56 17.92C55.2 18.56 55.52 19.3333 55.52 20.24ZM39.2 3.92C39.2 4.82666 38.88 5.6 38.24 6.24C37.6 6.88 36.8267 7.2 35.92 7.2C35.0133 7.2 34.24 6.88 33.6 6.24C32.96 5.6 32.64 4.82666 32.64 3.92C32.64 3.01333 32.96 2.24 33.6 1.6C34.24 0.959998 35.0133 0.639999 35.92 0.639999C36.8267 0.639999 37.6 0.959998 38.24 1.6C38.88 2.24 39.2 3.01333 39.2 3.92ZM47.36 12.08C47.36 12.9867 47.04 13.76 46.4 14.4C45.76 15.04 44.9867 15.36 44.08 15.36C43.1733 15.36 42.4 15.04 41.76 14.4C41.12 13.76 40.8 12.9867 40.8 12.08C40.8 11.1733 41.12 10.4 41.76 9.76C42.4 9.12 43.1733 8.8 44.08 8.8C44.9867 8.8 45.76 9.12 46.4 9.76C47.04 10.4 47.36 11.1733 47.36 12.08ZM55.52 28.4C55.52 29.3067 55.2 30.08 54.56 30.72C53.92 31.36 53.1467 31.68 52.24 31.68C51.3333 31.68 50.56 31.36 49.92 30.72C49.28 30.08 48.96 29.3067 48.96 28.4C48.96 27.4933 49.28 26.72 49.92 26.08C50.56 25.44 51.3333 25.12 52.24 25.12C53.1467 25.12 53.92 25.44 54.56 26.08C55.2 26.72 55.52 27.4933 55.52 28.4ZM31.04 3.92C31.04 4.82666 30.72 5.6 30.08 6.24C29.44 6.88 28.6667 7.2 27.76 7.2C26.8533 7.2 26.08 6.88 25.44 6.24C24.8 5.6 24.48 4.82666 24.48 3.92C24.48 3.01333 24.8 2.24 25.44 1.6C26.08 0.959998 26.8533 0.639999 27.76 0.639999C28.6667 0.639999 29.44 0.959998 30.08 1.6C30.72 2.24 31.04 3.01333 31.04 3.92ZM47.36 20.24C47.36 21.1467 47.04 21.92 46.4 22.56C45.76 23.2 44.9867 23.52 44.08 23.52C43.1733 23.52 42.4 23.2 41.76 22.56C41.12 21.92 40.8 21.1467 40.8 20.24C40.8 19.3333 41.12 18.56 41.76 17.92C42.4 17.28 43.1733 16.96 44.08 16.96C44.9867 16.96 45.76 17.28 46.4 17.92C47.04 18.56 47.36 19.3333 47.36 20.24ZM55.52 36.56C55.52 37.4667 55.2 38.24 54.56 38.88C53.92 39.52 53.1467 39.84 52.24 39.84C51.3333 39.84 50.56 39.52 49.92 38.88C49.28 38.24 48.96 37.4667 48.96 36.56C48.96 35.6533 49.28 34.88 49.92 34.24C50.56 33.6 51.3333 33.28 52.24 33.28C53.1467 33.28 53.92 33.6 54.56 34.24C55.2 34.88 55.52 35.6533 55.52 36.56ZM22.88 3.92C22.88 4.82666 22.56 5.6 21.92 6.24C21.28 6.88 20.5067 7.2 19.6 7.2C18.6933 7.2 17.92 6.88 17.28 6.24C16.64 5.6 16.32 4.82666 16.32 3.92C16.32 3.01333 16.64 2.24 17.28 1.6C17.92 0.959998 18.6933 0.639999 19.6 0.639999C20.5067 0.639999 21.28 0.959998 21.92 1.6C22.56 2.24 22.88 3.01333 22.88 3.92ZM47.36 28.4C47.36 29.3067 47.04 30.08 46.4 30.72C45.76 31.36 44.9867 31.68 44.08 31.68C43.1733 31.68 42.4 31.36 41.76 30.72C41.12 30.08 40.8 29.3067 40.8 28.4C40.8 27.4933 41.12 26.72 41.76 26.08C42.4 25.44 43.1733 25.12 44.08 25.12C44.9867 25.12 45.76 25.44 46.4 26.08C47.04 26.72 47.36 27.4933 47.36 28.4ZM47.36 36.56C47.36 37.4667 47.04 38.24 46.4 38.88C45.76 39.52 44.9867 39.84 44.08 39.84C43.1733 39.84 42.4 39.52 41.76 38.88C41.12 38.24 40.8 37.4667 40.8 36.56C40.8 35.6533 41.12 34.88 41.76 34.24C42.4 33.6 43.1733 33.28 44.08 33.28C44.9867 33.28 45.76 33.6 46.4 34.24C47.04 34.88 47.36 35.6533 47.36 36.56ZM14.72 3.92C14.72 4.82666 14.4 5.6 13.76 6.24C13.12 6.88 12.3467 7.2 11.44 7.2C10.5333 7.2 9.76 6.88 9.12 6.24C8.48 5.6 8.16 4.82666 8.16 3.92C8.16 3.01333 8.48 2.24 9.12 1.6C9.76 0.959998 10.5333 0.639999 11.44 0.639999C12.3467 0.639999 13.12 0.959998 13.76 1.6C14.4 2.24 14.72 3.01333 14.72 3.92ZM14.72 12.08C14.72 12.9867 14.4 13.76 13.76 14.4C13.12 15.04 12.3467 15.36 11.44 15.36C10.5333 15.36 9.76 15.04 9.12 14.4C8.48 13.76 8.16 12.9867 8.16 12.08C8.16 11.1733 8.48 10.4 9.12 9.76C9.76 9.12 10.5333 8.8 11.44 8.8C12.3467 8.8 13.12 9.12 13.76 9.76C14.4 10.4 14.72 11.1733 14.72 12.08ZM47.36 44.72C47.36 45.6267 47.04 46.4 46.4 47.04C45.76 47.68 44.9867 48 44.08 48C43.1733 48 42.4 47.68 41.76 47.04C41.12 46.4 40.8 45.6267 40.8 44.72C40.8 43.8133 41.12 43.04 41.76 42.4C42.4 41.76 43.1733 41.44 44.08 41.44C44.9867 41.44 45.76 41.76 46.4 42.4C47.04 43.04 47.36 43.8133 47.36 44.72ZM6.56 12.08C6.56 12.9867 6.24 13.76 5.6 14.4C4.96 15.04 4.18667 15.36 3.28 15.36C2.37333 15.36 1.6 15.04 0.96 14.4C0.32 13.76 0 12.9867 0 12.08C0 11.1733 0.32 10.4 0.96 9.76C1.6 9.12 2.37333 8.8 3.28 8.8C4.18667 8.8 4.96 9.12 5.6 9.76C6.24 10.4 6.56 11.1733 6.56 12.08ZM39.2 44.72C39.2 45.6267 38.88 46.4 38.24 47.04C37.6 47.68 36.8267 48 35.92 48C35.0133 48 34.24 47.68 33.6 47.04C32.96 46.4 32.64 45.6267 32.64 44.72C32.64 43.8133 32.96 43.04 33.6 42.4C34.24 41.76 35.0133 41.44 35.92 41.44C36.8267 41.44 37.6 41.76 38.24 42.4C38.88 43.04 39.2 43.8133 39.2 44.72ZM14.72 20.24C14.72 21.1467 14.4 21.92 13.76 22.56C13.12 23.2 12.3467 23.52 11.44 23.52C10.5333 23.52 9.76 23.2 9.12 22.56C8.48 21.92 8.16 21.1467 8.16 20.24C8.16 19.3333 8.48 18.56 9.12 17.92C9.76 17.28 10.5333 16.96 11.44 16.96C12.3467 16.96 13.12 17.28 13.76 17.92C14.4 18.56 14.72 19.3333 14.72 20.24ZM6.56 20.24C6.56 21.1467 6.24 21.92 5.6 22.56C4.96 23.2 4.18667 23.52 3.28 23.52C2.37333 23.52 1.6 23.2 0.96 22.56C0.32 21.92 0 21.1467 0 20.24C0 19.3333 0.32 18.56 0.96 17.92C1.6 17.28 2.37333 16.96 3.28 16.96C4.18667 16.96 4.96 17.28 5.6 17.92C6.24 18.56 6.56 19.3333 6.56 20.24ZM31.04 44.72C31.04 45.6267 30.72 46.4 30.08 47.04C29.44 47.68 28.6667 48 27.76 48C26.8533 48 26.08 47.68 25.44 47.04C24.8 46.4 24.48 45.6267 24.48 44.72C24.48 43.8133 24.8 43.04 25.44 42.4C26.08 41.76 26.8533 41.44 27.76 41.44C28.6667 41.44 29.44 41.76 30.08 42.4C30.72 43.04 31.04 43.8133 31.04 44.72ZM14.72 28.4C14.72 29.3067 14.4 30.08 13.76 30.72C13.12 31.36 12.3467 31.68 11.44 31.68C10.5333 31.68 9.76 31.36 9.12 30.72C8.48 30.08 8.16 29.3067 8.16 28.4C8.16 27.4933 8.48 26.72 9.12 26.08C9.76 25.44 10.5333 25.12 11.44 25.12C12.3467 25.12 13.12 25.44 13.76 26.08C14.4 26.72 14.72 27.4933 14.72 28.4ZM6.56 28.4C6.56 29.3067 6.24 30.08 5.6 30.72C4.96 31.36 4.18667 31.68 3.28 31.68C2.37333 31.68 1.6 31.36 0.96 30.72C0.32 30.08 0 29.3067 0 28.4C0 27.4933 0.32 26.72 0.96 26.08C1.6 25.44 2.37333 25.12 3.28 25.12C4.18667 25.12 4.96 25.44 5.6 26.08C6.24 26.72 6.56 27.4933 6.56 28.4ZM22.88 44.72C22.88 45.6267 22.56 46.4 21.92 47.04C21.28 47.68 20.5067 48 19.6 48C18.6933 48 17.92 47.68 17.28 47.04C16.64 46.4 16.32 45.6267 16.32 44.72C16.32 43.8133 16.64 43.04 17.28 42.4C17.92 41.76 18.6933 41.44 19.6 41.44C20.5067 41.44 21.28 41.76 21.92 42.4C22.56 43.04 22.88 43.8133 22.88 44.72ZM14.72 36.56C14.72 37.4667 14.4 38.24 13.76 38.88C13.12 39.52 12.3467 39.84 11.44 39.84C10.5333 39.84 9.76 39.52 9.12 38.88C8.48 38.24 8.16 37.4667 8.16 36.56C8.16 35.6533 8.48 34.88 9.12 34.24C9.76 33.6 10.5333 33.28 11.44 33.28C12.3467 33.28 13.12 33.6 13.76 34.24C14.4 34.88 14.72 35.6533 14.72 36.56ZM6.56 36.56C6.56 37.4667 6.24 38.24 5.6 38.88C4.96 39.52 4.18667 39.84 3.28 39.84C2.37333 39.84 1.6 39.52 0.96 38.88C0.32 38.24 0 37.4667 0 36.56C0 35.6533 0.32 34.88 0.96 34.24C1.6 33.6 2.37333 33.28 3.28 33.28C4.18667 33.28 4.96 33.6 5.6 34.24C6.24 34.88 6.56 35.6533 6.56 36.56ZM14.72 44.72C14.72 45.6267 14.4 46.4 13.76 47.04C13.12 47.68 12.3467 48 11.44 48C10.5333 48 9.76 47.68 9.12 47.04C8.48 46.4 8.16 45.6267 8.16 44.72C8.16 43.8133 8.48 43.04 9.12 42.4C9.76 41.76 10.5333 41.44 11.44 41.44C12.3467 41.44 13.12 41.76 13.76 42.4C14.4 43.04 14.72 43.8133 14.72 44.72ZM119.192 12.08C119.192 12.9867 118.872 13.76 118.232 14.4C117.592 15.04 116.819 15.36 115.912 15.36C115.005 15.36 114.232 15.04 113.592 14.4C112.952 13.76 112.632 12.9867 112.632 12.08C112.632 11.1733 112.952 10.4 113.592 9.76C114.232 9.12 115.005 8.8 115.912 8.8C116.819 8.8 117.592 9.12 118.232 9.76C118.872 10.4 119.192 11.1733 119.192 12.08ZM111.032 3.92C111.032 4.82666 110.712 5.6 110.072 6.24C109.432 6.88 108.659 7.2 107.752 7.2C106.845 7.2 106.072 6.88 105.432 6.24C104.792 5.6 104.472 4.82666 104.472 3.92C104.472 3.01333 104.792 2.24 105.432 1.6C106.072 0.959998 106.845 0.639999 107.752 0.639999C108.659 0.639999 109.432 0.959998 110.072 1.6C110.712 2.24 111.032 3.01333 111.032 3.92ZM119.192 20.24C119.192 21.1467 118.872 21.92 118.232 22.56C117.592 23.2 116.819 23.52 115.912 23.52C115.005 23.52 114.232 23.2 113.592 22.56C112.952 21.92 112.632 21.1467 112.632 20.24C112.632 19.3333 112.952 18.56 113.592 17.92C114.232 17.28 115.005 16.96 115.912 16.96C116.819 16.96 117.592 17.28 118.232 17.92C118.872 18.56 119.192 19.3333 119.192 20.24ZM102.872 3.92C102.872 4.82666 102.552 5.6 101.912 6.24C101.272 6.88 100.499 7.2 99.5919 7.2C98.6852 7.2 97.9119 6.88 97.2719 6.24C96.6319 5.6 96.3119 4.82666 96.3119 3.92C96.3119 3.01333 96.6319 2.24 97.2719 1.6C97.9119 0.959998 98.6852 0.639999 99.5919 0.639999C100.499 0.639999 101.272 0.959998 101.912 1.6C102.552 2.24 102.872 3.01333 102.872 3.92ZM111.032 12.08C111.032 12.9867 110.712 13.76 110.072 14.4C109.432 15.04 108.659 15.36 107.752 15.36C106.845 15.36 106.072 15.04 105.432 14.4C104.792 13.76 104.472 12.9867 104.472 12.08C104.472 11.1733 104.792 10.4 105.432 9.76C106.072 9.12 106.845 8.8 107.752 8.8C108.659 8.8 109.432 9.12 110.072 9.76C110.712 10.4 111.032 11.1733 111.032 12.08ZM94.7119 3.92C94.7119 4.82666 94.3919 5.6 93.7519 6.24C93.1119 6.88 92.3385 7.2 91.4319 7.2C90.5252 7.2 89.7519 6.88 89.1119 6.24C88.4719 5.6 88.1519 4.82666 88.1519 3.92C88.1519 3.01333 88.4719 2.24 89.1119 1.6C89.7519 0.959998 90.5252 0.639999 91.4319 0.639999C92.3385 0.639999 93.1119 0.959998 93.7519 1.6C94.3919 2.24 94.7119 3.01333 94.7119 3.92ZM111.032 20.24C111.032 21.1467 110.712 21.92 110.072 22.56C109.432 23.2 108.659 23.52 107.752 23.52C106.845 23.52 106.072 23.2 105.432 22.56C104.792 21.92 104.472 21.1467 104.472 20.24C104.472 19.3333 104.792 18.56 105.432 17.92C106.072 17.28 106.845 16.96 107.752 16.96C108.659 16.96 109.432 17.28 110.072 17.92C110.712 18.56 111.032 19.3333 111.032 20.24ZM86.5519 3.92C86.5519 4.82666 86.2319 5.6 85.5919 6.24C84.9519 6.88 84.1785 7.2 83.2719 7.2C82.3652 7.2 81.5919 6.88 80.9519 6.24C80.3119 5.6 79.9919 4.82666 79.9919 3.92C79.9919 3.01333 80.3119 2.24 80.9519 1.6C81.5919 0.959998 82.3652 0.639999 83.2719 0.639999C84.1785 0.639999 84.9519 0.959998 85.5919 1.6C86.2319 2.24 86.5519 3.01333 86.5519 3.92ZM111.032 28.4C111.032 29.3067 110.712 30.08 110.072 30.72C109.432 31.36 108.659 31.68 107.752 31.68C106.845 31.68 106.072 31.36 105.432 30.72C104.792 30.08 104.472 29.3067 104.472 28.4C104.472 27.4933 104.792 26.72 105.432 26.08C106.072 25.44 106.845 25.12 107.752 25.12C108.659 25.12 109.432 25.44 110.072 26.08C110.712 26.72 111.032 27.4933 111.032 28.4ZM102.872 28.4C102.872 29.3067 102.552 30.08 101.912 30.72C101.272 31.36 100.499 31.68 99.5919 31.68C98.6852 31.68 97.9119 31.36 97.2719 30.72C96.6319 30.08 96.3119 29.3067 96.3119 28.4C96.3119 27.4933 96.6319 26.72 97.2719 26.08C97.9119 25.44 98.6852 25.12 99.5919 25.12C100.499 25.12 101.272 25.44 101.912 26.08C102.552 26.72 102.872 27.4933 102.872 28.4ZM78.3919 3.92C78.3919 4.82666 78.0719 5.6 77.4319 6.24C76.7919 6.88 76.0185 7.2 75.1119 7.2C74.2052 7.2 73.4319 6.88 72.7919 6.24C72.1519 5.6 71.8319 4.82666 71.8319 3.92C71.8319 3.01333 72.1519 2.24 72.7919 1.6C73.4319 0.959998 74.2052 0.639999 75.1119 0.639999C76.0185 0.639999 76.7919 0.959998 77.4319 1.6C78.0719 2.24 78.3919 3.01333 78.3919 3.92ZM94.7119 28.4C94.7119 29.3067 94.3919 30.08 93.7519 30.72C93.1119 31.36 92.3385 31.68 91.4319 31.68C90.5252 31.68 89.7519 31.36 89.1119 30.72C88.4719 30.08 88.1519 29.3067 88.1519 28.4C88.1519 27.4933 88.4719 26.72 89.1119 26.08C89.7519 25.44 90.5252 25.12 91.4319 25.12C92.3385 25.12 93.1119 25.44 93.7519 26.08C94.3919 26.72 94.7119 27.4933 94.7119 28.4ZM78.3919 12.08C78.3919 12.9867 78.0719 13.76 77.4319 14.4C76.7919 15.04 76.0185 15.36 75.1119 15.36C74.2052 15.36 73.4319 15.04 72.7919 14.4C72.1519 13.76 71.8319 12.9867 71.8319 12.08C71.8319 11.1733 72.1519 10.4 72.7919 9.76C73.4319 9.12 74.2052 8.8 75.1119 8.8C76.0185 8.8 76.7919 9.12 77.4319 9.76C78.0719 10.4 78.3919 11.1733 78.3919 12.08ZM70.2319 12.08C70.2319 12.9867 69.9119 13.76 69.2719 14.4C68.6319 15.04 67.8585 15.36 66.9519 15.36C66.0452 15.36 65.2719 15.04 64.6319 14.4C63.9919 13.76 63.6719 12.9867 63.6719 12.08C63.6719 11.1733 63.9919 10.4 64.6319 9.76C65.2719 9.12 66.0452 8.8 66.9519 8.8C67.8585 8.8 68.6319 9.12 69.2719 9.76C69.9119 10.4 70.2319 11.1733 70.2319 12.08ZM86.5519 28.4C86.5519 29.3067 86.2319 30.08 85.5919 30.72C84.9519 31.36 84.1785 31.68 83.2719 31.68C82.3652 31.68 81.5919 31.36 80.9519 30.72C80.3119 30.08 79.9919 29.3067 79.9919 28.4C79.9919 27.4933 80.3119 26.72 80.9519 26.08C81.5919 25.44 82.3652 25.12 83.2719 25.12C84.1785 25.12 84.9519 25.44 85.5919 26.08C86.2319 26.72 86.5519 27.4933 86.5519 28.4ZM78.3919 20.24C78.3919 21.1467 78.0719 21.92 77.4319 22.56C76.7919 23.2 76.0185 23.52 75.1119 23.52C74.2052 23.52 73.4319 23.2 72.7919 22.56C72.1519 21.92 71.8319 21.1467 71.8319 20.24C71.8319 19.3333 72.1519 18.56 72.7919 17.92C73.4319 17.28 74.2052 16.96 75.1119 16.96C76.0185 16.96 76.7919 17.28 77.4319 17.92C78.0719 18.56 78.3919 19.3333 78.3919 20.24ZM70.2319 20.24C70.2319 21.1467 69.9119 21.92 69.2719 22.56C68.6319 23.2 67.8585 23.52 66.9519 23.52C66.0452 23.52 65.2719 23.2 64.6319 22.56C63.9919 21.92 63.6719 21.1467 63.6719 20.24C63.6719 19.3333 63.9919 18.56 64.6319 17.92C65.2719 17.28 66.0452 16.96 66.9519 16.96C67.8585 16.96 68.6319 17.28 69.2719 17.92C69.9119 18.56 70.2319 19.3333 70.2319 20.24ZM78.3919 28.4C78.3919 29.3067 78.0719 30.08 77.4319 30.72C76.7919 31.36 76.0185 31.68 75.1119 31.68C74.2052 31.68 73.4319 31.36 72.7919 30.72C72.1519 30.08 71.8319 29.3067 71.8319 28.4C71.8319 27.4933 72.1519 26.72 72.7919 26.08C73.4319 25.44 74.2052 25.12 75.1119 25.12C76.0185 25.12 76.7919 25.44 77.4319 26.08C78.0719 26.72 78.3919 27.4933 78.3919 28.4ZM70.2319 28.4C70.2319 29.3067 69.9119 30.08 69.2719 30.72C68.6319 31.36 67.8585 31.68 66.9519 31.68C66.0452 31.68 65.2719 31.36 64.6319 30.72C63.9919 30.08 63.6719 29.3067 63.6719 28.4C63.6719 27.4933 63.9919 26.72 64.6319 26.08C65.2719 25.44 66.0452 25.12 66.9519 25.12C67.8585 25.12 68.6319 25.44 69.2719 26.08C69.9119 26.72 70.2319 27.4933 70.2319 28.4ZM78.3919 36.56C78.3919 37.4667 78.0719 38.24 77.4319 38.88C76.7919 39.52 76.0185 39.84 75.1119 39.84C74.2052 39.84 73.4319 39.52 72.7919 38.88C72.1519 38.24 71.8319 37.4667 71.8319 36.56C71.8319 35.6533 72.1519 34.88 72.7919 34.24C73.4319 33.6 74.2052 33.28 75.1119 33.28C76.0185 33.28 76.7919 33.6 77.4319 34.24C78.0719 34.88 78.3919 35.6533 78.3919 36.56ZM70.2319 36.56C70.2319 37.4667 69.9119 38.24 69.2719 38.88C68.6319 39.52 67.8585 39.84 66.9519 39.84C66.0452 39.84 65.2719 39.52 64.6319 38.88C63.9919 38.24 63.6719 37.4667 63.6719 36.56C63.6719 35.6533 63.9919 34.88 64.6319 34.24C65.2719 33.6 66.0452 33.28 66.9519 33.28C67.8585 33.28 68.6319 33.6 69.2719 34.24C69.9119 34.88 70.2319 35.6533 70.2319 36.56ZM78.3919 44.72C78.3919 45.6267 78.0719 46.4 77.4319 47.04C76.7919 47.68 76.0185 48 75.1119 48C74.2052 48 73.4319 47.68 72.7919 47.04C72.1519 46.4 71.8319 45.6267 71.8319 44.72C71.8319 43.8133 72.1519 43.04 72.7919 42.4C73.4319 41.76 74.2052 41.44 75.1119 41.44C76.0185 41.44 76.7919 41.76 77.4319 42.4C78.0719 43.04 78.3919 43.8133 78.3919 44.72ZM70.2319 44.72C70.2319 45.6267 69.9119 46.4 69.2719 47.04C68.6319 47.68 67.8585 48 66.9519 48C66.0452 48 65.2719 47.68 64.6319 47.04C63.9919 46.4 63.6719 45.6267 63.6719 44.72C63.6719 43.8133 63.9919 43.04 64.6319 42.4C65.2719 41.76 66.0452 41.44 66.9519 41.44C67.8585 41.44 68.6319 41.76 69.2719 42.4C69.9119 43.04 70.2319 43.8133 70.2319 44.72ZM152.188 41.375C157.75 41.375 161.615 38.5833 163.781 33L171.812 36.0312C170.083 40.2812 167.542 43.4479 164.188 45.5312C160.854 47.5938 156.854 48.625 152.188 48.625C145.104 48.625 139.625 46.625 135.75 42.625C131.896 38.6042 129.969 32.9896 129.969 25.7812C129.969 18.5521 131.833 13 135.562 9.125C139.292 5.25 144.698 3.3125 151.781 3.3125C156.948 3.3125 161.156 4.35417 164.406 6.4375C167.656 8.5 169.938 11.5417 171.25 15.5625L163.125 17.7812C162.438 15.5729 161.083 13.8229 159.062 12.5312C157.062 11.2188 154.698 10.5625 151.969 10.5625C147.802 10.5625 144.635 11.8542 142.469 14.4375C140.323 17.0208 139.25 20.8021 139.25 25.7812C139.25 30.8438 140.354 34.7083 142.562 37.375C144.792 40.0417 148 41.375 152.188 41.375ZM210.188 31.0625C210.188 36.5417 208.667 40.8438 205.625 43.9688C202.583 47.0729 198.375 48.625 193 48.625C187.729 48.625 183.594 47.0625 180.594 43.9375C177.594 40.8125 176.094 36.5208 176.094 31.0625C176.094 25.625 177.594 21.3542 180.594 18.25C183.594 15.125 187.792 13.5625 193.188 13.5625C198.708 13.5625 202.917 15.0729 205.812 18.0938C208.729 21.0938 210.188 25.4167 210.188 31.0625ZM201 31.0625C201 27.0417 200.344 24.125 199.031 22.3125C197.719 20.5 195.812 19.5938 193.312 19.5938C187.979 19.5938 185.312 23.4167 185.312 31.0625C185.312 34.8333 185.958 37.7083 187.25 39.6875C188.562 41.6458 190.448 42.625 192.906 42.625C198.302 42.625 201 38.7708 201 31.0625ZM239.094 48C239.01 47.6875 238.906 46.9062 238.781 45.6562C238.677 44.3854 238.625 43.3333 238.625 42.5H238.5C236.604 46.5833 233 48.625 227.688 48.625C223.75 48.625 220.708 47.0938 218.562 44.0312C216.417 40.9479 215.344 36.6458 215.344 31.125C215.344 25.5208 216.469 21.1979 218.719 18.1562C220.99 15.0938 224.198 13.5625 228.344 13.5625C230.74 13.5625 232.802 14.0625 234.531 15.0625C236.281 16.0625 237.625 17.5521 238.562 19.5312H238.625L238.562 13.9688V1.625H247.344V40.625C247.344 42.7083 247.427 45.1667 247.594 48H239.094ZM238.688 30.9062C238.688 27.2604 238.073 24.4583 236.844 22.5C235.635 20.5208 233.844 19.5312 231.469 19.5312C229.115 19.5312 227.365 20.4896 226.219 22.4062C225.073 24.3021 224.5 27.2083 224.5 31.125C224.5 38.7917 226.802 42.625 231.406 42.625C233.719 42.625 235.51 41.6146 236.781 39.5938C238.052 37.5521 238.688 34.6562 238.688 30.9062ZM270.156 48.625C265.073 48.625 261.167 47.125 258.438 44.125C255.708 41.1042 254.344 36.7083 254.344 30.9375C254.344 25.3542 255.729 21.0625 258.5 18.0625C261.271 15.0625 265.198 13.5625 270.281 13.5625C275.135 13.5625 278.844 15.1771 281.406 18.4062C283.969 21.6146 285.25 26.3229 285.25 32.5312V32.7812H263.562C263.562 36.0729 264.167 38.5625 265.375 40.25C266.604 41.9167 268.344 42.75 270.594 42.75C273.698 42.75 275.656 41.4062 276.469 38.7188L284.75 39.4375C282.354 45.5625 277.49 48.625 270.156 48.625ZM270.156 19.0938C268.094 19.0938 266.5 19.8125 265.375 21.25C264.271 22.6875 263.688 24.6979 263.625 27.2812H276.75C276.583 24.5521 275.927 22.5104 274.781 21.1562C273.635 19.7812 272.094 19.0938 270.156 19.0938Z" fill="url(#paint0_linear_1_10)"/>
<defs>
<linearGradient id="paint0_linear_1_10" x1="11.4778" y1="41" x2="402.906" y2="31.2437" gradientUnits="userSpaceOnUse">
<stop stop-color="#7A4EBE"/>
<stop offset="1" stop-color="#C8C8C8"/>
</linearGradient>
</defs>
</svg>
